  0
SECTION
  2
BLOCKS
  0
ENDSEC
  0
SECTION
  2
ENTITIES
  0
LINE
  8
0
 10
310
 20
130
 11
175
 21
130
  0
LINE
  8
0
 10
175
 20
130
 11
0
 21
65
  0
LINE
  8
0
 10
0
 20
65
 11
0
 21
0
  0
LINE
  8
0
 10
0
 20
0
 11
310
 21
0
  0
LINE
  8
0
 10
310
 20
0
 11
310
 21
130
  0
LINE
  8
0
 10
246.707
 20
116.529
 11
246.426
 21
116.614
  0
LINE
  8
0
 10
246.426
 20
116.614
 11
246.167
 21
116.753
  0
LINE
  8
0
 10
246.167
 20
116.753
 11
245.939
 21
116.939
  0
LINE
  8
0
 10
245.939
 20
116.939
 11
245.753
 21
117.167
  0
LINE
  8
0
 10
245.753
 20
117.167
 11
245.614
 21
117.426
  0
LINE
  8
0
 10
245.614
 20
117.426
 11
245.529
 21
117.707
  0
LINE
  8
0
 10
245.529
 20
117.707
 11
245.5
 21
118
  0
LINE
  8
0
 10
245.5
 20
118
 11
245.529
 21
118.293
  0
LINE
  8
0
 10
245.529
 20
118.293
 11
245.614
 21
118.574
  0
LINE
  8
0
 10
245.614
 20
118.574
 11
245.753
 21
118.833
  0
LINE
  8
0
 10
245.753
 20
118.833
 11
245.939
 21
119.061
  0
LINE
  8
0
 10
245.939
 20
119.061
 11
246.167
 21
119.247
  0
LINE
  8
0
 10
246.167
 20
119.247
 11
246.426
 21
119.386
  0
LINE
  8
0
 10
246.426
 20
119.386
 11
246.707
 21
119.471
  0
LINE
  8
0
 10
246.707
 20
119.471
 11
247
 21
119.5
  0
LINE
  8
0
 10
247
 20
119.5
 11
247.293
 21
119.471
  0
LINE
  8
0
 10
247.293
 20
119.471
 11
247.574
 21
119.386
  0
LINE
  8
0
 10
247.574
 20
119.386
 11
247.833
 21
119.247
  0
LINE
  8
0
 10
247.833
 20
119.247
 11
248.061
 21
119.061
  0
LINE
  8
0
 10
248.061
 20
119.061
 11
248.247
 21
118.833
  0
LINE
  8
0
 10
248.247
 20
118.833
 11
248.386
 21
118.574
  0
LINE
  8
0
 10
248.386
 20
118.574
 11
248.471
 21
118.293
  0
LINE
  8
0
 10
248.471
 20
118.293
 11
248.5
 21
118
  0
LINE
  8
0
 10
248.5
 20
118
 11
248.471
 21
117.707
  0
LINE
  8
0
 10
248.471
 20
117.707
 11
248.386
 21
117.426
  0
LINE
  8
0
 10
248.386
 20
117.426
 11
248.247
 21
117.167
  0
LINE
  8
0
 10
248.247
 20
117.167
 11
248.061
 21
116.939
  0
LINE
  8
0
 10
248.061
 20
116.939
 11
247.833
 21
116.753
  0
LINE
  8
0
 10
247.833
 20
116.753
 11
247.574
 21
116.614
  0
LINE
  8
0
 10
247.574
 20
116.614
 11
247.293
 21
116.529
  0
LINE
  8
0
 10
247.293
 20
116.529
 11
247
 21
116.5
  0
LINE
  8
0
 10
247
 20
116.5
 11
246.707
 21
116.529
  0
LINE
  8
0
 10
250.707
 20
116.529
 11
250.426
 21
116.614
  0
LINE
  8
0
 10
250.426
 20
116.614
 11
250.167
 21
116.753
  0
LINE
  8
0
 10
250.167
 20
116.753
 11
249.939
 21
116.939
  0
LINE
  8
0
 10
249.939
 20
116.939
 11
249.753
 21
117.167
  0
LINE
  8
0
 10
249.753
 20
117.167
 11
249.614
 21
117.426
  0
LINE
  8
0
 10
249.614
 20
117.426
 11
249.529
 21
117.707
  0
LINE
  8
0
 10
249.529
 20
117.707
 11
249.5
 21
118
  0
LINE
  8
0
 10
249.5
 20
118
 11
249.529
 21
118.293
  0
LINE
  8
0
 10
249.529
 20
118.293
 11
249.614
 21
118.574
  0
LINE
  8
0
 10
249.614
 20
118.574
 11
249.753
 21
118.833
  0
LINE
  8
0
 10
249.753
 20
118.833
 11
249.939
 21
119.061
  0
LINE
  8
0
 10
249.939
 20
119.061
 11
250.167
 21
119.247
  0
LINE
  8
0
 10
250.167
 20
119.247
 11
250.426
 21
119.386
  0
LINE
  8
0
 10
250.426
 20
119.386
 11
250.707
 21
119.471
  0
LINE
  8
0
 10
250.707
 20
119.471
 11
251
 21
119.5
  0
LINE
  8
0
 10
251
 20
119.5
 11
251.293
 21
119.471
  0
LINE
  8
0
 10
251.293
 20
119.471
 11
251.574
 21
119.386
  0
LINE
  8
0
 10
251.574
 20
119.386
 11
251.833
 21
119.247
  0
LINE
  8
0
 10
251.833
 20
119.247
 11
252.061
 21
119.061
  0
LINE
  8
0
 10
252.061
 20
119.061
 11
252.247
 21
118.833
  0
LINE
  8
0
 10
252.247
 20
118.833
 11
252.386
 21
118.574
  0
LINE
  8
0
 10
252.386
 20
118.574
 11
252.471
 21
118.293
  0
LINE
  8
0
 10
252.471
 20
118.293
 11
252.5
 21
118
  0
LINE
  8
0
 10
252.5
 20
118
 11
252.471
 21
117.707
  0
LINE
  8
0
 10
252.471
 20
117.707
 11
252.386
 21
117.426
  0
LINE
  8
0
 10
252.386
 20
117.426
 11
252.247
 21
117.167
  0
LINE
  8
0
 10
252.247
 20
117.167
 11
252.061
 21
116.939
  0
LINE
  8
0
 10
252.061
 20
116.939
 11
251.833
 21
116.753
  0
LINE
  8
0
 10
251.833
 20
116.753
 11
251.574
 21
116.614
  0
LINE
  8
0
 10
251.574
 20
116.614
 11
251.293
 21
116.529
  0
LINE
  8
0
 10
251.293
 20
116.529
 11
251
 21
116.5
  0
LINE
  8
0
 10
251
 20
116.5
 11
250.707
 21
116.529
  0
LINE
  8
0
 10
261.529
 20
117.707
 11
261.5
 21
118
  0
LINE
  8
0
 10
261.5
 20
118
 11
261.529
 21
118.293
  0
LINE
  8
0
 10
261.529
 20
118.293
 11
261.614
 21
118.574
  0
LINE
  8
0
 10
261.614
 20
118.574
 11
261.753
 21
118.833
  0
LINE
  8
0
 10
261.753
 20
118.833
 11
261.939
 21
119.061
  0
LINE
  8
0
 10
261.939
 20
119.061
 11
262.167
 21
119.247
  0
LINE
  8
0
 10
262.167
 20
119.247
 11
262.426
 21
119.386
  0
LINE
  8
0
 10
262.426
 20
119.386
 11
262.707
 21
119.471
  0
LINE
  8
0
 10
262.707
 20
119.471
 11
263
 21
119.5
  0
LINE
  8
0
 10
263
 20
119.5
 11
263.293
 21
119.471
  0
LINE
  8
0
 10
263.293
 20
119.471
 11
263.574
 21
119.386
  0
LINE
  8
0
 10
263.574
 20
119.386
 11
263.833
 21
119.247
  0
LINE
  8
0
 10
263.833
 20
119.247
 11
264.061
 21
119.061
  0
LINE
  8
0
 10
264.061
 20
119.061
 11
264.247
 21
118.833
  0
LINE
  8
0
 10
264.247
 20
118.833
 11
264.386
 21
118.574
  0
LINE
  8
0
 10
264.386
 20
118.574
 11
264.471
 21
118.293
  0
LINE
  8
0
 10
264.471
 20
118.293
 11
264.5
 21
118
  0
LINE
  8
0
 10
264.5
 20
118
 11
264.471
 21
117.707
  0
LINE
  8
0
 10
264.471
 20
117.707
 11
264.386
 21
117.426
  0
LINE
  8
0
 10
264.386
 20
117.426
 11
264.247
 21
117.167
  0
LINE
  8
0
 10
264.247
 20
117.167
 11
264.061
 21
116.939
  0
LINE
  8
0
 10
264.061
 20
116.939
 11
263.833
 21
116.753
  0
LINE
  8
0
 10
263.833
 20
116.753
 11
263.574
 21
116.614
  0
LINE
  8
0
 10
263.574
 20
116.614
 11
263.293
 21
116.529
  0
LINE
  8
0
 10
263.293
 20
116.529
 11
263
 21
116.5
  0
LINE
  8
0
 10
263
 20
116.5
 11
262.707
 21
116.529
  0
LINE
  8
0
 10
262.707
 20
116.529
 11
262.426
 21
116.614
  0
LINE
  8
0
 10
262.426
 20
116.614
 11
262.167
 21
116.753
  0
LINE
  8
0
 10
262.167
 20
116.753
 11
261.939
 21
116.939
  0
LINE
  8
0
 10
261.939
 20
116.939
 11
261.753
 21
117.167
  0
LINE
  8
0
 10
261.753
 20
117.167
 11
261.614
 21
117.426
  0
LINE
  8
0
 10
261.614
 20
117.426
 11
261.529
 21
117.707
  0
LINE
  8
0
 10
254.707
 20
116.529
 11
254.426
 21
116.614
  0
LINE
  8
0
 10
254.426
 20
116.614
 11
254.167
 21
116.753
  0
LINE
  8
0
 10
254.167
 20
116.753
 11
253.939
 21
116.939
  0
LINE
  8
0
 10
253.939
 20
116.939
 11
253.753
 21
117.167
  0
LINE
  8
0
 10
253.753
 20
117.167
 11
253.614
 21
117.426
  0
LINE
  8
0
 10
253.614
 20
117.426
 11
253.529
 21
117.707
  0
LINE
  8
0
 10
253.529
 20
117.707
 11
253.5
 21
118
  0
LINE
  8
0
 10
253.5
 20
118
 11
253.529
 21
118.293
  0
LINE
  8
0
 10
253.529
 20
118.293
 11
253.614
 21
118.574
  0
LINE
  8
0
 10
253.614
 20
118.574
 11
253.753
 21
118.833
  0
LINE
  8
0
 10
253.753
 20
118.833
 11
253.939
 21
119.061
  0
LINE
  8
0
 10
253.939
 20
119.061
 11
254.167
 21
119.247
  0
LINE
  8
0
 10
254.167
 20
119.247
 11
254.426
 21
119.386
  0
LINE
  8
0
 10
254.426
 20
119.386
 11
254.707
 21
119.471
  0
LINE
  8
0
 10
254.707
 20
119.471
 11
255
 21
119.5
  0
LINE
  8
0
 10
255
 20
119.5
 11
255.293
 21
119.471
  0
LINE
  8
0
 10
255.293
 20
119.471
 11
255.574
 21
119.386
  0
LINE
  8
0
 10
255.574
 20
119.386
 11
255.833
 21
119.247
  0
LINE
  8
0
 10
255.833
 20
119.247
 11
256.061
 21
119.061
  0
LINE
  8
0
 10
256.061
 20
119.061
 11
256.247
 21
118.833
  0
LINE
  8
0
 10
256.247
 20
118.833
 11
256.386
 21
118.574
  0
LINE
  8
0
 10
256.386
 20
118.574
 11
256.471
 21
118.293
  0
LINE
  8
0
 10
256.471
 20
118.293
 11
256.5
 21
118
  0
LINE
  8
0
 10
256.5
 20
118
 11
256.471
 21
117.707
  0
LINE
  8
0
 10
256.471
 20
117.707
 11
256.386
 21
117.426
  0
LINE
  8
0
 10
256.386
 20
117.426
 11
256.247
 21
117.167
  0
LINE
  8
0
 10
256.247
 20
117.167
 11
256.061
 21
116.939
  0
LINE
  8
0
 10
256.061
 20
116.939
 11
255.833
 21
116.753
  0
LINE
  8
0
 10
255.833
 20
116.753
 11
255.574
 21
116.614
  0
LINE
  8
0
 10
255.574
 20
116.614
 11
255.293
 21
116.529
  0
LINE
  8
0
 10
255.293
 20
116.529
 11
255
 21
116.5
  0
LINE
  8
0
 10
255
 20
116.5
 11
254.707
 21
116.529
  0
LINE
  8
0
 10
238.707
 20
116.529
 11
238.426
 21
116.614
  0
LINE
  8
0
 10
238.426
 20
116.614
 11
238.167
 21
116.753
  0
LINE
  8
0
 10
238.167
 20
116.753
 11
237.939
 21
116.939
  0
LINE
  8
0
 10
237.939
 20
116.939
 11
237.753
 21
117.167
  0
LINE
  8
0
 10
237.753
 20
117.167
 11
237.614
 21
117.426
  0
LINE
  8
0
 10
237.614
 20
117.426
 11
237.529
 21
117.707
  0
LINE
  8
0
 10
237.529
 20
117.707
 11
237.5
 21
118
  0
LINE
  8
0
 10
237.5
 20
118
 11
237.529
 21
118.293
  0
LINE
  8
0
 10
237.529
 20
118.293
 11
237.614
 21
118.574
  0
LINE
  8
0
 10
237.614
 20
118.574
 11
237.753
 21
118.833
  0
LINE
  8
0
 10
237.753
 20
118.833
 11
237.939
 21
119.061
  0
LINE
  8
0
 10
237.939
 20
119.061
 11
238.167
 21
119.247
  0
LINE
  8
0
 10
238.167
 20
119.247
 11
238.426
 21
119.386
  0
LINE
  8
0
 10
238.426
 20
119.386
 11
238.707
 21
119.471
  0
LINE
  8
0
 10
238.707
 20
119.471
 11
239
 21
119.5
  0
LINE
  8
0
 10
239
 20
119.5
 11
239.293
 21
119.471
  0
LINE
  8
0
 10
239.293
 20
119.471
 11
239.574
 21
119.386
  0
LINE
  8
0
 10
239.574
 20
119.386
 11
239.833
 21
119.247
  0
LINE
  8
0
 10
239.833
 20
119.247
 11
240.061
 21
119.061
  0
LINE
  8
0
 10
240.061
 20
119.061
 11
240.247
 21
118.833
  0
LINE
  8
0
 10
240.247
 20
118.833
 11
240.386
 21
118.574
  0
LINE
  8
0
 10
240.386
 20
118.574
 11
240.471
 21
118.293
  0
LINE
  8
0
 10
240.471
 20
118.293
 11
240.5
 21
118
  0
LINE
  8
0
 10
240.5
 20
118
 11
240.471
 21
117.707
  0
LINE
  8
0
 10
240.471
 20
117.707
 11
240.386
 21
117.426
  0
LINE
  8
0
 10
240.386
 20
117.426
 11
240.247
 21
117.167
  0
LINE
  8
0
 10
240.247
 20
117.167
 11
240.061
 21
116.939
  0
LINE
  8
0
 10
240.061
 20
116.939
 11
239.833
 21
116.753
  0
LINE
  8
0
 10
239.833
 20
116.753
 11
239.574
 21
116.614
  0
LINE
  8
0
 10
239.574
 20
116.614
 11
239.293
 21
116.529
  0
LINE
  8
0
 10
239.293
 20
116.529
 11
239
 21
116.5
  0
LINE
  8
0
 10
239
 20
116.5
 11
238.707
 21
116.529
  0
LINE
  8
0
 10
242.707
 20
116.529
 11
242.426
 21
116.614
  0
LINE
  8
0
 10
242.426
 20
116.614
 11
242.167
 21
116.753
  0
LINE
  8
0
 10
242.167
 20
116.753
 11
241.939
 21
116.939
  0
LINE
  8
0
 10
241.939
 20
116.939
 11
241.753
 21
117.167
  0
LINE
  8
0
 10
241.753
 20
117.167
 11
241.614
 21
117.426
  0
LINE
  8
0
 10
241.614
 20
117.426
 11
241.529
 21
117.707
  0
LINE
  8
0
 10
241.529
 20
117.707
 11
241.5
 21
118
  0
LINE
  8
0
 10
241.5
 20
118
 11
241.529
 21
118.293
  0
LINE
  8
0
 10
241.529
 20
118.293
 11
241.614
 21
118.574
  0
LINE
  8
0
 10
241.614
 20
118.574
 11
241.753
 21
118.833
  0
LINE
  8
0
 10
241.753
 20
118.833
 11
241.939
 21
119.061
  0
LINE
  8
0
 10
241.939
 20
119.061
 11
242.167
 21
119.247
  0
LINE
  8
0
 10
242.167
 20
119.247
 11
242.426
 21
119.386
  0
LINE
  8
0
 10
242.426
 20
119.386
 11
242.707
 21
119.471
  0
LINE
  8
0
 10
242.707
 20
119.471
 11
243
 21
119.5
  0
LINE
  8
0
 10
243
 20
119.5
 11
243.293
 21
119.471
  0
LINE
  8
0
 10
243.293
 20
119.471
 11
243.574
 21
119.386
  0
LINE
  8
0
 10
243.574
 20
119.386
 11
243.833
 21
119.247
  0
LINE
  8
0
 10
243.833
 20
119.247
 11
244.061
 21
119.061
  0
LINE
  8
0
 10
244.061
 20
119.061
 11
244.247
 21
118.833
  0
LINE
  8
0
 10
244.247
 20
118.833
 11
244.386
 21
118.574
  0
LINE
  8
0
 10
244.386
 20
118.574
 11
244.471
 21
118.293
  0
LINE
  8
0
 10
244.471
 20
118.293
 11
244.5
 21
118
  0
LINE
  8
0
 10
244.5
 20
118
 11
244.471
 21
117.707
  0
LINE
  8
0
 10
244.471
 20
117.707
 11
244.386
 21
117.426
  0
LINE
  8
0
 10
244.386
 20
117.426
 11
244.247
 21
117.167
  0
LINE
  8
0
 10
244.247
 20
117.167
 11
244.061
 21
116.939
  0
LINE
  8
0
 10
244.061
 20
116.939
 11
243.833
 21
116.753
  0
LINE
  8
0
 10
243.833
 20
116.753
 11
243.574
 21
116.614
  0
LINE
  8
0
 10
243.574
 20
116.614
 11
243.293
 21
116.529
  0
LINE
  8
0
 10
243.293
 20
116.529
 11
243
 21
116.5
  0
LINE
  8
0
 10
243
 20
116.5
 11
242.707
 21
116.529
  0
LINE
  8
0
 10
234.707
 20
116.529
 11
234.426
 21
116.614
  0
LINE
  8
0
 10
234.426
 20
116.614
 11
234.167
 21
116.753
  0
LINE
  8
0
 10
234.167
 20
116.753
 11
233.939
 21
116.939
  0
LINE
  8
0
 10
233.939
 20
116.939
 11
233.753
 21
117.167
  0
LINE
  8
0
 10
233.753
 20
117.167
 11
233.614
 21
117.426
  0
LINE
  8
0
 10
233.614
 20
117.426
 11
233.529
 21
117.707
  0
LINE
  8
0
 10
233.529
 20
117.707
 11
233.5
 21
118
  0
LINE
  8
0
 10
233.5
 20
118
 11
233.529
 21
118.293
  0
LINE
  8
0
 10
233.529
 20
118.293
 11
233.614
 21
118.574
  0
LINE
  8
0
 10
233.614
 20
118.574
 11
233.753
 21
118.833
  0
LINE
  8
0
 10
233.753
 20
118.833
 11
233.939
 21
119.061
  0
LINE
  8
0
 10
233.939
 20
119.061
 11
234.167
 21
119.247
  0
LINE
  8
0
 10
234.167
 20
119.247
 11
234.426
 21
119.386
  0
LINE
  8
0
 10
234.426
 20
119.386
 11
234.707
 21
119.471
  0
LINE
  8
0
 10
234.707
 20
119.471
 11
235
 21
119.5
  0
LINE
  8
0
 10
235
 20
119.5
 11
235.293
 21
119.471
  0
LINE
  8
0
 10
235.293
 20
119.471
 11
235.574
 21
119.386
  0
LINE
  8
0
 10
235.574
 20
119.386
 11
235.833
 21
119.247
  0
LINE
  8
0
 10
235.833
 20
119.247
 11
236.061
 21
119.061
  0
LINE
  8
0
 10
236.061
 20
119.061
 11
236.247
 21
118.833
  0
LINE
  8
0
 10
236.247
 20
118.833
 11
236.386
 21
118.574
  0
LINE
  8
0
 10
236.386
 20
118.574
 11
236.471
 21
118.293
  0
LINE
  8
0
 10
236.471
 20
118.293
 11
236.5
 21
118
  0
LINE
  8
0
 10
236.5
 20
118
 11
236.471
 21
117.707
  0
LINE
  8
0
 10
236.471
 20
117.707
 11
236.386
 21
117.426
  0
LINE
  8
0
 10
236.386
 20
117.426
 11
236.247
 21
117.167
  0
LINE
  8
0
 10
236.247
 20
117.167
 11
236.061
 21
116.939
  0
LINE
  8
0
 10
236.061
 20
116.939
 11
235.833
 21
116.753
  0
LINE
  8
0
 10
235.833
 20
116.753
 11
235.574
 21
116.614
  0
LINE
  8
0
 10
235.574
 20
116.614
 11
235.293
 21
116.529
  0
LINE
  8
0
 10
235.293
 20
116.529
 11
235
 21
116.5
  0
LINE
  8
0
 10
235
 20
116.5
 11
234.707
 21
116.529
  0
LINE
  8
0
 10
262.707
 20
112.529
 11
262.426
 21
112.614
  0
LINE
  8
0
 10
262.426
 20
112.614
 11
262.167
 21
112.753
  0
LINE
  8
0
 10
262.167
 20
112.753
 11
261.939
 21
112.939
  0
LINE
  8
0
 10
261.939
 20
112.939
 11
261.753
 21
113.167
  0
LINE
  8
0
 10
261.753
 20
113.167
 11
261.614
 21
113.426
  0
LINE
  8
0
 10
261.614
 20
113.426
 11
261.529
 21
113.707
  0
LINE
  8
0
 10
261.529
 20
113.707
 11
261.5
 21
114
  0
LINE
  8
0
 10
261.5
 20
114
 11
261.529
 21
114.293
  0
LINE
  8
0
 10
261.529
 20
114.293
 11
261.614
 21
114.574
  0
LINE
  8
0
 10
261.614
 20
114.574
 11
261.753
 21
114.833
  0
LINE
  8
0
 10
261.753
 20
114.833
 11
261.939
 21
115.061
  0
LINE
  8
0
 10
261.939
 20
115.061
 11
262.167
 21
115.247
  0
LINE
  8
0
 10
262.167
 20
115.247
 11
262.426
 21
115.386
  0
LINE
  8
0
 10
262.426
 20
115.386
 11
262.707
 21
115.471
  0
LINE
  8
0
 10
262.707
 20
115.471
 11
263
 21
115.5
  0
LINE
  8
0
 10
263
 20
115.5
 11
263.293
 21
115.471
  0
LINE
  8
0
 10
263.293
 20
115.471
 11
263.574
 21
115.386
  0
LINE
  8
0
 10
263.574
 20
115.386
 11
263.833
 21
115.247
  0
LINE
  8
0
 10
263.833
 20
115.247
 11
264.061
 21
115.061
  0
LINE
  8
0
 10
264.061
 20
115.061
 11
264.247
 21
114.833
  0
LINE
  8
0
 10
264.247
 20
114.833
 11
264.386
 21
114.574
  0
LINE
  8
0
 10
264.386
 20
114.574
 11
264.471
 21
114.293
  0
LINE
  8
0
 10
264.471
 20
114.293
 11
264.5
 21
114
  0
LINE
  8
0
 10
264.5
 20
114
 11
264.471
 21
113.707
  0
LINE
  8
0
 10
264.471
 20
113.707
 11
264.386
 21
113.426
  0
LINE
  8
0
 10
264.386
 20
113.426
 11
264.247
 21
113.167
  0
LINE
  8
0
 10
264.247
 20
113.167
 11
264.061
 21
112.939
  0
LINE
  8
0
 10
264.061
 20
112.939
 11
263.833
 21
112.753
  0
LINE
  8
0
 10
263.833
 20
112.753
 11
263.574
 21
112.614
  0
LINE
  8
0
 10
263.574
 20
112.614
 11
263.293
 21
112.529
  0
LINE
  8
0
 10
263.293
 20
112.529
 11
263
 21
112.5
  0
LINE
  8
0
 10
263
 20
112.5
 11
262.707
 21
112.529
  0
LINE
  8
0
 10
257.529
 20
113.707
 11
257.5
 21
114
  0
LINE
  8
0
 10
257.5
 20
114
 11
257.529
 21
114.293
  0
LINE
  8
0
 10
257.529
 20
114.293
 11
257.614
 21
114.574
  0
LINE
  8
0
 10
257.614
 20
114.574
 11
257.753
 21
114.833
  0
LINE
  8
0
 10
257.753
 20
114.833
 11
257.939
 21
115.061
  0
LINE
  8
0
 10
257.939
 20
115.061
 11
258.167
 21
115.247
  0
LINE
  8
0
 10
258.167
 20
115.247
 11
258.426
 21
115.386
  0
LINE
  8
0
 10
258.426
 20
115.386
 11
258.707
 21
115.471
  0
LINE
  8
0
 10
258.707
 20
115.471
 11
259
 21
115.5
  0
LINE
  8
0
 10
259
 20
115.5
 11
259.293
 21
115.471
  0
LINE
  8
0
 10
259.293
 20
115.471
 11
259.574
 21
115.386
  0
LINE
  8
0
 10
259.574
 20
115.386
 11
259.833
 21
115.247
  0
LINE
  8
0
 10
259.833
 20
115.247
 11
260.061
 21
115.061
  0
LINE
  8
0
 10
260.061
 20
115.061
 11
260.247
 21
114.833
  0
LINE
  8
0
 10
260.247
 20
114.833
 11
260.386
 21
114.574
  0
LINE
  8
0
 10
260.386
 20
114.574
 11
260.471
 21
114.293
  0
LINE
  8
0
 10
260.471
 20
114.293
 11
260.5
 21
114
  0
LINE
  8
0
 10
260.5
 20
114
 11
260.471
 21
113.707
  0
LINE
  8
0
 10
260.471
 20
113.707
 11
260.386
 21
113.426
  0
LINE
  8
0
 10
260.386
 20
113.426
 11
260.247
 21
113.167
  0
LINE
  8
0
 10
260.247
 20
113.167
 11
260.061
 21
112.939
  0
LINE
  8
0
 10
260.061
 20
112.939
 11
259.833
 21
112.753
  0
LINE
  8
0
 10
259.833
 20
112.753
 11
259.574
 21
112.614
  0
LINE
  8
0
 10
259.574
 20
112.614
 11
259.293
 21
112.529
  0
LINE
  8
0
 10
259.293
 20
112.529
 11
259
 21
112.5
  0
LINE
  8
0
 10
259
 20
112.5
 11
258.707
 21
112.529
  0
LINE
  8
0
 10
258.707
 20
112.529
 11
258.426
 21
112.614
  0
LINE
  8
0
 10
258.426
 20
112.614
 11
258.167
 21
112.753
  0
LINE
  8
0
 10
258.167
 20
112.753
 11
257.939
 21
112.939
  0
LINE
  8
0
 10
257.939
 20
112.939
 11
257.753
 21
113.167
  0
LINE
  8
0
 10
257.753
 20
113.167
 11
257.614
 21
113.426
  0
LINE
  8
0
 10
257.614
 20
113.426
 11
257.529
 21
113.707
  0
LINE
  8
0
 10
234.707
 20
112.529
 11
234.426
 21
112.614
  0
LINE
  8
0
 10
234.426
 20
112.614
 11
234.167
 21
112.753
  0
LINE
  8
0
 10
234.167
 20
112.753
 11
233.939
 21
112.939
  0
LINE
  8
0
 10
233.939
 20
112.939
 11
233.753
 21
113.167
  0
LINE
  8
0
 10
233.753
 20
113.167
 11
233.614
 21
113.426
  0
LINE
  8
0
 10
233.614
 20
113.426
 11
233.529
 21
113.707
  0
LINE
  8
0
 10
233.529
 20
113.707
 11
233.5
 21
114
  0
LINE
  8
0
 10
233.5
 20
114
 11
233.529
 21
114.293
  0
LINE
  8
0
 10
233.529
 20
114.293
 11
233.614
 21
114.574
  0
LINE
  8
0
 10
233.614
 20
114.574
 11
233.753
 21
114.833
  0
LINE
  8
0
 10
233.753
 20
114.833
 11
233.939
 21
115.061
  0
LINE
  8
0
 10
233.939
 20
115.061
 11
234.167
 21
115.247
  0
LINE
  8
0
 10
234.167
 20
115.247
 11
234.426
 21
115.386
  0
LINE
  8
0
 10
234.426
 20
115.386
 11
234.707
 21
115.471
  0
LINE
  8
0
 10
234.707
 20
115.471
 11
235
 21
115.5
  0
LINE
  8
0
 10
235
 20
115.5
 11
235.293
 21
115.471
  0
LINE
  8
0
 10
235.293
 20
115.471
 11
235.574
 21
115.386
  0
LINE
  8
0
 10
235.574
 20
115.386
 11
235.833
 21
115.247
  0
LINE
  8
0
 10
235.833
 20
115.247
 11
236.061
 21
115.061
  0
LINE
  8
0
 10
236.061
 20
115.061
 11
236.247
 21
114.833
  0
LINE
  8
0
 10
236.247
 20
114.833
 11
236.386
 21
114.574
  0
LINE
  8
0
 10
236.386
 20
114.574
 11
236.471
 21
114.293
  0
LINE
  8
0
 10
236.471
 20
114.293
 11
236.5
 21
114
  0
LINE
  8
0
 10
236.5
 20
114
 11
236.471
 21
113.707
  0
LINE
  8
0
 10
236.471
 20
113.707
 11
236.386
 21
113.426
  0
LINE
  8
0
 10
236.386
 20
113.426
 11
236.247
 21
113.167
  0
LINE
  8
0
 10
236.247
 20
113.167
 11
236.061
 21
112.939
  0
LINE
  8
0
 10
236.061
 20
112.939
 11
235.833
 21
112.753
  0
LINE
  8
0
 10
235.833
 20
112.753
 11
235.574
 21
112.614
  0
LINE
  8
0
 10
235.574
 20
112.614
 11
235.293
 21
112.529
  0
LINE
  8
0
 10
235.293
 20
112.529
 11
235
 21
112.5
  0
LINE
  8
0
 10
235
 20
112.5
 11
234.707
 21
112.529
  0
LINE
  8
0
 10
250.707
 20
112.529
 11
250.426
 21
112.614
  0
LINE
  8
0
 10
250.426
 20
112.614
 11
250.167
 21
112.753
  0
LINE
  8
0
 10
250.167
 20
112.753
 11
249.939
 21
112.939
  0
LINE
  8
0
 10
249.939
 20
112.939
 11
249.753
 21
113.167
  0
LINE
  8
0
 10
249.753
 20
113.167
 11
249.614
 21
113.426
  0
LINE
  8
0
 10
249.614
 20
113.426
 11
249.529
 21
113.707
  0
LINE
  8
0
 10
249.529
 20
113.707
 11
249.5
 21
114
  0
LINE
  8
0
 10
249.5
 20
114
 11
249.529
 21
114.293
  0
LINE
  8
0
 10
249.529
 20
114.293
 11
249.614
 21
114.574
  0
LINE
  8
0
 10
249.614
 20
114.574
 11
249.753
 21
114.833
  0
LINE
  8
0
 10
249.753
 20
114.833
 11
249.939
 21
115.061
  0
LINE
  8
0
 10
249.939
 20
115.061
 11
250.167
 21
115.247
  0
LINE
  8
0
 10
250.167
 20
115.247
 11
250.426
 21
115.386
  0
LINE
  8
0
 10
250.426
 20
115.386
 11
250.707
 21
115.471
  0
LINE
  8
0
 10
250.707
 20
115.471
 11
251
 21
115.5
  0
LINE
  8
0
 10
251
 20
115.5
 11
251.293
 21
115.471
  0
LINE
  8
0
 10
251.293
 20
115.471
 11
251.574
 21
115.386
  0
LINE
  8
0
 10
251.574
 20
115.386
 11
251.833
 21
115.247
  0
LINE
  8
0
 10
251.833
 20
115.247
 11
252.061
 21
115.061
  0
LINE
  8
0
 10
252.061
 20
115.061
 11
252.247
 21
114.833
  0
LINE
  8
0
 10
252.247
 20
114.833
 11
252.386
 21
114.574
  0
LINE
  8
0
 10
252.386
 20
114.574
 11
252.471
 21
114.293
  0
LINE
  8
0
 10
252.471
 20
114.293
 11
252.5
 21
114
  0
LINE
  8
0
 10
252.5
 20
114
 11
252.471
 21
113.707
  0
LINE
  8
0
 10
252.471
 20
113.707
 11
252.386
 21
113.426
  0
LINE
  8
0
 10
252.386
 20
113.426
 11
252.247
 21
113.167
  0
LINE
  8
0
 10
252.247
 20
113.167
 11
252.061
 21
112.939
  0
LINE
  8
0
 10
252.061
 20
112.939
 11
251.833
 21
112.753
  0
LINE
  8
0
 10
251.833
 20
112.753
 11
251.574
 21
112.614
  0
LINE
  8
0
 10
251.574
 20
112.614
 11
251.293
 21
112.529
  0
LINE
  8
0
 10
251.293
 20
112.529
 11
251
 21
112.5
  0
LINE
  8
0
 10
251
 20
112.5
 11
250.707
 21
112.529
  0
LINE
  8
0
 10
242.426
 20
115.386
 11
242.707
 21
115.471
  0
LINE
  8
0
 10
242.707
 20
115.471
 11
243
 21
115.5
  0
LINE
  8
0
 10
243
 20
115.5
 11
243.293
 21
115.471
  0
LINE
  8
0
 10
243.293
 20
115.471
 11
243.574
 21
115.386
  0
LINE
  8
0
 10
243.574
 20
115.386
 11
243.833
 21
115.247
  0
LINE
  8
0
 10
243.833
 20
115.247
 11
244.061
 21
115.061
  0
LINE
  8
0
 10
244.061
 20
115.061
 11
244.247
 21
114.833
  0
LINE
  8
0
 10
244.247
 20
114.833
 11
244.386
 21
114.574
  0
LINE
  8
0
 10
244.386
 20
114.574
 11
244.471
 21
114.293
  0
LINE
  8
0
 10
244.471
 20
114.293
 11
244.5
 21
114
  0
LINE
  8
0
 10
244.5
 20
114
 11
244.471
 21
113.707
  0
LINE
  8
0
 10
244.471
 20
113.707
 11
244.386
 21
113.426
  0
LINE
  8
0
 10
244.386
 20
113.426
 11
244.247
 21
113.167
  0
LINE
  8
0
 10
244.247
 20
113.167
 11
244.061
 21
112.939
  0
LINE
  8
0
 10
244.061
 20
112.939
 11
243.833
 21
112.753
  0
LINE
  8
0
 10
243.833
 20
112.753
 11
243.574
 21
112.614
  0
LINE
  8
0
 10
243.574
 20
112.614
 11
243.293
 21
112.529
  0
LINE
  8
0
 10
243.293
 20
112.529
 11
243
 21
112.5
  0
LINE
  8
0
 10
243
 20
112.5
 11
242.707
 21
112.529
  0
LINE
  8
0
 10
242.707
 20
112.529
 11
242.426
 21
112.614
  0
LINE
  8
0
 10
242.426
 20
112.614
 11
242.167
 21
112.753
  0
LINE
  8
0
 10
242.167
 20
112.753
 11
241.939
 21
112.939
  0
LINE
  8
0
 10
241.939
 20
112.939
 11
241.753
 21
113.167
  0
LINE
  8
0
 10
241.753
 20
113.167
 11
241.614
 21
113.426
  0
LINE
  8
0
 10
241.614
 20
113.426
 11
241.529
 21
113.707
  0
LINE
  8
0
 10
241.529
 20
113.707
 11
241.5
 21
114
  0
LINE
  8
0
 10
241.5
 20
114
 11
241.529
 21
114.293
  0
LINE
  8
0
 10
241.529
 20
114.293
 11
241.614
 21
114.574
  0
LINE
  8
0
 10
241.614
 20
114.574
 11
241.753
 21
114.833
  0
LINE
  8
0
 10
241.753
 20
114.833
 11
241.939
 21
115.061
  0
LINE
  8
0
 10
241.939
 20
115.061
 11
242.167
 21
115.247
  0
LINE
  8
0
 10
242.167
 20
115.247
 11
242.426
 21
115.386
  0
LINE
  8
0
 10
246.707
 20
112.529
 11
246.426
 21
112.614
  0
LINE
  8
0
 10
246.426
 20
112.614
 11
246.167
 21
112.753
  0
LINE
  8
0
 10
246.167
 20
112.753
 11
245.939
 21
112.939
  0
LINE
  8
0
 10
245.939
 20
112.939
 11
245.753
 21
113.167
  0
LINE
  8
0
 10
245.753
 20
113.167
 11
245.614
 21
113.426
  0
LINE
  8
0
 10
245.614
 20
113.426
 11
245.529
 21
113.707
  0
LINE
  8
0
 10
245.529
 20
113.707
 11
245.5
 21
114
  0
LINE
  8
0
 10
245.5
 20
114
 11
245.529
 21
114.293
  0
LINE
  8
0
 10
245.529
 20
114.293
 11
245.614
 21
114.574
  0
LINE
  8
0
 10
245.614
 20
114.574
 11
245.753
 21
114.833
  0
LINE
  8
0
 10
245.753
 20
114.833
 11
245.939
 21
115.061
  0
LINE
  8
0
 10
245.939
 20
115.061
 11
246.167
 21
115.247
  0
LINE
  8
0
 10
246.167
 20
115.247
 11
246.426
 21
115.386
  0
LINE
  8
0
 10
246.426
 20
115.386
 11
246.707
 21
115.471
  0
LINE
  8
0
 10
246.707
 20
115.471
 11
247
 21
115.5
  0
LINE
  8
0
 10
247
 20
115.5
 11
247.293
 21
115.471
  0
LINE
  8
0
 10
247.293
 20
115.471
 11
247.574
 21
115.386
  0
LINE
  8
0
 10
247.574
 20
115.386
 11
247.833
 21
115.247
  0
LINE
  8
0
 10
247.833
 20
115.247
 11
248.061
 21
115.061
  0
LINE
  8
0
 10
248.061
 20
115.061
 11
248.247
 21
114.833
  0
LINE
  8
0
 10
248.247
 20
114.833
 11
248.386
 21
114.574
  0
LINE
  8
0
 10
248.386
 20
114.574
 11
248.471
 21
114.293
  0
LINE
  8
0
 10
248.471
 20
114.293
 11
248.5
 21
114
  0
LINE
  8
0
 10
248.5
 20
114
 11
248.471
 21
113.707
  0
LINE
  8
0
 10
248.471
 20
113.707
 11
248.386
 21
113.426
  0
LINE
  8
0
 10
248.386
 20
113.426
 11
248.247
 21
113.167
  0
LINE
  8
0
 10
248.247
 20
113.167
 11
248.061
 21
112.939
  0
LINE
  8
0
 10
248.061
 20
112.939
 11
247.833
 21
112.753
  0
LINE
  8
0
 10
247.833
 20
112.753
 11
247.574
 21
112.614
  0
LINE
  8
0
 10
247.574
 20
112.614
 11
247.293
 21
112.529
  0
LINE
  8
0
 10
247.293
 20
112.529
 11
247
 21
112.5
  0
LINE
  8
0
 10
247
 20
112.5
 11
246.707
 21
112.529
  0
LINE
  8
0
 10
246.707
 20
108.529
 11
246.426
 21
108.614
  0
LINE
  8
0
 10
246.426
 20
108.614
 11
246.167
 21
108.753
  0
LINE
  8
0
 10
246.167
 20
108.753
 11
245.939
 21
108.939
  0
LINE
  8
0
 10
245.939
 20
108.939
 11
245.753
 21
109.167
  0
LINE
  8
0
 10
245.753
 20
109.167
 11
245.614
 21
109.426
  0
LINE
  8
0
 10
245.614
 20
109.426
 11
245.529
 21
109.707
  0
LINE
  8
0
 10
245.529
 20
109.707
 11
245.5
 21
110
  0
LINE
  8
0
 10
245.5
 20
110
 11
245.529
 21
110.293
  0
LINE
  8
0
 10
245.529
 20
110.293
 11
245.614
 21
110.574
  0
LINE
  8
0
 10
245.614
 20
110.574
 11
245.753
 21
110.833
  0
LINE
  8
0
 10
245.753
 20
110.833
 11
245.939
 21
111.061
  0
LINE
  8
0
 10
245.939
 20
111.061
 11
246.167
 21
111.247
  0
LINE
  8
0
 10
246.167
 20
111.247
 11
246.426
 21
111.386
  0
LINE
  8
0
 10
246.426
 20
111.386
 11
246.707
 21
111.471
  0
LINE
  8
0
 10
246.707
 20
111.471
 11
247
 21
111.5
  0
LINE
  8
0
 10
247
 20
111.5
 11
247.293
 21
111.471
  0
LINE
  8
0
 10
247.293
 20
111.471
 11
247.574
 21
111.386
  0
LINE
  8
0
 10
247.574
 20
111.386
 11
247.833
 21
111.247
  0
LINE
  8
0
 10
247.833
 20
111.247
 11
248.061
 21
111.061
  0
LINE
  8
0
 10
248.061
 20
111.061
 11
248.247
 21
110.833
  0
LINE
  8
0
 10
248.247
 20
110.833
 11
248.386
 21
110.574
  0
LINE
  8
0
 10
248.386
 20
110.574
 11
248.471
 21
110.293
  0
LINE
  8
0
 10
248.471
 20
110.293
 11
248.5
 21
110
  0
LINE
  8
0
 10
248.5
 20
110
 11
248.471
 21
109.707
  0
LINE
  8
0
 10
248.471
 20
109.707
 11
248.386
 21
109.426
  0
LINE
  8
0
 10
248.386
 20
109.426
 11
248.247
 21
109.167
  0
LINE
  8
0
 10
248.247
 20
109.167
 11
248.061
 21
108.939
  0
LINE
  8
0
 10
248.061
 20
108.939
 11
247.833
 21
108.753
  0
LINE
  8
0
 10
247.833
 20
108.753
 11
247.574
 21
108.614
  0
LINE
  8
0
 10
247.574
 20
108.614
 11
247.293
 21
108.529
  0
LINE
  8
0
 10
247.293
 20
108.529
 11
247
 21
108.5
  0
LINE
  8
0
 10
247
 20
108.5
 11
246.707
 21
108.529
  0
LINE
  8
0
 10
238.707
 20
108.529
 11
238.426
 21
108.614
  0
LINE
  8
0
 10
238.426
 20
108.614
 11
238.167
 21
108.753
  0
LINE
  8
0
 10
238.167
 20
108.753
 11
237.939
 21
108.939
  0
LINE
  8
0
 10
237.939
 20
108.939
 11
237.753
 21
109.167
  0
LINE
  8
0
 10
237.753
 20
109.167
 11
237.614
 21
109.426
  0
LINE
  8
0
 10
237.614
 20
109.426
 11
237.529
 21
109.707
  0
LINE
  8
0
 10
237.529
 20
109.707
 11
237.5
 21
110
  0
LINE
  8
0
 10
237.5
 20
110
 11
237.529
 21
110.293
  0
LINE
  8
0
 10
237.529
 20
110.293
 11
237.614
 21
110.574
  0
LINE
  8
0
 10
237.614
 20
110.574
 11
237.753
 21
110.833
  0
LINE
  8
0
 10
237.753
 20
110.833
 11
237.939
 21
111.061
  0
LINE
  8
0
 10
237.939
 20
111.061
 11
238.167
 21
111.247
  0
LINE
  8
0
 10
238.167
 20
111.247
 11
238.426
 21
111.386
  0
LINE
  8
0
 10
238.426
 20
111.386
 11
238.707
 21
111.471
  0
LINE
  8
0
 10
238.707
 20
111.471
 11
239
 21
111.5
  0
LINE
  8
0
 10
239
 20
111.5
 11
239.293
 21
111.471
  0
LINE
  8
0
 10
239.293
 20
111.471
 11
239.574
 21
111.386
  0
LINE
  8
0
 10
239.574
 20
111.386
 11
239.833
 21
111.247
  0
LINE
  8
0
 10
239.833
 20
111.247
 11
240.061
 21
111.061
  0
LINE
  8
0
 10
240.061
 20
111.061
 11
240.247
 21
110.833
  0
LINE
  8
0
 10
240.247
 20
110.833
 11
240.386
 21
110.574
  0
LINE
  8
0
 10
240.386
 20
110.574
 11
240.471
 21
110.293
  0
LINE
  8
0
 10
240.471
 20
110.293
 11
240.5
 21
110
  0
LINE
  8
0
 10
240.5
 20
110
 11
240.471
 21
109.707
  0
LINE
  8
0
 10
240.471
 20
109.707
 11
240.386
 21
109.426
  0
LINE
  8
0
 10
240.386
 20
109.426
 11
240.247
 21
109.167
  0
LINE
  8
0
 10
240.247
 20
109.167
 11
240.061
 21
108.939
  0
LINE
  8
0
 10
240.061
 20
108.939
 11
239.833
 21
108.753
  0
LINE
  8
0
 10
239.833
 20
108.753
 11
239.574
 21
108.614
  0
LINE
  8
0
 10
239.574
 20
108.614
 11
239.293
 21
108.529
  0
LINE
  8
0
 10
239.293
 20
108.529
 11
239
 21
108.5
  0
LINE
  8
0
 10
239
 20
108.5
 11
238.707
 21
108.529
  0
LINE
  8
0
 10
262.707
 20
108.529
 11
262.426
 21
108.614
  0
LINE
  8
0
 10
262.426
 20
108.614
 11
262.167
 21
108.753
  0
LINE
  8
0
 10
262.167
 20
108.753
 11
261.939
 21
108.939
  0
LINE
  8
0
 10
261.939
 20
108.939
 11
261.753
 21
109.167
  0
LINE
  8
0
 10
261.753
 20
109.167
 11
261.614
 21
109.426
  0
LINE
  8
0
 10
261.614
 20
109.426
 11
261.529
 21
109.707
  0
LINE
  8
0
 10
261.529
 20
109.707
 11
261.5
 21
110
  0
LINE
  8
0
 10
261.5
 20
110
 11
261.529
 21
110.293
  0
LINE
  8
0
 10
261.529
 20
110.293
 11
261.614
 21
110.574
  0
LINE
  8
0
 10
261.614
 20
110.574
 11
261.753
 21
110.833
  0
LINE
  8
0
 10
261.753
 20
110.833
 11
261.939
 21
111.061
  0
LINE
  8
0
 10
261.939
 20
111.061
 11
262.167
 21
111.247
  0
LINE
  8
0
 10
262.167
 20
111.247
 11
262.426
 21
111.386
  0
LINE
  8
0
 10
262.426
 20
111.386
 11
262.707
 21
111.471
  0
LINE
  8
0
 10
262.707
 20
111.471
 11
263
 21
111.5
  0
LINE
  8
0
 10
263
 20
111.5
 11
263.293
 21
111.471
  0
LINE
  8
0
 10
263.293
 20
111.471
 11
263.574
 21
111.386
  0
LINE
  8
0
 10
263.574
 20
111.386
 11
263.833
 21
111.247
  0
LINE
  8
0
 10
263.833
 20
111.247
 11
264.061
 21
111.061
  0
LINE
  8
0
 10
264.061
 20
111.061
 11
264.247
 21
110.833
  0
LINE
  8
0
 10
264.247
 20
110.833
 11
264.386
 21
110.574
  0
LINE
  8
0
 10
264.386
 20
110.574
 11
264.471
 21
110.293
  0
LINE
  8
0
 10
264.471
 20
110.293
 11
264.5
 21
110
  0
LINE
  8
0
 10
264.5
 20
110
 11
264.471
 21
109.707
  0
LINE
  8
0
 10
264.471
 20
109.707
 11
264.386
 21
109.426
  0
LINE
  8
0
 10
264.386
 20
109.426
 11
264.247
 21
109.167
  0
LINE
  8
0
 10
264.247
 20
109.167
 11
264.061
 21
108.939
  0
LINE
  8
0
 10
264.061
 20
108.939
 11
263.833
 21
108.753
  0
LINE
  8
0
 10
263.833
 20
108.753
 11
263.574
 21
108.614
  0
LINE
  8
0
 10
263.574
 20
108.614
 11
263.293
 21
108.529
  0
LINE
  8
0
 10
263.293
 20
108.529
 11
263
 21
108.5
  0
LINE
  8
0
 10
263
 20
108.5
 11
262.707
 21
108.529
  0
LINE
  8
0
 10
253.614
 20
109.426
 11
253.529
 21
109.707
  0
LINE
  8
0
 10
253.529
 20
109.707
 11
253.5
 21
110
  0
LINE
  8
0
 10
253.5
 20
110
 11
253.529
 21
110.293
  0
LINE
  8
0
 10
253.529
 20
110.293
 11
253.614
 21
110.574
  0
LINE
  8
0
 10
253.614
 20
110.574
 11
253.753
 21
110.833
  0
LINE
  8
0
 10
253.753
 20
110.833
 11
253.939
 21
111.061
  0
LINE
  8
0
 10
253.939
 20
111.061
 11
254.167
 21
111.247
  0
LINE
  8
0
 10
254.167
 20
111.247
 11
254.426
 21
111.386
  0
LINE
  8
0
 10
254.426
 20
111.386
 11
254.707
 21
111.471
  0
LINE
  8
0
 10
254.707
 20
111.471
 11
255
 21
111.5
  0
LINE
  8
0
 10
255
 20
111.5
 11
255.293
 21
111.471
  0
LINE
  8
0
 10
255.293
 20
111.471
 11
255.574
 21
111.386
  0
LINE
  8
0
 10
255.574
 20
111.386
 11
255.833
 21
111.247
  0
LINE
  8
0
 10
255.833
 20
111.247
 11
256.061
 21
111.061
  0
LINE
  8
0
 10
256.061
 20
111.061
 11
256.247
 21
110.833
  0
LINE
  8
0
 10
256.247
 20
110.833
 11
256.386
 21
110.574
  0
LINE
  8
0
 10
256.386
 20
110.574
 11
256.471
 21
110.293
  0
LINE
  8
0
 10
256.471
 20
110.293
 11
256.5
 21
110
  0
LINE
  8
0
 10
256.5
 20
110
 11
256.471
 21
109.707
  0
LINE
  8
0
 10
256.471
 20
109.707
 11
256.386
 21
109.426
  0
LINE
  8
0
 10
256.386
 20
109.426
 11
256.247
 21
109.167
  0
LINE
  8
0
 10
256.247
 20
109.167
 11
256.061
 21
108.939
  0
LINE
  8
0
 10
256.061
 20
108.939
 11
255.833
 21
108.753
  0
LINE
  8
0
 10
255.833
 20
108.753
 11
255.574
 21
108.614
  0
LINE
  8
0
 10
255.574
 20
108.614
 11
255.293
 21
108.529
  0
LINE
  8
0
 10
255.293
 20
108.529
 11
255
 21
108.5
  0
LINE
  8
0
 10
255
 20
108.5
 11
254.707
 21
108.529
  0
LINE
  8
0
 10
254.707
 20
108.529
 11
254.426
 21
108.614
  0
LINE
  8
0
 10
254.426
 20
108.614
 11
254.167
 21
108.753
  0
LINE
  8
0
 10
254.167
 20
108.753
 11
253.939
 21
108.939
  0
LINE
  8
0
 10
253.939
 20
108.939
 11
253.753
 21
109.167
  0
LINE
  8
0
 10
253.753
 20
109.167
 11
253.614
 21
109.426
  0
LINE
  8
0
 10
234.707
 20
108.529
 11
234.426
 21
108.614
  0
LINE
  8
0
 10
234.426
 20
108.614
 11
234.167
 21
108.753
  0
LINE
  8
0
 10
234.167
 20
108.753
 11
233.939
 21
108.939
  0
LINE
  8
0
 10
233.939
 20
108.939
 11
233.753
 21
109.167
  0
LINE
  8
0
 10
233.753
 20
109.167
 11
233.614
 21
109.426
  0
LINE
  8
0
 10
233.614
 20
109.426
 11
233.529
 21
109.707
  0
LINE
  8
0
 10
233.529
 20
109.707
 11
233.5
 21
110
  0
LINE
  8
0
 10
233.5
 20
110
 11
233.529
 21
110.293
  0
LINE
  8
0
 10
233.529
 20
110.293
 11
233.614
 21
110.574
  0
LINE
  8
0
 10
233.614
 20
110.574
 11
233.753
 21
110.833
  0
LINE
  8
0
 10
233.753
 20
110.833
 11
233.939
 21
111.061
  0
LINE
  8
0
 10
233.939
 20
111.061
 11
234.167
 21
111.247
  0
LINE
  8
0
 10
234.167
 20
111.247
 11
234.426
 21
111.386
  0
LINE
  8
0
 10
234.426
 20
111.386
 11
234.707
 21
111.471
  0
LINE
  8
0
 10
234.707
 20
111.471
 11
235
 21
111.5
  0
LINE
  8
0
 10
235
 20
111.5
 11
235.293
 21
111.471
  0
LINE
  8
0
 10
235.293
 20
111.471
 11
235.574
 21
111.386
  0
LINE
  8
0
 10
235.574
 20
111.386
 11
235.833
 21
111.247
  0
LINE
  8
0
 10
235.833
 20
111.247
 11
236.061
 21
111.061
  0
LINE
  8
0
 10
236.061
 20
111.061
 11
236.247
 21
110.833
  0
LINE
  8
0
 10
236.247
 20
110.833
 11
236.386
 21
110.574
  0
LINE
  8
0
 10
236.386
 20
110.574
 11
236.471
 21
110.293
  0
LINE
  8
0
 10
236.471
 20
110.293
 11
236.5
 21
110
  0
LINE
  8
0
 10
236.5
 20
110
 11
236.471
 21
109.707
  0
LINE
  8
0
 10
236.471
 20
109.707
 11
236.386
 21
109.426
  0
LINE
  8
0
 10
236.386
 20
109.426
 11
236.247
 21
109.167
  0
LINE
  8
0
 10
236.247
 20
109.167
 11
236.061
 21
108.939
  0
LINE
  8
0
 10
236.061
 20
108.939
 11
235.833
 21
108.753
  0
LINE
  8
0
 10
235.833
 20
108.753
 11
235.574
 21
108.614
  0
LINE
  8
0
 10
235.574
 20
108.614
 11
235.293
 21
108.529
  0
LINE
  8
0
 10
235.293
 20
108.529
 11
235
 21
108.5
  0
LINE
  8
0
 10
235
 20
108.5
 11
234.707
 21
108.529
  0
LINE
  8
0
 10
242.707
 20
108.529
 11
242.426
 21
108.614
  0
LINE
  8
0
 10
242.426
 20
108.614
 11
242.167
 21
108.753
  0
LINE
  8
0
 10
242.167
 20
108.753
 11
241.939
 21
108.939
  0
LINE
  8
0
 10
241.939
 20
108.939
 11
241.753
 21
109.167
  0
LINE
  8
0
 10
241.753
 20
109.167
 11
241.614
 21
109.426
  0
LINE
  8
0
 10
241.614
 20
109.426
 11
241.529
 21
109.707
  0
LINE
  8
0
 10
241.529
 20
109.707
 11
241.5
 21
110
  0
LINE
  8
0
 10
241.5
 20
110
 11
241.529
 21
110.293
  0
LINE
  8
0
 10
241.529
 20
110.293
 11
241.614
 21
110.574
  0
LINE
  8
0
 10
241.614
 20
110.574
 11
241.753
 21
110.833
  0
LINE
  8
0
 10
241.753
 20
110.833
 11
241.939
 21
111.061
  0
LINE
  8
0
 10
241.939
 20
111.061
 11
242.167
 21
111.247
  0
LINE
  8
0
 10
242.167
 20
111.247
 11
242.426
 21
111.386
  0
LINE
  8
0
 10
242.426
 20
111.386
 11
242.707
 21
111.471
  0
LINE
  8
0
 10
242.707
 20
111.471
 11
243
 21
111.5
  0
LINE
  8
0
 10
243
 20
111.5
 11
243.293
 21
111.471
  0
LINE
  8
0
 10
243.293
 20
111.471
 11
243.574
 21
111.386
  0
LINE
  8
0
 10
243.574
 20
111.386
 11
243.833
 21
111.247
  0
LINE
  8
0
 10
243.833
 20
111.247
 11
244.061
 21
111.061
  0
LINE
  8
0
 10
244.061
 20
111.061
 11
244.247
 21
110.833
  0
LINE
  8
0
 10
244.247
 20
110.833
 11
244.386
 21
110.574
  0
LINE
  8
0
 10
244.386
 20
110.574
 11
244.471
 21
110.293
  0
LINE
  8
0
 10
244.471
 20
110.293
 11
244.5
 21
110
  0
LINE
  8
0
 10
244.5
 20
110
 11
244.471
 21
109.707
  0
LINE
  8
0
 10
244.471
 20
109.707
 11
244.386
 21
109.426
  0
LINE
  8
0
 10
244.386
 20
109.426
 11
244.247
 21
109.167
  0
LINE
  8
0
 10
244.247
 20
109.167
 11
244.061
 21
108.939
  0
LINE
  8
0
 10
244.061
 20
108.939
 11
243.833
 21
108.753
  0
LINE
  8
0
 10
243.833
 20
108.753
 11
243.574
 21
108.614
  0
LINE
  8
0
 10
243.574
 20
108.614
 11
243.293
 21
108.529
  0
LINE
  8
0
 10
243.293
 20
108.529
 11
243
 21
108.5
  0
LINE
  8
0
 10
243
 20
108.5
 11
242.707
 21
108.529
  0
LINE
  8
0
 10
258.707
 20
108.529
 11
258.426
 21
108.614
  0
LINE
  8
0
 10
258.426
 20
108.614
 11
258.167
 21
108.753
  0
LINE
  8
0
 10
258.167
 20
108.753
 11
257.939
 21
108.939
  0
LINE
  8
0
 10
257.939
 20
108.939
 11
257.753
 21
109.167
  0
LINE
  8
0
 10
257.753
 20
109.167
 11
257.614
 21
109.426
  0
LINE
  8
0
 10
257.614
 20
109.426
 11
257.529
 21
109.707
  0
LINE
  8
0
 10
257.529
 20
109.707
 11
257.5
 21
110
  0
LINE
  8
0
 10
257.5
 20
110
 11
257.529
 21
110.293
  0
LINE
  8
0
 10
257.529
 20
110.293
 11
257.614
 21
110.574
  0
LINE
  8
0
 10
257.614
 20
110.574
 11
257.753
 21
110.833
  0
LINE
  8
0
 10
257.753
 20
110.833
 11
257.939
 21
111.061
  0
LINE
  8
0
 10
257.939
 20
111.061
 11
258.167
 21
111.247
  0
LINE
  8
0
 10
258.167
 20
111.247
 11
258.426
 21
111.386
  0
LINE
  8
0
 10
258.426
 20
111.386
 11
258.707
 21
111.471
  0
LINE
  8
0
 10
258.707
 20
111.471
 11
259
 21
111.5
  0
LINE
  8
0
 10
259
 20
111.5
 11
259.293
 21
111.471
  0
LINE
  8
0
 10
259.293
 20
111.471
 11
259.574
 21
111.386
  0
LINE
  8
0
 10
259.574
 20
111.386
 11
259.833
 21
111.247
  0
LINE
  8
0
 10
259.833
 20
111.247
 11
260.061
 21
111.061
  0
LINE
  8
0
 10
260.061
 20
111.061
 11
260.247
 21
110.833
  0
LINE
  8
0
 10
260.247
 20
110.833
 11
260.386
 21
110.574
  0
LINE
  8
0
 10
260.386
 20
110.574
 11
260.471
 21
110.293
  0
LINE
  8
0
 10
260.471
 20
110.293
 11
260.5
 21
110
  0
LINE
  8
0
 10
260.5
 20
110
 11
260.471
 21
109.707
  0
LINE
  8
0
 10
260.471
 20
109.707
 11
260.386
 21
109.426
  0
LINE
  8
0
 10
260.386
 20
109.426
 11
260.247
 21
109.167
  0
LINE
  8
0
 10
260.247
 20
109.167
 11
260.061
 21
108.939
  0
LINE
  8
0
 10
260.061
 20
108.939
 11
259.833
 21
108.753
  0
LINE
  8
0
 10
259.833
 20
108.753
 11
259.574
 21
108.614
  0
LINE
  8
0
 10
259.574
 20
108.614
 11
259.293
 21
108.529
  0
LINE
  8
0
 10
259.293
 20
108.529
 11
259
 21
108.5
  0
LINE
  8
0
 10
259
 20
108.5
 11
258.707
 21
108.529
  0
LINE
  8
0
 10
253.614
 20
105.426
 11
253.529
 21
105.707
  0
LINE
  8
0
 10
253.529
 20
105.707
 11
253.5
 21
106
  0
LINE
  8
0
 10
253.5
 20
106
 11
253.529
 21
106.293
  0
LINE
  8
0
 10
253.529
 20
106.293
 11
253.614
 21
106.574
  0
LINE
  8
0
 10
253.614
 20
106.574
 11
253.753
 21
106.833
  0
LINE
  8
0
 10
253.753
 20
106.833
 11
253.939
 21
107.061
  0
LINE
  8
0
 10
253.939
 20
107.061
 11
254.167
 21
107.247
  0
LINE
  8
0
 10
254.167
 20
107.247
 11
254.426
 21
107.386
  0
LINE
  8
0
 10
254.426
 20
107.386
 11
254.707
 21
107.471
  0
LINE
  8
0
 10
254.707
 20
107.471
 11
255
 21
107.5
  0
LINE
  8
0
 10
255
 20
107.5
 11
255.293
 21
107.471
  0
LINE
  8
0
 10
255.293
 20
107.471
 11
255.574
 21
107.386
  0
LINE
  8
0
 10
255.574
 20
107.386
 11
255.833
 21
107.247
  0
LINE
  8
0
 10
255.833
 20
107.247
 11
256.061
 21
107.061
  0
LINE
  8
0
 10
256.061
 20
107.061
 11
256.247
 21
106.833
  0
LINE
  8
0
 10
256.247
 20
106.833
 11
256.386
 21
106.574
  0
LINE
  8
0
 10
256.386
 20
106.574
 11
256.471
 21
106.293
  0
LINE
  8
0
 10
256.471
 20
106.293
 11
256.5
 21
106
  0
LINE
  8
0
 10
256.5
 20
106
 11
256.471
 21
105.707
  0
LINE
  8
0
 10
256.471
 20
105.707
 11
256.386
 21
105.426
  0
LINE
  8
0
 10
256.386
 20
105.426
 11
256.247
 21
105.167
  0
LINE
  8
0
 10
256.247
 20
105.167
 11
256.061
 21
104.939
  0
LINE
  8
0
 10
256.061
 20
104.939
 11
255.833
 21
104.753
  0
LINE
  8
0
 10
255.833
 20
104.753
 11
255.574
 21
104.614
  0
LINE
  8
0
 10
255.574
 20
104.614
 11
255.293
 21
104.529
  0
LINE
  8
0
 10
255.293
 20
104.529
 11
255
 21
104.5
  0
LINE
  8
0
 10
255
 20
104.5
 11
254.707
 21
104.529
  0
LINE
  8
0
 10
254.707
 20
104.529
 11
254.426
 21
104.614
  0
LINE
  8
0
 10
254.426
 20
104.614
 11
254.167
 21
104.753
  0
LINE
  8
0
 10
254.167
 20
104.753
 11
253.939
 21
104.939
  0
LINE
  8
0
 10
253.939
 20
104.939
 11
253.753
 21
105.167
  0
LINE
  8
0
 10
253.753
 20
105.167
 11
253.614
 21
105.426
  0
LINE
  8
0
 10
261.529
 20
105.707
 11
261.5
 21
106
  0
LINE
  8
0
 10
261.5
 20
106
 11
261.529
 21
106.293
  0
LINE
  8
0
 10
261.529
 20
106.293
 11
261.614
 21
106.574
  0
LINE
  8
0
 10
261.614
 20
106.574
 11
261.753
 21
106.833
  0
LINE
  8
0
 10
261.753
 20
106.833
 11
261.939
 21
107.061
  0
LINE
  8
0
 10
261.939
 20
107.061
 11
262.167
 21
107.247
  0
LINE
  8
0
 10
262.167
 20
107.247
 11
262.426
 21
107.386
  0
LINE
  8
0
 10
262.426
 20
107.386
 11
262.707
 21
107.471
  0
LINE
  8
0
 10
262.707
 20
107.471
 11
263
 21
107.5
  0
LINE
  8
0
 10
263
 20
107.5
 11
263.293
 21
107.471
  0
LINE
  8
0
 10
263.293
 20
107.471
 11
263.574
 21
107.386
  0
LINE
  8
0
 10
263.574
 20
107.386
 11
263.833
 21
107.247
  0
LINE
  8
0
 10
263.833
 20
107.247
 11
264.061
 21
107.061
  0
LINE
  8
0
 10
264.061
 20
107.061
 11
264.247
 21
106.833
  0
LINE
  8
0
 10
264.247
 20
106.833
 11
264.386
 21
106.574
  0
LINE
  8
0
 10
264.386
 20
106.574
 11
264.471
 21
106.293
  0
LINE
  8
0
 10
264.471
 20
106.293
 11
264.5
 21
106
  0
LINE
  8
0
 10
264.5
 20
106
 11
264.471
 21
105.707
  0
LINE
  8
0
 10
264.471
 20
105.707
 11
264.386
 21
105.426
  0
LINE
  8
0
 10
264.386
 20
105.426
 11
264.247
 21
105.167
  0
LINE
  8
0
 10
264.247
 20
105.167
 11
264.061
 21
104.939
  0
LINE
  8
0
 10
264.061
 20
104.939
 11
263.833
 21
104.753
  0
LINE
  8
0
 10
263.833
 20
104.753
 11
263.574
 21
104.614
  0
LINE
  8
0
 10
263.574
 20
104.614
 11
263.293
 21
104.529
  0
LINE
  8
0
 10
263.293
 20
104.529
 11
263
 21
104.5
  0
LINE
  8
0
 10
263
 20
104.5
 11
262.707
 21
104.529
  0
LINE
  8
0
 10
262.707
 20
104.529
 11
262.426
 21
104.614
  0
LINE
  8
0
 10
262.426
 20
104.614
 11
262.167
 21
104.753
  0
LINE
  8
0
 10
262.167
 20
104.753
 11
261.939
 21
104.939
  0
LINE
  8
0
 10
261.939
 20
104.939
 11
261.753
 21
105.167
  0
LINE
  8
0
 10
261.753
 20
105.167
 11
261.614
 21
105.426
  0
LINE
  8
0
 10
261.614
 20
105.426
 11
261.529
 21
105.707
  0
LINE
  8
0
 10
242.707
 20
104.529
 11
242.426
 21
104.614
  0
LINE
  8
0
 10
242.426
 20
104.614
 11
242.167
 21
104.753
  0
LINE
  8
0
 10
242.167
 20
104.753
 11
241.939
 21
104.939
  0
LINE
  8
0
 10
241.939
 20
104.939
 11
241.753
 21
105.167
  0
LINE
  8
0
 10
241.753
 20
105.167
 11
241.614
 21
105.426
  0
LINE
  8
0
 10
241.614
 20
105.426
 11
241.529
 21
105.707
  0
LINE
  8
0
 10
241.529
 20
105.707
 11
241.5
 21
106
  0
LINE
  8
0
 10
241.5
 20
106
 11
241.529
 21
106.293
  0
LINE
  8
0
 10
241.529
 20
106.293
 11
241.614
 21
106.574
  0
LINE
  8
0
 10
241.614
 20
106.574
 11
241.753
 21
106.833
  0
LINE
  8
0
 10
241.753
 20
106.833
 11
241.939
 21
107.061
  0
LINE
  8
0
 10
241.939
 20
107.061
 11
242.167
 21
107.247
  0
LINE
  8
0
 10
242.167
 20
107.247
 11
242.426
 21
107.386
  0
LINE
  8
0
 10
242.426
 20
107.386
 11
242.707
 21
107.471
  0
LINE
  8
0
 10
242.707
 20
107.471
 11
243
 21
107.5
  0
LINE
  8
0
 10
243
 20
107.5
 11
243.293
 21
107.471
  0
LINE
  8
0
 10
243.293
 20
107.471
 11
243.574
 21
107.386
  0
LINE
  8
0
 10
243.574
 20
107.386
 11
243.833
 21
107.247
  0
LINE
  8
0
 10
243.833
 20
107.247
 11
244.061
 21
107.061
  0
LINE
  8
0
 10
244.061
 20
107.061
 11
244.247
 21
106.833
  0
LINE
  8
0
 10
244.247
 20
106.833
 11
244.386
 21
106.574
  0
LINE
  8
0
 10
244.386
 20
106.574
 11
244.471
 21
106.293
  0
LINE
  8
0
 10
244.471
 20
106.293
 11
244.5
 21
106
  0
LINE
  8
0
 10
244.5
 20
106
 11
244.471
 21
105.707
  0
LINE
  8
0
 10
244.471
 20
105.707
 11
244.386
 21
105.426
  0
LINE
  8
0
 10
244.386
 20
105.426
 11
244.247
 21
105.167
  0
LINE
  8
0
 10
244.247
 20
105.167
 11
244.061
 21
104.939
  0
LINE
  8
0
 10
244.061
 20
104.939
 11
243.833
 21
104.753
  0
LINE
  8
0
 10
243.833
 20
104.753
 11
243.574
 21
104.614
  0
LINE
  8
0
 10
243.574
 20
104.614
 11
243.293
 21
104.529
  0
LINE
  8
0
 10
243.293
 20
104.529
 11
243
 21
104.5
  0
LINE
  8
0
 10
243
 20
104.5
 11
242.707
 21
104.529
  0
LINE
  8
0
 10
238.426
 20
107.386
 11
238.707
 21
107.471
  0
LINE
  8
0
 10
238.707
 20
107.471
 11
239
 21
107.5
  0
LINE
  8
0
 10
239
 20
107.5
 11
239.293
 21
107.471
  0
LINE
  8
0
 10
239.293
 20
107.471
 11
239.574
 21
107.386
  0
LINE
  8
0
 10
239.574
 20
107.386
 11
239.833
 21
107.247
  0
LINE
  8
0
 10
239.833
 20
107.247
 11
240.061
 21
107.061
  0
LINE
  8
0
 10
240.061
 20
107.061
 11
240.247
 21
106.833
  0
LINE
  8
0
 10
240.247
 20
106.833
 11
240.386
 21
106.574
  0
LINE
  8
0
 10
240.386
 20
106.574
 11
240.471
 21
106.293
  0
LINE
  8
0
 10
240.471
 20
106.293
 11
240.5
 21
106
  0
LINE
  8
0
 10
240.5
 20
106
 11
240.471
 21
105.707
  0
LINE
  8
0
 10
240.471
 20
105.707
 11
240.386
 21
105.426
  0
LINE
  8
0
 10
240.386
 20
105.426
 11
240.247
 21
105.167
  0
LINE
  8
0
 10
240.247
 20
105.167
 11
240.061
 21
104.939
  0
LINE
  8
0
 10
240.061
 20
104.939
 11
239.833
 21
104.753
  0
LINE
  8
0
 10
239.833
 20
104.753
 11
239.574
 21
104.614
  0
LINE
  8
0
 10
239.574
 20
104.614
 11
239.293
 21
104.529
  0
LINE
  8
0
 10
239.293
 20
104.529
 11
239
 21
104.5
  0
LINE
  8
0
 10
239
 20
104.5
 11
238.707
 21
104.529
  0
LINE
  8
0
 10
238.707
 20
104.529
 11
238.426
 21
104.614
  0
LINE
  8
0
 10
238.426
 20
104.614
 11
238.167
 21
104.753
  0
LINE
  8
0
 10
238.167
 20
104.753
 11
237.939
 21
104.939
  0
LINE
  8
0
 10
237.939
 20
104.939
 11
237.753
 21
105.167
  0
LINE
  8
0
 10
237.753
 20
105.167
 11
237.614
 21
105.426
  0
LINE
  8
0
 10
237.614
 20
105.426
 11
237.529
 21
105.707
  0
LINE
  8
0
 10
237.529
 20
105.707
 11
237.5
 21
106
  0
LINE
  8
0
 10
237.5
 20
106
 11
237.529
 21
106.293
  0
LINE
  8
0
 10
237.529
 20
106.293
 11
237.614
 21
106.574
  0
LINE
  8
0
 10
237.614
 20
106.574
 11
237.753
 21
106.833
  0
LINE
  8
0
 10
237.753
 20
106.833
 11
237.939
 21
107.061
  0
LINE
  8
0
 10
237.939
 20
107.061
 11
238.167
 21
107.247
  0
LINE
  8
0
 10
238.167
 20
107.247
 11
238.426
 21
107.386
  0
LINE
  8
0
 10
237.614
 20
101.426
 11
237.529
 21
101.707
  0
LINE
  8
0
 10
237.529
 20
101.707
 11
237.5
 21
102
  0
LINE
  8
0
 10
237.5
 20
102
 11
237.529
 21
102.293
  0
LINE
  8
0
 10
237.529
 20
102.293
 11
237.614
 21
102.574
  0
LINE
  8
0
 10
237.614
 20
102.574
 11
237.753
 21
102.833
  0
LINE
  8
0
 10
237.753
 20
102.833
 11
237.939
 21
103.061
  0
LINE
  8
0
 10
237.939
 20
103.061
 11
238.167
 21
103.247
  0
LINE
  8
0
 10
238.167
 20
103.247
 11
238.426
 21
103.386
  0
LINE
  8
0
 10
238.426
 20
103.386
 11
238.707
 21
103.471
  0
LINE
  8
0
 10
238.707
 20
103.471
 11
239
 21
103.5
  0
LINE
  8
0
 10
239
 20
103.5
 11
239.293
 21
103.471
  0
LINE
  8
0
 10
239.293
 20
103.471
 11
239.574
 21
103.386
  0
LINE
  8
0
 10
239.574
 20
103.386
 11
239.833
 21
103.247
  0
LINE
  8
0
 10
239.833
 20
103.247
 11
240.061
 21
103.061
  0
LINE
  8
0
 10
240.061
 20
103.061
 11
240.247
 21
102.833
  0
LINE
  8
0
 10
240.247
 20
102.833
 11
240.386
 21
102.574
  0
LINE
  8
0
 10
240.386
 20
102.574
 11
240.471
 21
102.293
  0
LINE
  8
0
 10
240.471
 20
102.293
 11
240.5
 21
102
  0
LINE
  8
0
 10
240.5
 20
102
 11
240.471
 21
101.707
  0
LINE
  8
0
 10
240.471
 20
101.707
 11
240.386
 21
101.426
  0
LINE
  8
0
 10
240.386
 20
101.426
 11
240.247
 21
101.167
  0
LINE
  8
0
 10
240.247
 20
101.167
 11
240.061
 21
100.939
  0
LINE
  8
0
 10
240.061
 20
100.939
 11
239.833
 21
100.753
  0
LINE
  8
0
 10
239.833
 20
100.753
 11
239.574
 21
100.614
  0
LINE
  8
0
 10
239.574
 20
100.614
 11
239.293
 21
100.529
  0
LINE
  8
0
 10
239.293
 20
100.529
 11
239
 21
100.5
  0
LINE
  8
0
 10
239
 20
100.5
 11
238.707
 21
100.529
  0
LINE
  8
0
 10
238.707
 20
100.529
 11
238.426
 21
100.614
  0
LINE
  8
0
 10
238.426
 20
100.614
 11
238.167
 21
100.753
  0
LINE
  8
0
 10
238.167
 20
100.753
 11
237.939
 21
100.939
  0
LINE
  8
0
 10
237.939
 20
100.939
 11
237.753
 21
101.167
  0
LINE
  8
0
 10
237.753
 20
101.167
 11
237.614
 21
101.426
  0
LINE
  8
0
 10
246.707
 20
100.529
 11
246.426
 21
100.614
  0
LINE
  8
0
 10
246.426
 20
100.614
 11
246.167
 21
100.753
  0
LINE
  8
0
 10
246.167
 20
100.753
 11
245.939
 21
100.939
  0
LINE
  8
0
 10
245.939
 20
100.939
 11
245.753
 21
101.167
  0
LINE
  8
0
 10
245.753
 20
101.167
 11
245.614
 21
101.426
  0
LINE
  8
0
 10
245.614
 20
101.426
 11
245.529
 21
101.707
  0
LINE
  8
0
 10
245.529
 20
101.707
 11
245.5
 21
102
  0
LINE
  8
0
 10
245.5
 20
102
 11
245.529
 21
102.293
  0
LINE
  8
0
 10
245.529
 20
102.293
 11
245.614
 21
102.574
  0
LINE
  8
0
 10
245.614
 20
102.574
 11
245.753
 21
102.833
  0
LINE
  8
0
 10
245.753
 20
102.833
 11
245.939
 21
103.061
  0
LINE
  8
0
 10
245.939
 20
103.061
 11
246.167
 21
103.247
  0
LINE
  8
0
 10
246.167
 20
103.247
 11
246.426
 21
103.386
  0
LINE
  8
0
 10
246.426
 20
103.386
 11
246.707
 21
103.471
  0
LINE
  8
0
 10
246.707
 20
103.471
 11
247
 21
103.5
  0
LINE
  8
0
 10
247
 20
103.5
 11
247.293
 21
103.471
  0
LINE
  8
0
 10
247.293
 20
103.471
 11
247.574
 21
103.386
  0
LINE
  8
0
 10
247.574
 20
103.386
 11
247.833
 21
103.247
  0
LINE
  8
0
 10
247.833
 20
103.247
 11
248.061
 21
103.061
  0
LINE
  8
0
 10
248.061
 20
103.061
 11
248.247
 21
102.833
  0
LINE
  8
0
 10
248.247
 20
102.833
 11
248.386
 21
102.574
  0
LINE
  8
0
 10
248.386
 20
102.574
 11
248.471
 21
102.293
  0
LINE
  8
0
 10
248.471
 20
102.293
 11
248.5
 21
102
  0
LINE
  8
0
 10
248.5
 20
102
 11
248.471
 21
101.707
  0
LINE
  8
0
 10
248.471
 20
101.707
 11
248.386
 21
101.426
  0
LINE
  8
0
 10
248.386
 20
101.426
 11
248.247
 21
101.167
  0
LINE
  8
0
 10
248.247
 20
101.167
 11
248.061
 21
100.939
  0
LINE
  8
0
 10
248.061
 20
100.939
 11
247.833
 21
100.753
  0
LINE
  8
0
 10
247.833
 20
100.753
 11
247.574
 21
100.614
  0
LINE
  8
0
 10
247.574
 20
100.614
 11
247.293
 21
100.529
  0
LINE
  8
0
 10
247.293
 20
100.529
 11
247
 21
100.5
  0
LINE
  8
0
 10
247
 20
100.5
 11
246.707
 21
100.529
  0
LINE
  8
0
 10
262.426
 20
103.386
 11
262.707
 21
103.471
  0
LINE
  8
0
 10
262.707
 20
103.471
 11
263
 21
103.5
  0
LINE
  8
0
 10
263
 20
103.5
 11
263.293
 21
103.471
  0
LINE
  8
0
 10
263.293
 20
103.471
 11
263.574
 21
103.386
  0
LINE
  8
0
 10
263.574
 20
103.386
 11
263.833
 21
103.247
  0
LINE
  8
0
 10
263.833
 20
103.247
 11
264.061
 21
103.061
  0
LINE
  8
0
 10
264.061
 20
103.061
 11
264.247
 21
102.833
  0
LINE
  8
0
 10
264.247
 20
102.833
 11
264.386
 21
102.574
  0
LINE
  8
0
 10
264.386
 20
102.574
 11
264.471
 21
102.293
  0
LINE
  8
0
 10
264.471
 20
102.293
 11
264.5
 21
102
  0
LINE
  8
0
 10
264.5
 20
102
 11
264.471
 21
101.707
  0
LINE
  8
0
 10
264.471
 20
101.707
 11
264.386
 21
101.426
  0
LINE
  8
0
 10
264.386
 20
101.426
 11
264.247
 21
101.167
  0
LINE
  8
0
 10
264.247
 20
101.167
 11
264.061
 21
100.939
  0
LINE
  8
0
 10
264.061
 20
100.939
 11
263.833
 21
100.753
  0
LINE
  8
0
 10
263.833
 20
100.753
 11
263.574
 21
100.614
  0
LINE
  8
0
 10
263.574
 20
100.614
 11
263.293
 21
100.529
  0
LINE
  8
0
 10
263.293
 20
100.529
 11
263
 21
100.5
  0
LINE
  8
0
 10
263
 20
100.5
 11
262.707
 21
100.529
  0
LINE
  8
0
 10
262.707
 20
100.529
 11
262.426
 21
100.614
  0
LINE
  8
0
 10
262.426
 20
100.614
 11
262.167
 21
100.753
  0
LINE
  8
0
 10
262.167
 20
100.753
 11
261.939
 21
100.939
  0
LINE
  8
0
 10
261.939
 20
100.939
 11
261.753
 21
101.167
  0
LINE
  8
0
 10
261.753
 20
101.167
 11
261.614
 21
101.426
  0
LINE
  8
0
 10
261.614
 20
101.426
 11
261.529
 21
101.707
  0
LINE
  8
0
 10
261.529
 20
101.707
 11
261.5
 21
102
  0
LINE
  8
0
 10
261.5
 20
102
 11
261.529
 21
102.293
  0
LINE
  8
0
 10
261.529
 20
102.293
 11
261.614
 21
102.574
  0
LINE
  8
0
 10
261.614
 20
102.574
 11
261.753
 21
102.833
  0
LINE
  8
0
 10
261.753
 20
102.833
 11
261.939
 21
103.061
  0
LINE
  8
0
 10
261.939
 20
103.061
 11
262.167
 21
103.247
  0
LINE
  8
0
 10
262.167
 20
103.247
 11
262.426
 21
103.386
  0
LINE
  8
0
 10
254.707
 20
100.529
 11
254.426
 21
100.614
  0
LINE
  8
0
 10
254.426
 20
100.614
 11
254.167
 21
100.753
  0
LINE
  8
0
 10
254.167
 20
100.753
 11
253.939
 21
100.939
  0
LINE
  8
0
 10
253.939
 20
100.939
 11
253.753
 21
101.167
  0
LINE
  8
0
 10
253.753
 20
101.167
 11
253.614
 21
101.426
  0
LINE
  8
0
 10
253.614
 20
101.426
 11
253.529
 21
101.707
  0
LINE
  8
0
 10
253.529
 20
101.707
 11
253.5
 21
102
  0
LINE
  8
0
 10
253.5
 20
102
 11
253.529
 21
102.293
  0
LINE
  8
0
 10
253.529
 20
102.293
 11
253.614
 21
102.574
  0
LINE
  8
0
 10
253.614
 20
102.574
 11
253.753
 21
102.833
  0
LINE
  8
0
 10
253.753
 20
102.833
 11
253.939
 21
103.061
  0
LINE
  8
0
 10
253.939
 20
103.061
 11
254.167
 21
103.247
  0
LINE
  8
0
 10
254.167
 20
103.247
 11
254.426
 21
103.386
  0
LINE
  8
0
 10
254.426
 20
103.386
 11
254.707
 21
103.471
  0
LINE
  8
0
 10
254.707
 20
103.471
 11
255
 21
103.5
  0
LINE
  8
0
 10
255
 20
103.5
 11
255.293
 21
103.471
  0
LINE
  8
0
 10
255.293
 20
103.471
 11
255.574
 21
103.386
  0
LINE
  8
0
 10
255.574
 20
103.386
 11
255.833
 21
103.247
  0
LINE
  8
0
 10
255.833
 20
103.247
 11
256.061
 21
103.061
  0
LINE
  8
0
 10
256.061
 20
103.061
 11
256.247
 21
102.833
  0
LINE
  8
0
 10
256.247
 20
102.833
 11
256.386
 21
102.574
  0
LINE
  8
0
 10
256.386
 20
102.574
 11
256.471
 21
102.293
  0
LINE
  8
0
 10
256.471
 20
102.293
 11
256.5
 21
102
  0
LINE
  8
0
 10
256.5
 20
102
 11
256.471
 21
101.707
  0
LINE
  8
0
 10
256.471
 20
101.707
 11
256.386
 21
101.426
  0
LINE
  8
0
 10
256.386
 20
101.426
 11
256.247
 21
101.167
  0
LINE
  8
0
 10
256.247
 20
101.167
 11
256.061
 21
100.939
  0
LINE
  8
0
 10
256.061
 20
100.939
 11
255.833
 21
100.753
  0
LINE
  8
0
 10
255.833
 20
100.753
 11
255.574
 21
100.614
  0
LINE
  8
0
 10
255.574
 20
100.614
 11
255.293
 21
100.529
  0
LINE
  8
0
 10
255.293
 20
100.529
 11
255
 21
100.5
  0
LINE
  8
0
 10
255
 20
100.5
 11
254.707
 21
100.529
  0
LINE
  8
0
 10
250.707
 20
100.529
 11
250.426
 21
100.614
  0
LINE
  8
0
 10
250.426
 20
100.614
 11
250.167
 21
100.753
  0
LINE
  8
0
 10
250.167
 20
100.753
 11
249.939
 21
100.939
  0
LINE
  8
0
 10
249.939
 20
100.939
 11
249.753
 21
101.167
  0
LINE
  8
0
 10
249.753
 20
101.167
 11
249.614
 21
101.426
  0
LINE
  8
0
 10
249.614
 20
101.426
 11
249.529
 21
101.707
  0
LINE
  8
0
 10
249.529
 20
101.707
 11
249.5
 21
102
  0
LINE
  8
0
 10
249.5
 20
102
 11
249.529
 21
102.293
  0
LINE
  8
0
 10
249.529
 20
102.293
 11
249.614
 21
102.574
  0
LINE
  8
0
 10
249.614
 20
102.574
 11
249.753
 21
102.833
  0
LINE
  8
0
 10
249.753
 20
102.833
 11
249.939
 21
103.061
  0
LINE
  8
0
 10
249.939
 20
103.061
 11
250.167
 21
103.247
  0
LINE
  8
0
 10
250.167
 20
103.247
 11
250.426
 21
103.386
  0
LINE
  8
0
 10
250.426
 20
103.386
 11
250.707
 21
103.471
  0
LINE
  8
0
 10
250.707
 20
103.471
 11
251
 21
103.5
  0
LINE
  8
0
 10
251
 20
103.5
 11
251.293
 21
103.471
  0
LINE
  8
0
 10
251.293
 20
103.471
 11
251.574
 21
103.386
  0
LINE
  8
0
 10
251.574
 20
103.386
 11
251.833
 21
103.247
  0
LINE
  8
0
 10
251.833
 20
103.247
 11
252.061
 21
103.061
  0
LINE
  8
0
 10
252.061
 20
103.061
 11
252.247
 21
102.833
  0
LINE
  8
0
 10
252.247
 20
102.833
 11
252.386
 21
102.574
  0
LINE
  8
0
 10
252.386
 20
102.574
 11
252.471
 21
102.293
  0
LINE
  8
0
 10
252.471
 20
102.293
 11
252.5
 21
102
  0
LINE
  8
0
 10
252.5
 20
102
 11
252.471
 21
101.707
  0
LINE
  8
0
 10
252.471
 20
101.707
 11
252.386
 21
101.426
  0
LINE
  8
0
 10
252.386
 20
101.426
 11
252.247
 21
101.167
  0
LINE
  8
0
 10
252.247
 20
101.167
 11
252.061
 21
100.939
  0
LINE
  8
0
 10
252.061
 20
100.939
 11
251.833
 21
100.753
  0
LINE
  8
0
 10
251.833
 20
100.753
 11
251.574
 21
100.614
  0
LINE
  8
0
 10
251.574
 20
100.614
 11
251.293
 21
100.529
  0
LINE
  8
0
 10
251.293
 20
100.529
 11
251
 21
100.5
  0
LINE
  8
0
 10
251
 20
100.5
 11
250.707
 21
100.529
  0
LINE
  8
0
 10
242.707
 20
100.529
 11
242.426
 21
100.614
  0
LINE
  8
0
 10
242.426
 20
100.614
 11
242.167
 21
100.753
  0
LINE
  8
0
 10
242.167
 20
100.753
 11
241.939
 21
100.939
  0
LINE
  8
0
 10
241.939
 20
100.939
 11
241.753
 21
101.167
  0
LINE
  8
0
 10
241.753
 20
101.167
 11
241.614
 21
101.426
  0
LINE
  8
0
 10
241.614
 20
101.426
 11
241.529
 21
101.707
  0
LINE
  8
0
 10
241.529
 20
101.707
 11
241.5
 21
102
  0
LINE
  8
0
 10
241.5
 20
102
 11
241.529
 21
102.293
  0
LINE
  8
0
 10
241.529
 20
102.293
 11
241.614
 21
102.574
  0
LINE
  8
0
 10
241.614
 20
102.574
 11
241.753
 21
102.833
  0
LINE
  8
0
 10
241.753
 20
102.833
 11
241.939
 21
103.061
  0
LINE
  8
0
 10
241.939
 20
103.061
 11
242.167
 21
103.247
  0
LINE
  8
0
 10
242.167
 20
103.247
 11
242.426
 21
103.386
  0
LINE
  8
0
 10
242.426
 20
103.386
 11
242.707
 21
103.471
  0
LINE
  8
0
 10
242.707
 20
103.471
 11
243
 21
103.5
  0
LINE
  8
0
 10
243
 20
103.5
 11
243.293
 21
103.471
  0
LINE
  8
0
 10
243.293
 20
103.471
 11
243.574
 21
103.386
  0
LINE
  8
0
 10
243.574
 20
103.386
 11
243.833
 21
103.247
  0
LINE
  8
0
 10
243.833
 20
103.247
 11
244.061
 21
103.061
  0
LINE
  8
0
 10
244.061
 20
103.061
 11
244.247
 21
102.833
  0
LINE
  8
0
 10
244.247
 20
102.833
 11
244.386
 21
102.574
  0
LINE
  8
0
 10
244.386
 20
102.574
 11
244.471
 21
102.293
  0
LINE
  8
0
 10
244.471
 20
102.293
 11
244.5
 21
102
  0
LINE
  8
0
 10
244.5
 20
102
 11
244.471
 21
101.707
  0
LINE
  8
0
 10
244.471
 20
101.707
 11
244.386
 21
101.426
  0
LINE
  8
0
 10
244.386
 20
101.426
 11
244.247
 21
101.167
  0
LINE
  8
0
 10
244.247
 20
101.167
 11
244.061
 21
100.939
  0
LINE
  8
0
 10
244.061
 20
100.939
 11
243.833
 21
100.753
  0
LINE
  8
0
 10
243.833
 20
100.753
 11
243.574
 21
100.614
  0
LINE
  8
0
 10
243.574
 20
100.614
 11
243.293
 21
100.529
  0
LINE
  8
0
 10
243.293
 20
100.529
 11
243
 21
100.5
  0
LINE
  8
0
 10
243
 20
100.5
 11
242.707
 21
100.529
  0
LINE
  8
0
 10
257.529
 20
97.7074
 11
257.5
 21
98
  0
LINE
  8
0
 10
257.5
 20
98
 11
257.529
 21
98.2926
  0
LINE
  8
0
 10
257.529
 20
98.2926
 11
257.614
 21
98.574
  0
LINE
  8
0
 10
257.614
 20
98.574
 11
257.753
 21
98.8334
  0
LINE
  8
0
 10
257.753
 20
98.8334
 11
257.939
 21
99.0607
  0
LINE
  8
0
 10
257.939
 20
99.0607
 11
258.167
 21
99.2472
  0
LINE
  8
0
 10
258.167
 20
99.2472
 11
258.426
 21
99.3858
  0
LINE
  8
0
 10
258.426
 20
99.3858
 11
258.707
 21
99.4712
  0
LINE
  8
0
 10
258.707
 20
99.4712
 11
259
 21
99.5
  0
LINE
  8
0
 10
259
 20
99.5
 11
259.293
 21
99.4712
  0
LINE
  8
0
 10
259.293
 20
99.4712
 11
259.574
 21
99.3858
  0
LINE
  8
0
 10
259.574
 20
99.3858
 11
259.833
 21
99.2472
  0
LINE
  8
0
 10
259.833
 20
99.2472
 11
260.061
 21
99.0607
  0
LINE
  8
0
 10
260.061
 20
99.0607
 11
260.247
 21
98.8334
  0
LINE
  8
0
 10
260.247
 20
98.8334
 11
260.386
 21
98.574
  0
LINE
  8
0
 10
260.386
 20
98.574
 11
260.471
 21
98.2926
  0
LINE
  8
0
 10
260.471
 20
98.2926
 11
260.5
 21
98
  0
LINE
  8
0
 10
260.5
 20
98
 11
260.471
 21
97.7074
  0
LINE
  8
0
 10
260.471
 20
97.7074
 11
260.386
 21
97.426
  0
LINE
  8
0
 10
260.386
 20
97.426
 11
260.247
 21
97.1666
  0
LINE
  8
0
 10
260.247
 20
97.1666
 11
260.061
 21
96.9393
  0
LINE
  8
0
 10
260.061
 20
96.9393
 11
259.833
 21
96.7528
  0
LINE
  8
0
 10
259.833
 20
96.7528
 11
259.574
 21
96.6142
  0
LINE
  8
0
 10
259.574
 20
96.6142
 11
259.293
 21
96.5288
  0
LINE
  8
0
 10
259.293
 20
96.5288
 11
259
 21
96.5
  0
LINE
  8
0
 10
259
 20
96.5
 11
258.707
 21
96.5288
  0
LINE
  8
0
 10
258.707
 20
96.5288
 11
258.426
 21
96.6142
  0
LINE
  8
0
 10
258.426
 20
96.6142
 11
258.167
 21
96.7528
  0
LINE
  8
0
 10
258.167
 20
96.7528
 11
257.939
 21
96.9393
  0
LINE
  8
0
 10
257.939
 20
96.9393
 11
257.753
 21
97.1666
  0
LINE
  8
0
 10
257.753
 20
97.1666
 11
257.614
 21
97.426
  0
LINE
  8
0
 10
257.614
 20
97.426
 11
257.529
 21
97.7074
  0
LINE
  8
0
 10
262.707
 20
96.5288
 11
262.426
 21
96.6142
  0
LINE
  8
0
 10
262.426
 20
96.6142
 11
262.167
 21
96.7528
  0
LINE
  8
0
 10
262.167
 20
96.7528
 11
261.939
 21
96.9393
  0
LINE
  8
0
 10
261.939
 20
96.9393
 11
261.753
 21
97.1666
  0
LINE
  8
0
 10
261.753
 20
97.1666
 11
261.614
 21
97.426
  0
LINE
  8
0
 10
261.614
 20
97.426
 11
261.529
 21
97.7074
  0
LINE
  8
0
 10
261.529
 20
97.7074
 11
261.5
 21
98
  0
LINE
  8
0
 10
261.5
 20
98
 11
261.529
 21
98.2926
  0
LINE
  8
0
 10
261.529
 20
98.2926
 11
261.614
 21
98.574
  0
LINE
  8
0
 10
261.614
 20
98.574
 11
261.753
 21
98.8334
  0
LINE
  8
0
 10
261.753
 20
98.8334
 11
261.939
 21
99.0607
  0
LINE
  8
0
 10
261.939
 20
99.0607
 11
262.167
 21
99.2472
  0
LINE
  8
0
 10
262.167
 20
99.2472
 11
262.426
 21
99.3858
  0
LINE
  8
0
 10
262.426
 20
99.3858
 11
262.707
 21
99.4712
  0
LINE
  8
0
 10
262.707
 20
99.4712
 11
263
 21
99.5
  0
LINE
  8
0
 10
263
 20
99.5
 11
263.293
 21
99.4712
  0
LINE
  8
0
 10
263.293
 20
99.4712
 11
263.574
 21
99.3858
  0
LINE
  8
0
 10
263.574
 20
99.3858
 11
263.833
 21
99.2472
  0
LINE
  8
0
 10
263.833
 20
99.2472
 11
264.061
 21
99.0607
  0
LINE
  8
0
 10
264.061
 20
99.0607
 11
264.247
 21
98.8334
  0
LINE
  8
0
 10
264.247
 20
98.8334
 11
264.386
 21
98.574
  0
LINE
  8
0
 10
264.386
 20
98.574
 11
264.471
 21
98.2926
  0
LINE
  8
0
 10
264.471
 20
98.2926
 11
264.5
 21
98
  0
LINE
  8
0
 10
264.5
 20
98
 11
264.471
 21
97.7074
  0
LINE
  8
0
 10
264.471
 20
97.7074
 11
264.386
 21
97.426
  0
LINE
  8
0
 10
264.386
 20
97.426
 11
264.247
 21
97.1666
  0
LINE
  8
0
 10
264.247
 20
97.1666
 11
264.061
 21
96.9393
  0
LINE
  8
0
 10
264.061
 20
96.9393
 11
263.833
 21
96.7528
  0
LINE
  8
0
 10
263.833
 20
96.7528
 11
263.574
 21
96.6142
  0
LINE
  8
0
 10
263.574
 20
96.6142
 11
263.293
 21
96.5288
  0
LINE
  8
0
 10
263.293
 20
96.5288
 11
263
 21
96.5
  0
LINE
  8
0
 10
263
 20
96.5
 11
262.707
 21
96.5288
  0
LINE
  8
0
 10
246.707
 20
96.5288
 11
246.426
 21
96.6142
  0
LINE
  8
0
 10
246.426
 20
96.6142
 11
246.167
 21
96.7528
  0
LINE
  8
0
 10
246.167
 20
96.7528
 11
245.939
 21
96.9393
  0
LINE
  8
0
 10
245.939
 20
96.9393
 11
245.753
 21
97.1666
  0
LINE
  8
0
 10
245.753
 20
97.1666
 11
245.614
 21
97.426
  0
LINE
  8
0
 10
245.614
 20
97.426
 11
245.529
 21
97.7074
  0
LINE
  8
0
 10
245.529
 20
97.7074
 11
245.5
 21
98
  0
LINE
  8
0
 10
245.5
 20
98
 11
245.529
 21
98.2926
  0
LINE
  8
0
 10
245.529
 20
98.2926
 11
245.614
 21
98.574
  0
LINE
  8
0
 10
245.614
 20
98.574
 11
245.753
 21
98.8334
  0
LINE
  8
0
 10
245.753
 20
98.8334
 11
245.939
 21
99.0607
  0
LINE
  8
0
 10
245.939
 20
99.0607
 11
246.167
 21
99.2472
  0
LINE
  8
0
 10
246.167
 20
99.2472
 11
246.426
 21
99.3858
  0
LINE
  8
0
 10
246.426
 20
99.3858
 11
246.707
 21
99.4712
  0
LINE
  8
0
 10
246.707
 20
99.4712
 11
247
 21
99.5
  0
LINE
  8
0
 10
247
 20
99.5
 11
247.293
 21
99.4712
  0
LINE
  8
0
 10
247.293
 20
99.4712
 11
247.574
 21
99.3858
  0
LINE
  8
0
 10
247.574
 20
99.3858
 11
247.833
 21
99.2472
  0
LINE
  8
0
 10
247.833
 20
99.2472
 11
248.061
 21
99.0607
  0
LINE
  8
0
 10
248.061
 20
99.0607
 11
248.247
 21
98.8334
  0
LINE
  8
0
 10
248.247
 20
98.8334
 11
248.386
 21
98.574
  0
LINE
  8
0
 10
248.386
 20
98.574
 11
248.471
 21
98.2926
  0
LINE
  8
0
 10
248.471
 20
98.2926
 11
248.5
 21
98
  0
LINE
  8
0
 10
248.5
 20
98
 11
248.471
 21
97.7074
  0
LINE
  8
0
 10
248.471
 20
97.7074
 11
248.386
 21
97.426
  0
LINE
  8
0
 10
248.386
 20
97.426
 11
248.247
 21
97.1666
  0
LINE
  8
0
 10
248.247
 20
97.1666
 11
248.061
 21
96.9393
  0
LINE
  8
0
 10
248.061
 20
96.9393
 11
247.833
 21
96.7528
  0
LINE
  8
0
 10
247.833
 20
96.7528
 11
247.574
 21
96.6142
  0
LINE
  8
0
 10
247.574
 20
96.6142
 11
247.293
 21
96.5288
  0
LINE
  8
0
 10
247.293
 20
96.5288
 11
247
 21
96.5
  0
LINE
  8
0
 10
247
 20
96.5
 11
246.707
 21
96.5288
  0
LINE
  8
0
 10
250.707
 20
96.5288
 11
250.426
 21
96.6142
  0
LINE
  8
0
 10
250.426
 20
96.6142
 11
250.167
 21
96.7528
  0
LINE
  8
0
 10
250.167
 20
96.7528
 11
249.939
 21
96.9393
  0
LINE
  8
0
 10
249.939
 20
96.9393
 11
249.753
 21
97.1666
  0
LINE
  8
0
 10
249.753
 20
97.1666
 11
249.614
 21
97.426
  0
LINE
  8
0
 10
249.614
 20
97.426
 11
249.529
 21
97.7074
  0
LINE
  8
0
 10
249.529
 20
97.7074
 11
249.5
 21
98
  0
LINE
  8
0
 10
249.5
 20
98
 11
249.529
 21
98.2926
  0
LINE
  8
0
 10
249.529
 20
98.2926
 11
249.614
 21
98.574
  0
LINE
  8
0
 10
249.614
 20
98.574
 11
249.753
 21
98.8334
  0
LINE
  8
0
 10
249.753
 20
98.8334
 11
249.939
 21
99.0607
  0
LINE
  8
0
 10
249.939
 20
99.0607
 11
250.167
 21
99.2472
  0
LINE
  8
0
 10
250.167
 20
99.2472
 11
250.426
 21
99.3858
  0
LINE
  8
0
 10
250.426
 20
99.3858
 11
250.707
 21
99.4712
  0
LINE
  8
0
 10
250.707
 20
99.4712
 11
251
 21
99.5
  0
LINE
  8
0
 10
251
 20
99.5
 11
251.293
 21
99.4712
  0
LINE
  8
0
 10
251.293
 20
99.4712
 11
251.574
 21
99.3858
  0
LINE
  8
0
 10
251.574
 20
99.3858
 11
251.833
 21
99.2472
  0
LINE
  8
0
 10
251.833
 20
99.2472
 11
252.061
 21
99.0607
  0
LINE
  8
0
 10
252.061
 20
99.0607
 11
252.247
 21
98.8334
  0
LINE
  8
0
 10
252.247
 20
98.8334
 11
252.386
 21
98.574
  0
LINE
  8
0
 10
252.386
 20
98.574
 11
252.471
 21
98.2926
  0
LINE
  8
0
 10
252.471
 20
98.2926
 11
252.5
 21
98
  0
LINE
  8
0
 10
252.5
 20
98
 11
252.471
 21
97.7074
  0
LINE
  8
0
 10
252.471
 20
97.7074
 11
252.386
 21
97.426
  0
LINE
  8
0
 10
252.386
 20
97.426
 11
252.247
 21
97.1666
  0
LINE
  8
0
 10
252.247
 20
97.1666
 11
252.061
 21
96.9393
  0
LINE
  8
0
 10
252.061
 20
96.9393
 11
251.833
 21
96.7528
  0
LINE
  8
0
 10
251.833
 20
96.7528
 11
251.574
 21
96.6142
  0
LINE
  8
0
 10
251.574
 20
96.6142
 11
251.293
 21
96.5288
  0
LINE
  8
0
 10
251.293
 20
96.5288
 11
251
 21
96.5
  0
LINE
  8
0
 10
251
 20
96.5
 11
250.707
 21
96.5288
  0
LINE
  8
0
 10
234.707
 20
96.5288
 11
234.426
 21
96.6142
  0
LINE
  8
0
 10
234.426
 20
96.6142
 11
234.167
 21
96.7528
  0
LINE
  8
0
 10
234.167
 20
96.7528
 11
233.939
 21
96.9393
  0
LINE
  8
0
 10
233.939
 20
96.9393
 11
233.753
 21
97.1666
  0
LINE
  8
0
 10
233.753
 20
97.1666
 11
233.614
 21
97.426
  0
LINE
  8
0
 10
233.614
 20
97.426
 11
233.529
 21
97.7074
  0
LINE
  8
0
 10
233.529
 20
97.7074
 11
233.5
 21
98
  0
LINE
  8
0
 10
233.5
 20
98
 11
233.529
 21
98.2926
  0
LINE
  8
0
 10
233.529
 20
98.2926
 11
233.614
 21
98.574
  0
LINE
  8
0
 10
233.614
 20
98.574
 11
233.753
 21
98.8334
  0
LINE
  8
0
 10
233.753
 20
98.8334
 11
233.939
 21
99.0607
  0
LINE
  8
0
 10
233.939
 20
99.0607
 11
234.167
 21
99.2472
  0
LINE
  8
0
 10
234.167
 20
99.2472
 11
234.426
 21
99.3858
  0
LINE
  8
0
 10
234.426
 20
99.3858
 11
234.707
 21
99.4712
  0
LINE
  8
0
 10
234.707
 20
99.4712
 11
235
 21
99.5
  0
LINE
  8
0
 10
235
 20
99.5
 11
235.293
 21
99.4712
  0
LINE
  8
0
 10
235.293
 20
99.4712
 11
235.574
 21
99.3858
  0
LINE
  8
0
 10
235.574
 20
99.3858
 11
235.833
 21
99.2472
  0
LINE
  8
0
 10
235.833
 20
99.2472
 11
236.061
 21
99.0607
  0
LINE
  8
0
 10
236.061
 20
99.0607
 11
236.247
 21
98.8334
  0
LINE
  8
0
 10
236.247
 20
98.8334
 11
236.386
 21
98.574
  0
LINE
  8
0
 10
236.386
 20
98.574
 11
236.471
 21
98.2926
  0
LINE
  8
0
 10
236.471
 20
98.2926
 11
236.5
 21
98
  0
LINE
  8
0
 10
236.5
 20
98
 11
236.471
 21
97.7074
  0
LINE
  8
0
 10
236.471
 20
97.7074
 11
236.386
 21
97.426
  0
LINE
  8
0
 10
236.386
 20
97.426
 11
236.247
 21
97.1666
  0
LINE
  8
0
 10
236.247
 20
97.1666
 11
236.061
 21
96.9393
  0
LINE
  8
0
 10
236.061
 20
96.9393
 11
235.833
 21
96.7528
  0
LINE
  8
0
 10
235.833
 20
96.7528
 11
235.574
 21
96.6142
  0
LINE
  8
0
 10
235.574
 20
96.6142
 11
235.293
 21
96.5288
  0
LINE
  8
0
 10
235.293
 20
96.5288
 11
235
 21
96.5
  0
LINE
  8
0
 10
235
 20
96.5
 11
234.707
 21
96.5288
  0
LINE
  8
0
 10
241.529
 20
97.7074
 11
241.5
 21
98
  0
LINE
  8
0
 10
241.5
 20
98
 11
241.529
 21
98.2926
  0
LINE
  8
0
 10
241.529
 20
98.2926
 11
241.614
 21
98.574
  0
LINE
  8
0
 10
241.614
 20
98.574
 11
241.753
 21
98.8334
  0
LINE
  8
0
 10
241.753
 20
98.8334
 11
241.939
 21
99.0607
  0
LINE
  8
0
 10
241.939
 20
99.0607
 11
242.167
 21
99.2472
  0
LINE
  8
0
 10
242.167
 20
99.2472
 11
242.426
 21
99.3858
  0
LINE
  8
0
 10
242.426
 20
99.3858
 11
242.707
 21
99.4712
  0
LINE
  8
0
 10
242.707
 20
99.4712
 11
243
 21
99.5
  0
LINE
  8
0
 10
243
 20
99.5
 11
243.293
 21
99.4712
  0
LINE
  8
0
 10
243.293
 20
99.4712
 11
243.574
 21
99.3858
  0
LINE
  8
0
 10
243.574
 20
99.3858
 11
243.833
 21
99.2472
  0
LINE
  8
0
 10
243.833
 20
99.2472
 11
244.061
 21
99.0607
  0
LINE
  8
0
 10
244.061
 20
99.0607
 11
244.247
 21
98.8334
  0
LINE
  8
0
 10
244.247
 20
98.8334
 11
244.386
 21
98.574
  0
LINE
  8
0
 10
244.386
 20
98.574
 11
244.471
 21
98.2926
  0
LINE
  8
0
 10
244.471
 20
98.2926
 11
244.5
 21
98
  0
LINE
  8
0
 10
244.5
 20
98
 11
244.471
 21
97.7074
  0
LINE
  8
0
 10
244.471
 20
97.7074
 11
244.386
 21
97.426
  0
LINE
  8
0
 10
244.386
 20
97.426
 11
244.247
 21
97.1666
  0
LINE
  8
0
 10
244.247
 20
97.1666
 11
244.061
 21
96.9393
  0
LINE
  8
0
 10
244.061
 20
96.9393
 11
243.833
 21
96.7528
  0
LINE
  8
0
 10
243.833
 20
96.7528
 11
243.574
 21
96.6142
  0
LINE
  8
0
 10
243.574
 20
96.6142
 11
243.293
 21
96.5288
  0
LINE
  8
0
 10
243.293
 20
96.5288
 11
243
 21
96.5
  0
LINE
  8
0
 10
243
 20
96.5
 11
242.707
 21
96.5288
  0
LINE
  8
0
 10
242.707
 20
96.5288
 11
242.426
 21
96.6142
  0
LINE
  8
0
 10
242.426
 20
96.6142
 11
242.167
 21
96.7528
  0
LINE
  8
0
 10
242.167
 20
96.7528
 11
241.939
 21
96.9393
  0
LINE
  8
0
 10
241.939
 20
96.9393
 11
241.753
 21
97.1666
  0
LINE
  8
0
 10
241.753
 20
97.1666
 11
241.614
 21
97.426
  0
LINE
  8
0
 10
241.614
 20
97.426
 11
241.529
 21
97.7074
  0
LINE
  8
0
 10
258.707
 20
92.5288
 11
258.426
 21
92.6142
  0
LINE
  8
0
 10
258.426
 20
92.6142
 11
258.167
 21
92.7528
  0
LINE
  8
0
 10
258.167
 20
92.7528
 11
257.939
 21
92.9393
  0
LINE
  8
0
 10
257.939
 20
92.9393
 11
257.753
 21
93.1666
  0
LINE
  8
0
 10
257.753
 20
93.1666
 11
257.614
 21
93.426
  0
LINE
  8
0
 10
257.614
 20
93.426
 11
257.529
 21
93.7074
  0
LINE
  8
0
 10
257.529
 20
93.7074
 11
257.5
 21
94
  0
LINE
  8
0
 10
257.5
 20
94
 11
257.529
 21
94.2926
  0
LINE
  8
0
 10
257.529
 20
94.2926
 11
257.614
 21
94.574
  0
LINE
  8
0
 10
257.614
 20
94.574
 11
257.753
 21
94.8334
  0
LINE
  8
0
 10
257.753
 20
94.8334
 11
257.939
 21
95.0607
  0
LINE
  8
0
 10
257.939
 20
95.0607
 11
258.167
 21
95.2472
  0
LINE
  8
0
 10
258.167
 20
95.2472
 11
258.426
 21
95.3858
  0
LINE
  8
0
 10
258.426
 20
95.3858
 11
258.707
 21
95.4712
  0
LINE
  8
0
 10
258.707
 20
95.4712
 11
259
 21
95.5
  0
LINE
  8
0
 10
259
 20
95.5
 11
259.293
 21
95.4712
  0
LINE
  8
0
 10
259.293
 20
95.4712
 11
259.574
 21
95.3858
  0
LINE
  8
0
 10
259.574
 20
95.3858
 11
259.833
 21
95.2472
  0
LINE
  8
0
 10
259.833
 20
95.2472
 11
260.061
 21
95.0607
  0
LINE
  8
0
 10
260.061
 20
95.0607
 11
260.247
 21
94.8334
  0
LINE
  8
0
 10
260.247
 20
94.8334
 11
260.386
 21
94.574
  0
LINE
  8
0
 10
260.386
 20
94.574
 11
260.471
 21
94.2926
  0
LINE
  8
0
 10
260.471
 20
94.2926
 11
260.5
 21
94
  0
LINE
  8
0
 10
260.5
 20
94
 11
260.471
 21
93.7074
  0
LINE
  8
0
 10
260.471
 20
93.7074
 11
260.386
 21
93.426
  0
LINE
  8
0
 10
260.386
 20
93.426
 11
260.247
 21
93.1666
  0
LINE
  8
0
 10
260.247
 20
93.1666
 11
260.061
 21
92.9393
  0
LINE
  8
0
 10
260.061
 20
92.9393
 11
259.833
 21
92.7528
  0
LINE
  8
0
 10
259.833
 20
92.7528
 11
259.574
 21
92.6142
  0
LINE
  8
0
 10
259.574
 20
92.6142
 11
259.293
 21
92.5288
  0
LINE
  8
0
 10
259.293
 20
92.5288
 11
259
 21
92.5
  0
LINE
  8
0
 10
259
 20
92.5
 11
258.707
 21
92.5288
  0
LINE
  8
0
 10
262.707
 20
92.5288
 11
262.426
 21
92.6142
  0
LINE
  8
0
 10
262.426
 20
92.6142
 11
262.167
 21
92.7528
  0
LINE
  8
0
 10
262.167
 20
92.7528
 11
261.939
 21
92.9393
  0
LINE
  8
0
 10
261.939
 20
92.9393
 11
261.753
 21
93.1666
  0
LINE
  8
0
 10
261.753
 20
93.1666
 11
261.614
 21
93.426
  0
LINE
  8
0
 10
261.614
 20
93.426
 11
261.529
 21
93.7074
  0
LINE
  8
0
 10
261.529
 20
93.7074
 11
261.5
 21
94
  0
LINE
  8
0
 10
261.5
 20
94
 11
261.529
 21
94.2926
  0
LINE
  8
0
 10
261.529
 20
94.2926
 11
261.614
 21
94.574
  0
LINE
  8
0
 10
261.614
 20
94.574
 11
261.753
 21
94.8334
  0
LINE
  8
0
 10
261.753
 20
94.8334
 11
261.939
 21
95.0607
  0
LINE
  8
0
 10
261.939
 20
95.0607
 11
262.167
 21
95.2472
  0
LINE
  8
0
 10
262.167
 20
95.2472
 11
262.426
 21
95.3858
  0
LINE
  8
0
 10
262.426
 20
95.3858
 11
262.707
 21
95.4712
  0
LINE
  8
0
 10
262.707
 20
95.4712
 11
263
 21
95.5
  0
LINE
  8
0
 10
263
 20
95.5
 11
263.293
 21
95.4712
  0
LINE
  8
0
 10
263.293
 20
95.4712
 11
263.574
 21
95.3858
  0
LINE
  8
0
 10
263.574
 20
95.3858
 11
263.833
 21
95.2472
  0
LINE
  8
0
 10
263.833
 20
95.2472
 11
264.061
 21
95.0607
  0
LINE
  8
0
 10
264.061
 20
95.0607
 11
264.247
 21
94.8334
  0
LINE
  8
0
 10
264.247
 20
94.8334
 11
264.386
 21
94.574
  0
LINE
  8
0
 10
264.386
 20
94.574
 11
264.471
 21
94.2926
  0
LINE
  8
0
 10
264.471
 20
94.2926
 11
264.5
 21
94
  0
LINE
  8
0
 10
264.5
 20
94
 11
264.471
 21
93.7074
  0
LINE
  8
0
 10
264.471
 20
93.7074
 11
264.386
 21
93.426
  0
LINE
  8
0
 10
264.386
 20
93.426
 11
264.247
 21
93.1666
  0
LINE
  8
0
 10
264.247
 20
93.1666
 11
264.061
 21
92.9393
  0
LINE
  8
0
 10
264.061
 20
92.9393
 11
263.833
 21
92.7528
  0
LINE
  8
0
 10
263.833
 20
92.7528
 11
263.574
 21
92.6142
  0
LINE
  8
0
 10
263.574
 20
92.6142
 11
263.293
 21
92.5288
  0
LINE
  8
0
 10
263.293
 20
92.5288
 11
263
 21
92.5
  0
LINE
  8
0
 10
263
 20
92.5
 11
262.707
 21
92.5288
  0
LINE
  8
0
 10
249.529
 20
93.7074
 11
249.5
 21
94
  0
LINE
  8
0
 10
249.5
 20
94
 11
249.529
 21
94.2926
  0
LINE
  8
0
 10
249.529
 20
94.2926
 11
249.614
 21
94.574
  0
LINE
  8
0
 10
249.614
 20
94.574
 11
249.753
 21
94.8334
  0
LINE
  8
0
 10
249.753
 20
94.8334
 11
249.939
 21
95.0607
  0
LINE
  8
0
 10
249.939
 20
95.0607
 11
250.167
 21
95.2472
  0
LINE
  8
0
 10
250.167
 20
95.2472
 11
250.426
 21
95.3858
  0
LINE
  8
0
 10
250.426
 20
95.3858
 11
250.707
 21
95.4712
  0
LINE
  8
0
 10
250.707
 20
95.4712
 11
251
 21
95.5
  0
LINE
  8
0
 10
251
 20
95.5
 11
251.293
 21
95.4712
  0
LINE
  8
0
 10
251.293
 20
95.4712
 11
251.574
 21
95.3858
  0
LINE
  8
0
 10
251.574
 20
95.3858
 11
251.833
 21
95.2472
  0
LINE
  8
0
 10
251.833
 20
95.2472
 11
252.061
 21
95.0607
  0
LINE
  8
0
 10
252.061
 20
95.0607
 11
252.247
 21
94.8334
  0
LINE
  8
0
 10
252.247
 20
94.8334
 11
252.386
 21
94.574
  0
LINE
  8
0
 10
252.386
 20
94.574
 11
252.471
 21
94.2926
  0
LINE
  8
0
 10
252.471
 20
94.2926
 11
252.5
 21
94
  0
LINE
  8
0
 10
252.5
 20
94
 11
252.471
 21
93.7074
  0
LINE
  8
0
 10
252.471
 20
93.7074
 11
252.386
 21
93.426
  0
LINE
  8
0
 10
252.386
 20
93.426
 11
252.247
 21
93.1666
  0
LINE
  8
0
 10
252.247
 20
93.1666
 11
252.061
 21
92.9393
  0
LINE
  8
0
 10
252.061
 20
92.9393
 11
251.833
 21
92.7528
  0
LINE
  8
0
 10
251.833
 20
92.7528
 11
251.574
 21
92.6142
  0
LINE
  8
0
 10
251.574
 20
92.6142
 11
251.293
 21
92.5288
  0
LINE
  8
0
 10
251.293
 20
92.5288
 11
251
 21
92.5
  0
LINE
  8
0
 10
251
 20
92.5
 11
250.707
 21
92.5288
  0
LINE
  8
0
 10
250.707
 20
92.5288
 11
250.426
 21
92.6142
  0
LINE
  8
0
 10
250.426
 20
92.6142
 11
250.167
 21
92.7528
  0
LINE
  8
0
 10
250.167
 20
92.7528
 11
249.939
 21
92.9393
  0
LINE
  8
0
 10
249.939
 20
92.9393
 11
249.753
 21
93.1666
  0
LINE
  8
0
 10
249.753
 20
93.1666
 11
249.614
 21
93.426
  0
LINE
  8
0
 10
249.614
 20
93.426
 11
249.529
 21
93.7074
  0
LINE
  8
0
 10
234.707
 20
92.5288
 11
234.426
 21
92.6142
  0
LINE
  8
0
 10
234.426
 20
92.6142
 11
234.167
 21
92.7528
  0
LINE
  8
0
 10
234.167
 20
92.7528
 11
233.939
 21
92.9393
  0
LINE
  8
0
 10
233.939
 20
92.9393
 11
233.753
 21
93.1666
  0
LINE
  8
0
 10
233.753
 20
93.1666
 11
233.614
 21
93.426
  0
LINE
  8
0
 10
233.614
 20
93.426
 11
233.529
 21
93.7074
  0
LINE
  8
0
 10
233.529
 20
93.7074
 11
233.5
 21
94
  0
LINE
  8
0
 10
233.5
 20
94
 11
233.529
 21
94.2926
  0
LINE
  8
0
 10
233.529
 20
94.2926
 11
233.614
 21
94.574
  0
LINE
  8
0
 10
233.614
 20
94.574
 11
233.753
 21
94.8334
  0
LINE
  8
0
 10
233.753
 20
94.8334
 11
233.939
 21
95.0607
  0
LINE
  8
0
 10
233.939
 20
95.0607
 11
234.167
 21
95.2472
  0
LINE
  8
0
 10
234.167
 20
95.2472
 11
234.426
 21
95.3858
  0
LINE
  8
0
 10
234.426
 20
95.3858
 11
234.707
 21
95.4712
  0
LINE
  8
0
 10
234.707
 20
95.4712
 11
235
 21
95.5
  0
LINE
  8
0
 10
235
 20
95.5
 11
235.293
 21
95.4712
  0
LINE
  8
0
 10
235.293
 20
95.4712
 11
235.574
 21
95.3858
  0
LINE
  8
0
 10
235.574
 20
95.3858
 11
235.833
 21
95.2472
  0
LINE
  8
0
 10
235.833
 20
95.2472
 11
236.061
 21
95.0607
  0
LINE
  8
0
 10
236.061
 20
95.0607
 11
236.247
 21
94.8334
  0
LINE
  8
0
 10
236.247
 20
94.8334
 11
236.386
 21
94.574
  0
LINE
  8
0
 10
236.386
 20
94.574
 11
236.471
 21
94.2926
  0
LINE
  8
0
 10
236.471
 20
94.2926
 11
236.5
 21
94
  0
LINE
  8
0
 10
236.5
 20
94
 11
236.471
 21
93.7074
  0
LINE
  8
0
 10
236.471
 20
93.7074
 11
236.386
 21
93.426
  0
LINE
  8
0
 10
236.386
 20
93.426
 11
236.247
 21
93.1666
  0
LINE
  8
0
 10
236.247
 20
93.1666
 11
236.061
 21
92.9393
  0
LINE
  8
0
 10
236.061
 20
92.9393
 11
235.833
 21
92.7528
  0
LINE
  8
0
 10
235.833
 20
92.7528
 11
235.574
 21
92.6142
  0
LINE
  8
0
 10
235.574
 20
92.6142
 11
235.293
 21
92.5288
  0
LINE
  8
0
 10
235.293
 20
92.5288
 11
235
 21
92.5
  0
LINE
  8
0
 10
235
 20
92.5
 11
234.707
 21
92.5288
  0
LINE
  8
0
 10
238.707
 20
92.5288
 11
238.426
 21
92.6142
  0
LINE
  8
0
 10
238.426
 20
92.6142
 11
238.167
 21
92.7528
  0
LINE
  8
0
 10
238.167
 20
92.7528
 11
237.939
 21
92.9393
  0
LINE
  8
0
 10
237.939
 20
92.9393
 11
237.753
 21
93.1666
  0
LINE
  8
0
 10
237.753
 20
93.1666
 11
237.614
 21
93.426
  0
LINE
  8
0
 10
237.614
 20
93.426
 11
237.529
 21
93.7074
  0
LINE
  8
0
 10
237.529
 20
93.7074
 11
237.5
 21
94
  0
LINE
  8
0
 10
237.5
 20
94
 11
237.529
 21
94.2926
  0
LINE
  8
0
 10
237.529
 20
94.2926
 11
237.614
 21
94.574
  0
LINE
  8
0
 10
237.614
 20
94.574
 11
237.753
 21
94.8334
  0
LINE
  8
0
 10
237.753
 20
94.8334
 11
237.939
 21
95.0607
  0
LINE
  8
0
 10
237.939
 20
95.0607
 11
238.167
 21
95.2472
  0
LINE
  8
0
 10
238.167
 20
95.2472
 11
238.426
 21
95.3858
  0
LINE
  8
0
 10
238.426
 20
95.3858
 11
238.707
 21
95.4712
  0
LINE
  8
0
 10
238.707
 20
95.4712
 11
239
 21
95.5
  0
LINE
  8
0
 10
239
 20
95.5
 11
239.293
 21
95.4712
  0
LINE
  8
0
 10
239.293
 20
95.4712
 11
239.574
 21
95.3858
  0
LINE
  8
0
 10
239.574
 20
95.3858
 11
239.833
 21
95.2472
  0
LINE
  8
0
 10
239.833
 20
95.2472
 11
240.061
 21
95.0607
  0
LINE
  8
0
 10
240.061
 20
95.0607
 11
240.247
 21
94.8334
  0
LINE
  8
0
 10
240.247
 20
94.8334
 11
240.386
 21
94.574
  0
LINE
  8
0
 10
240.386
 20
94.574
 11
240.471
 21
94.2926
  0
LINE
  8
0
 10
240.471
 20
94.2926
 11
240.5
 21
94
  0
LINE
  8
0
 10
240.5
 20
94
 11
240.471
 21
93.7074
  0
LINE
  8
0
 10
240.471
 20
93.7074
 11
240.386
 21
93.426
  0
LINE
  8
0
 10
240.386
 20
93.426
 11
240.247
 21
93.1666
  0
LINE
  8
0
 10
240.247
 20
93.1666
 11
240.061
 21
92.9393
  0
LINE
  8
0
 10
240.061
 20
92.9393
 11
239.833
 21
92.7528
  0
LINE
  8
0
 10
239.833
 20
92.7528
 11
239.574
 21
92.6142
  0
LINE
  8
0
 10
239.574
 20
92.6142
 11
239.293
 21
92.5288
  0
LINE
  8
0
 10
239.293
 20
92.5288
 11
239
 21
92.5
  0
LINE
  8
0
 10
239
 20
92.5
 11
238.707
 21
92.5288
  0
LINE
  8
0
 10
254.707
 20
92.5288
 11
254.426
 21
92.6142
  0
LINE
  8
0
 10
254.426
 20
92.6142
 11
254.167
 21
92.7528
  0
LINE
  8
0
 10
254.167
 20
92.7528
 11
253.939
 21
92.9393
  0
LINE
  8
0
 10
253.939
 20
92.9393
 11
253.753
 21
93.1666
  0
LINE
  8
0
 10
253.753
 20
93.1666
 11
253.614
 21
93.426
  0
LINE
  8
0
 10
253.614
 20
93.426
 11
253.529
 21
93.7074
  0
LINE
  8
0
 10
253.529
 20
93.7074
 11
253.5
 21
94
  0
LINE
  8
0
 10
253.5
 20
94
 11
253.529
 21
94.2926
  0
LINE
  8
0
 10
253.529
 20
94.2926
 11
253.614
 21
94.574
  0
LINE
  8
0
 10
253.614
 20
94.574
 11
253.753
 21
94.8334
  0
LINE
  8
0
 10
253.753
 20
94.8334
 11
253.939
 21
95.0607
  0
LINE
  8
0
 10
253.939
 20
95.0607
 11
254.167
 21
95.2472
  0
LINE
  8
0
 10
254.167
 20
95.2472
 11
254.426
 21
95.3858
  0
LINE
  8
0
 10
254.426
 20
95.3858
 11
254.707
 21
95.4712
  0
LINE
  8
0
 10
254.707
 20
95.4712
 11
255
 21
95.5
  0
LINE
  8
0
 10
255
 20
95.5
 11
255.293
 21
95.4712
  0
LINE
  8
0
 10
255.293
 20
95.4712
 11
255.574
 21
95.3858
  0
LINE
  8
0
 10
255.574
 20
95.3858
 11
255.833
 21
95.2472
  0
LINE
  8
0
 10
255.833
 20
95.2472
 11
256.061
 21
95.0607
  0
LINE
  8
0
 10
256.061
 20
95.0607
 11
256.247
 21
94.8334
  0
LINE
  8
0
 10
256.247
 20
94.8334
 11
256.386
 21
94.574
  0
LINE
  8
0
 10
256.386
 20
94.574
 11
256.471
 21
94.2926
  0
LINE
  8
0
 10
256.471
 20
94.2926
 11
256.5
 21
94
  0
LINE
  8
0
 10
256.5
 20
94
 11
256.471
 21
93.7074
  0
LINE
  8
0
 10
256.471
 20
93.7074
 11
256.386
 21
93.426
  0
LINE
  8
0
 10
256.386
 20
93.426
 11
256.247
 21
93.1666
  0
LINE
  8
0
 10
256.247
 20
93.1666
 11
256.061
 21
92.9393
  0
LINE
  8
0
 10
256.061
 20
92.9393
 11
255.833
 21
92.7528
  0
LINE
  8
0
 10
255.833
 20
92.7528
 11
255.574
 21
92.6142
  0
LINE
  8
0
 10
255.574
 20
92.6142
 11
255.293
 21
92.5288
  0
LINE
  8
0
 10
255.293
 20
92.5288
 11
255
 21
92.5
  0
LINE
  8
0
 10
255
 20
92.5
 11
254.707
 21
92.5288
  0
LINE
  8
0
 10
242.707
 20
92.5288
 11
242.426
 21
92.6142
  0
LINE
  8
0
 10
242.426
 20
92.6142
 11
242.167
 21
92.7528
  0
LINE
  8
0
 10
242.167
 20
92.7528
 11
241.939
 21
92.9393
  0
LINE
  8
0
 10
241.939
 20
92.9393
 11
241.753
 21
93.1666
  0
LINE
  8
0
 10
241.753
 20
93.1666
 11
241.614
 21
93.426
  0
LINE
  8
0
 10
241.614
 20
93.426
 11
241.529
 21
93.7074
  0
LINE
  8
0
 10
241.529
 20
93.7074
 11
241.5
 21
94
  0
LINE
  8
0
 10
241.5
 20
94
 11
241.529
 21
94.2926
  0
LINE
  8
0
 10
241.529
 20
94.2926
 11
241.614
 21
94.574
  0
LINE
  8
0
 10
241.614
 20
94.574
 11
241.753
 21
94.8334
  0
LINE
  8
0
 10
241.753
 20
94.8334
 11
241.939
 21
95.0607
  0
LINE
  8
0
 10
241.939
 20
95.0607
 11
242.167
 21
95.2472
  0
LINE
  8
0
 10
242.167
 20
95.2472
 11
242.426
 21
95.3858
  0
LINE
  8
0
 10
242.426
 20
95.3858
 11
242.707
 21
95.4712
  0
LINE
  8
0
 10
242.707
 20
95.4712
 11
243
 21
95.5
  0
LINE
  8
0
 10
243
 20
95.5
 11
243.293
 21
95.4712
  0
LINE
  8
0
 10
243.293
 20
95.4712
 11
243.574
 21
95.3858
  0
LINE
  8
0
 10
243.574
 20
95.3858
 11
243.833
 21
95.2472
  0
LINE
  8
0
 10
243.833
 20
95.2472
 11
244.061
 21
95.0607
  0
LINE
  8
0
 10
244.061
 20
95.0607
 11
244.247
 21
94.8334
  0
LINE
  8
0
 10
244.247
 20
94.8334
 11
244.386
 21
94.574
  0
LINE
  8
0
 10
244.386
 20
94.574
 11
244.471
 21
94.2926
  0
LINE
  8
0
 10
244.471
 20
94.2926
 11
244.5
 21
94
  0
LINE
  8
0
 10
244.5
 20
94
 11
244.471
 21
93.7074
  0
LINE
  8
0
 10
244.471
 20
93.7074
 11
244.386
 21
93.426
  0
LINE
  8
0
 10
244.386
 20
93.426
 11
244.247
 21
93.1666
  0
LINE
  8
0
 10
244.247
 20
93.1666
 11
244.061
 21
92.9393
  0
LINE
  8
0
 10
244.061
 20
92.9393
 11
243.833
 21
92.7528
  0
LINE
  8
0
 10
243.833
 20
92.7528
 11
243.574
 21
92.6142
  0
LINE
  8
0
 10
243.574
 20
92.6142
 11
243.293
 21
92.5288
  0
LINE
  8
0
 10
243.293
 20
92.5288
 11
243
 21
92.5
  0
LINE
  8
0
 10
243
 20
92.5
 11
242.707
 21
92.5288
  0
LINE
  8
0
 10
254.707
 20
88.5288
 11
254.426
 21
88.6142
  0
LINE
  8
0
 10
254.426
 20
88.6142
 11
254.167
 21
88.7528
  0
LINE
  8
0
 10
254.167
 20
88.7528
 11
253.939
 21
88.9393
  0
LINE
  8
0
 10
253.939
 20
88.9393
 11
253.753
 21
89.1666
  0
LINE
  8
0
 10
253.753
 20
89.1666
 11
253.614
 21
89.426
  0
LINE
  8
0
 10
253.614
 20
89.426
 11
253.529
 21
89.7074
  0
LINE
  8
0
 10
253.529
 20
89.7074
 11
253.5
 21
90
  0
LINE
  8
0
 10
253.5
 20
90
 11
253.529
 21
90.2926
  0
LINE
  8
0
 10
253.529
 20
90.2926
 11
253.614
 21
90.574
  0
LINE
  8
0
 10
253.614
 20
90.574
 11
253.753
 21
90.8334
  0
LINE
  8
0
 10
253.753
 20
90.8334
 11
253.939
 21
91.0607
  0
LINE
  8
0
 10
253.939
 20
91.0607
 11
254.167
 21
91.2472
  0
LINE
  8
0
 10
254.167
 20
91.2472
 11
254.426
 21
91.3858
  0
LINE
  8
0
 10
254.426
 20
91.3858
 11
254.707
 21
91.4712
  0
LINE
  8
0
 10
254.707
 20
91.4712
 11
255
 21
91.5
  0
LINE
  8
0
 10
255
 20
91.5
 11
255.293
 21
91.4712
  0
LINE
  8
0
 10
255.293
 20
91.4712
 11
255.574
 21
91.3858
  0
LINE
  8
0
 10
255.574
 20
91.3858
 11
255.833
 21
91.2472
  0
LINE
  8
0
 10
255.833
 20
91.2472
 11
256.061
 21
91.0607
  0
LINE
  8
0
 10
256.061
 20
91.0607
 11
256.247
 21
90.8334
  0
LINE
  8
0
 10
256.247
 20
90.8334
 11
256.386
 21
90.574
  0
LINE
  8
0
 10
256.386
 20
90.574
 11
256.471
 21
90.2926
  0
LINE
  8
0
 10
256.471
 20
90.2926
 11
256.5
 21
90
  0
LINE
  8
0
 10
256.5
 20
90
 11
256.471
 21
89.7074
  0
LINE
  8
0
 10
256.471
 20
89.7074
 11
256.386
 21
89.426
  0
LINE
  8
0
 10
256.386
 20
89.426
 11
256.247
 21
89.1666
  0
LINE
  8
0
 10
256.247
 20
89.1666
 11
256.061
 21
88.9393
  0
LINE
  8
0
 10
256.061
 20
88.9393
 11
255.833
 21
88.7528
  0
LINE
  8
0
 10
255.833
 20
88.7528
 11
255.574
 21
88.6142
  0
LINE
  8
0
 10
255.574
 20
88.6142
 11
255.293
 21
88.5288
  0
LINE
  8
0
 10
255.293
 20
88.5288
 11
255
 21
88.5
  0
LINE
  8
0
 10
255
 20
88.5
 11
254.707
 21
88.5288
  0
LINE
  8
0
 10
262.707
 20
88.5288
 11
262.426
 21
88.6142
  0
LINE
  8
0
 10
262.426
 20
88.6142
 11
262.167
 21
88.7528
  0
LINE
  8
0
 10
262.167
 20
88.7528
 11
261.939
 21
88.9393
  0
LINE
  8
0
 10
261.939
 20
88.9393
 11
261.753
 21
89.1666
  0
LINE
  8
0
 10
261.753
 20
89.1666
 11
261.614
 21
89.426
  0
LINE
  8
0
 10
261.614
 20
89.426
 11
261.529
 21
89.7074
  0
LINE
  8
0
 10
261.529
 20
89.7074
 11
261.5
 21
90
  0
LINE
  8
0
 10
261.5
 20
90
 11
261.529
 21
90.2926
  0
LINE
  8
0
 10
261.529
 20
90.2926
 11
261.614
 21
90.574
  0
LINE
  8
0
 10
261.614
 20
90.574
 11
261.753
 21
90.8334
  0
LINE
  8
0
 10
261.753
 20
90.8334
 11
261.939
 21
91.0607
  0
LINE
  8
0
 10
261.939
 20
91.0607
 11
262.167
 21
91.2472
  0
LINE
  8
0
 10
262.167
 20
91.2472
 11
262.426
 21
91.3858
  0
LINE
  8
0
 10
262.426
 20
91.3858
 11
262.707
 21
91.4712
  0
LINE
  8
0
 10
262.707
 20
91.4712
 11
263
 21
91.5
  0
LINE
  8
0
 10
263
 20
91.5
 11
263.293
 21
91.4712
  0
LINE
  8
0
 10
263.293
 20
91.4712
 11
263.574
 21
91.3858
  0
LINE
  8
0
 10
263.574
 20
91.3858
 11
263.833
 21
91.2472
  0
LINE
  8
0
 10
263.833
 20
91.2472
 11
264.061
 21
91.0607
  0
LINE
  8
0
 10
264.061
 20
91.0607
 11
264.247
 21
90.8334
  0
LINE
  8
0
 10
264.247
 20
90.8334
 11
264.386
 21
90.574
  0
LINE
  8
0
 10
264.386
 20
90.574
 11
264.471
 21
90.2926
  0
LINE
  8
0
 10
264.471
 20
90.2926
 11
264.5
 21
90
  0
LINE
  8
0
 10
264.5
 20
90
 11
264.471
 21
89.7074
  0
LINE
  8
0
 10
264.471
 20
89.7074
 11
264.386
 21
89.426
  0
LINE
  8
0
 10
264.386
 20
89.426
 11
264.247
 21
89.1666
  0
LINE
  8
0
 10
264.247
 20
89.1666
 11
264.061
 21
88.9393
  0
LINE
  8
0
 10
264.061
 20
88.9393
 11
263.833
 21
88.7528
  0
LINE
  8
0
 10
263.833
 20
88.7528
 11
263.574
 21
88.6142
  0
LINE
  8
0
 10
263.574
 20
88.6142
 11
263.293
 21
88.5288
  0
LINE
  8
0
 10
263.293
 20
88.5288
 11
263
 21
88.5
  0
LINE
  8
0
 10
263
 20
88.5
 11
262.707
 21
88.5288
  0
LINE
  8
0
 10
234.707
 20
88.5288
 11
234.426
 21
88.6142
  0
LINE
  8
0
 10
234.426
 20
88.6142
 11
234.167
 21
88.7528
  0
LINE
  8
0
 10
234.167
 20
88.7528
 11
233.939
 21
88.9393
  0
LINE
  8
0
 10
233.939
 20
88.9393
 11
233.753
 21
89.1666
  0
LINE
  8
0
 10
233.753
 20
89.1666
 11
233.614
 21
89.426
  0
LINE
  8
0
 10
233.614
 20
89.426
 11
233.529
 21
89.7074
  0
LINE
  8
0
 10
233.529
 20
89.7074
 11
233.5
 21
90
  0
LINE
  8
0
 10
233.5
 20
90
 11
233.529
 21
90.2926
  0
LINE
  8
0
 10
233.529
 20
90.2926
 11
233.614
 21
90.574
  0
LINE
  8
0
 10
233.614
 20
90.574
 11
233.753
 21
90.8334
  0
LINE
  8
0
 10
233.753
 20
90.8334
 11
233.939
 21
91.0607
  0
LINE
  8
0
 10
233.939
 20
91.0607
 11
234.167
 21
91.2472
  0
LINE
  8
0
 10
234.167
 20
91.2472
 11
234.426
 21
91.3858
  0
LINE
  8
0
 10
234.426
 20
91.3858
 11
234.707
 21
91.4712
  0
LINE
  8
0
 10
234.707
 20
91.4712
 11
235
 21
91.5
  0
LINE
  8
0
 10
235
 20
91.5
 11
235.293
 21
91.4712
  0
LINE
  8
0
 10
235.293
 20
91.4712
 11
235.574
 21
91.3858
  0
LINE
  8
0
 10
235.574
 20
91.3858
 11
235.833
 21
91.2472
  0
LINE
  8
0
 10
235.833
 20
91.2472
 11
236.061
 21
91.0607
  0
LINE
  8
0
 10
236.061
 20
91.0607
 11
236.247
 21
90.8334
  0
LINE
  8
0
 10
236.247
 20
90.8334
 11
236.386
 21
90.574
  0
LINE
  8
0
 10
236.386
 20
90.574
 11
236.471
 21
90.2926
  0
LINE
  8
0
 10
236.471
 20
90.2926
 11
236.5
 21
90
  0
LINE
  8
0
 10
236.5
 20
90
 11
236.471
 21
89.7074
  0
LINE
  8
0
 10
236.471
 20
89.7074
 11
236.386
 21
89.426
  0
LINE
  8
0
 10
236.386
 20
89.426
 11
236.247
 21
89.1666
  0
LINE
  8
0
 10
236.247
 20
89.1666
 11
236.061
 21
88.9393
  0
LINE
  8
0
 10
236.061
 20
88.9393
 11
235.833
 21
88.7528
  0
LINE
  8
0
 10
235.833
 20
88.7528
 11
235.574
 21
88.6142
  0
LINE
  8
0
 10
235.574
 20
88.6142
 11
235.293
 21
88.5288
  0
LINE
  8
0
 10
235.293
 20
88.5288
 11
235
 21
88.5
  0
LINE
  8
0
 10
235
 20
88.5
 11
234.707
 21
88.5288
  0
LINE
  8
0
 10
250.707
 20
88.5288
 11
250.426
 21
88.6142
  0
LINE
  8
0
 10
250.426
 20
88.6142
 11
250.167
 21
88.7528
  0
LINE
  8
0
 10
250.167
 20
88.7528
 11
249.939
 21
88.9393
  0
LINE
  8
0
 10
249.939
 20
88.9393
 11
249.753
 21
89.1666
  0
LINE
  8
0
 10
249.753
 20
89.1666
 11
249.614
 21
89.426
  0
LINE
  8
0
 10
249.614
 20
89.426
 11
249.529
 21
89.7074
  0
LINE
  8
0
 10
249.529
 20
89.7074
 11
249.5
 21
90
  0
LINE
  8
0
 10
249.5
 20
90
 11
249.529
 21
90.2926
  0
LINE
  8
0
 10
249.529
 20
90.2926
 11
249.614
 21
90.574
  0
LINE
  8
0
 10
249.614
 20
90.574
 11
249.753
 21
90.8334
  0
LINE
  8
0
 10
249.753
 20
90.8334
 11
249.939
 21
91.0607
  0
LINE
  8
0
 10
249.939
 20
91.0607
 11
250.167
 21
91.2472
  0
LINE
  8
0
 10
250.167
 20
91.2472
 11
250.426
 21
91.3858
  0
LINE
  8
0
 10
250.426
 20
91.3858
 11
250.707
 21
91.4712
  0
LINE
  8
0
 10
250.707
 20
91.4712
 11
251
 21
91.5
  0
LINE
  8
0
 10
251
 20
91.5
 11
251.293
 21
91.4712
  0
LINE
  8
0
 10
251.293
 20
91.4712
 11
251.574
 21
91.3858
  0
LINE
  8
0
 10
251.574
 20
91.3858
 11
251.833
 21
91.2472
  0
LINE
  8
0
 10
251.833
 20
91.2472
 11
252.061
 21
91.0607
  0
LINE
  8
0
 10
252.061
 20
91.0607
 11
252.247
 21
90.8334
  0
LINE
  8
0
 10
252.247
 20
90.8334
 11
252.386
 21
90.574
  0
LINE
  8
0
 10
252.386
 20
90.574
 11
252.471
 21
90.2926
  0
LINE
  8
0
 10
252.471
 20
90.2926
 11
252.5
 21
90
  0
LINE
  8
0
 10
252.5
 20
90
 11
252.471
 21
89.7074
  0
LINE
  8
0
 10
252.471
 20
89.7074
 11
252.386
 21
89.426
  0
LINE
  8
0
 10
252.386
 20
89.426
 11
252.247
 21
89.1666
  0
LINE
  8
0
 10
252.247
 20
89.1666
 11
252.061
 21
88.9393
  0
LINE
  8
0
 10
252.061
 20
88.9393
 11
251.833
 21
88.7528
  0
LINE
  8
0
 10
251.833
 20
88.7528
 11
251.574
 21
88.6142
  0
LINE
  8
0
 10
251.574
 20
88.6142
 11
251.293
 21
88.5288
  0
LINE
  8
0
 10
251.293
 20
88.5288
 11
251
 21
88.5
  0
LINE
  8
0
 10
251
 20
88.5
 11
250.707
 21
88.5288
  0
LINE
  8
0
 10
246.707
 20
88.5288
 11
246.426
 21
88.6142
  0
LINE
  8
0
 10
246.426
 20
88.6142
 11
246.167
 21
88.7528
  0
LINE
  8
0
 10
246.167
 20
88.7528
 11
245.939
 21
88.9393
  0
LINE
  8
0
 10
245.939
 20
88.9393
 11
245.753
 21
89.1666
  0
LINE
  8
0
 10
245.753
 20
89.1666
 11
245.614
 21
89.426
  0
LINE
  8
0
 10
245.614
 20
89.426
 11
245.529
 21
89.7074
  0
LINE
  8
0
 10
245.529
 20
89.7074
 11
245.5
 21
90
  0
LINE
  8
0
 10
245.5
 20
90
 11
245.529
 21
90.2926
  0
LINE
  8
0
 10
245.529
 20
90.2926
 11
245.614
 21
90.574
  0
LINE
  8
0
 10
245.614
 20
90.574
 11
245.753
 21
90.8334
  0
LINE
  8
0
 10
245.753
 20
90.8334
 11
245.939
 21
91.0607
  0
LINE
  8
0
 10
245.939
 20
91.0607
 11
246.167
 21
91.2472
  0
LINE
  8
0
 10
246.167
 20
91.2472
 11
246.426
 21
91.3858
  0
LINE
  8
0
 10
246.426
 20
91.3858
 11
246.707
 21
91.4712
  0
LINE
  8
0
 10
246.707
 20
91.4712
 11
247
 21
91.5
  0
LINE
  8
0
 10
247
 20
91.5
 11
247.293
 21
91.4712
  0
LINE
  8
0
 10
247.293
 20
91.4712
 11
247.574
 21
91.3858
  0
LINE
  8
0
 10
247.574
 20
91.3858
 11
247.833
 21
91.2472
  0
LINE
  8
0
 10
247.833
 20
91.2472
 11
248.061
 21
91.0607
  0
LINE
  8
0
 10
248.061
 20
91.0607
 11
248.247
 21
90.8334
  0
LINE
  8
0
 10
248.247
 20
90.8334
 11
248.386
 21
90.574
  0
LINE
  8
0
 10
248.386
 20
90.574
 11
248.471
 21
90.2926
  0
LINE
  8
0
 10
248.471
 20
90.2926
 11
248.5
 21
90
  0
LINE
  8
0
 10
248.5
 20
90
 11
248.471
 21
89.7074
  0
LINE
  8
0
 10
248.471
 20
89.7074
 11
248.386
 21
89.426
  0
LINE
  8
0
 10
248.386
 20
89.426
 11
248.247
 21
89.1666
  0
LINE
  8
0
 10
248.247
 20
89.1666
 11
248.061
 21
88.9393
  0
LINE
  8
0
 10
248.061
 20
88.9393
 11
247.833
 21
88.7528
  0
LINE
  8
0
 10
247.833
 20
88.7528
 11
247.574
 21
88.6142
  0
LINE
  8
0
 10
247.574
 20
88.6142
 11
247.293
 21
88.5288
  0
LINE
  8
0
 10
247.293
 20
88.5288
 11
247
 21
88.5
  0
LINE
  8
0
 10
247
 20
88.5
 11
246.707
 21
88.5288
  0
LINE
  8
0
 10
242.707
 20
88.5288
 11
242.426
 21
88.6142
  0
LINE
  8
0
 10
242.426
 20
88.6142
 11
242.167
 21
88.7528
  0
LINE
  8
0
 10
242.167
 20
88.7528
 11
241.939
 21
88.9393
  0
LINE
  8
0
 10
241.939
 20
88.9393
 11
241.753
 21
89.1666
  0
LINE
  8
0
 10
241.753
 20
89.1666
 11
241.614
 21
89.426
  0
LINE
  8
0
 10
241.614
 20
89.426
 11
241.529
 21
89.7074
  0
LINE
  8
0
 10
241.529
 20
89.7074
 11
241.5
 21
90
  0
LINE
  8
0
 10
241.5
 20
90
 11
241.529
 21
90.2926
  0
LINE
  8
0
 10
241.529
 20
90.2926
 11
241.614
 21
90.574
  0
LINE
  8
0
 10
241.614
 20
90.574
 11
241.753
 21
90.8334
  0
LINE
  8
0
 10
241.753
 20
90.8334
 11
241.939
 21
91.0607
  0
LINE
  8
0
 10
241.939
 20
91.0607
 11
242.167
 21
91.2472
  0
LINE
  8
0
 10
242.167
 20
91.2472
 11
242.426
 21
91.3858
  0
LINE
  8
0
 10
242.426
 20
91.3858
 11
242.707
 21
91.4712
  0
LINE
  8
0
 10
242.707
 20
91.4712
 11
243
 21
91.5
  0
LINE
  8
0
 10
243
 20
91.5
 11
243.293
 21
91.4712
  0
LINE
  8
0
 10
243.293
 20
91.4712
 11
243.574
 21
91.3858
  0
LINE
  8
0
 10
243.574
 20
91.3858
 11
243.833
 21
91.2472
  0
LINE
  8
0
 10
243.833
 20
91.2472
 11
244.061
 21
91.0607
  0
LINE
  8
0
 10
244.061
 20
91.0607
 11
244.247
 21
90.8334
  0
LINE
  8
0
 10
244.247
 20
90.8334
 11
244.386
 21
90.574
  0
LINE
  8
0
 10
244.386
 20
90.574
 11
244.471
 21
90.2926
  0
LINE
  8
0
 10
244.471
 20
90.2926
 11
244.5
 21
90
  0
LINE
  8
0
 10
244.5
 20
90
 11
244.471
 21
89.7074
  0
LINE
  8
0
 10
244.471
 20
89.7074
 11
244.386
 21
89.426
  0
LINE
  8
0
 10
244.386
 20
89.426
 11
244.247
 21
89.1666
  0
LINE
  8
0
 10
244.247
 20
89.1666
 11
244.061
 21
88.9393
  0
LINE
  8
0
 10
244.061
 20
88.9393
 11
243.833
 21
88.7528
  0
LINE
  8
0
 10
243.833
 20
88.7528
 11
243.574
 21
88.6142
  0
LINE
  8
0
 10
243.574
 20
88.6142
 11
243.293
 21
88.5288
  0
LINE
  8
0
 10
243.293
 20
88.5288
 11
243
 21
88.5
  0
LINE
  8
0
 10
243
 20
88.5
 11
242.707
 21
88.5288
  0
LINE
  8
0
 10
238.707
 20
88.5288
 11
238.426
 21
88.6142
  0
LINE
  8
0
 10
238.426
 20
88.6142
 11
238.167
 21
88.7528
  0
LINE
  8
0
 10
238.167
 20
88.7528
 11
237.939
 21
88.9393
  0
LINE
  8
0
 10
237.939
 20
88.9393
 11
237.753
 21
89.1666
  0
LINE
  8
0
 10
237.753
 20
89.1666
 11
237.614
 21
89.426
  0
LINE
  8
0
 10
237.614
 20
89.426
 11
237.529
 21
89.7074
  0
LINE
  8
0
 10
237.529
 20
89.7074
 11
237.5
 21
90
  0
LINE
  8
0
 10
237.5
 20
90
 11
237.529
 21
90.2926
  0
LINE
  8
0
 10
237.529
 20
90.2926
 11
237.614
 21
90.574
  0
LINE
  8
0
 10
237.614
 20
90.574
 11
237.753
 21
90.8334
  0
LINE
  8
0
 10
237.753
 20
90.8334
 11
237.939
 21
91.0607
  0
LINE
  8
0
 10
237.939
 20
91.0607
 11
238.167
 21
91.2472
  0
LINE
  8
0
 10
238.167
 20
91.2472
 11
238.426
 21
91.3858
  0
LINE
  8
0
 10
238.426
 20
91.3858
 11
238.707
 21
91.4712
  0
LINE
  8
0
 10
238.707
 20
91.4712
 11
239
 21
91.5
  0
LINE
  8
0
 10
239
 20
91.5
 11
239.293
 21
91.4712
  0
LINE
  8
0
 10
239.293
 20
91.4712
 11
239.574
 21
91.3858
  0
LINE
  8
0
 10
239.574
 20
91.3858
 11
239.833
 21
91.2472
  0
LINE
  8
0
 10
239.833
 20
91.2472
 11
240.061
 21
91.0607
  0
LINE
  8
0
 10
240.061
 20
91.0607
 11
240.247
 21
90.8334
  0
LINE
  8
0
 10
240.247
 20
90.8334
 11
240.386
 21
90.574
  0
LINE
  8
0
 10
240.386
 20
90.574
 11
240.471
 21
90.2926
  0
LINE
  8
0
 10
240.471
 20
90.2926
 11
240.5
 21
90
  0
LINE
  8
0
 10
240.5
 20
90
 11
240.471
 21
89.7074
  0
LINE
  8
0
 10
240.471
 20
89.7074
 11
240.386
 21
89.426
  0
LINE
  8
0
 10
240.386
 20
89.426
 11
240.247
 21
89.1666
  0
LINE
  8
0
 10
240.247
 20
89.1666
 11
240.061
 21
88.9393
  0
LINE
  8
0
 10
240.061
 20
88.9393
 11
239.833
 21
88.7528
  0
LINE
  8
0
 10
239.833
 20
88.7528
 11
239.574
 21
88.6142
  0
LINE
  8
0
 10
239.574
 20
88.6142
 11
239.293
 21
88.5288
  0
LINE
  8
0
 10
239.293
 20
88.5288
 11
239
 21
88.5
  0
LINE
  8
0
 10
239
 20
88.5
 11
238.707
 21
88.5288
  0
LINE
  8
0
 10
258.707
 20
88.5288
 11
258.426
 21
88.6142
  0
LINE
  8
0
 10
258.426
 20
88.6142
 11
258.167
 21
88.7528
  0
LINE
  8
0
 10
258.167
 20
88.7528
 11
257.939
 21
88.9393
  0
LINE
  8
0
 10
257.939
 20
88.9393
 11
257.753
 21
89.1666
  0
LINE
  8
0
 10
257.753
 20
89.1666
 11
257.614
 21
89.426
  0
LINE
  8
0
 10
257.614
 20
89.426
 11
257.529
 21
89.7074
  0
LINE
  8
0
 10
257.529
 20
89.7074
 11
257.5
 21
90
  0
LINE
  8
0
 10
257.5
 20
90
 11
257.529
 21
90.2926
  0
LINE
  8
0
 10
257.529
 20
90.2926
 11
257.614
 21
90.574
  0
LINE
  8
0
 10
257.614
 20
90.574
 11
257.753
 21
90.8334
  0
LINE
  8
0
 10
257.753
 20
90.8334
 11
257.939
 21
91.0607
  0
LINE
  8
0
 10
257.939
 20
91.0607
 11
258.167
 21
91.2472
  0
LINE
  8
0
 10
258.167
 20
91.2472
 11
258.426
 21
91.3858
  0
LINE
  8
0
 10
258.426
 20
91.3858
 11
258.707
 21
91.4712
  0
LINE
  8
0
 10
258.707
 20
91.4712
 11
259
 21
91.5
  0
LINE
  8
0
 10
259
 20
91.5
 11
259.293
 21
91.4712
  0
LINE
  8
0
 10
259.293
 20
91.4712
 11
259.574
 21
91.3858
  0
LINE
  8
0
 10
259.574
 20
91.3858
 11
259.833
 21
91.2472
  0
LINE
  8
0
 10
259.833
 20
91.2472
 11
260.061
 21
91.0607
  0
LINE
  8
0
 10
260.061
 20
91.0607
 11
260.247
 21
90.8334
  0
LINE
  8
0
 10
260.247
 20
90.8334
 11
260.386
 21
90.574
  0
LINE
  8
0
 10
260.386
 20
90.574
 11
260.471
 21
90.2926
  0
LINE
  8
0
 10
260.471
 20
90.2926
 11
260.5
 21
90
  0
LINE
  8
0
 10
260.5
 20
90
 11
260.471
 21
89.7074
  0
LINE
  8
0
 10
260.471
 20
89.7074
 11
260.386
 21
89.426
  0
LINE
  8
0
 10
260.386
 20
89.426
 11
260.247
 21
89.1666
  0
LINE
  8
0
 10
260.247
 20
89.1666
 11
260.061
 21
88.9393
  0
LINE
  8
0
 10
260.061
 20
88.9393
 11
259.833
 21
88.7528
  0
LINE
  8
0
 10
259.833
 20
88.7528
 11
259.574
 21
88.6142
  0
LINE
  8
0
 10
259.574
 20
88.6142
 11
259.293
 21
88.5288
  0
LINE
  8
0
 10
259.293
 20
88.5288
 11
259
 21
88.5
  0
LINE
  8
0
 10
259
 20
88.5
 11
258.707
 21
88.5288
  0
LINE
  8
0
 10
259.574
 20
119.386
 11
259.833
 21
119.247
  0
LINE
  8
0
 10
259.833
 20
119.247
 11
260.061
 21
119.061
  0
LINE
  8
0
 10
260.061
 20
119.061
 11
260.247
 21
118.833
  0
LINE
  8
0
 10
260.247
 20
118.833
 11
260.386
 21
118.574
  0
LINE
  8
0
 10
260.386
 20
118.574
 11
260.471
 21
118.293
  0
LINE
  8
0
 10
260.471
 20
118.293
 11
260.5
 21
118
  0
LINE
  8
0
 10
260.5
 20
118
 11
260.471
 21
117.707
  0
LINE
  8
0
 10
260.471
 20
117.707
 11
260.386
 21
117.426
  0
LINE
  8
0
 10
260.386
 20
117.426
 11
260.247
 21
117.167
  0
LINE
  8
0
 10
260.247
 20
117.167
 11
260.061
 21
116.939
  0
LINE
  8
0
 10
260.061
 20
116.939
 11
259.833
 21
116.753
  0
LINE
  8
0
 10
259.833
 20
116.753
 11
259.574
 21
116.614
  0
LINE
  8
0
 10
259.574
 20
116.614
 11
259.293
 21
116.529
  0
LINE
  8
0
 10
259.293
 20
116.529
 11
259
 21
116.5
  0
LINE
  8
0
 10
259
 20
116.5
 11
258.707
 21
116.529
  0
LINE
  8
0
 10
258.707
 20
116.529
 11
258.426
 21
116.614
  0
LINE
  8
0
 10
258.426
 20
116.614
 11
258.167
 21
116.753
  0
LINE
  8
0
 10
258.167
 20
116.753
 11
257.939
 21
116.939
  0
LINE
  8
0
 10
257.939
 20
116.939
 11
257.753
 21
117.167
  0
LINE
  8
0
 10
257.753
 20
117.167
 11
257.614
 21
117.426
  0
LINE
  8
0
 10
257.614
 20
117.426
 11
257.529
 21
117.707
  0
LINE
  8
0
 10
257.529
 20
117.707
 11
257.5
 21
118
  0
LINE
  8
0
 10
257.5
 20
118
 11
257.529
 21
118.293
  0
LINE
  8
0
 10
257.529
 20
118.293
 11
257.614
 21
118.574
  0
LINE
  8
0
 10
257.614
 20
118.574
 11
257.753
 21
118.833
  0
LINE
  8
0
 10
257.753
 20
118.833
 11
257.939
 21
119.061
  0
LINE
  8
0
 10
257.939
 20
119.061
 11
258.167
 21
119.247
  0
LINE
  8
0
 10
258.167
 20
119.247
 11
258.426
 21
119.386
  0
LINE
  8
0
 10
258.426
 20
119.386
 11
258.707
 21
119.471
  0
LINE
  8
0
 10
258.707
 20
119.471
 11
259
 21
119.5
  0
LINE
  8
0
 10
259
 20
119.5
 11
259.293
 21
119.471
  0
LINE
  8
0
 10
259.293
 20
119.471
 11
259.574
 21
119.386
  0
LINE
  8
0
 10
255.833
 20
112.753
 11
255.574
 21
112.614
  0
LINE
  8
0
 10
255.574
 20
112.614
 11
255.293
 21
112.529
  0
LINE
  8
0
 10
255.293
 20
112.529
 11
255
 21
112.5
  0
LINE
  8
0
 10
255
 20
112.5
 11
254.707
 21
112.529
  0
LINE
  8
0
 10
254.707
 20
112.529
 11
254.426
 21
112.614
  0
LINE
  8
0
 10
254.426
 20
112.614
 11
254.167
 21
112.753
  0
LINE
  8
0
 10
254.167
 20
112.753
 11
253.939
 21
112.939
  0
LINE
  8
0
 10
253.939
 20
112.939
 11
253.753
 21
113.167
  0
LINE
  8
0
 10
253.753
 20
113.167
 11
253.614
 21
113.426
  0
LINE
  8
0
 10
253.614
 20
113.426
 11
253.529
 21
113.707
  0
LINE
  8
0
 10
253.529
 20
113.707
 11
253.5
 21
114
  0
LINE
  8
0
 10
253.5
 20
114
 11
253.529
 21
114.293
  0
LINE
  8
0
 10
253.529
 20
114.293
 11
253.614
 21
114.574
  0
LINE
  8
0
 10
253.614
 20
114.574
 11
253.753
 21
114.833
  0
LINE
  8
0
 10
253.753
 20
114.833
 11
253.939
 21
115.061
  0
LINE
  8
0
 10
253.939
 20
115.061
 11
254.167
 21
115.247
  0
LINE
  8
0
 10
254.167
 20
115.247
 11
254.426
 21
115.386
  0
LINE
  8
0
 10
254.426
 20
115.386
 11
254.707
 21
115.471
  0
LINE
  8
0
 10
254.707
 20
115.471
 11
255
 21
115.5
  0
LINE
  8
0
 10
255
 20
115.5
 11
255.293
 21
115.471
  0
LINE
  8
0
 10
255.293
 20
115.471
 11
255.574
 21
115.386
  0
LINE
  8
0
 10
255.574
 20
115.386
 11
255.833
 21
115.247
  0
LINE
  8
0
 10
255.833
 20
115.247
 11
256.061
 21
115.061
  0
LINE
  8
0
 10
256.061
 20
115.061
 11
256.247
 21
114.833
  0
LINE
  8
0
 10
256.247
 20
114.833
 11
256.386
 21
114.574
  0
LINE
  8
0
 10
256.386
 20
114.574
 11
256.471
 21
114.293
  0
LINE
  8
0
 10
256.471
 20
114.293
 11
256.5
 21
114
  0
LINE
  8
0
 10
256.5
 20
114
 11
256.471
 21
113.707
  0
LINE
  8
0
 10
256.471
 20
113.707
 11
256.386
 21
113.426
  0
LINE
  8
0
 10
256.386
 20
113.426
 11
256.247
 21
113.167
  0
LINE
  8
0
 10
256.247
 20
113.167
 11
256.061
 21
112.939
  0
LINE
  8
0
 10
256.061
 20
112.939
 11
255.833
 21
112.753
  0
LINE
  8
0
 10
240.386
 20
114.574
 11
240.471
 21
114.293
  0
LINE
  8
0
 10
240.471
 20
114.293
 11
240.5
 21
114
  0
LINE
  8
0
 10
240.5
 20
114
 11
240.471
 21
113.707
  0
LINE
  8
0
 10
240.471
 20
113.707
 11
240.386
 21
113.426
  0
LINE
  8
0
 10
240.386
 20
113.426
 11
240.247
 21
113.167
  0
LINE
  8
0
 10
240.247
 20
113.167
 11
240.061
 21
112.939
  0
LINE
  8
0
 10
240.061
 20
112.939
 11
239.833
 21
112.753
  0
LINE
  8
0
 10
239.833
 20
112.753
 11
239.574
 21
112.614
  0
LINE
  8
0
 10
239.574
 20
112.614
 11
239.293
 21
112.529
  0
LINE
  8
0
 10
239.293
 20
112.529
 11
239
 21
112.5
  0
LINE
  8
0
 10
239
 20
112.5
 11
238.707
 21
112.529
  0
LINE
  8
0
 10
238.707
 20
112.529
 11
238.426
 21
112.614
  0
LINE
  8
0
 10
238.426
 20
112.614
 11
238.167
 21
112.753
  0
LINE
  8
0
 10
238.167
 20
112.753
 11
237.939
 21
112.939
  0
LINE
  8
0
 10
237.939
 20
112.939
 11
237.753
 21
113.167
  0
LINE
  8
0
 10
237.753
 20
113.167
 11
237.614
 21
113.426
  0
LINE
  8
0
 10
237.614
 20
113.426
 11
237.529
 21
113.707
  0
LINE
  8
0
 10
237.529
 20
113.707
 11
237.5
 21
114
  0
LINE
  8
0
 10
237.5
 20
114
 11
237.529
 21
114.293
  0
LINE
  8
0
 10
237.529
 20
114.293
 11
237.614
 21
114.574
  0
LINE
  8
0
 10
237.614
 20
114.574
 11
237.753
 21
114.833
  0
LINE
  8
0
 10
237.753
 20
114.833
 11
237.939
 21
115.061
  0
LINE
  8
0
 10
237.939
 20
115.061
 11
238.167
 21
115.247
  0
LINE
  8
0
 10
238.167
 20
115.247
 11
238.426
 21
115.386
  0
LINE
  8
0
 10
238.426
 20
115.386
 11
238.707
 21
115.471
  0
LINE
  8
0
 10
238.707
 20
115.471
 11
239
 21
115.5
  0
LINE
  8
0
 10
239
 20
115.5
 11
239.293
 21
115.471
  0
LINE
  8
0
 10
239.293
 20
115.471
 11
239.574
 21
115.386
  0
LINE
  8
0
 10
239.574
 20
115.386
 11
239.833
 21
115.247
  0
LINE
  8
0
 10
239.833
 20
115.247
 11
240.061
 21
115.061
  0
LINE
  8
0
 10
240.061
 20
115.061
 11
240.247
 21
114.833
  0
LINE
  8
0
 10
240.247
 20
114.833
 11
240.386
 21
114.574
  0
LINE
  8
0
 10
251.574
 20
108.614
 11
251.293
 21
108.529
  0
LINE
  8
0
 10
251.293
 20
108.529
 11
251
 21
108.5
  0
LINE
  8
0
 10
251
 20
108.5
 11
250.707
 21
108.529
  0
LINE
  8
0
 10
250.707
 20
108.529
 11
250.426
 21
108.614
  0
LINE
  8
0
 10
250.426
 20
108.614
 11
250.167
 21
108.753
  0
LINE
  8
0
 10
250.167
 20
108.753
 11
249.939
 21
108.939
  0
LINE
  8
0
 10
249.939
 20
108.939
 11
249.753
 21
109.167
  0
LINE
  8
0
 10
249.753
 20
109.167
 11
249.614
 21
109.426
  0
LINE
  8
0
 10
249.614
 20
109.426
 11
249.529
 21
109.707
  0
LINE
  8
0
 10
249.529
 20
109.707
 11
249.5
 21
110
  0
LINE
  8
0
 10
249.5
 20
110
 11
249.529
 21
110.293
  0
LINE
  8
0
 10
249.529
 20
110.293
 11
249.614
 21
110.574
  0
LINE
  8
0
 10
249.614
 20
110.574
 11
249.753
 21
110.833
  0
LINE
  8
0
 10
249.753
 20
110.833
 11
249.939
 21
111.061
  0
LINE
  8
0
 10
249.939
 20
111.061
 11
250.167
 21
111.247
  0
LINE
  8
0
 10
250.167
 20
111.247
 11
250.426
 21
111.386
  0
LINE
  8
0
 10
250.426
 20
111.386
 11
250.707
 21
111.471
  0
LINE
  8
0
 10
250.707
 20
111.471
 11
251
 21
111.5
  0
LINE
  8
0
 10
251
 20
111.5
 11
251.293
 21
111.471
  0
LINE
  8
0
 10
251.293
 20
111.471
 11
251.574
 21
111.386
  0
LINE
  8
0
 10
251.574
 20
111.386
 11
251.833
 21
111.247
  0
LINE
  8
0
 10
251.833
 20
111.247
 11
252.061
 21
111.061
  0
LINE
  8
0
 10
252.061
 20
111.061
 11
252.247
 21
110.833
  0
LINE
  8
0
 10
252.247
 20
110.833
 11
252.386
 21
110.574
  0
LINE
  8
0
 10
252.386
 20
110.574
 11
252.471
 21
110.293
  0
LINE
  8
0
 10
252.471
 20
110.293
 11
252.5
 21
110
  0
LINE
  8
0
 10
252.5
 20
110
 11
252.471
 21
109.707
  0
LINE
  8
0
 10
252.471
 20
109.707
 11
252.386
 21
109.426
  0
LINE
  8
0
 10
252.386
 20
109.426
 11
252.247
 21
109.167
  0
LINE
  8
0
 10
252.247
 20
109.167
 11
252.061
 21
108.939
  0
LINE
  8
0
 10
252.061
 20
108.939
 11
251.833
 21
108.753
  0
LINE
  8
0
 10
251.833
 20
108.753
 11
251.574
 21
108.614
  0
LINE
  8
0
 10
247.833
 20
104.753
 11
247.574
 21
104.614
  0
LINE
  8
0
 10
247.574
 20
104.614
 11
247.293
 21
104.529
  0
LINE
  8
0
 10
247.293
 20
104.529
 11
247
 21
104.5
  0
LINE
  8
0
 10
247
 20
104.5
 11
246.707
 21
104.529
  0
LINE
  8
0
 10
246.707
 20
104.529
 11
246.426
 21
104.614
  0
LINE
  8
0
 10
246.426
 20
104.614
 11
246.167
 21
104.753
  0
LINE
  8
0
 10
246.167
 20
104.753
 11
245.939
 21
104.939
  0
LINE
  8
0
 10
245.939
 20
104.939
 11
245.753
 21
105.167
  0
LINE
  8
0
 10
245.753
 20
105.167
 11
245.614
 21
105.426
  0
LINE
  8
0
 10
245.614
 20
105.426
 11
245.529
 21
105.707
  0
LINE
  8
0
 10
245.529
 20
105.707
 11
245.5
 21
106
  0
LINE
  8
0
 10
245.5
 20
106
 11
245.529
 21
106.293
  0
LINE
  8
0
 10
245.529
 20
106.293
 11
245.614
 21
106.574
  0
LINE
  8
0
 10
245.614
 20
106.574
 11
245.753
 21
106.833
  0
LINE
  8
0
 10
245.753
 20
106.833
 11
245.939
 21
107.061
  0
LINE
  8
0
 10
245.939
 20
107.061
 11
246.167
 21
107.247
  0
LINE
  8
0
 10
246.167
 20
107.247
 11
246.426
 21
107.386
  0
LINE
  8
0
 10
246.426
 20
107.386
 11
246.707
 21
107.471
  0
LINE
  8
0
 10
246.707
 20
107.471
 11
247
 21
107.5
  0
LINE
  8
0
 10
247
 20
107.5
 11
247.293
 21
107.471
  0
LINE
  8
0
 10
247.293
 20
107.471
 11
247.574
 21
107.386
  0
LINE
  8
0
 10
247.574
 20
107.386
 11
247.833
 21
107.247
  0
LINE
  8
0
 10
247.833
 20
107.247
 11
248.061
 21
107.061
  0
LINE
  8
0
 10
248.061
 20
107.061
 11
248.247
 21
106.833
  0
LINE
  8
0
 10
248.247
 20
106.833
 11
248.386
 21
106.574
  0
LINE
  8
0
 10
248.386
 20
106.574
 11
248.471
 21
106.293
  0
LINE
  8
0
 10
248.471
 20
106.293
 11
248.5
 21
106
  0
LINE
  8
0
 10
248.5
 20
106
 11
248.471
 21
105.707
  0
LINE
  8
0
 10
248.471
 20
105.707
 11
248.386
 21
105.426
  0
LINE
  8
0
 10
248.386
 20
105.426
 11
248.247
 21
105.167
  0
LINE
  8
0
 10
248.247
 20
105.167
 11
248.061
 21
104.939
  0
LINE
  8
0
 10
248.061
 20
104.939
 11
247.833
 21
104.753
  0
LINE
  8
0
 10
259.833
 20
104.753
 11
259.574
 21
104.614
  0
LINE
  8
0
 10
259.574
 20
104.614
 11
259.293
 21
104.529
  0
LINE
  8
0
 10
259.293
 20
104.529
 11
259
 21
104.5
  0
LINE
  8
0
 10
259
 20
104.5
 11
258.707
 21
104.529
  0
LINE
  8
0
 10
258.707
 20
104.529
 11
258.426
 21
104.614
  0
LINE
  8
0
 10
258.426
 20
104.614
 11
258.167
 21
104.753
  0
LINE
  8
0
 10
258.167
 20
104.753
 11
257.939
 21
104.939
  0
LINE
  8
0
 10
257.939
 20
104.939
 11
257.753
 21
105.167
  0
LINE
  8
0
 10
257.753
 20
105.167
 11
257.614
 21
105.426
  0
LINE
  8
0
 10
257.614
 20
105.426
 11
257.529
 21
105.707
  0
LINE
  8
0
 10
257.529
 20
105.707
 11
257.5
 21
106
  0
LINE
  8
0
 10
257.5
 20
106
 11
257.529
 21
106.293
  0
LINE
  8
0
 10
257.529
 20
106.293
 11
257.614
 21
106.574
  0
LINE
  8
0
 10
257.614
 20
106.574
 11
257.753
 21
106.833
  0
LINE
  8
0
 10
257.753
 20
106.833
 11
257.939
 21
107.061
  0
LINE
  8
0
 10
257.939
 20
107.061
 11
258.167
 21
107.247
  0
LINE
  8
0
 10
258.167
 20
107.247
 11
258.426
 21
107.386
  0
LINE
  8
0
 10
258.426
 20
107.386
 11
258.707
 21
107.471
  0
LINE
  8
0
 10
258.707
 20
107.471
 11
259
 21
107.5
  0
LINE
  8
0
 10
259
 20
107.5
 11
259.293
 21
107.471
  0
LINE
  8
0
 10
259.293
 20
107.471
 11
259.574
 21
107.386
  0
LINE
  8
0
 10
259.574
 20
107.386
 11
259.833
 21
107.247
  0
LINE
  8
0
 10
259.833
 20
107.247
 11
260.061
 21
107.061
  0
LINE
  8
0
 10
260.061
 20
107.061
 11
260.247
 21
106.833
  0
LINE
  8
0
 10
260.247
 20
106.833
 11
260.386
 21
106.574
  0
LINE
  8
0
 10
260.386
 20
106.574
 11
260.471
 21
106.293
  0
LINE
  8
0
 10
260.471
 20
106.293
 11
260.5
 21
106
  0
LINE
  8
0
 10
260.5
 20
106
 11
260.471
 21
105.707
  0
LINE
  8
0
 10
260.471
 20
105.707
 11
260.386
 21
105.426
  0
LINE
  8
0
 10
260.386
 20
105.426
 11
260.247
 21
105.167
  0
LINE
  8
0
 10
260.247
 20
105.167
 11
260.061
 21
104.939
  0
LINE
  8
0
 10
260.061
 20
104.939
 11
259.833
 21
104.753
  0
LINE
  8
0
 10
236.386
 20
106.574
 11
236.471
 21
106.293
  0
LINE
  8
0
 10
236.471
 20
106.293
 11
236.5
 21
106
  0
LINE
  8
0
 10
236.5
 20
106
 11
236.471
 21
105.707
  0
LINE
  8
0
 10
236.471
 20
105.707
 11
236.386
 21
105.426
  0
LINE
  8
0
 10
236.386
 20
105.426
 11
236.247
 21
105.167
  0
LINE
  8
0
 10
236.247
 20
105.167
 11
236.061
 21
104.939
  0
LINE
  8
0
 10
236.061
 20
104.939
 11
235.833
 21
104.753
  0
LINE
  8
0
 10
235.833
 20
104.753
 11
235.574
 21
104.614
  0
LINE
  8
0
 10
235.574
 20
104.614
 11
235.293
 21
104.529
  0
LINE
  8
0
 10
235.293
 20
104.529
 11
235
 21
104.5
  0
LINE
  8
0
 10
235
 20
104.5
 11
234.707
 21
104.529
  0
LINE
  8
0
 10
234.707
 20
104.529
 11
234.426
 21
104.614
  0
LINE
  8
0
 10
234.426
 20
104.614
 11
234.167
 21
104.753
  0
LINE
  8
0
 10
234.167
 20
104.753
 11
233.939
 21
104.939
  0
LINE
  8
0
 10
233.939
 20
104.939
 11
233.753
 21
105.167
  0
LINE
  8
0
 10
233.753
 20
105.167
 11
233.614
 21
105.426
  0
LINE
  8
0
 10
233.614
 20
105.426
 11
233.529
 21
105.707
  0
LINE
  8
0
 10
233.529
 20
105.707
 11
233.5
 21
106
  0
LINE
  8
0
 10
233.5
 20
106
 11
233.529
 21
106.293
  0
LINE
  8
0
 10
233.529
 20
106.293
 11
233.614
 21
106.574
  0
LINE
  8
0
 10
233.614
 20
106.574
 11
233.753
 21
106.833
  0
LINE
  8
0
 10
233.753
 20
106.833
 11
233.939
 21
107.061
  0
LINE
  8
0
 10
233.939
 20
107.061
 11
234.167
 21
107.247
  0
LINE
  8
0
 10
234.167
 20
107.247
 11
234.426
 21
107.386
  0
LINE
  8
0
 10
234.426
 20
107.386
 11
234.707
 21
107.471
  0
LINE
  8
0
 10
234.707
 20
107.471
 11
235
 21
107.5
  0
LINE
  8
0
 10
235
 20
107.5
 11
235.293
 21
107.471
  0
LINE
  8
0
 10
235.293
 20
107.471
 11
235.574
 21
107.386
  0
LINE
  8
0
 10
235.574
 20
107.386
 11
235.833
 21
107.247
  0
LINE
  8
0
 10
235.833
 20
107.247
 11
236.061
 21
107.061
  0
LINE
  8
0
 10
236.061
 20
107.061
 11
236.247
 21
106.833
  0
LINE
  8
0
 10
236.247
 20
106.833
 11
236.386
 21
106.574
  0
LINE
  8
0
 10
249.529
 20
105.707
 11
249.5
 21
106
  0
LINE
  8
0
 10
249.5
 20
106
 11
249.529
 21
106.293
  0
LINE
  8
0
 10
249.529
 20
106.293
 11
249.614
 21
106.574
  0
LINE
  8
0
 10
249.614
 20
106.574
 11
249.753
 21
106.833
  0
LINE
  8
0
 10
249.753
 20
106.833
 11
249.939
 21
107.061
  0
LINE
  8
0
 10
249.939
 20
107.061
 11
250.167
 21
107.247
  0
LINE
  8
0
 10
250.167
 20
107.247
 11
250.426
 21
107.386
  0
LINE
  8
0
 10
250.426
 20
107.386
 11
250.707
 21
107.471
  0
LINE
  8
0
 10
250.707
 20
107.471
 11
251
 21
107.5
  0
LINE
  8
0
 10
251
 20
107.5
 11
251.293
 21
107.471
  0
LINE
  8
0
 10
251.293
 20
107.471
 11
251.574
 21
107.386
  0
LINE
  8
0
 10
251.574
 20
107.386
 11
251.833
 21
107.247
  0
LINE
  8
0
 10
251.833
 20
107.247
 11
252.061
 21
107.061
  0
LINE
  8
0
 10
252.061
 20
107.061
 11
252.247
 21
106.833
  0
LINE
  8
0
 10
252.247
 20
106.833
 11
252.386
 21
106.574
  0
LINE
  8
0
 10
252.386
 20
106.574
 11
252.471
 21
106.293
  0
LINE
  8
0
 10
252.471
 20
106.293
 11
252.5
 21
106
  0
LINE
  8
0
 10
252.5
 20
106
 11
252.471
 21
105.707
  0
LINE
  8
0
 10
252.471
 20
105.707
 11
252.386
 21
105.426
  0
LINE
  8
0
 10
252.386
 20
105.426
 11
252.247
 21
105.167
  0
LINE
  8
0
 10
252.247
 20
105.167
 11
252.061
 21
104.939
  0
LINE
  8
0
 10
252.061
 20
104.939
 11
251.833
 21
104.753
  0
LINE
  8
0
 10
251.833
 20
104.753
 11
251.574
 21
104.614
  0
LINE
  8
0
 10
251.574
 20
104.614
 11
251.293
 21
104.529
  0
LINE
  8
0
 10
251.293
 20
104.529
 11
251
 21
104.5
  0
LINE
  8
0
 10
251
 20
104.5
 11
250.707
 21
104.529
  0
LINE
  8
0
 10
250.707
 20
104.529
 11
250.426
 21
104.614
  0
LINE
  8
0
 10
250.426
 20
104.614
 11
250.167
 21
104.753
  0
LINE
  8
0
 10
250.167
 20
104.753
 11
249.939
 21
104.939
  0
LINE
  8
0
 10
249.939
 20
104.939
 11
249.753
 21
105.167
  0
LINE
  8
0
 10
249.753
 20
105.167
 11
249.614
 21
105.426
  0
LINE
  8
0
 10
249.614
 20
105.426
 11
249.529
 21
105.707
  0
LINE
  8
0
 10
260.386
 20
102.574
 11
260.471
 21
102.293
  0
LINE
  8
0
 10
260.471
 20
102.293
 11
260.5
 21
102
  0
LINE
  8
0
 10
260.5
 20
102
 11
260.471
 21
101.707
  0
LINE
  8
0
 10
260.471
 20
101.707
 11
260.386
 21
101.426
  0
LINE
  8
0
 10
260.386
 20
101.426
 11
260.247
 21
101.167
  0
LINE
  8
0
 10
260.247
 20
101.167
 11
260.061
 21
100.939
  0
LINE
  8
0
 10
260.061
 20
100.939
 11
259.833
 21
100.753
  0
LINE
  8
0
 10
259.833
 20
100.753
 11
259.574
 21
100.614
  0
LINE
  8
0
 10
259.574
 20
100.614
 11
259.293
 21
100.529
  0
LINE
  8
0
 10
259.293
 20
100.529
 11
259
 21
100.5
  0
LINE
  8
0
 10
259
 20
100.5
 11
258.707
 21
100.529
  0
LINE
  8
0
 10
258.707
 20
100.529
 11
258.426
 21
100.614
  0
LINE
  8
0
 10
258.426
 20
100.614
 11
258.167
 21
100.753
  0
LINE
  8
0
 10
258.167
 20
100.753
 11
257.939
 21
100.939
  0
LINE
  8
0
 10
257.939
 20
100.939
 11
257.753
 21
101.167
  0
LINE
  8
0
 10
257.753
 20
101.167
 11
257.614
 21
101.426
  0
LINE
  8
0
 10
257.614
 20
101.426
 11
257.529
 21
101.707
  0
LINE
  8
0
 10
257.529
 20
101.707
 11
257.5
 21
102
  0
LINE
  8
0
 10
257.5
 20
102
 11
257.529
 21
102.293
  0
LINE
  8
0
 10
257.529
 20
102.293
 11
257.614
 21
102.574
  0
LINE
  8
0
 10
257.614
 20
102.574
 11
257.753
 21
102.833
  0
LINE
  8
0
 10
257.753
 20
102.833
 11
257.939
 21
103.061
  0
LINE
  8
0
 10
257.939
 20
103.061
 11
258.167
 21
103.247
  0
LINE
  8
0
 10
258.167
 20
103.247
 11
258.426
 21
103.386
  0
LINE
  8
0
 10
258.426
 20
103.386
 11
258.707
 21
103.471
  0
LINE
  8
0
 10
258.707
 20
103.471
 11
259
 21
103.5
  0
LINE
  8
0
 10
259
 20
103.5
 11
259.293
 21
103.471
  0
LINE
  8
0
 10
259.293
 20
103.471
 11
259.574
 21
103.386
  0
LINE
  8
0
 10
259.574
 20
103.386
 11
259.833
 21
103.247
  0
LINE
  8
0
 10
259.833
 20
103.247
 11
260.061
 21
103.061
  0
LINE
  8
0
 10
260.061
 20
103.061
 11
260.247
 21
102.833
  0
LINE
  8
0
 10
260.247
 20
102.833
 11
260.386
 21
102.574
  0
LINE
  8
0
 10
235.833
 20
100.753
 11
235.574
 21
100.614
  0
LINE
  8
0
 10
235.574
 20
100.614
 11
235.293
 21
100.529
  0
LINE
  8
0
 10
235.293
 20
100.529
 11
235
 21
100.5
  0
LINE
  8
0
 10
235
 20
100.5
 11
234.707
 21
100.529
  0
LINE
  8
0
 10
234.707
 20
100.529
 11
234.426
 21
100.614
  0
LINE
  8
0
 10
234.426
 20
100.614
 11
234.167
 21
100.753
  0
LINE
  8
0
 10
234.167
 20
100.753
 11
233.939
 21
100.939
  0
LINE
  8
0
 10
233.939
 20
100.939
 11
233.753
 21
101.167
  0
LINE
  8
0
 10
233.753
 20
101.167
 11
233.614
 21
101.426
  0
LINE
  8
0
 10
233.614
 20
101.426
 11
233.529
 21
101.707
  0
LINE
  8
0
 10
233.529
 20
101.707
 11
233.5
 21
102
  0
LINE
  8
0
 10
233.5
 20
102
 11
233.529
 21
102.293
  0
LINE
  8
0
 10
233.529
 20
102.293
 11
233.614
 21
102.574
  0
LINE
  8
0
 10
233.614
 20
102.574
 11
233.753
 21
102.833
  0
LINE
  8
0
 10
233.753
 20
102.833
 11
233.939
 21
103.061
  0
LINE
  8
0
 10
233.939
 20
103.061
 11
234.167
 21
103.247
  0
LINE
  8
0
 10
234.167
 20
103.247
 11
234.426
 21
103.386
  0
LINE
  8
0
 10
234.426
 20
103.386
 11
234.707
 21
103.471
  0
LINE
  8
0
 10
234.707
 20
103.471
 11
235
 21
103.5
  0
LINE
  8
0
 10
235
 20
103.5
 11
235.293
 21
103.471
  0
LINE
  8
0
 10
235.293
 20
103.471
 11
235.574
 21
103.386
  0
LINE
  8
0
 10
235.574
 20
103.386
 11
235.833
 21
103.247
  0
LINE
  8
0
 10
235.833
 20
103.247
 11
236.061
 21
103.061
  0
LINE
  8
0
 10
236.061
 20
103.061
 11
236.247
 21
102.833
  0
LINE
  8
0
 10
236.247
 20
102.833
 11
236.386
 21
102.574
  0
LINE
  8
0
 10
236.386
 20
102.574
 11
236.471
 21
102.293
  0
LINE
  8
0
 10
236.471
 20
102.293
 11
236.5
 21
102
  0
LINE
  8
0
 10
236.5
 20
102
 11
236.471
 21
101.707
  0
LINE
  8
0
 10
236.471
 20
101.707
 11
236.386
 21
101.426
  0
LINE
  8
0
 10
236.386
 20
101.426
 11
236.247
 21
101.167
  0
LINE
  8
0
 10
236.247
 20
101.167
 11
236.061
 21
100.939
  0
LINE
  8
0
 10
236.061
 20
100.939
 11
235.833
 21
100.753
  0
LINE
  8
0
 10
255.833
 20
96.7528
 11
255.574
 21
96.6142
  0
LINE
  8
0
 10
255.574
 20
96.6142
 11
255.293
 21
96.5288
  0
LINE
  8
0
 10
255.293
 20
96.5288
 11
255
 21
96.5
  0
LINE
  8
0
 10
255
 20
96.5
 11
254.707
 21
96.5288
  0
LINE
  8
0
 10
254.707
 20
96.5288
 11
254.426
 21
96.6142
  0
LINE
  8
0
 10
254.426
 20
96.6142
 11
254.167
 21
96.7528
  0
LINE
  8
0
 10
254.167
 20
96.7528
 11
253.939
 21
96.9393
  0
LINE
  8
0
 10
253.939
 20
96.9393
 11
253.753
 21
97.1666
  0
LINE
  8
0
 10
253.753
 20
97.1666
 11
253.614
 21
97.426
  0
LINE
  8
0
 10
253.614
 20
97.426
 11
253.529
 21
97.7074
  0
LINE
  8
0
 10
253.529
 20
97.7074
 11
253.5
 21
98
  0
LINE
  8
0
 10
253.5
 20
98
 11
253.529
 21
98.2926
  0
LINE
  8
0
 10
253.529
 20
98.2926
 11
253.614
 21
98.574
  0
LINE
  8
0
 10
253.614
 20
98.574
 11
253.753
 21
98.8334
  0
LINE
  8
0
 10
253.753
 20
98.8334
 11
253.939
 21
99.0607
  0
LINE
  8
0
 10
253.939
 20
99.0607
 11
254.167
 21
99.2472
  0
LINE
  8
0
 10
254.167
 20
99.2472
 11
254.426
 21
99.3858
  0
LINE
  8
0
 10
254.426
 20
99.3858
 11
254.707
 21
99.4712
  0
LINE
  8
0
 10
254.707
 20
99.4712
 11
255
 21
99.5
  0
LINE
  8
0
 10
255
 20
99.5
 11
255.293
 21
99.4712
  0
LINE
  8
0
 10
255.293
 20
99.4712
 11
255.574
 21
99.3858
  0
LINE
  8
0
 10
255.574
 20
99.3858
 11
255.833
 21
99.2472
  0
LINE
  8
0
 10
255.833
 20
99.2472
 11
256.061
 21
99.0607
  0
LINE
  8
0
 10
256.061
 20
99.0607
 11
256.247
 21
98.8334
  0
LINE
  8
0
 10
256.247
 20
98.8334
 11
256.386
 21
98.574
  0
LINE
  8
0
 10
256.386
 20
98.574
 11
256.471
 21
98.2926
  0
LINE
  8
0
 10
256.471
 20
98.2926
 11
256.5
 21
98
  0
LINE
  8
0
 10
256.5
 20
98
 11
256.471
 21
97.7074
  0
LINE
  8
0
 10
256.471
 20
97.7074
 11
256.386
 21
97.426
  0
LINE
  8
0
 10
256.386
 20
97.426
 11
256.247
 21
97.1666
  0
LINE
  8
0
 10
256.247
 20
97.1666
 11
256.061
 21
96.9393
  0
LINE
  8
0
 10
256.061
 20
96.9393
 11
255.833
 21
96.7528
  0
LINE
  8
0
 10
239.833
 20
96.7528
 11
239.574
 21
96.6142
  0
LINE
  8
0
 10
239.574
 20
96.6142
 11
239.293
 21
96.5288
  0
LINE
  8
0
 10
239.293
 20
96.5288
 11
239
 21
96.5
  0
LINE
  8
0
 10
239
 20
96.5
 11
238.707
 21
96.5288
  0
LINE
  8
0
 10
238.707
 20
96.5288
 11
238.426
 21
96.6142
  0
LINE
  8
0
 10
238.426
 20
96.6142
 11
238.167
 21
96.7528
  0
LINE
  8
0
 10
238.167
 20
96.7528
 11
237.939
 21
96.9393
  0
LINE
  8
0
 10
237.939
 20
96.9393
 11
237.753
 21
97.1666
  0
LINE
  8
0
 10
237.753
 20
97.1666
 11
237.614
 21
97.426
  0
LINE
  8
0
 10
237.614
 20
97.426
 11
237.529
 21
97.7074
  0
LINE
  8
0
 10
237.529
 20
97.7074
 11
237.5
 21
98
  0
LINE
  8
0
 10
237.5
 20
98
 11
237.529
 21
98.2926
  0
LINE
  8
0
 10
237.529
 20
98.2926
 11
237.614
 21
98.574
  0
LINE
  8
0
 10
237.614
 20
98.574
 11
237.753
 21
98.8334
  0
LINE
  8
0
 10
237.753
 20
98.8334
 11
237.939
 21
99.0607
  0
LINE
  8
0
 10
237.939
 20
99.0607
 11
238.167
 21
99.2472
  0
LINE
  8
0
 10
238.167
 20
99.2472
 11
238.426
 21
99.3858
  0
LINE
  8
0
 10
238.426
 20
99.3858
 11
238.707
 21
99.4712
  0
LINE
  8
0
 10
238.707
 20
99.4712
 11
239
 21
99.5
  0
LINE
  8
0
 10
239
 20
99.5
 11
239.293
 21
99.4712
  0
LINE
  8
0
 10
239.293
 20
99.4712
 11
239.574
 21
99.3858
  0
LINE
  8
0
 10
239.574
 20
99.3858
 11
239.833
 21
99.2472
  0
LINE
  8
0
 10
239.833
 20
99.2472
 11
240.061
 21
99.0607
  0
LINE
  8
0
 10
240.061
 20
99.0607
 11
240.247
 21
98.8334
  0
LINE
  8
0
 10
240.247
 20
98.8334
 11
240.386
 21
98.574
  0
LINE
  8
0
 10
240.386
 20
98.574
 11
240.471
 21
98.2926
  0
LINE
  8
0
 10
240.471
 20
98.2926
 11
240.5
 21
98
  0
LINE
  8
0
 10
240.5
 20
98
 11
240.471
 21
97.7074
  0
LINE
  8
0
 10
240.471
 20
97.7074
 11
240.386
 21
97.426
  0
LINE
  8
0
 10
240.386
 20
97.426
 11
240.247
 21
97.1666
  0
LINE
  8
0
 10
240.247
 20
97.1666
 11
240.061
 21
96.9393
  0
LINE
  8
0
 10
240.061
 20
96.9393
 11
239.833
 21
96.7528
  0
LINE
  8
0
 10
247.833
 20
92.7528
 11
247.574
 21
92.6142
  0
LINE
  8
0
 10
247.574
 20
92.6142
 11
247.293
 21
92.5288
  0
LINE
  8
0
 10
247.293
 20
92.5288
 11
247
 21
92.5
  0
LINE
  8
0
 10
247
 20
92.5
 11
246.707
 21
92.5288
  0
LINE
  8
0
 10
246.707
 20
92.5288
 11
246.426
 21
92.6142
  0
LINE
  8
0
 10
246.426
 20
92.6142
 11
246.167
 21
92.7528
  0
LINE
  8
0
 10
246.167
 20
92.7528
 11
245.939
 21
92.9393
  0
LINE
  8
0
 10
245.939
 20
92.9393
 11
245.753
 21
93.1666
  0
LINE
  8
0
 10
245.753
 20
93.1666
 11
245.614
 21
93.426
  0
LINE
  8
0
 10
245.614
 20
93.426
 11
245.529
 21
93.7074
  0
LINE
  8
0
 10
245.529
 20
93.7074
 11
245.5
 21
94
  0
LINE
  8
0
 10
245.5
 20
94
 11
245.529
 21
94.2926
  0
LINE
  8
0
 10
245.529
 20
94.2926
 11
245.614
 21
94.574
  0
LINE
  8
0
 10
245.614
 20
94.574
 11
245.753
 21
94.8334
  0
LINE
  8
0
 10
245.753
 20
94.8334
 11
245.939
 21
95.0607
  0
LINE
  8
0
 10
245.939
 20
95.0607
 11
246.167
 21
95.2472
  0
LINE
  8
0
 10
246.167
 20
95.2472
 11
246.426
 21
95.3858
  0
LINE
  8
0
 10
246.426
 20
95.3858
 11
246.707
 21
95.4712
  0
LINE
  8
0
 10
246.707
 20
95.4712
 11
247
 21
95.5
  0
LINE
  8
0
 10
247
 20
95.5
 11
247.293
 21
95.4712
  0
LINE
  8
0
 10
247.293
 20
95.4712
 11
247.574
 21
95.3858
  0
LINE
  8
0
 10
247.574
 20
95.3858
 11
247.833
 21
95.2472
  0
LINE
  8
0
 10
247.833
 20
95.2472
 11
248.061
 21
95.0607
  0
LINE
  8
0
 10
248.061
 20
95.0607
 11
248.247
 21
94.8334
  0
LINE
  8
0
 10
248.247
 20
94.8334
 11
248.386
 21
94.574
  0
LINE
  8
0
 10
248.386
 20
94.574
 11
248.471
 21
94.2926
  0
LINE
  8
0
 10
248.471
 20
94.2926
 11
248.5
 21
94
  0
LINE
  8
0
 10
248.5
 20
94
 11
248.471
 21
93.7074
  0
LINE
  8
0
 10
248.471
 20
93.7074
 11
248.386
 21
93.426
  0
LINE
  8
0
 10
248.386
 20
93.426
 11
248.247
 21
93.1666
  0
LINE
  8
0
 10
248.247
 20
93.1666
 11
248.061
 21
92.9393
  0
LINE
  8
0
 10
248.061
 20
92.9393
 11
247.833
 21
92.7528
  0
ENDSEC
  0
SECTION
  2
OBJECTS
  0
DICTIONARY
  0
ENDSEC
  0
EOF
