  0
SECTION
  2
BLOCKS
  0
ENDSEC
  0
SECTION
  2
ENTITIES
  0
LINE
  8
0
 10
200
 20
95.5
 11
-200
 21
95.5
  0
LINE
  8
0
 10
-200
 20
95.5
 11
-200
 21
-95.5
  0
LINE
  8
0
 10
-200
 20
-95.5
 11
200
 21
-95.5
  0
LINE
  8
0
 10
200
 20
-95.5
 11
200
 21
95.5
  0
LINE
  8
0
 10
194.659
 20
83.7836
 11
194.33
 21
83.8832
  0
LINE
  8
0
 10
194.33
 20
83.8832
 11
194.028
 21
84.0449
  0
LINE
  8
0
 10
194.028
 20
84.0449
 11
193.763
 21
84.2626
  0
LINE
  8
0
 10
193.763
 20
84.2626
 11
193.545
 21
84.5278
  0
LINE
  8
0
 10
193.545
 20
84.5278
 11
193.383
 21
84.8303
  0
LINE
  8
0
 10
193.383
 20
84.8303
 11
193.284
 21
85.1586
  0
LINE
  8
0
 10
193.284
 20
85.1586
 11
193.25
 21
85.5
  0
LINE
  8
0
 10
193.25
 20
85.5
 11
193.284
 21
85.8414
  0
LINE
  8
0
 10
193.284
 20
85.8414
 11
193.383
 21
86.1697
  0
LINE
  8
0
 10
193.383
 20
86.1697
 11
193.545
 21
86.4722
  0
LINE
  8
0
 10
193.545
 20
86.4722
 11
193.763
 21
86.7374
  0
LINE
  8
0
 10
193.763
 20
86.7374
 11
194.028
 21
86.9551
  0
LINE
  8
0
 10
194.028
 20
86.9551
 11
194.33
 21
87.1168
  0
LINE
  8
0
 10
194.33
 20
87.1168
 11
194.659
 21
87.2164
  0
LINE
  8
0
 10
194.659
 20
87.2164
 11
195
 21
87.25
  0
LINE
  8
0
 10
195
 20
87.25
 11
195.341
 21
87.2164
  0
LINE
  8
0
 10
195.341
 20
87.2164
 11
195.67
 21
87.1168
  0
LINE
  8
0
 10
195.67
 20
87.1168
 11
195.972
 21
86.9551
  0
LINE
  8
0
 10
195.972
 20
86.9551
 11
196.237
 21
86.7374
  0
LINE
  8
0
 10
196.237
 20
86.7374
 11
196.455
 21
86.4722
  0
LINE
  8
0
 10
196.455
 20
86.4722
 11
196.617
 21
86.1697
  0
LINE
  8
0
 10
196.617
 20
86.1697
 11
196.716
 21
85.8414
  0
LINE
  8
0
 10
196.716
 20
85.8414
 11
196.75
 21
85.5
  0
LINE
  8
0
 10
196.75
 20
85.5
 11
196.716
 21
85.1586
  0
LINE
  8
0
 10
196.716
 20
85.1586
 11
196.617
 21
84.8303
  0
LINE
  8
0
 10
196.617
 20
84.8303
 11
196.455
 21
84.5278
  0
LINE
  8
0
 10
196.455
 20
84.5278
 11
196.237
 21
84.2626
  0
LINE
  8
0
 10
196.237
 20
84.2626
 11
195.972
 21
84.0449
  0
LINE
  8
0
 10
195.972
 20
84.0449
 11
195.67
 21
83.8832
  0
LINE
  8
0
 10
195.67
 20
83.8832
 11
195.341
 21
83.7836
  0
LINE
  8
0
 10
195.341
 20
83.7836
 11
195
 21
83.75
  0
LINE
  8
0
 10
195
 20
83.75
 11
194.659
 21
83.7836
  0
LINE
  8
0
 10
-195.341
 20
83.7836
 11
-195.67
 21
83.8832
  0
LINE
  8
0
 10
-195.67
 20
83.8832
 11
-195.972
 21
84.0449
  0
LINE
  8
0
 10
-195.972
 20
84.0449
 11
-196.237
 21
84.2626
  0
LINE
  8
0
 10
-196.237
 20
84.2626
 11
-196.455
 21
84.5278
  0
LINE
  8
0
 10
-196.455
 20
84.5278
 11
-196.617
 21
84.8303
  0
LINE
  8
0
 10
-196.617
 20
84.8303
 11
-196.716
 21
85.1586
  0
LINE
  8
0
 10
-196.716
 20
85.1586
 11
-196.75
 21
85.5
  0
LINE
  8
0
 10
-196.75
 20
85.5
 11
-196.716
 21
85.8414
  0
LINE
  8
0
 10
-196.716
 20
85.8414
 11
-196.617
 21
86.1697
  0
LINE
  8
0
 10
-196.617
 20
86.1697
 11
-196.455
 21
86.4722
  0
LINE
  8
0
 10
-196.455
 20
86.4722
 11
-196.237
 21
86.7374
  0
LINE
  8
0
 10
-196.237
 20
86.7374
 11
-195.972
 21
86.9551
  0
LINE
  8
0
 10
-195.972
 20
86.9551
 11
-195.67
 21
87.1168
  0
LINE
  8
0
 10
-195.67
 20
87.1168
 11
-195.341
 21
87.2164
  0
LINE
  8
0
 10
-195.341
 20
87.2164
 11
-195
 21
87.25
  0
LINE
  8
0
 10
-195
 20
87.25
 11
-194.659
 21
87.2164
  0
LINE
  8
0
 10
-194.659
 20
87.2164
 11
-194.33
 21
87.1168
  0
LINE
  8
0
 10
-194.33
 20
87.1168
 11
-194.028
 21
86.9551
  0
LINE
  8
0
 10
-194.028
 20
86.9551
 11
-193.763
 21
86.7374
  0
LINE
  8
0
 10
-193.763
 20
86.7374
 11
-193.545
 21
86.4722
  0
LINE
  8
0
 10
-193.545
 20
86.4722
 11
-193.383
 21
86.1697
  0
LINE
  8
0
 10
-193.383
 20
86.1697
 11
-193.284
 21
85.8414
  0
LINE
  8
0
 10
-193.284
 20
85.8414
 11
-193.25
 21
85.5
  0
LINE
  8
0
 10
-193.25
 20
85.5
 11
-193.284
 21
85.1586
  0
LINE
  8
0
 10
-193.284
 20
85.1586
 11
-193.383
 21
84.8303
  0
LINE
  8
0
 10
-193.383
 20
84.8303
 11
-193.545
 21
84.5278
  0
LINE
  8
0
 10
-193.545
 20
84.5278
 11
-193.763
 21
84.2626
  0
LINE
  8
0
 10
-193.763
 20
84.2626
 11
-194.028
 21
84.0449
  0
LINE
  8
0
 10
-194.028
 20
84.0449
 11
-194.33
 21
83.8832
  0
LINE
  8
0
 10
-194.33
 20
83.8832
 11
-194.659
 21
83.7836
  0
LINE
  8
0
 10
-194.659
 20
83.7836
 11
-195
 21
83.75
  0
LINE
  8
0
 10
-195
 20
83.75
 11
-195.341
 21
83.7836
  0
LINE
  8
0
 10
-150.975
 20
65.0961
 11
-151.913
 21
65.3806
  0
LINE
  8
0
 10
-151.913
 20
65.3806
 11
-152.778
 21
65.8427
  0
LINE
  8
0
 10
-152.778
 20
65.8427
 11
-153.536
 21
66.4645
  0
LINE
  8
0
 10
-153.536
 20
66.4645
 11
-154.157
 21
67.2221
  0
LINE
  8
0
 10
-154.157
 20
67.2221
 11
-154.619
 21
68.0866
  0
LINE
  8
0
 10
-154.619
 20
68.0866
 11
-154.904
 21
69.0246
  0
LINE
  8
0
 10
-154.904
 20
69.0246
 11
-155
 21
70
  0
LINE
  8
0
 10
-155
 20
70
 11
-154.904
 21
70.9754
  0
LINE
  8
0
 10
-154.904
 20
70.9754
 11
-154.619
 21
71.9134
  0
LINE
  8
0
 10
-154.619
 20
71.9134
 11
-154.157
 21
72.7778
  0
LINE
  8
0
 10
-154.157
 20
72.7778
 11
-153.536
 21
73.5355
  0
LINE
  8
0
 10
-153.536
 20
73.5355
 11
-152.778
 21
74.1573
  0
LINE
  8
0
 10
-152.778
 20
74.1573
 11
-151.913
 21
74.6194
  0
LINE
  8
0
 10
-151.913
 20
74.6194
 11
-150.975
 21
74.9039
  0
LINE
  8
0
 10
-150.975
 20
74.9039
 11
-150
 21
75
  0
LINE
  8
0
 10
-150
 20
75
 11
-149.025
 21
74.9039
  0
LINE
  8
0
 10
-149.025
 20
74.9039
 11
-148.087
 21
74.6194
  0
LINE
  8
0
 10
-148.087
 20
74.6194
 11
-147.222
 21
74.1573
  0
LINE
  8
0
 10
-147.222
 20
74.1573
 11
-146.464
 21
73.5355
  0
LINE
  8
0
 10
-146.464
 20
73.5355
 11
-145.843
 21
72.7778
  0
LINE
  8
0
 10
-145.843
 20
72.7778
 11
-145.381
 21
71.9134
  0
LINE
  8
0
 10
-145.381
 20
71.9134
 11
-145.096
 21
70.9754
  0
LINE
  8
0
 10
-145.096
 20
70.9754
 11
-145
 21
70
  0
LINE
  8
0
 10
-145
 20
70
 11
-145.096
 21
69.0246
  0
LINE
  8
0
 10
-145.096
 20
69.0246
 11
-145.381
 21
68.0866
  0
LINE
  8
0
 10
-145.381
 20
68.0866
 11
-145.843
 21
67.2221
  0
LINE
  8
0
 10
-145.843
 20
67.2221
 11
-146.464
 21
66.4645
  0
LINE
  8
0
 10
-146.464
 20
66.4645
 11
-147.222
 21
65.8427
  0
LINE
  8
0
 10
-147.222
 20
65.8427
 11
-148.087
 21
65.3806
  0
LINE
  8
0
 10
-148.087
 20
65.3806
 11
-149.025
 21
65.0961
  0
LINE
  8
0
 10
-149.025
 20
65.0961
 11
-150
 21
65
  0
LINE
  8
0
 10
-150
 20
65
 11
-150.975
 21
65.0961
  0
LINE
  8
0
 10
4.2684
 20
66.3221
 11
3.56493
 21
66.5354
  0
LINE
  8
0
 10
3.56493
 20
66.5354
 11
2.91661
 21
66.882
  0
LINE
  8
0
 10
2.91661
 20
66.882
 11
2.34834
 21
67.3483
  0
LINE
  8
0
 10
2.34834
 20
67.3483
 11
1.88199
 21
67.9166
  0
LINE
  8
0
 10
1.88199
 20
67.9166
 11
1.53545
 21
68.5649
  0
LINE
  8
0
 10
1.53545
 20
68.5649
 11
1.32205
 21
69.2684
  0
LINE
  8
0
 10
1.32205
 20
69.2684
 11
1.25
 21
70
  0
LINE
  8
0
 10
1.25
 20
70
 11
1.32205
 21
70.7316
  0
LINE
  8
0
 10
1.32205
 20
70.7316
 11
1.53545
 21
71.4351
  0
LINE
  8
0
 10
1.53545
 20
71.4351
 11
1.88199
 21
72.0834
  0
LINE
  8
0
 10
1.88199
 20
72.0834
 11
2.34834
 21
72.6516
  0
LINE
  8
0
 10
2.34834
 20
72.6516
 11
2.91661
 21
73.118
  0
LINE
  8
0
 10
2.91661
 20
73.118
 11
3.56493
 21
73.4645
  0
LINE
  8
0
 10
3.56493
 20
73.4645
 11
4.2684
 21
73.6779
  0
LINE
  8
0
 10
4.2684
 20
73.6779
 11
5
 21
73.75
  0
LINE
  8
0
 10
5
 20
73.75
 11
5.73158
 21
73.6779
  0
LINE
  8
0
 10
5.73158
 20
73.6779
 11
6.43506
 21
73.4645
  0
LINE
  8
0
 10
6.43506
 20
73.4645
 11
7.08337
 21
73.118
  0
LINE
  8
0
 10
7.08337
 20
73.118
 11
7.65164
 21
72.6516
  0
LINE
  8
0
 10
7.65164
 20
72.6516
 11
8.118
 21
72.0834
  0
LINE
  8
0
 10
8.118
 20
72.0834
 11
8.46454
 21
71.4351
  0
LINE
  8
0
 10
8.46454
 20
71.4351
 11
8.67793
 21
70.7316
  0
LINE
  8
0
 10
8.67793
 20
70.7316
 11
8.75
 21
70
  0
LINE
  8
0
 10
8.75
 20
70
 11
8.67793
 21
69.2684
  0
LINE
  8
0
 10
8.67793
 20
69.2684
 11
8.46454
 21
68.5649
  0
LINE
  8
0
 10
8.46454
 20
68.5649
 11
8.118
 21
67.9166
  0
LINE
  8
0
 10
8.118
 20
67.9166
 11
7.65164
 21
67.3483
  0
LINE
  8
0
 10
7.65164
 20
67.3483
 11
7.08337
 21
66.882
  0
LINE
  8
0
 10
7.08337
 20
66.882
 11
6.43506
 21
66.5354
  0
LINE
  8
0
 10
6.43506
 20
66.5354
 11
5.73158
 21
66.3221
  0
LINE
  8
0
 10
5.73158
 20
66.3221
 11
5
 21
66.25
  0
LINE
  8
0
 10
5
 20
66.25
 11
4.2684
 21
66.3221
  0
LINE
  8
0
 10
54.2684
 20
66.3221
 11
53.5649
 21
66.5354
  0
LINE
  8
0
 10
53.5649
 20
66.5354
 11
52.9166
 21
66.882
  0
LINE
  8
0
 10
52.9166
 20
66.882
 11
52.3483
 21
67.3483
  0
LINE
  8
0
 10
52.3483
 20
67.3483
 11
51.882
 21
67.9166
  0
LINE
  8
0
 10
51.882
 20
67.9166
 11
51.5354
 21
68.5649
  0
LINE
  8
0
 10
51.5354
 20
68.5649
 11
51.3221
 21
69.2684
  0
LINE
  8
0
 10
51.3221
 20
69.2684
 11
51.25
 21
70
  0
LINE
  8
0
 10
51.25
 20
70
 11
51.3221
 21
70.7316
  0
LINE
  8
0
 10
51.3221
 20
70.7316
 11
51.5354
 21
71.4351
  0
LINE
  8
0
 10
51.5354
 20
71.4351
 11
51.882
 21
72.0834
  0
LINE
  8
0
 10
51.882
 20
72.0834
 11
52.3483
 21
72.6516
  0
LINE
  8
0
 10
52.3483
 20
72.6516
 11
52.9166
 21
73.118
  0
LINE
  8
0
 10
52.9166
 20
73.118
 11
53.5649
 21
73.4645
  0
LINE
  8
0
 10
53.5649
 20
73.4645
 11
54.2684
 21
73.6779
  0
LINE
  8
0
 10
54.2684
 20
73.6779
 11
55
 21
73.75
  0
LINE
  8
0
 10
55
 20
73.75
 11
55.7316
 21
73.6779
  0
LINE
  8
0
 10
55.7316
 20
73.6779
 11
56.4351
 21
73.4645
  0
LINE
  8
0
 10
56.4351
 20
73.4645
 11
57.0834
 21
73.118
  0
LINE
  8
0
 10
57.0834
 20
73.118
 11
57.6516
 21
72.6516
  0
LINE
  8
0
 10
57.6516
 20
72.6516
 11
58.118
 21
72.0834
  0
LINE
  8
0
 10
58.118
 20
72.0834
 11
58.4645
 21
71.4351
  0
LINE
  8
0
 10
58.4645
 20
71.4351
 11
58.6779
 21
70.7316
  0
LINE
  8
0
 10
58.6779
 20
70.7316
 11
58.75
 21
70
  0
LINE
  8
0
 10
58.75
 20
70
 11
58.6779
 21
69.2684
  0
LINE
  8
0
 10
58.6779
 20
69.2684
 11
58.4645
 21
68.5649
  0
LINE
  8
0
 10
58.4645
 20
68.5649
 11
58.118
 21
67.9166
  0
LINE
  8
0
 10
58.118
 20
67.9166
 11
57.6516
 21
67.3483
  0
LINE
  8
0
 10
57.6516
 20
67.3483
 11
57.0834
 21
66.882
  0
LINE
  8
0
 10
57.0834
 20
66.882
 11
56.4351
 21
66.5354
  0
LINE
  8
0
 10
56.4351
 20
66.5354
 11
55.7316
 21
66.3221
  0
LINE
  8
0
 10
55.7316
 20
66.3221
 11
55
 21
66.25
  0
LINE
  8
0
 10
55
 20
66.25
 11
54.2684
 21
66.3221
  0
LINE
  8
0
 10
106.435
 20
73.4645
 11
107.083
 21
73.118
  0
LINE
  8
0
 10
107.083
 20
73.118
 11
107.652
 21
72.6516
  0
LINE
  8
0
 10
107.652
 20
72.6516
 11
108.118
 21
72.0834
  0
LINE
  8
0
 10
108.118
 20
72.0834
 11
108.465
 21
71.4351
  0
LINE
  8
0
 10
108.465
 20
71.4351
 11
108.678
 21
70.7316
  0
LINE
  8
0
 10
108.678
 20
70.7316
 11
108.75
 21
70
  0
LINE
  8
0
 10
108.75
 20
70
 11
108.678
 21
69.2684
  0
LINE
  8
0
 10
108.678
 20
69.2684
 11
108.465
 21
68.5649
  0
LINE
  8
0
 10
108.465
 20
68.5649
 11
108.118
 21
67.9166
  0
LINE
  8
0
 10
108.118
 20
67.9166
 11
107.652
 21
67.3483
  0
LINE
  8
0
 10
107.652
 20
67.3483
 11
107.083
 21
66.882
  0
LINE
  8
0
 10
107.083
 20
66.882
 11
106.435
 21
66.5354
  0
LINE
  8
0
 10
106.435
 20
66.5354
 11
105.732
 21
66.3221
  0
LINE
  8
0
 10
105.732
 20
66.3221
 11
105
 21
66.25
  0
LINE
  8
0
 10
105
 20
66.25
 11
104.268
 21
66.3221
  0
LINE
  8
0
 10
104.268
 20
66.3221
 11
103.565
 21
66.5354
  0
LINE
  8
0
 10
103.565
 20
66.5354
 11
102.917
 21
66.882
  0
LINE
  8
0
 10
102.917
 20
66.882
 11
102.348
 21
67.3483
  0
LINE
  8
0
 10
102.348
 20
67.3483
 11
101.882
 21
67.9166
  0
LINE
  8
0
 10
101.882
 20
67.9166
 11
101.535
 21
68.5649
  0
LINE
  8
0
 10
101.535
 20
68.5649
 11
101.322
 21
69.2684
  0
LINE
  8
0
 10
101.322
 20
69.2684
 11
101.25
 21
70
  0
LINE
  8
0
 10
101.25
 20
70
 11
101.322
 21
70.7316
  0
LINE
  8
0
 10
101.322
 20
70.7316
 11
101.535
 21
71.4351
  0
LINE
  8
0
 10
101.535
 20
71.4351
 11
101.882
 21
72.0834
  0
LINE
  8
0
 10
101.882
 20
72.0834
 11
102.348
 21
72.6516
  0
LINE
  8
0
 10
102.348
 20
72.6516
 11
102.917
 21
73.118
  0
LINE
  8
0
 10
102.917
 20
73.118
 11
103.565
 21
73.4645
  0
LINE
  8
0
 10
103.565
 20
73.4645
 11
104.268
 21
73.6779
  0
LINE
  8
0
 10
104.268
 20
73.6779
 11
105
 21
73.75
  0
LINE
  8
0
 10
105
 20
73.75
 11
105.732
 21
73.6779
  0
LINE
  8
0
 10
105.732
 20
73.6779
 11
106.435
 21
73.4645
  0
LINE
  8
0
 10
154.268
 20
66.3221
 11
153.565
 21
66.5354
  0
LINE
  8
0
 10
153.565
 20
66.5354
 11
152.917
 21
66.882
  0
LINE
  8
0
 10
152.917
 20
66.882
 11
152.348
 21
67.3483
  0
LINE
  8
0
 10
152.348
 20
67.3483
 11
151.882
 21
67.9166
  0
LINE
  8
0
 10
151.882
 20
67.9166
 11
151.535
 21
68.5649
  0
LINE
  8
0
 10
151.535
 20
68.5649
 11
151.322
 21
69.2684
  0
LINE
  8
0
 10
151.322
 20
69.2684
 11
151.25
 21
70
  0
LINE
  8
0
 10
151.25
 20
70
 11
151.322
 21
70.7316
  0
LINE
  8
0
 10
151.322
 20
70.7316
 11
151.535
 21
71.4351
  0
LINE
  8
0
 10
151.535
 20
71.4351
 11
151.882
 21
72.0834
  0
LINE
  8
0
 10
151.882
 20
72.0834
 11
152.348
 21
72.6516
  0
LINE
  8
0
 10
152.348
 20
72.6516
 11
152.917
 21
73.118
  0
LINE
  8
0
 10
152.917
 20
73.118
 11
153.565
 21
73.4645
  0
LINE
  8
0
 10
153.565
 20
73.4645
 11
154.268
 21
73.6779
  0
LINE
  8
0
 10
154.268
 20
73.6779
 11
155
 21
73.75
  0
LINE
  8
0
 10
155
 20
73.75
 11
155.732
 21
73.6779
  0
LINE
  8
0
 10
155.732
 20
73.6779
 11
156.435
 21
73.4645
  0
LINE
  8
0
 10
156.435
 20
73.4645
 11
157.083
 21
73.118
  0
LINE
  8
0
 10
157.083
 20
73.118
 11
157.652
 21
72.6516
  0
LINE
  8
0
 10
157.652
 20
72.6516
 11
158.118
 21
72.0834
  0
LINE
  8
0
 10
158.118
 20
72.0834
 11
158.465
 21
71.4351
  0
LINE
  8
0
 10
158.465
 20
71.4351
 11
158.678
 21
70.7316
  0
LINE
  8
0
 10
158.678
 20
70.7316
 11
158.75
 21
70
  0
LINE
  8
0
 10
158.75
 20
70
 11
158.678
 21
69.2684
  0
LINE
  8
0
 10
158.678
 20
69.2684
 11
158.465
 21
68.5649
  0
LINE
  8
0
 10
158.465
 20
68.5649
 11
158.118
 21
67.9166
  0
LINE
  8
0
 10
158.118
 20
67.9166
 11
157.652
 21
67.3483
  0
LINE
  8
0
 10
157.652
 20
67.3483
 11
157.083
 21
66.882
  0
LINE
  8
0
 10
157.083
 20
66.882
 11
156.435
 21
66.5354
  0
LINE
  8
0
 10
156.435
 20
66.5354
 11
155.732
 21
66.3221
  0
LINE
  8
0
 10
155.732
 20
66.3221
 11
155
 21
66.25
  0
LINE
  8
0
 10
155
 20
66.25
 11
154.268
 21
66.3221
  0
LINE
  8
0
 10
-80.7316
 20
66.3221
 11
-81.4351
 21
66.5354
  0
LINE
  8
0
 10
-81.4351
 20
66.5354
 11
-82.0834
 21
66.882
  0
LINE
  8
0
 10
-82.0834
 20
66.882
 11
-82.6516
 21
67.3483
  0
LINE
  8
0
 10
-82.6516
 20
67.3483
 11
-83.118
 21
67.9166
  0
LINE
  8
0
 10
-83.118
 20
67.9166
 11
-83.4645
 21
68.5649
  0
LINE
  8
0
 10
-83.4645
 20
68.5649
 11
-83.6779
 21
69.2684
  0
LINE
  8
0
 10
-83.6779
 20
69.2684
 11
-83.75
 21
70
  0
LINE
  8
0
 10
-83.75
 20
70
 11
-83.6779
 21
70.7316
  0
LINE
  8
0
 10
-83.6779
 20
70.7316
 11
-83.4645
 21
71.4351
  0
LINE
  8
0
 10
-83.4645
 20
71.4351
 11
-83.118
 21
72.0834
  0
LINE
  8
0
 10
-83.118
 20
72.0834
 11
-82.6516
 21
72.6516
  0
LINE
  8
0
 10
-82.6516
 20
72.6516
 11
-82.0834
 21
73.118
  0
LINE
  8
0
 10
-82.0834
 20
73.118
 11
-81.4351
 21
73.4645
  0
LINE
  8
0
 10
-81.4351
 20
73.4645
 11
-80.7316
 21
73.6779
  0
LINE
  8
0
 10
-80.7316
 20
73.6779
 11
-80
 21
73.75
  0
LINE
  8
0
 10
-80
 20
73.75
 11
-79.2684
 21
73.6779
  0
LINE
  8
0
 10
-79.2684
 20
73.6779
 11
-78.5649
 21
73.4645
  0
LINE
  8
0
 10
-78.5649
 20
73.4645
 11
-77.9166
 21
73.118
  0
LINE
  8
0
 10
-77.9166
 20
73.118
 11
-77.3483
 21
72.6516
  0
LINE
  8
0
 10
-77.3483
 20
72.6516
 11
-76.882
 21
72.0834
  0
LINE
  8
0
 10
-76.882
 20
72.0834
 11
-76.5354
 21
71.4351
  0
LINE
  8
0
 10
-76.5354
 20
71.4351
 11
-76.3221
 21
70.7316
  0
LINE
  8
0
 10
-76.3221
 20
70.7316
 11
-76.25
 21
70
  0
LINE
  8
0
 10
-76.25
 20
70
 11
-76.3221
 21
69.2684
  0
LINE
  8
0
 10
-76.3221
 20
69.2684
 11
-76.5354
 21
68.5649
  0
LINE
  8
0
 10
-76.5354
 20
68.5649
 11
-76.882
 21
67.9166
  0
LINE
  8
0
 10
-76.882
 20
67.9166
 11
-77.3483
 21
67.3483
  0
LINE
  8
0
 10
-77.3483
 20
67.3483
 11
-77.9166
 21
66.882
  0
LINE
  8
0
 10
-77.9166
 20
66.882
 11
-78.5649
 21
66.5354
  0
LINE
  8
0
 10
-78.5649
 20
66.5354
 11
-79.2684
 21
66.3221
  0
LINE
  8
0
 10
-79.2684
 20
66.3221
 11
-80
 21
66.25
  0
LINE
  8
0
 10
-80
 20
66.25
 11
-80.7316
 21
66.3221
  0
LINE
  8
0
 10
-150.975
 20
35.0961
 11
-151.913
 21
35.3806
  0
LINE
  8
0
 10
-151.913
 20
35.3806
 11
-152.778
 21
35.8427
  0
LINE
  8
0
 10
-152.778
 20
35.8427
 11
-153.536
 21
36.4645
  0
LINE
  8
0
 10
-153.536
 20
36.4645
 11
-154.157
 21
37.2221
  0
LINE
  8
0
 10
-154.157
 20
37.2221
 11
-154.619
 21
38.0866
  0
LINE
  8
0
 10
-154.619
 20
38.0866
 11
-154.904
 21
39.0245
  0
LINE
  8
0
 10
-154.904
 20
39.0245
 11
-155
 21
40
  0
LINE
  8
0
 10
-155
 20
40
 11
-154.904
 21
40.9754
  0
LINE
  8
0
 10
-154.904
 20
40.9754
 11
-154.619
 21
41.9134
  0
LINE
  8
0
 10
-154.619
 20
41.9134
 11
-154.157
 21
42.7778
  0
LINE
  8
0
 10
-154.157
 20
42.7778
 11
-153.536
 21
43.5355
  0
LINE
  8
0
 10
-153.536
 20
43.5355
 11
-152.778
 21
44.1573
  0
LINE
  8
0
 10
-152.778
 20
44.1573
 11
-151.913
 21
44.6194
  0
LINE
  8
0
 10
-151.913
 20
44.6194
 11
-150.975
 21
44.9039
  0
LINE
  8
0
 10
-150.975
 20
44.9039
 11
-150
 21
45
  0
LINE
  8
0
 10
-150
 20
45
 11
-149.025
 21
44.9039
  0
LINE
  8
0
 10
-149.025
 20
44.9039
 11
-148.087
 21
44.6194
  0
LINE
  8
0
 10
-148.087
 20
44.6194
 11
-147.222
 21
44.1573
  0
LINE
  8
0
 10
-147.222
 20
44.1573
 11
-146.464
 21
43.5355
  0
LINE
  8
0
 10
-146.464
 20
43.5355
 11
-145.843
 21
42.7778
  0
LINE
  8
0
 10
-145.843
 20
42.7778
 11
-145.381
 21
41.9134
  0
LINE
  8
0
 10
-145.381
 20
41.9134
 11
-145.096
 21
40.9754
  0
LINE
  8
0
 10
-145.096
 20
40.9754
 11
-145
 21
40
  0
LINE
  8
0
 10
-145
 20
40
 11
-145.096
 21
39.0245
  0
LINE
  8
0
 10
-145.096
 20
39.0245
 11
-145.381
 21
38.0866
  0
LINE
  8
0
 10
-145.381
 20
38.0866
 11
-145.843
 21
37.2221
  0
LINE
  8
0
 10
-145.843
 20
37.2221
 11
-146.464
 21
36.4645
  0
LINE
  8
0
 10
-146.464
 20
36.4645
 11
-147.222
 21
35.8427
  0
LINE
  8
0
 10
-147.222
 20
35.8427
 11
-148.087
 21
35.3806
  0
LINE
  8
0
 10
-148.087
 20
35.3806
 11
-149.025
 21
35.0961
  0
LINE
  8
0
 10
-149.025
 20
35.0961
 11
-150
 21
35
  0
LINE
  8
0
 10
-150
 20
35
 11
-150.975
 21
35.0961
  0
LINE
  8
0
 10
51.3221
 20
39.2684
 11
51.25
 21
40
  0
LINE
  8
0
 10
51.25
 20
40
 11
51.3221
 21
40.7316
  0
LINE
  8
0
 10
51.3221
 20
40.7316
 11
51.5354
 21
41.4351
  0
LINE
  8
0
 10
51.5354
 20
41.4351
 11
51.882
 21
42.0834
  0
LINE
  8
0
 10
51.882
 20
42.0834
 11
52.3483
 21
42.6516
  0
LINE
  8
0
 10
52.3483
 20
42.6516
 11
52.9166
 21
43.118
  0
LINE
  8
0
 10
52.9166
 20
43.118
 11
53.5649
 21
43.4645
  0
LINE
  8
0
 10
53.5649
 20
43.4645
 11
54.2684
 21
43.6779
  0
LINE
  8
0
 10
54.2684
 20
43.6779
 11
55
 21
43.75
  0
LINE
  8
0
 10
55
 20
43.75
 11
55.7316
 21
43.6779
  0
LINE
  8
0
 10
55.7316
 20
43.6779
 11
56.4351
 21
43.4645
  0
LINE
  8
0
 10
56.4351
 20
43.4645
 11
57.0834
 21
43.118
  0
LINE
  8
0
 10
57.0834
 20
43.118
 11
57.6516
 21
42.6516
  0
LINE
  8
0
 10
57.6516
 20
42.6516
 11
58.118
 21
42.0834
  0
LINE
  8
0
 10
58.118
 20
42.0834
 11
58.4645
 21
41.4351
  0
LINE
  8
0
 10
58.4645
 20
41.4351
 11
58.6779
 21
40.7316
  0
LINE
  8
0
 10
58.6779
 20
40.7316
 11
58.75
 21
40
  0
LINE
  8
0
 10
58.75
 20
40
 11
58.6779
 21
39.2684
  0
LINE
  8
0
 10
58.6779
 20
39.2684
 11
58.4645
 21
38.5649
  0
LINE
  8
0
 10
58.4645
 20
38.5649
 11
58.118
 21
37.9166
  0
LINE
  8
0
 10
58.118
 20
37.9166
 11
57.6516
 21
37.3483
  0
LINE
  8
0
 10
57.6516
 20
37.3483
 11
57.0834
 21
36.882
  0
LINE
  8
0
 10
57.0834
 20
36.882
 11
56.4351
 21
36.5354
  0
LINE
  8
0
 10
56.4351
 20
36.5354
 11
55.7316
 21
36.3221
  0
LINE
  8
0
 10
55.7316
 20
36.3221
 11
55
 21
36.25
  0
LINE
  8
0
 10
55
 20
36.25
 11
54.2684
 21
36.3221
  0
LINE
  8
0
 10
54.2684
 20
36.3221
 11
53.5649
 21
36.5354
  0
LINE
  8
0
 10
53.5649
 20
36.5354
 11
52.9166
 21
36.882
  0
LINE
  8
0
 10
52.9166
 20
36.882
 11
52.3483
 21
37.3483
  0
LINE
  8
0
 10
52.3483
 20
37.3483
 11
51.882
 21
37.9166
  0
LINE
  8
0
 10
51.882
 20
37.9166
 11
51.5354
 21
38.5649
  0
LINE
  8
0
 10
51.5354
 20
38.5649
 11
51.3221
 21
39.2684
  0
LINE
  8
0
 10
104.268
 20
36.3221
 11
103.565
 21
36.5354
  0
LINE
  8
0
 10
103.565
 20
36.5354
 11
102.917
 21
36.882
  0
LINE
  8
0
 10
102.917
 20
36.882
 11
102.348
 21
37.3483
  0
LINE
  8
0
 10
102.348
 20
37.3483
 11
101.882
 21
37.9166
  0
LINE
  8
0
 10
101.882
 20
37.9166
 11
101.535
 21
38.5649
  0
LINE
  8
0
 10
101.535
 20
38.5649
 11
101.322
 21
39.2684
  0
LINE
  8
0
 10
101.322
 20
39.2684
 11
101.25
 21
40
  0
LINE
  8
0
 10
101.25
 20
40
 11
101.322
 21
40.7316
  0
LINE
  8
0
 10
101.322
 20
40.7316
 11
101.535
 21
41.4351
  0
LINE
  8
0
 10
101.535
 20
41.4351
 11
101.882
 21
42.0834
  0
LINE
  8
0
 10
101.882
 20
42.0834
 11
102.348
 21
42.6516
  0
LINE
  8
0
 10
102.348
 20
42.6516
 11
102.917
 21
43.118
  0
LINE
  8
0
 10
102.917
 20
43.118
 11
103.565
 21
43.4645
  0
LINE
  8
0
 10
103.565
 20
43.4645
 11
104.268
 21
43.6779
  0
LINE
  8
0
 10
104.268
 20
43.6779
 11
105
 21
43.75
  0
LINE
  8
0
 10
105
 20
43.75
 11
105.732
 21
43.6779
  0
LINE
  8
0
 10
105.732
 20
43.6779
 11
106.435
 21
43.4645
  0
LINE
  8
0
 10
106.435
 20
43.4645
 11
107.083
 21
43.118
  0
LINE
  8
0
 10
107.083
 20
43.118
 11
107.652
 21
42.6516
  0
LINE
  8
0
 10
107.652
 20
42.6516
 11
108.118
 21
42.0834
  0
LINE
  8
0
 10
108.118
 20
42.0834
 11
108.465
 21
41.4351
  0
LINE
  8
0
 10
108.465
 20
41.4351
 11
108.678
 21
40.7316
  0
LINE
  8
0
 10
108.678
 20
40.7316
 11
108.75
 21
40
  0
LINE
  8
0
 10
108.75
 20
40
 11
108.678
 21
39.2684
  0
LINE
  8
0
 10
108.678
 20
39.2684
 11
108.465
 21
38.5649
  0
LINE
  8
0
 10
108.465
 20
38.5649
 11
108.118
 21
37.9166
  0
LINE
  8
0
 10
108.118
 20
37.9166
 11
107.652
 21
37.3483
  0
LINE
  8
0
 10
107.652
 20
37.3483
 11
107.083
 21
36.882
  0
LINE
  8
0
 10
107.083
 20
36.882
 11
106.435
 21
36.5354
  0
LINE
  8
0
 10
106.435
 20
36.5354
 11
105.732
 21
36.3221
  0
LINE
  8
0
 10
105.732
 20
36.3221
 11
105
 21
36.25
  0
LINE
  8
0
 10
105
 20
36.25
 11
104.268
 21
36.3221
  0
LINE
  8
0
 10
154.268
 20
36.3221
 11
153.565
 21
36.5354
  0
LINE
  8
0
 10
153.565
 20
36.5354
 11
152.917
 21
36.882
  0
LINE
  8
0
 10
152.917
 20
36.882
 11
152.348
 21
37.3483
  0
LINE
  8
0
 10
152.348
 20
37.3483
 11
151.882
 21
37.9166
  0
LINE
  8
0
 10
151.882
 20
37.9166
 11
151.535
 21
38.5649
  0
LINE
  8
0
 10
151.535
 20
38.5649
 11
151.322
 21
39.2684
  0
LINE
  8
0
 10
151.322
 20
39.2684
 11
151.25
 21
40
  0
LINE
  8
0
 10
151.25
 20
40
 11
151.322
 21
40.7316
  0
LINE
  8
0
 10
151.322
 20
40.7316
 11
151.535
 21
41.4351
  0
LINE
  8
0
 10
151.535
 20
41.4351
 11
151.882
 21
42.0834
  0
LINE
  8
0
 10
151.882
 20
42.0834
 11
152.348
 21
42.6516
  0
LINE
  8
0
 10
152.348
 20
42.6516
 11
152.917
 21
43.118
  0
LINE
  8
0
 10
152.917
 20
43.118
 11
153.565
 21
43.4645
  0
LINE
  8
0
 10
153.565
 20
43.4645
 11
154.268
 21
43.6779
  0
LINE
  8
0
 10
154.268
 20
43.6779
 11
155
 21
43.75
  0
LINE
  8
0
 10
155
 20
43.75
 11
155.732
 21
43.6779
  0
LINE
  8
0
 10
155.732
 20
43.6779
 11
156.435
 21
43.4645
  0
LINE
  8
0
 10
156.435
 20
43.4645
 11
157.083
 21
43.118
  0
LINE
  8
0
 10
157.083
 20
43.118
 11
157.652
 21
42.6516
  0
LINE
  8
0
 10
157.652
 20
42.6516
 11
158.118
 21
42.0834
  0
LINE
  8
0
 10
158.118
 20
42.0834
 11
158.465
 21
41.4351
  0
LINE
  8
0
 10
158.465
 20
41.4351
 11
158.678
 21
40.7316
  0
LINE
  8
0
 10
158.678
 20
40.7316
 11
158.75
 21
40
  0
LINE
  8
0
 10
158.75
 20
40
 11
158.678
 21
39.2684
  0
LINE
  8
0
 10
158.678
 20
39.2684
 11
158.465
 21
38.5649
  0
LINE
  8
0
 10
158.465
 20
38.5649
 11
158.118
 21
37.9166
  0
LINE
  8
0
 10
158.118
 20
37.9166
 11
157.652
 21
37.3483
  0
LINE
  8
0
 10
157.652
 20
37.3483
 11
157.083
 21
36.882
  0
LINE
  8
0
 10
157.083
 20
36.882
 11
156.435
 21
36.5354
  0
LINE
  8
0
 10
156.435
 20
36.5354
 11
155.732
 21
36.3221
  0
LINE
  8
0
 10
155.732
 20
36.3221
 11
155
 21
36.25
  0
LINE
  8
0
 10
155
 20
36.25
 11
154.268
 21
36.3221
  0
LINE
  8
0
 10
-80.7316
 20
36.3221
 11
-81.4351
 21
36.5354
  0
LINE
  8
0
 10
-81.4351
 20
36.5354
 11
-82.0834
 21
36.882
  0
LINE
  8
0
 10
-82.0834
 20
36.882
 11
-82.6516
 21
37.3483
  0
LINE
  8
0
 10
-82.6516
 20
37.3483
 11
-83.118
 21
37.9166
  0
LINE
  8
0
 10
-83.118
 20
37.9166
 11
-83.4645
 21
38.5649
  0
LINE
  8
0
 10
-83.4645
 20
38.5649
 11
-83.6779
 21
39.2684
  0
LINE
  8
0
 10
-83.6779
 20
39.2684
 11
-83.75
 21
40
  0
LINE
  8
0
 10
-83.75
 20
40
 11
-83.6779
 21
40.7316
  0
LINE
  8
0
 10
-83.6779
 20
40.7316
 11
-83.4645
 21
41.4351
  0
LINE
  8
0
 10
-83.4645
 20
41.4351
 11
-83.118
 21
42.0834
  0
LINE
  8
0
 10
-83.118
 20
42.0834
 11
-82.6516
 21
42.6516
  0
LINE
  8
0
 10
-82.6516
 20
42.6516
 11
-82.0834
 21
43.118
  0
LINE
  8
0
 10
-82.0834
 20
43.118
 11
-81.4351
 21
43.4645
  0
LINE
  8
0
 10
-81.4351
 20
43.4645
 11
-80.7316
 21
43.6779
  0
LINE
  8
0
 10
-80.7316
 20
43.6779
 11
-80
 21
43.75
  0
LINE
  8
0
 10
-80
 20
43.75
 11
-79.2684
 21
43.6779
  0
LINE
  8
0
 10
-79.2684
 20
43.6779
 11
-78.5649
 21
43.4645
  0
LINE
  8
0
 10
-78.5649
 20
43.4645
 11
-77.9166
 21
43.118
  0
LINE
  8
0
 10
-77.9166
 20
43.118
 11
-77.3483
 21
42.6516
  0
LINE
  8
0
 10
-77.3483
 20
42.6516
 11
-76.882
 21
42.0834
  0
LINE
  8
0
 10
-76.882
 20
42.0834
 11
-76.5354
 21
41.4351
  0
LINE
  8
0
 10
-76.5354
 20
41.4351
 11
-76.3221
 21
40.7316
  0
LINE
  8
0
 10
-76.3221
 20
40.7316
 11
-76.25
 21
40
  0
LINE
  8
0
 10
-76.25
 20
40
 11
-76.3221
 21
39.2684
  0
LINE
  8
0
 10
-76.3221
 20
39.2684
 11
-76.5354
 21
38.5649
  0
LINE
  8
0
 10
-76.5354
 20
38.5649
 11
-76.882
 21
37.9166
  0
LINE
  8
0
 10
-76.882
 20
37.9166
 11
-77.3483
 21
37.3483
  0
LINE
  8
0
 10
-77.3483
 20
37.3483
 11
-77.9166
 21
36.882
  0
LINE
  8
0
 10
-77.9166
 20
36.882
 11
-78.5649
 21
36.5354
  0
LINE
  8
0
 10
-78.5649
 20
36.5354
 11
-79.2684
 21
36.3221
  0
LINE
  8
0
 10
-79.2684
 20
36.3221
 11
-80
 21
36.25
  0
LINE
  8
0
 10
-80
 20
36.25
 11
-80.7316
 21
36.3221
  0
LINE
  8
0
 10
-150.975
 20
5.09607
 11
-151.913
 21
5.3806
  0
LINE
  8
0
 10
-151.913
 20
5.3806
 11
-152.778
 21
5.84265
  0
LINE
  8
0
 10
-152.778
 20
5.84265
 11
-153.536
 21
6.46446
  0
LINE
  8
0
 10
-153.536
 20
6.46446
 11
-154.157
 21
7.22214
  0
LINE
  8
0
 10
-154.157
 20
7.22214
 11
-154.619
 21
8.08658
  0
LINE
  8
0
 10
-154.619
 20
8.08658
 11
-154.904
 21
9.02454
  0
LINE
  8
0
 10
-154.904
 20
9.02454
 11
-155
 21
10
  0
LINE
  8
0
 10
-155
 20
10
 11
-154.904
 21
10.9754
  0
LINE
  8
0
 10
-154.904
 20
10.9754
 11
-154.619
 21
11.9134
  0
LINE
  8
0
 10
-154.619
 20
11.9134
 11
-154.157
 21
12.7778
  0
LINE
  8
0
 10
-154.157
 20
12.7778
 11
-153.536
 21
13.5355
  0
LINE
  8
0
 10
-153.536
 20
13.5355
 11
-152.778
 21
14.1573
  0
LINE
  8
0
 10
-152.778
 20
14.1573
 11
-151.913
 21
14.6194
  0
LINE
  8
0
 10
-151.913
 20
14.6194
 11
-150.975
 21
14.9039
  0
LINE
  8
0
 10
-150.975
 20
14.9039
 11
-150
 21
15
  0
LINE
  8
0
 10
-150
 20
15
 11
-149.025
 21
14.9039
  0
LINE
  8
0
 10
-149.025
 20
14.9039
 11
-148.087
 21
14.6194
  0
LINE
  8
0
 10
-148.087
 20
14.6194
 11
-147.222
 21
14.1573
  0
LINE
  8
0
 10
-147.222
 20
14.1573
 11
-146.464
 21
13.5355
  0
LINE
  8
0
 10
-146.464
 20
13.5355
 11
-145.843
 21
12.7778
  0
LINE
  8
0
 10
-145.843
 20
12.7778
 11
-145.381
 21
11.9134
  0
LINE
  8
0
 10
-145.381
 20
11.9134
 11
-145.096
 21
10.9754
  0
LINE
  8
0
 10
-145.096
 20
10.9754
 11
-145
 21
10
  0
LINE
  8
0
 10
-145
 20
10
 11
-145.096
 21
9.02454
  0
LINE
  8
0
 10
-145.096
 20
9.02454
 11
-145.381
 21
8.08658
  0
LINE
  8
0
 10
-145.381
 20
8.08658
 11
-145.843
 21
7.22214
  0
LINE
  8
0
 10
-145.843
 20
7.22214
 11
-146.464
 21
6.46446
  0
LINE
  8
0
 10
-146.464
 20
6.46446
 11
-147.222
 21
5.84265
  0
LINE
  8
0
 10
-147.222
 20
5.84265
 11
-148.087
 21
5.3806
  0
LINE
  8
0
 10
-148.087
 20
5.3806
 11
-149.025
 21
5.09607
  0
LINE
  8
0
 10
-149.025
 20
5.09607
 11
-150
 21
5
  0
LINE
  8
0
 10
-150
 20
5
 11
-150.975
 21
5.09607
  0
LINE
  8
0
 10
4.2684
 20
6.32205
 11
3.56493
 21
6.53545
  0
LINE
  8
0
 10
3.56493
 20
6.53545
 11
2.91661
 21
6.88199
  0
LINE
  8
0
 10
2.91661
 20
6.88199
 11
2.34834
 21
7.34834
  0
LINE
  8
0
 10
2.34834
 20
7.34834
 11
1.88199
 21
7.91661
  0
LINE
  8
0
 10
1.88199
 20
7.91661
 11
1.53545
 21
8.56493
  0
LINE
  8
0
 10
1.53545
 20
8.56493
 11
1.32205
 21
9.2684
  0
LINE
  8
0
 10
1.32205
 20
9.2684
 11
1.25
 21
10
  0
LINE
  8
0
 10
1.25
 20
10
 11
1.32205
 21
10.7316
  0
LINE
  8
0
 10
1.32205
 20
10.7316
 11
1.53545
 21
11.4351
  0
LINE
  8
0
 10
1.53545
 20
11.4351
 11
1.88199
 21
12.0834
  0
LINE
  8
0
 10
1.88199
 20
12.0834
 11
2.34834
 21
12.6516
  0
LINE
  8
0
 10
2.34834
 20
12.6516
 11
2.91661
 21
13.118
  0
LINE
  8
0
 10
2.91661
 20
13.118
 11
3.56493
 21
13.4645
  0
LINE
  8
0
 10
3.56493
 20
13.4645
 11
4.2684
 21
13.6779
  0
LINE
  8
0
 10
4.2684
 20
13.6779
 11
5
 21
13.75
  0
LINE
  8
0
 10
5
 20
13.75
 11
5.73158
 21
13.6779
  0
LINE
  8
0
 10
5.73158
 20
13.6779
 11
6.43506
 21
13.4645
  0
LINE
  8
0
 10
6.43506
 20
13.4645
 11
7.08337
 21
13.118
  0
LINE
  8
0
 10
7.08337
 20
13.118
 11
7.65164
 21
12.6516
  0
LINE
  8
0
 10
7.65164
 20
12.6516
 11
8.118
 21
12.0834
  0
LINE
  8
0
 10
8.118
 20
12.0834
 11
8.46454
 21
11.4351
  0
LINE
  8
0
 10
8.46454
 20
11.4351
 11
8.67793
 21
10.7316
  0
LINE
  8
0
 10
8.67793
 20
10.7316
 11
8.75
 21
10
  0
LINE
  8
0
 10
8.75
 20
10
 11
8.67793
 21
9.2684
  0
LINE
  8
0
 10
8.67793
 20
9.2684
 11
8.46454
 21
8.56493
  0
LINE
  8
0
 10
8.46454
 20
8.56493
 11
8.118
 21
7.91661
  0
LINE
  8
0
 10
8.118
 20
7.91661
 11
7.65164
 21
7.34834
  0
LINE
  8
0
 10
7.65164
 20
7.34834
 11
7.08337
 21
6.88199
  0
LINE
  8
0
 10
7.08337
 20
6.88199
 11
6.43506
 21
6.53545
  0
LINE
  8
0
 10
6.43506
 20
6.53545
 11
5.73158
 21
6.32205
  0
LINE
  8
0
 10
5.73158
 20
6.32205
 11
5
 21
6.25
  0
LINE
  8
0
 10
5
 20
6.25
 11
4.2684
 21
6.32205
  0
LINE
  8
0
 10
-80.7316
 20
6.32205
 11
-81.4351
 21
6.53545
  0
LINE
  8
0
 10
-81.4351
 20
6.53545
 11
-82.0834
 21
6.88199
  0
LINE
  8
0
 10
-82.0834
 20
6.88199
 11
-82.6516
 21
7.34834
  0
LINE
  8
0
 10
-82.6516
 20
7.34834
 11
-83.118
 21
7.91661
  0
LINE
  8
0
 10
-83.118
 20
7.91661
 11
-83.4645
 21
8.56493
  0
LINE
  8
0
 10
-83.4645
 20
8.56493
 11
-83.6779
 21
9.2684
  0
LINE
  8
0
 10
-83.6779
 20
9.2684
 11
-83.75
 21
10
  0
LINE
  8
0
 10
-83.75
 20
10
 11
-83.6779
 21
10.7316
  0
LINE
  8
0
 10
-83.6779
 20
10.7316
 11
-83.4645
 21
11.4351
  0
LINE
  8
0
 10
-83.4645
 20
11.4351
 11
-83.118
 21
12.0834
  0
LINE
  8
0
 10
-83.118
 20
12.0834
 11
-82.6516
 21
12.6516
  0
LINE
  8
0
 10
-82.6516
 20
12.6516
 11
-82.0834
 21
13.118
  0
LINE
  8
0
 10
-82.0834
 20
13.118
 11
-81.4351
 21
13.4645
  0
LINE
  8
0
 10
-81.4351
 20
13.4645
 11
-80.7316
 21
13.6779
  0
LINE
  8
0
 10
-80.7316
 20
13.6779
 11
-80
 21
13.75
  0
LINE
  8
0
 10
-80
 20
13.75
 11
-79.2684
 21
13.6779
  0
LINE
  8
0
 10
-79.2684
 20
13.6779
 11
-78.5649
 21
13.4645
  0
LINE
  8
0
 10
-78.5649
 20
13.4645
 11
-77.9166
 21
13.118
  0
LINE
  8
0
 10
-77.9166
 20
13.118
 11
-77.3483
 21
12.6516
  0
LINE
  8
0
 10
-77.3483
 20
12.6516
 11
-76.882
 21
12.0834
  0
LINE
  8
0
 10
-76.882
 20
12.0834
 11
-76.5354
 21
11.4351
  0
LINE
  8
0
 10
-76.5354
 20
11.4351
 11
-76.3221
 21
10.7316
  0
LINE
  8
0
 10
-76.3221
 20
10.7316
 11
-76.25
 21
10
  0
LINE
  8
0
 10
-76.25
 20
10
 11
-76.3221
 21
9.2684
  0
LINE
  8
0
 10
-76.3221
 20
9.2684
 11
-76.5354
 21
8.56493
  0
LINE
  8
0
 10
-76.5354
 20
8.56493
 11
-76.882
 21
7.91661
  0
LINE
  8
0
 10
-76.882
 20
7.91661
 11
-77.3483
 21
7.34834
  0
LINE
  8
0
 10
-77.3483
 20
7.34834
 11
-77.9166
 21
6.88199
  0
LINE
  8
0
 10
-77.9166
 20
6.88199
 11
-78.5649
 21
6.53545
  0
LINE
  8
0
 10
-78.5649
 20
6.53545
 11
-79.2684
 21
6.32205
  0
LINE
  8
0
 10
-79.2684
 20
6.32205
 11
-80
 21
6.25
  0
LINE
  8
0
 10
-80
 20
6.25
 11
-80.7316
 21
6.32205
  0
LINE
  8
0
 10
154.268
 20
6.32205
 11
153.565
 21
6.53545
  0
LINE
  8
0
 10
153.565
 20
6.53545
 11
152.917
 21
6.88199
  0
LINE
  8
0
 10
152.917
 20
6.88199
 11
152.348
 21
7.34834
  0
LINE
  8
0
 10
152.348
 20
7.34834
 11
151.882
 21
7.91661
  0
LINE
  8
0
 10
151.882
 20
7.91661
 11
151.535
 21
8.56493
  0
LINE
  8
0
 10
151.535
 20
8.56493
 11
151.322
 21
9.2684
  0
LINE
  8
0
 10
151.322
 20
9.2684
 11
151.25
 21
10
  0
LINE
  8
0
 10
151.25
 20
10
 11
151.322
 21
10.7316
  0
LINE
  8
0
 10
151.322
 20
10.7316
 11
151.535
 21
11.4351
  0
LINE
  8
0
 10
151.535
 20
11.4351
 11
151.882
 21
12.0834
  0
LINE
  8
0
 10
151.882
 20
12.0834
 11
152.348
 21
12.6516
  0
LINE
  8
0
 10
152.348
 20
12.6516
 11
152.917
 21
13.118
  0
LINE
  8
0
 10
152.917
 20
13.118
 11
153.565
 21
13.4645
  0
LINE
  8
0
 10
153.565
 20
13.4645
 11
154.268
 21
13.6779
  0
LINE
  8
0
 10
154.268
 20
13.6779
 11
155
 21
13.75
  0
LINE
  8
0
 10
155
 20
13.75
 11
155.732
 21
13.6779
  0
LINE
  8
0
 10
155.732
 20
13.6779
 11
156.435
 21
13.4645
  0
LINE
  8
0
 10
156.435
 20
13.4645
 11
157.083
 21
13.118
  0
LINE
  8
0
 10
157.083
 20
13.118
 11
157.652
 21
12.6516
  0
LINE
  8
0
 10
157.652
 20
12.6516
 11
158.118
 21
12.0834
  0
LINE
  8
0
 10
158.118
 20
12.0834
 11
158.465
 21
11.4351
  0
LINE
  8
0
 10
158.465
 20
11.4351
 11
158.678
 21
10.7316
  0
LINE
  8
0
 10
158.678
 20
10.7316
 11
158.75
 21
10
  0
LINE
  8
0
 10
158.75
 20
10
 11
158.678
 21
9.2684
  0
LINE
  8
0
 10
158.678
 20
9.2684
 11
158.465
 21
8.56493
  0
LINE
  8
0
 10
158.465
 20
8.56493
 11
158.118
 21
7.91661
  0
LINE
  8
0
 10
158.118
 20
7.91661
 11
157.652
 21
7.34834
  0
LINE
  8
0
 10
157.652
 20
7.34834
 11
157.083
 21
6.88199
  0
LINE
  8
0
 10
157.083
 20
6.88199
 11
156.435
 21
6.53545
  0
LINE
  8
0
 10
156.435
 20
6.53545
 11
155.732
 21
6.32205
  0
LINE
  8
0
 10
155.732
 20
6.32205
 11
155
 21
6.25
  0
LINE
  8
0
 10
155
 20
6.25
 11
154.268
 21
6.32205
  0
LINE
  8
0
 10
54.2684
 20
6.32205
 11
53.5649
 21
6.53545
  0
LINE
  8
0
 10
53.5649
 20
6.53545
 11
52.9166
 21
6.88199
  0
LINE
  8
0
 10
52.9166
 20
6.88199
 11
52.3483
 21
7.34834
  0
LINE
  8
0
 10
52.3483
 20
7.34834
 11
51.882
 21
7.91661
  0
LINE
  8
0
 10
51.882
 20
7.91661
 11
51.5354
 21
8.56493
  0
LINE
  8
0
 10
51.5354
 20
8.56493
 11
51.3221
 21
9.2684
  0
LINE
  8
0
 10
51.3221
 20
9.2684
 11
51.25
 21
10
  0
LINE
  8
0
 10
51.25
 20
10
 11
51.3221
 21
10.7316
  0
LINE
  8
0
 10
51.3221
 20
10.7316
 11
51.5354
 21
11.4351
  0
LINE
  8
0
 10
51.5354
 20
11.4351
 11
51.882
 21
12.0834
  0
LINE
  8
0
 10
51.882
 20
12.0834
 11
52.3483
 21
12.6516
  0
LINE
  8
0
 10
52.3483
 20
12.6516
 11
52.9166
 21
13.118
  0
LINE
  8
0
 10
52.9166
 20
13.118
 11
53.5649
 21
13.4645
  0
LINE
  8
0
 10
53.5649
 20
13.4645
 11
54.2684
 21
13.6779
  0
LINE
  8
0
 10
54.2684
 20
13.6779
 11
55
 21
13.75
  0
LINE
  8
0
 10
55
 20
13.75
 11
55.7316
 21
13.6779
  0
LINE
  8
0
 10
55.7316
 20
13.6779
 11
56.4351
 21
13.4645
  0
LINE
  8
0
 10
56.4351
 20
13.4645
 11
57.0834
 21
13.118
  0
LINE
  8
0
 10
57.0834
 20
13.118
 11
57.6516
 21
12.6516
  0
LINE
  8
0
 10
57.6516
 20
12.6516
 11
58.118
 21
12.0834
  0
LINE
  8
0
 10
58.118
 20
12.0834
 11
58.4645
 21
11.4351
  0
LINE
  8
0
 10
58.4645
 20
11.4351
 11
58.6779
 21
10.7316
  0
LINE
  8
0
 10
58.6779
 20
10.7316
 11
58.75
 21
10
  0
LINE
  8
0
 10
58.75
 20
10
 11
58.6779
 21
9.2684
  0
LINE
  8
0
 10
58.6779
 20
9.2684
 11
58.4645
 21
8.56493
  0
LINE
  8
0
 10
58.4645
 20
8.56493
 11
58.118
 21
7.91661
  0
LINE
  8
0
 10
58.118
 20
7.91661
 11
57.6516
 21
7.34834
  0
LINE
  8
0
 10
57.6516
 20
7.34834
 11
57.0834
 21
6.88199
  0
LINE
  8
0
 10
57.0834
 20
6.88199
 11
56.4351
 21
6.53545
  0
LINE
  8
0
 10
56.4351
 20
6.53545
 11
55.7316
 21
6.32205
  0
LINE
  8
0
 10
55.7316
 20
6.32205
 11
55
 21
6.25
  0
LINE
  8
0
 10
55
 20
6.25
 11
54.2684
 21
6.32205
  0
LINE
  8
0
 10
104.268
 20
6.32205
 11
103.565
 21
6.53545
  0
LINE
  8
0
 10
103.565
 20
6.53545
 11
102.917
 21
6.88199
  0
LINE
  8
0
 10
102.917
 20
6.88199
 11
102.348
 21
7.34834
  0
LINE
  8
0
 10
102.348
 20
7.34834
 11
101.882
 21
7.91661
  0
LINE
  8
0
 10
101.882
 20
7.91661
 11
101.535
 21
8.56493
  0
LINE
  8
0
 10
101.535
 20
8.56493
 11
101.322
 21
9.2684
  0
LINE
  8
0
 10
101.322
 20
9.2684
 11
101.25
 21
10
  0
LINE
  8
0
 10
101.25
 20
10
 11
101.322
 21
10.7316
  0
LINE
  8
0
 10
101.322
 20
10.7316
 11
101.535
 21
11.4351
  0
LINE
  8
0
 10
101.535
 20
11.4351
 11
101.882
 21
12.0834
  0
LINE
  8
0
 10
101.882
 20
12.0834
 11
102.348
 21
12.6516
  0
LINE
  8
0
 10
102.348
 20
12.6516
 11
102.917
 21
13.118
  0
LINE
  8
0
 10
102.917
 20
13.118
 11
103.565
 21
13.4645
  0
LINE
  8
0
 10
103.565
 20
13.4645
 11
104.268
 21
13.6779
  0
LINE
  8
0
 10
104.268
 20
13.6779
 11
105
 21
13.75
  0
LINE
  8
0
 10
105
 20
13.75
 11
105.732
 21
13.6779
  0
LINE
  8
0
 10
105.732
 20
13.6779
 11
106.435
 21
13.4645
  0
LINE
  8
0
 10
106.435
 20
13.4645
 11
107.083
 21
13.118
  0
LINE
  8
0
 10
107.083
 20
13.118
 11
107.652
 21
12.6516
  0
LINE
  8
0
 10
107.652
 20
12.6516
 11
108.118
 21
12.0834
  0
LINE
  8
0
 10
108.118
 20
12.0834
 11
108.465
 21
11.4351
  0
LINE
  8
0
 10
108.465
 20
11.4351
 11
108.678
 21
10.7316
  0
LINE
  8
0
 10
108.678
 20
10.7316
 11
108.75
 21
10
  0
LINE
  8
0
 10
108.75
 20
10
 11
108.678
 21
9.2684
  0
LINE
  8
0
 10
108.678
 20
9.2684
 11
108.465
 21
8.56493
  0
LINE
  8
0
 10
108.465
 20
8.56493
 11
108.118
 21
7.91661
  0
LINE
  8
0
 10
108.118
 20
7.91661
 11
107.652
 21
7.34834
  0
LINE
  8
0
 10
107.652
 20
7.34834
 11
107.083
 21
6.88199
  0
LINE
  8
0
 10
107.083
 20
6.88199
 11
106.435
 21
6.53545
  0
LINE
  8
0
 10
106.435
 20
6.53545
 11
105.732
 21
6.32205
  0
LINE
  8
0
 10
105.732
 20
6.32205
 11
105
 21
6.25
  0
LINE
  8
0
 10
105
 20
6.25
 11
104.268
 21
6.32205
  0
LINE
  8
0
 10
-150.975
 20
-24.9039
 11
-151.913
 21
-24.6194
  0
LINE
  8
0
 10
-151.913
 20
-24.6194
 11
-152.778
 21
-24.1573
  0
LINE
  8
0
 10
-152.778
 20
-24.1573
 11
-153.536
 21
-23.5355
  0
LINE
  8
0
 10
-153.536
 20
-23.5355
 11
-154.157
 21
-22.7778
  0
LINE
  8
0
 10
-154.157
 20
-22.7778
 11
-154.619
 21
-21.9134
  0
LINE
  8
0
 10
-154.619
 20
-21.9134
 11
-154.904
 21
-20.9754
  0
LINE
  8
0
 10
-154.904
 20
-20.9754
 11
-155
 21
-20
  0
LINE
  8
0
 10
-155
 20
-20
 11
-154.904
 21
-19.0245
  0
LINE
  8
0
 10
-154.904
 20
-19.0245
 11
-154.619
 21
-18.0866
  0
LINE
  8
0
 10
-154.619
 20
-18.0866
 11
-154.157
 21
-17.2221
  0
LINE
  8
0
 10
-154.157
 20
-17.2221
 11
-153.536
 21
-16.4645
  0
LINE
  8
0
 10
-153.536
 20
-16.4645
 11
-152.778
 21
-15.8427
  0
LINE
  8
0
 10
-152.778
 20
-15.8427
 11
-151.913
 21
-15.3806
  0
LINE
  8
0
 10
-151.913
 20
-15.3806
 11
-150.975
 21
-15.0961
  0
LINE
  8
0
 10
-150.975
 20
-15.0961
 11
-150
 21
-15
  0
LINE
  8
0
 10
-150
 20
-15
 11
-149.025
 21
-15.0961
  0
LINE
  8
0
 10
-149.025
 20
-15.0961
 11
-148.087
 21
-15.3806
  0
LINE
  8
0
 10
-148.087
 20
-15.3806
 11
-147.222
 21
-15.8427
  0
LINE
  8
0
 10
-147.222
 20
-15.8427
 11
-146.464
 21
-16.4645
  0
LINE
  8
0
 10
-146.464
 20
-16.4645
 11
-145.843
 21
-17.2221
  0
LINE
  8
0
 10
-145.843
 20
-17.2221
 11
-145.381
 21
-18.0866
  0
LINE
  8
0
 10
-145.381
 20
-18.0866
 11
-145.096
 21
-19.0245
  0
LINE
  8
0
 10
-145.096
 20
-19.0245
 11
-145
 21
-20
  0
LINE
  8
0
 10
-145
 20
-20
 11
-145.096
 21
-20.9754
  0
LINE
  8
0
 10
-145.096
 20
-20.9754
 11
-145.381
 21
-21.9134
  0
LINE
  8
0
 10
-145.381
 20
-21.9134
 11
-145.843
 21
-22.7778
  0
LINE
  8
0
 10
-145.843
 20
-22.7778
 11
-146.464
 21
-23.5355
  0
LINE
  8
0
 10
-146.464
 20
-23.5355
 11
-147.222
 21
-24.1573
  0
LINE
  8
0
 10
-147.222
 20
-24.1573
 11
-148.087
 21
-24.6194
  0
LINE
  8
0
 10
-148.087
 20
-24.6194
 11
-149.025
 21
-24.9039
  0
LINE
  8
0
 10
-149.025
 20
-24.9039
 11
-150
 21
-25
  0
LINE
  8
0
 10
-150
 20
-25
 11
-150.975
 21
-24.9039
  0
LINE
  8
0
 10
154.268
 20
-23.6779
 11
153.565
 21
-23.4645
  0
LINE
  8
0
 10
153.565
 20
-23.4645
 11
152.917
 21
-23.118
  0
LINE
  8
0
 10
152.917
 20
-23.118
 11
152.348
 21
-22.6516
  0
LINE
  8
0
 10
152.348
 20
-22.6516
 11
151.882
 21
-22.0834
  0
LINE
  8
0
 10
151.882
 20
-22.0834
 11
151.535
 21
-21.4351
  0
LINE
  8
0
 10
151.535
 20
-21.4351
 11
151.322
 21
-20.7316
  0
LINE
  8
0
 10
151.322
 20
-20.7316
 11
151.25
 21
-20
  0
LINE
  8
0
 10
151.25
 20
-20
 11
151.322
 21
-19.2684
  0
LINE
  8
0
 10
151.322
 20
-19.2684
 11
151.535
 21
-18.5649
  0
LINE
  8
0
 10
151.535
 20
-18.5649
 11
151.882
 21
-17.9166
  0
LINE
  8
0
 10
151.882
 20
-17.9166
 11
152.348
 21
-17.3483
  0
LINE
  8
0
 10
152.348
 20
-17.3483
 11
152.917
 21
-16.882
  0
LINE
  8
0
 10
152.917
 20
-16.882
 11
153.565
 21
-16.5354
  0
LINE
  8
0
 10
153.565
 20
-16.5354
 11
154.268
 21
-16.3221
  0
LINE
  8
0
 10
154.268
 20
-16.3221
 11
155
 21
-16.25
  0
LINE
  8
0
 10
155
 20
-16.25
 11
155.732
 21
-16.3221
  0
LINE
  8
0
 10
155.732
 20
-16.3221
 11
156.435
 21
-16.5354
  0
LINE
  8
0
 10
156.435
 20
-16.5354
 11
157.083
 21
-16.882
  0
LINE
  8
0
 10
157.083
 20
-16.882
 11
157.652
 21
-17.3483
  0
LINE
  8
0
 10
157.652
 20
-17.3483
 11
158.118
 21
-17.9166
  0
LINE
  8
0
 10
158.118
 20
-17.9166
 11
158.465
 21
-18.5649
  0
LINE
  8
0
 10
158.465
 20
-18.5649
 11
158.678
 21
-19.2684
  0
LINE
  8
0
 10
158.678
 20
-19.2684
 11
158.75
 21
-20
  0
LINE
  8
0
 10
158.75
 20
-20
 11
158.678
 21
-20.7316
  0
LINE
  8
0
 10
158.678
 20
-20.7316
 11
158.465
 21
-21.4351
  0
LINE
  8
0
 10
158.465
 20
-21.4351
 11
158.118
 21
-22.0834
  0
LINE
  8
0
 10
158.118
 20
-22.0834
 11
157.652
 21
-22.6516
  0
LINE
  8
0
 10
157.652
 20
-22.6516
 11
157.083
 21
-23.118
  0
LINE
  8
0
 10
157.083
 20
-23.118
 11
156.435
 21
-23.4645
  0
LINE
  8
0
 10
156.435
 20
-23.4645
 11
155.732
 21
-23.6779
  0
LINE
  8
0
 10
155.732
 20
-23.6779
 11
155
 21
-23.75
  0
LINE
  8
0
 10
155
 20
-23.75
 11
154.268
 21
-23.6779
  0
LINE
  8
0
 10
-80.7316
 20
-23.6779
 11
-81.4351
 21
-23.4645
  0
LINE
  8
0
 10
-81.4351
 20
-23.4645
 11
-82.0834
 21
-23.118
  0
LINE
  8
0
 10
-82.0834
 20
-23.118
 11
-82.6516
 21
-22.6516
  0
LINE
  8
0
 10
-82.6516
 20
-22.6516
 11
-83.118
 21
-22.0834
  0
LINE
  8
0
 10
-83.118
 20
-22.0834
 11
-83.4645
 21
-21.4351
  0
LINE
  8
0
 10
-83.4645
 20
-21.4351
 11
-83.6779
 21
-20.7316
  0
LINE
  8
0
 10
-83.6779
 20
-20.7316
 11
-83.75
 21
-20
  0
LINE
  8
0
 10
-83.75
 20
-20
 11
-83.6779
 21
-19.2684
  0
LINE
  8
0
 10
-83.6779
 20
-19.2684
 11
-83.4645
 21
-18.5649
  0
LINE
  8
0
 10
-83.4645
 20
-18.5649
 11
-83.118
 21
-17.9166
  0
LINE
  8
0
 10
-83.118
 20
-17.9166
 11
-82.6516
 21
-17.3483
  0
LINE
  8
0
 10
-82.6516
 20
-17.3483
 11
-82.0834
 21
-16.882
  0
LINE
  8
0
 10
-82.0834
 20
-16.882
 11
-81.4351
 21
-16.5354
  0
LINE
  8
0
 10
-81.4351
 20
-16.5354
 11
-80.7316
 21
-16.3221
  0
LINE
  8
0
 10
-80.7316
 20
-16.3221
 11
-80
 21
-16.25
  0
LINE
  8
0
 10
-80
 20
-16.25
 11
-79.2684
 21
-16.3221
  0
LINE
  8
0
 10
-79.2684
 20
-16.3221
 11
-78.5649
 21
-16.5354
  0
LINE
  8
0
 10
-78.5649
 20
-16.5354
 11
-77.9166
 21
-16.882
  0
LINE
  8
0
 10
-77.9166
 20
-16.882
 11
-77.3483
 21
-17.3483
  0
LINE
  8
0
 10
-77.3483
 20
-17.3483
 11
-76.882
 21
-17.9166
  0
LINE
  8
0
 10
-76.882
 20
-17.9166
 11
-76.5354
 21
-18.5649
  0
LINE
  8
0
 10
-76.5354
 20
-18.5649
 11
-76.3221
 21
-19.2684
  0
LINE
  8
0
 10
-76.3221
 20
-19.2684
 11
-76.25
 21
-20
  0
LINE
  8
0
 10
-76.25
 20
-20
 11
-76.3221
 21
-20.7316
  0
LINE
  8
0
 10
-76.3221
 20
-20.7316
 11
-76.5354
 21
-21.4351
  0
LINE
  8
0
 10
-76.5354
 20
-21.4351
 11
-76.882
 21
-22.0834
  0
LINE
  8
0
 10
-76.882
 20
-22.0834
 11
-77.3483
 21
-22.6516
  0
LINE
  8
0
 10
-77.3483
 20
-22.6516
 11
-77.9166
 21
-23.118
  0
LINE
  8
0
 10
-77.9166
 20
-23.118
 11
-78.5649
 21
-23.4645
  0
LINE
  8
0
 10
-78.5649
 20
-23.4645
 11
-79.2684
 21
-23.6779
  0
LINE
  8
0
 10
-79.2684
 20
-23.6779
 11
-80
 21
-23.75
  0
LINE
  8
0
 10
-80
 20
-23.75
 11
-80.7316
 21
-23.6779
  0
LINE
  8
0
 10
104.268
 20
-23.6779
 11
103.565
 21
-23.4645
  0
LINE
  8
0
 10
103.565
 20
-23.4645
 11
102.917
 21
-23.118
  0
LINE
  8
0
 10
102.917
 20
-23.118
 11
102.348
 21
-22.6516
  0
LINE
  8
0
 10
102.348
 20
-22.6516
 11
101.882
 21
-22.0834
  0
LINE
  8
0
 10
101.882
 20
-22.0834
 11
101.535
 21
-21.4351
  0
LINE
  8
0
 10
101.535
 20
-21.4351
 11
101.322
 21
-20.7316
  0
LINE
  8
0
 10
101.322
 20
-20.7316
 11
101.25
 21
-20
  0
LINE
  8
0
 10
101.25
 20
-20
 11
101.322
 21
-19.2684
  0
LINE
  8
0
 10
101.322
 20
-19.2684
 11
101.535
 21
-18.5649
  0
LINE
  8
0
 10
101.535
 20
-18.5649
 11
101.882
 21
-17.9166
  0
LINE
  8
0
 10
101.882
 20
-17.9166
 11
102.348
 21
-17.3483
  0
LINE
  8
0
 10
102.348
 20
-17.3483
 11
102.917
 21
-16.882
  0
LINE
  8
0
 10
102.917
 20
-16.882
 11
103.565
 21
-16.5354
  0
LINE
  8
0
 10
103.565
 20
-16.5354
 11
104.268
 21
-16.3221
  0
LINE
  8
0
 10
104.268
 20
-16.3221
 11
105
 21
-16.25
  0
LINE
  8
0
 10
105
 20
-16.25
 11
105.732
 21
-16.3221
  0
LINE
  8
0
 10
105.732
 20
-16.3221
 11
106.435
 21
-16.5354
  0
LINE
  8
0
 10
106.435
 20
-16.5354
 11
107.083
 21
-16.882
  0
LINE
  8
0
 10
107.083
 20
-16.882
 11
107.652
 21
-17.3483
  0
LINE
  8
0
 10
107.652
 20
-17.3483
 11
108.118
 21
-17.9166
  0
LINE
  8
0
 10
108.118
 20
-17.9166
 11
108.465
 21
-18.5649
  0
LINE
  8
0
 10
108.465
 20
-18.5649
 11
108.678
 21
-19.2684
  0
LINE
  8
0
 10
108.678
 20
-19.2684
 11
108.75
 21
-20
  0
LINE
  8
0
 10
108.75
 20
-20
 11
108.678
 21
-20.7316
  0
LINE
  8
0
 10
108.678
 20
-20.7316
 11
108.465
 21
-21.4351
  0
LINE
  8
0
 10
108.465
 20
-21.4351
 11
108.118
 21
-22.0834
  0
LINE
  8
0
 10
108.118
 20
-22.0834
 11
107.652
 21
-22.6516
  0
LINE
  8
0
 10
107.652
 20
-22.6516
 11
107.083
 21
-23.118
  0
LINE
  8
0
 10
107.083
 20
-23.118
 11
106.435
 21
-23.4645
  0
LINE
  8
0
 10
106.435
 20
-23.4645
 11
105.732
 21
-23.6779
  0
LINE
  8
0
 10
105.732
 20
-23.6779
 11
105
 21
-23.75
  0
LINE
  8
0
 10
105
 20
-23.75
 11
104.268
 21
-23.6779
  0
LINE
  8
0
 10
54.2684
 20
-23.6779
 11
53.5649
 21
-23.4645
  0
LINE
  8
0
 10
53.5649
 20
-23.4645
 11
52.9166
 21
-23.118
  0
LINE
  8
0
 10
52.9166
 20
-23.118
 11
52.3483
 21
-22.6516
  0
LINE
  8
0
 10
52.3483
 20
-22.6516
 11
51.882
 21
-22.0834
  0
LINE
  8
0
 10
51.882
 20
-22.0834
 11
51.5354
 21
-21.4351
  0
LINE
  8
0
 10
51.5354
 20
-21.4351
 11
51.3221
 21
-20.7316
  0
LINE
  8
0
 10
51.3221
 20
-20.7316
 11
51.25
 21
-20
  0
LINE
  8
0
 10
51.25
 20
-20
 11
51.3221
 21
-19.2684
  0
LINE
  8
0
 10
51.3221
 20
-19.2684
 11
51.5354
 21
-18.5649
  0
LINE
  8
0
 10
51.5354
 20
-18.5649
 11
51.882
 21
-17.9166
  0
LINE
  8
0
 10
51.882
 20
-17.9166
 11
52.3483
 21
-17.3483
  0
LINE
  8
0
 10
52.3483
 20
-17.3483
 11
52.9166
 21
-16.882
  0
LINE
  8
0
 10
52.9166
 20
-16.882
 11
53.5649
 21
-16.5354
  0
LINE
  8
0
 10
53.5649
 20
-16.5354
 11
54.2684
 21
-16.3221
  0
LINE
  8
0
 10
54.2684
 20
-16.3221
 11
55
 21
-16.25
  0
LINE
  8
0
 10
55
 20
-16.25
 11
55.7316
 21
-16.3221
  0
LINE
  8
0
 10
55.7316
 20
-16.3221
 11
56.4351
 21
-16.5354
  0
LINE
  8
0
 10
56.4351
 20
-16.5354
 11
57.0834
 21
-16.882
  0
LINE
  8
0
 10
57.0834
 20
-16.882
 11
57.6516
 21
-17.3483
  0
LINE
  8
0
 10
57.6516
 20
-17.3483
 11
58.118
 21
-17.9166
  0
LINE
  8
0
 10
58.118
 20
-17.9166
 11
58.4645
 21
-18.5649
  0
LINE
  8
0
 10
58.4645
 20
-18.5649
 11
58.6779
 21
-19.2684
  0
LINE
  8
0
 10
58.6779
 20
-19.2684
 11
58.75
 21
-20
  0
LINE
  8
0
 10
58.75
 20
-20
 11
58.6779
 21
-20.7316
  0
LINE
  8
0
 10
58.6779
 20
-20.7316
 11
58.4645
 21
-21.4351
  0
LINE
  8
0
 10
58.4645
 20
-21.4351
 11
58.118
 21
-22.0834
  0
LINE
  8
0
 10
58.118
 20
-22.0834
 11
57.6516
 21
-22.6516
  0
LINE
  8
0
 10
57.6516
 20
-22.6516
 11
57.0834
 21
-23.118
  0
LINE
  8
0
 10
57.0834
 20
-23.118
 11
56.4351
 21
-23.4645
  0
LINE
  8
0
 10
56.4351
 20
-23.4645
 11
55.7316
 21
-23.6779
  0
LINE
  8
0
 10
55.7316
 20
-23.6779
 11
55
 21
-23.75
  0
LINE
  8
0
 10
55
 20
-23.75
 11
54.2684
 21
-23.6779
  0
LINE
  8
0
 10
4.2684
 20
-23.6779
 11
3.56493
 21
-23.4645
  0
LINE
  8
0
 10
3.56493
 20
-23.4645
 11
2.91661
 21
-23.118
  0
LINE
  8
0
 10
2.91661
 20
-23.118
 11
2.34834
 21
-22.6516
  0
LINE
  8
0
 10
2.34834
 20
-22.6516
 11
1.88199
 21
-22.0834
  0
LINE
  8
0
 10
1.88199
 20
-22.0834
 11
1.53545
 21
-21.4351
  0
LINE
  8
0
 10
1.53545
 20
-21.4351
 11
1.32205
 21
-20.7316
  0
LINE
  8
0
 10
1.32205
 20
-20.7316
 11
1.25
 21
-20
  0
LINE
  8
0
 10
1.25
 20
-20
 11
1.32205
 21
-19.2684
  0
LINE
  8
0
 10
1.32205
 20
-19.2684
 11
1.53545
 21
-18.5649
  0
LINE
  8
0
 10
1.53545
 20
-18.5649
 11
1.88199
 21
-17.9166
  0
LINE
  8
0
 10
1.88199
 20
-17.9166
 11
2.34834
 21
-17.3483
  0
LINE
  8
0
 10
2.34834
 20
-17.3483
 11
2.91661
 21
-16.882
  0
LINE
  8
0
 10
2.91661
 20
-16.882
 11
3.56493
 21
-16.5354
  0
LINE
  8
0
 10
3.56493
 20
-16.5354
 11
4.2684
 21
-16.3221
  0
LINE
  8
0
 10
4.2684
 20
-16.3221
 11
5
 21
-16.25
  0
LINE
  8
0
 10
5
 20
-16.25
 11
5.73158
 21
-16.3221
  0
LINE
  8
0
 10
5.73158
 20
-16.3221
 11
6.43506
 21
-16.5354
  0
LINE
  8
0
 10
6.43506
 20
-16.5354
 11
7.08337
 21
-16.882
  0
LINE
  8
0
 10
7.08337
 20
-16.882
 11
7.65164
 21
-17.3483
  0
LINE
  8
0
 10
7.65164
 20
-17.3483
 11
8.118
 21
-17.9166
  0
LINE
  8
0
 10
8.118
 20
-17.9166
 11
8.46454
 21
-18.5649
  0
LINE
  8
0
 10
8.46454
 20
-18.5649
 11
8.67793
 21
-19.2684
  0
LINE
  8
0
 10
8.67793
 20
-19.2684
 11
8.75
 21
-20
  0
LINE
  8
0
 10
8.75
 20
-20
 11
8.67793
 21
-20.7316
  0
LINE
  8
0
 10
8.67793
 20
-20.7316
 11
8.46454
 21
-21.4351
  0
LINE
  8
0
 10
8.46454
 20
-21.4351
 11
8.118
 21
-22.0834
  0
LINE
  8
0
 10
8.118
 20
-22.0834
 11
7.65164
 21
-22.6516
  0
LINE
  8
0
 10
7.65164
 20
-22.6516
 11
7.08337
 21
-23.118
  0
LINE
  8
0
 10
7.08337
 20
-23.118
 11
6.43506
 21
-23.4645
  0
LINE
  8
0
 10
6.43506
 20
-23.4645
 11
5.73158
 21
-23.6779
  0
LINE
  8
0
 10
5.73158
 20
-23.6779
 11
5
 21
-23.75
  0
LINE
  8
0
 10
5
 20
-23.75
 11
4.2684
 21
-23.6779
  0
LINE
  8
0
 10
116.759
 20
-41.2164
 11
116.43
 21
-41.1168
  0
LINE
  8
0
 10
116.43
 20
-41.1168
 11
116.128
 21
-40.9551
  0
LINE
  8
0
 10
116.128
 20
-40.9551
 11
115.863
 21
-40.7374
  0
LINE
  8
0
 10
115.863
 20
-40.7374
 11
115.645
 21
-40.4722
  0
LINE
  8
0
 10
115.645
 20
-40.4722
 11
115.483
 21
-40.1697
  0
LINE
  8
0
 10
115.483
 20
-40.1697
 11
115.384
 21
-39.8414
  0
LINE
  8
0
 10
115.384
 20
-39.8414
 11
115.35
 21
-39.5
  0
LINE
  8
0
 10
115.35
 20
-39.5
 11
115.384
 21
-39.1586
  0
LINE
  8
0
 10
115.384
 20
-39.1586
 11
115.483
 21
-38.8303
  0
LINE
  8
0
 10
115.483
 20
-38.8303
 11
115.645
 21
-38.5277
  0
LINE
  8
0
 10
115.645
 20
-38.5277
 11
115.863
 21
-38.2626
  0
LINE
  8
0
 10
115.863
 20
-38.2626
 11
116.128
 21
-38.0449
  0
LINE
  8
0
 10
116.128
 20
-38.0449
 11
116.43
 21
-37.8832
  0
LINE
  8
0
 10
116.43
 20
-37.8832
 11
116.759
 21
-37.7836
  0
LINE
  8
0
 10
116.759
 20
-37.7836
 11
117.1
 21
-37.75
  0
LINE
  8
0
 10
117.1
 20
-37.75
 11
117.441
 21
-37.7836
  0
LINE
  8
0
 10
117.441
 20
-37.7836
 11
117.77
 21
-37.8832
  0
LINE
  8
0
 10
117.77
 20
-37.8832
 11
118.072
 21
-38.0449
  0
LINE
  8
0
 10
118.072
 20
-38.0449
 11
118.337
 21
-38.2626
  0
LINE
  8
0
 10
118.337
 20
-38.2626
 11
118.555
 21
-38.5277
  0
LINE
  8
0
 10
118.555
 20
-38.5277
 11
118.717
 21
-38.8303
  0
LINE
  8
0
 10
118.717
 20
-38.8303
 11
118.816
 21
-39.1586
  0
LINE
  8
0
 10
118.816
 20
-39.1586
 11
118.85
 21
-39.5
  0
LINE
  8
0
 10
118.85
 20
-39.5
 11
118.816
 21
-39.8414
  0
LINE
  8
0
 10
118.816
 20
-39.8414
 11
118.717
 21
-40.1697
  0
LINE
  8
0
 10
118.717
 20
-40.1697
 11
118.555
 21
-40.4722
  0
LINE
  8
0
 10
118.555
 20
-40.4722
 11
118.337
 21
-40.7374
  0
LINE
  8
0
 10
118.337
 20
-40.7374
 11
118.072
 21
-40.9551
  0
LINE
  8
0
 10
118.072
 20
-40.9551
 11
117.77
 21
-41.1168
  0
LINE
  8
0
 10
117.77
 20
-41.1168
 11
117.441
 21
-41.2164
  0
LINE
  8
0
 10
117.441
 20
-41.2164
 11
117.1
 21
-41.25
  0
LINE
  8
0
 10
117.1
 20
-41.25
 11
116.759
 21
-41.2164
  0
LINE
  8
0
 10
42.6586
 20
-41.2164
 11
42.3303
 21
-41.1168
  0
LINE
  8
0
 10
42.3303
 20
-41.1168
 11
42.0277
 21
-40.9551
  0
LINE
  8
0
 10
42.0277
 20
-40.9551
 11
41.7626
 21
-40.7374
  0
LINE
  8
0
 10
41.7626
 20
-40.7374
 11
41.5449
 21
-40.4722
  0
LINE
  8
0
 10
41.5449
 20
-40.4722
 11
41.3832
 21
-40.1697
  0
LINE
  8
0
 10
41.3832
 20
-40.1697
 11
41.2836
 21
-39.8414
  0
LINE
  8
0
 10
41.2836
 20
-39.8414
 11
41.25
 21
-39.5
  0
LINE
  8
0
 10
41.25
 20
-39.5
 11
41.2836
 21
-39.1586
  0
LINE
  8
0
 10
41.2836
 20
-39.1586
 11
41.3832
 21
-38.8303
  0
LINE
  8
0
 10
41.3832
 20
-38.8303
 11
41.5449
 21
-38.5277
  0
LINE
  8
0
 10
41.5449
 20
-38.5277
 11
41.7626
 21
-38.2626
  0
LINE
  8
0
 10
41.7626
 20
-38.2626
 11
42.0277
 21
-38.0449
  0
LINE
  8
0
 10
42.0277
 20
-38.0449
 11
42.3303
 21
-37.8832
  0
LINE
  8
0
 10
42.3303
 20
-37.8832
 11
42.6586
 21
-37.7836
  0
LINE
  8
0
 10
42.6586
 20
-37.7836
 11
43
 21
-37.75
  0
LINE
  8
0
 10
43
 20
-37.75
 11
43.3414
 21
-37.7836
  0
LINE
  8
0
 10
43.3414
 20
-37.7836
 11
43.6697
 21
-37.8832
  0
LINE
  8
0
 10
43.6697
 20
-37.8832
 11
43.9722
 21
-38.0449
  0
LINE
  8
0
 10
43.9722
 20
-38.0449
 11
44.2374
 21
-38.2626
  0
LINE
  8
0
 10
44.2374
 20
-38.2626
 11
44.4551
 21
-38.5277
  0
LINE
  8
0
 10
44.4551
 20
-38.5277
 11
44.6168
 21
-38.8303
  0
LINE
  8
0
 10
44.6168
 20
-38.8303
 11
44.7164
 21
-39.1586
  0
LINE
  8
0
 10
44.7164
 20
-39.1586
 11
44.75
 21
-39.5
  0
LINE
  8
0
 10
44.75
 20
-39.5
 11
44.7164
 21
-39.8414
  0
LINE
  8
0
 10
44.7164
 20
-39.8414
 11
44.6168
 21
-40.1697
  0
LINE
  8
0
 10
44.6168
 20
-40.1697
 11
44.4551
 21
-40.4722
  0
LINE
  8
0
 10
44.4551
 20
-40.4722
 11
44.2374
 21
-40.7374
  0
LINE
  8
0
 10
44.2374
 20
-40.7374
 11
43.9722
 21
-40.9551
  0
LINE
  8
0
 10
43.9722
 20
-40.9551
 11
43.6697
 21
-41.1168
  0
LINE
  8
0
 10
43.6697
 20
-41.1168
 11
43.3414
 21
-41.2164
  0
LINE
  8
0
 10
43.3414
 20
-41.2164
 11
43
 21
-41.25
  0
LINE
  8
0
 10
43
 20
-41.25
 11
42.6586
 21
-41.2164
  0
LINE
  8
0
 10
92.0586
 20
-41.2164
 11
91.7303
 21
-41.1168
  0
LINE
  8
0
 10
91.7303
 20
-41.1168
 11
91.4277
 21
-40.9551
  0
LINE
  8
0
 10
91.4277
 20
-40.9551
 11
91.1626
 21
-40.7374
  0
LINE
  8
0
 10
91.1626
 20
-40.7374
 11
90.9449
 21
-40.4722
  0
LINE
  8
0
 10
90.9449
 20
-40.4722
 11
90.7832
 21
-40.1697
  0
LINE
  8
0
 10
90.7832
 20
-40.1697
 11
90.6836
 21
-39.8414
  0
LINE
  8
0
 10
90.6836
 20
-39.8414
 11
90.65
 21
-39.5
  0
LINE
  8
0
 10
90.65
 20
-39.5
 11
90.6836
 21
-39.1586
  0
LINE
  8
0
 10
90.6836
 20
-39.1586
 11
90.7832
 21
-38.8303
  0
LINE
  8
0
 10
90.7832
 20
-38.8303
 11
90.9449
 21
-38.5277
  0
LINE
  8
0
 10
90.9449
 20
-38.5277
 11
91.1626
 21
-38.2626
  0
LINE
  8
0
 10
91.1626
 20
-38.2626
 11
91.4277
 21
-38.0449
  0
LINE
  8
0
 10
91.4277
 20
-38.0449
 11
91.7303
 21
-37.8832
  0
LINE
  8
0
 10
91.7303
 20
-37.8832
 11
92.0586
 21
-37.7836
  0
LINE
  8
0
 10
92.0586
 20
-37.7836
 11
92.4
 21
-37.75
  0
LINE
  8
0
 10
92.4
 20
-37.75
 11
92.7414
 21
-37.7836
  0
LINE
  8
0
 10
92.7414
 20
-37.7836
 11
93.0697
 21
-37.8832
  0
LINE
  8
0
 10
93.0697
 20
-37.8832
 11
93.3722
 21
-38.0449
  0
LINE
  8
0
 10
93.3722
 20
-38.0449
 11
93.6374
 21
-38.2626
  0
LINE
  8
0
 10
93.6374
 20
-38.2626
 11
93.8551
 21
-38.5277
  0
LINE
  8
0
 10
93.8551
 20
-38.5277
 11
94.0168
 21
-38.8303
  0
LINE
  8
0
 10
94.0168
 20
-38.8303
 11
94.1164
 21
-39.1586
  0
LINE
  8
0
 10
94.1164
 20
-39.1586
 11
94.15
 21
-39.5
  0
LINE
  8
0
 10
94.15
 20
-39.5
 11
94.1164
 21
-39.8414
  0
LINE
  8
0
 10
94.1164
 20
-39.8414
 11
94.0168
 21
-40.1697
  0
LINE
  8
0
 10
94.0168
 20
-40.1697
 11
93.8551
 21
-40.4722
  0
LINE
  8
0
 10
93.8551
 20
-40.4722
 11
93.6374
 21
-40.7374
  0
LINE
  8
0
 10
93.6374
 20
-40.7374
 11
93.3722
 21
-40.9551
  0
LINE
  8
0
 10
93.3722
 20
-40.9551
 11
93.0697
 21
-41.1168
  0
LINE
  8
0
 10
93.0697
 20
-41.1168
 11
92.7414
 21
-41.2164
  0
LINE
  8
0
 10
92.7414
 20
-41.2164
 11
92.4
 21
-41.25
  0
LINE
  8
0
 10
92.4
 20
-41.25
 11
92.0586
 21
-41.2164
  0
LINE
  8
0
 10
67.3586
 20
-41.2164
 11
67.0303
 21
-41.1168
  0
LINE
  8
0
 10
67.0303
 20
-41.1168
 11
66.7278
 21
-40.9551
  0
LINE
  8
0
 10
66.7278
 20
-40.9551
 11
66.4626
 21
-40.7374
  0
LINE
  8
0
 10
66.4626
 20
-40.7374
 11
66.2449
 21
-40.4722
  0
LINE
  8
0
 10
66.2449
 20
-40.4722
 11
66.0832
 21
-40.1697
  0
LINE
  8
0
 10
66.0832
 20
-40.1697
 11
65.9836
 21
-39.8414
  0
LINE
  8
0
 10
65.9836
 20
-39.8414
 11
65.95
 21
-39.5
  0
LINE
  8
0
 10
65.95
 20
-39.5
 11
65.9836
 21
-39.1586
  0
LINE
  8
0
 10
65.9836
 20
-39.1586
 11
66.0832
 21
-38.8303
  0
LINE
  8
0
 10
66.0832
 20
-38.8303
 11
66.2449
 21
-38.5277
  0
LINE
  8
0
 10
66.2449
 20
-38.5277
 11
66.4626
 21
-38.2626
  0
LINE
  8
0
 10
66.4626
 20
-38.2626
 11
66.7278
 21
-38.0449
  0
LINE
  8
0
 10
66.7278
 20
-38.0449
 11
67.0303
 21
-37.8832
  0
LINE
  8
0
 10
67.0303
 20
-37.8832
 11
67.3586
 21
-37.7836
  0
LINE
  8
0
 10
67.3586
 20
-37.7836
 11
67.7
 21
-37.75
  0
LINE
  8
0
 10
67.7
 20
-37.75
 11
68.0414
 21
-37.7836
  0
LINE
  8
0
 10
68.0414
 20
-37.7836
 11
68.3697
 21
-37.8832
  0
LINE
  8
0
 10
68.3697
 20
-37.8832
 11
68.6722
 21
-38.0449
  0
LINE
  8
0
 10
68.6722
 20
-38.0449
 11
68.9374
 21
-38.2626
  0
LINE
  8
0
 10
68.9374
 20
-38.2626
 11
69.1551
 21
-38.5277
  0
LINE
  8
0
 10
69.1551
 20
-38.5277
 11
69.3168
 21
-38.8303
  0
LINE
  8
0
 10
69.3168
 20
-38.8303
 11
69.4164
 21
-39.1586
  0
LINE
  8
0
 10
69.4164
 20
-39.1586
 11
69.45
 21
-39.5
  0
LINE
  8
0
 10
69.45
 20
-39.5
 11
69.4164
 21
-39.8414
  0
LINE
  8
0
 10
69.4164
 20
-39.8414
 11
69.3168
 21
-40.1697
  0
LINE
  8
0
 10
69.3168
 20
-40.1697
 11
69.1551
 21
-40.4722
  0
LINE
  8
0
 10
69.1551
 20
-40.4722
 11
68.9374
 21
-40.7374
  0
LINE
  8
0
 10
68.9374
 20
-40.7374
 11
68.6722
 21
-40.9551
  0
LINE
  8
0
 10
68.6722
 20
-40.9551
 11
68.3697
 21
-41.1168
  0
LINE
  8
0
 10
68.3697
 20
-41.1168
 11
68.0414
 21
-41.2164
  0
LINE
  8
0
 10
68.0414
 20
-41.2164
 11
67.7
 21
-41.25
  0
LINE
  8
0
 10
67.7
 20
-41.25
 11
67.3586
 21
-41.2164
  0
LINE
  8
0
 10
-150.975
 20
-54.9039
 11
-151.913
 21
-54.6194
  0
LINE
  8
0
 10
-151.913
 20
-54.6194
 11
-152.778
 21
-54.1573
  0
LINE
  8
0
 10
-152.778
 20
-54.1573
 11
-153.536
 21
-53.5355
  0
LINE
  8
0
 10
-153.536
 20
-53.5355
 11
-154.157
 21
-52.7778
  0
LINE
  8
0
 10
-154.157
 20
-52.7778
 11
-154.619
 21
-51.9134
  0
LINE
  8
0
 10
-154.619
 20
-51.9134
 11
-154.904
 21
-50.9754
  0
LINE
  8
0
 10
-154.904
 20
-50.9754
 11
-155
 21
-50
  0
LINE
  8
0
 10
-155
 20
-50
 11
-154.904
 21
-49.0245
  0
LINE
  8
0
 10
-154.904
 20
-49.0245
 11
-154.619
 21
-48.0866
  0
LINE
  8
0
 10
-154.619
 20
-48.0866
 11
-154.157
 21
-47.2221
  0
LINE
  8
0
 10
-154.157
 20
-47.2221
 11
-153.536
 21
-46.4645
  0
LINE
  8
0
 10
-153.536
 20
-46.4645
 11
-152.778
 21
-45.8427
  0
LINE
  8
0
 10
-152.778
 20
-45.8427
 11
-151.913
 21
-45.3806
  0
LINE
  8
0
 10
-151.913
 20
-45.3806
 11
-150.975
 21
-45.0961
  0
LINE
  8
0
 10
-150.975
 20
-45.0961
 11
-150
 21
-45
  0
LINE
  8
0
 10
-150
 20
-45
 11
-149.025
 21
-45.0961
  0
LINE
  8
0
 10
-149.025
 20
-45.0961
 11
-148.087
 21
-45.3806
  0
LINE
  8
0
 10
-148.087
 20
-45.3806
 11
-147.222
 21
-45.8427
  0
LINE
  8
0
 10
-147.222
 20
-45.8427
 11
-146.464
 21
-46.4645
  0
LINE
  8
0
 10
-146.464
 20
-46.4645
 11
-145.843
 21
-47.2221
  0
LINE
  8
0
 10
-145.843
 20
-47.2221
 11
-145.381
 21
-48.0866
  0
LINE
  8
0
 10
-145.381
 20
-48.0866
 11
-145.096
 21
-49.0245
  0
LINE
  8
0
 10
-145.096
 20
-49.0245
 11
-145
 21
-50
  0
LINE
  8
0
 10
-145
 20
-50
 11
-145.096
 21
-50.9754
  0
LINE
  8
0
 10
-145.096
 20
-50.9754
 11
-145.381
 21
-51.9134
  0
LINE
  8
0
 10
-145.381
 20
-51.9134
 11
-145.843
 21
-52.7778
  0
LINE
  8
0
 10
-145.843
 20
-52.7778
 11
-146.464
 21
-53.5355
  0
LINE
  8
0
 10
-146.464
 20
-53.5355
 11
-147.222
 21
-54.1573
  0
LINE
  8
0
 10
-147.222
 20
-54.1573
 11
-148.087
 21
-54.6194
  0
LINE
  8
0
 10
-148.087
 20
-54.6194
 11
-149.025
 21
-54.9039
  0
LINE
  8
0
 10
-149.025
 20
-54.9039
 11
-150
 21
-55
  0
LINE
  8
0
 10
-150
 20
-55
 11
-150.975
 21
-54.9039
  0
LINE
  8
0
 10
-80.7316
 20
-53.6779
 11
-81.4351
 21
-53.4645
  0
LINE
  8
0
 10
-81.4351
 20
-53.4645
 11
-82.0834
 21
-53.118
  0
LINE
  8
0
 10
-82.0834
 20
-53.118
 11
-82.6516
 21
-52.6516
  0
LINE
  8
0
 10
-82.6516
 20
-52.6516
 11
-83.118
 21
-52.0834
  0
LINE
  8
0
 10
-83.118
 20
-52.0834
 11
-83.4645
 21
-51.4351
  0
LINE
  8
0
 10
-83.4645
 20
-51.4351
 11
-83.6779
 21
-50.7316
  0
LINE
  8
0
 10
-83.6779
 20
-50.7316
 11
-83.75
 21
-50
  0
LINE
  8
0
 10
-83.75
 20
-50
 11
-83.6779
 21
-49.2684
  0
LINE
  8
0
 10
-83.6779
 20
-49.2684
 11
-83.4645
 21
-48.5649
  0
LINE
  8
0
 10
-83.4645
 20
-48.5649
 11
-83.118
 21
-47.9166
  0
LINE
  8
0
 10
-83.118
 20
-47.9166
 11
-82.6516
 21
-47.3483
  0
LINE
  8
0
 10
-82.6516
 20
-47.3483
 11
-82.0834
 21
-46.882
  0
LINE
  8
0
 10
-82.0834
 20
-46.882
 11
-81.4351
 21
-46.5354
  0
LINE
  8
0
 10
-81.4351
 20
-46.5354
 11
-80.7316
 21
-46.3221
  0
LINE
  8
0
 10
-80.7316
 20
-46.3221
 11
-80
 21
-46.25
  0
LINE
  8
0
 10
-80
 20
-46.25
 11
-79.2684
 21
-46.3221
  0
LINE
  8
0
 10
-79.2684
 20
-46.3221
 11
-78.5649
 21
-46.5354
  0
LINE
  8
0
 10
-78.5649
 20
-46.5354
 11
-77.9166
 21
-46.882
  0
LINE
  8
0
 10
-77.9166
 20
-46.882
 11
-77.3483
 21
-47.3483
  0
LINE
  8
0
 10
-77.3483
 20
-47.3483
 11
-76.882
 21
-47.9166
  0
LINE
  8
0
 10
-76.882
 20
-47.9166
 11
-76.5354
 21
-48.5649
  0
LINE
  8
0
 10
-76.5354
 20
-48.5649
 11
-76.3221
 21
-49.2684
  0
LINE
  8
0
 10
-76.3221
 20
-49.2684
 11
-76.25
 21
-50
  0
LINE
  8
0
 10
-76.25
 20
-50
 11
-76.3221
 21
-50.7316
  0
LINE
  8
0
 10
-76.3221
 20
-50.7316
 11
-76.5354
 21
-51.4351
  0
LINE
  8
0
 10
-76.5354
 20
-51.4351
 11
-76.882
 21
-52.0834
  0
LINE
  8
0
 10
-76.882
 20
-52.0834
 11
-77.3483
 21
-52.6516
  0
LINE
  8
0
 10
-77.3483
 20
-52.6516
 11
-77.9166
 21
-53.118
  0
LINE
  8
0
 10
-77.9166
 20
-53.118
 11
-78.5649
 21
-53.4645
  0
LINE
  8
0
 10
-78.5649
 20
-53.4645
 11
-79.2684
 21
-53.6779
  0
LINE
  8
0
 10
-79.2684
 20
-53.6779
 11
-80
 21
-53.75
  0
LINE
  8
0
 10
-80
 20
-53.75
 11
-80.7316
 21
-53.6779
  0
LINE
  8
0
 10
132.159
 20
-63.7164
 11
131.83
 21
-63.6168
  0
LINE
  8
0
 10
131.83
 20
-63.6168
 11
131.528
 21
-63.4551
  0
LINE
  8
0
 10
131.528
 20
-63.4551
 11
131.263
 21
-63.2374
  0
LINE
  8
0
 10
131.263
 20
-63.2374
 11
131.045
 21
-62.9722
  0
LINE
  8
0
 10
131.045
 20
-62.9722
 11
130.883
 21
-62.6697
  0
LINE
  8
0
 10
130.883
 20
-62.6697
 11
130.784
 21
-62.3414
  0
LINE
  8
0
 10
130.784
 20
-62.3414
 11
130.75
 21
-62
  0
LINE
  8
0
 10
130.75
 20
-62
 11
130.784
 21
-61.6586
  0
LINE
  8
0
 10
130.784
 20
-61.6586
 11
130.883
 21
-61.3303
  0
LINE
  8
0
 10
130.883
 20
-61.3303
 11
131.045
 21
-61.0277
  0
LINE
  8
0
 10
131.045
 20
-61.0277
 11
131.263
 21
-60.7626
  0
LINE
  8
0
 10
131.263
 20
-60.7626
 11
131.528
 21
-60.5449
  0
LINE
  8
0
 10
131.528
 20
-60.5449
 11
131.83
 21
-60.3832
  0
LINE
  8
0
 10
131.83
 20
-60.3832
 11
132.159
 21
-60.2836
  0
LINE
  8
0
 10
132.159
 20
-60.2836
 11
132.5
 21
-60.25
  0
LINE
  8
0
 10
132.5
 20
-60.25
 11
132.841
 21
-60.2836
  0
LINE
  8
0
 10
132.841
 20
-60.2836
 11
133.17
 21
-60.3832
  0
LINE
  8
0
 10
133.17
 20
-60.3832
 11
133.472
 21
-60.5449
  0
LINE
  8
0
 10
133.472
 20
-60.5449
 11
133.737
 21
-60.7626
  0
LINE
  8
0
 10
133.737
 20
-60.7626
 11
133.955
 21
-61.0277
  0
LINE
  8
0
 10
133.955
 20
-61.0277
 11
134.117
 21
-61.3303
  0
LINE
  8
0
 10
134.117
 20
-61.3303
 11
134.216
 21
-61.6586
  0
LINE
  8
0
 10
134.216
 20
-61.6586
 11
134.25
 21
-62
  0
LINE
  8
0
 10
134.25
 20
-62
 11
134.216
 21
-62.3414
  0
LINE
  8
0
 10
134.216
 20
-62.3414
 11
134.117
 21
-62.6697
  0
LINE
  8
0
 10
134.117
 20
-62.6697
 11
133.955
 21
-62.9722
  0
LINE
  8
0
 10
133.955
 20
-62.9722
 11
133.737
 21
-63.2374
  0
LINE
  8
0
 10
133.737
 20
-63.2374
 11
133.472
 21
-63.4551
  0
LINE
  8
0
 10
133.472
 20
-63.4551
 11
133.17
 21
-63.6168
  0
LINE
  8
0
 10
133.17
 20
-63.6168
 11
132.841
 21
-63.7164
  0
LINE
  8
0
 10
132.841
 20
-63.7164
 11
132.5
 21
-63.75
  0
LINE
  8
0
 10
132.5
 20
-63.75
 11
132.159
 21
-63.7164
  0
LINE
  8
0
 10
27.1586
 20
-63.7164
 11
26.8303
 21
-63.6168
  0
LINE
  8
0
 10
26.8303
 20
-63.6168
 11
26.5277
 21
-63.4551
  0
LINE
  8
0
 10
26.5277
 20
-63.4551
 11
26.2626
 21
-63.2374
  0
LINE
  8
0
 10
26.2626
 20
-63.2374
 11
26.0449
 21
-62.9722
  0
LINE
  8
0
 10
26.0449
 20
-62.9722
 11
25.8832
 21
-62.6697
  0
LINE
  8
0
 10
25.8832
 20
-62.6697
 11
25.7836
 21
-62.3414
  0
LINE
  8
0
 10
25.7836
 20
-62.3414
 11
25.75
 21
-62
  0
LINE
  8
0
 10
25.75
 20
-62
 11
25.7836
 21
-61.6586
  0
LINE
  8
0
 10
25.7836
 20
-61.6586
 11
25.8832
 21
-61.3303
  0
LINE
  8
0
 10
25.8832
 20
-61.3303
 11
26.0449
 21
-61.0277
  0
LINE
  8
0
 10
26.0449
 20
-61.0277
 11
26.2626
 21
-60.7626
  0
LINE
  8
0
 10
26.2626
 20
-60.7626
 11
26.5277
 21
-60.5449
  0
LINE
  8
0
 10
26.5277
 20
-60.5449
 11
26.8303
 21
-60.3832
  0
LINE
  8
0
 10
26.8303
 20
-60.3832
 11
27.1586
 21
-60.2836
  0
LINE
  8
0
 10
27.1586
 20
-60.2836
 11
27.5
 21
-60.25
  0
LINE
  8
0
 10
27.5
 20
-60.25
 11
27.8414
 21
-60.2836
  0
LINE
  8
0
 10
27.8414
 20
-60.2836
 11
28.1697
 21
-60.3832
  0
LINE
  8
0
 10
28.1697
 20
-60.3832
 11
28.4722
 21
-60.5449
  0
LINE
  8
0
 10
28.4722
 20
-60.5449
 11
28.7374
 21
-60.7626
  0
LINE
  8
0
 10
28.7374
 20
-60.7626
 11
28.9551
 21
-61.0277
  0
LINE
  8
0
 10
28.9551
 20
-61.0277
 11
29.1168
 21
-61.3303
  0
LINE
  8
0
 10
29.1168
 20
-61.3303
 11
29.2164
 21
-61.6586
  0
LINE
  8
0
 10
29.2164
 20
-61.6586
 11
29.25
 21
-62
  0
LINE
  8
0
 10
29.25
 20
-62
 11
29.2164
 21
-62.3414
  0
LINE
  8
0
 10
29.2164
 20
-62.3414
 11
29.1168
 21
-62.6697
  0
LINE
  8
0
 10
29.1168
 20
-62.6697
 11
28.9551
 21
-62.9722
  0
LINE
  8
0
 10
28.9551
 20
-62.9722
 11
28.7374
 21
-63.2374
  0
LINE
  8
0
 10
28.7374
 20
-63.2374
 11
28.4722
 21
-63.4551
  0
LINE
  8
0
 10
28.4722
 20
-63.4551
 11
28.1697
 21
-63.6168
  0
LINE
  8
0
 10
28.1697
 20
-63.6168
 11
27.8414
 21
-63.7164
  0
LINE
  8
0
 10
27.8414
 20
-63.7164
 11
27.5
 21
-63.75
  0
LINE
  8
0
 10
27.5
 20
-63.75
 11
27.1586
 21
-63.7164
  0
LINE
  8
0
 10
-195.341
 20
-87.2164
 11
-195.67
 21
-87.1168
  0
LINE
  8
0
 10
-195.67
 20
-87.1168
 11
-195.972
 21
-86.9551
  0
LINE
  8
0
 10
-195.972
 20
-86.9551
 11
-196.237
 21
-86.7374
  0
LINE
  8
0
 10
-196.237
 20
-86.7374
 11
-196.455
 21
-86.4722
  0
LINE
  8
0
 10
-196.455
 20
-86.4722
 11
-196.617
 21
-86.1697
  0
LINE
  8
0
 10
-196.617
 20
-86.1697
 11
-196.716
 21
-85.8414
  0
LINE
  8
0
 10
-196.716
 20
-85.8414
 11
-196.75
 21
-85.5
  0
LINE
  8
0
 10
-196.75
 20
-85.5
 11
-196.716
 21
-85.1586
  0
LINE
  8
0
 10
-196.716
 20
-85.1586
 11
-196.617
 21
-84.8303
  0
LINE
  8
0
 10
-196.617
 20
-84.8303
 11
-196.455
 21
-84.5278
  0
LINE
  8
0
 10
-196.455
 20
-84.5278
 11
-196.237
 21
-84.2626
  0
LINE
  8
0
 10
-196.237
 20
-84.2626
 11
-195.972
 21
-84.0449
  0
LINE
  8
0
 10
-195.972
 20
-84.0449
 11
-195.67
 21
-83.8832
  0
LINE
  8
0
 10
-195.67
 20
-83.8832
 11
-195.341
 21
-83.7836
  0
LINE
  8
0
 10
-195.341
 20
-83.7836
 11
-195
 21
-83.75
  0
LINE
  8
0
 10
-195
 20
-83.75
 11
-194.659
 21
-83.7836
  0
LINE
  8
0
 10
-194.659
 20
-83.7836
 11
-194.33
 21
-83.8832
  0
LINE
  8
0
 10
-194.33
 20
-83.8832
 11
-194.028
 21
-84.0449
  0
LINE
  8
0
 10
-194.028
 20
-84.0449
 11
-193.763
 21
-84.2626
  0
LINE
  8
0
 10
-193.763
 20
-84.2626
 11
-193.545
 21
-84.5278
  0
LINE
  8
0
 10
-193.545
 20
-84.5278
 11
-193.383
 21
-84.8303
  0
LINE
  8
0
 10
-193.383
 20
-84.8303
 11
-193.284
 21
-85.1586
  0
LINE
  8
0
 10
-193.284
 20
-85.1586
 11
-193.25
 21
-85.5
  0
LINE
  8
0
 10
-193.25
 20
-85.5
 11
-193.284
 21
-85.8414
  0
LINE
  8
0
 10
-193.284
 20
-85.8414
 11
-193.383
 21
-86.1697
  0
LINE
  8
0
 10
-193.383
 20
-86.1697
 11
-193.545
 21
-86.4722
  0
LINE
  8
0
 10
-193.545
 20
-86.4722
 11
-193.763
 21
-86.7374
  0
LINE
  8
0
 10
-193.763
 20
-86.7374
 11
-194.028
 21
-86.9551
  0
LINE
  8
0
 10
-194.028
 20
-86.9551
 11
-194.33
 21
-87.1168
  0
LINE
  8
0
 10
-194.33
 20
-87.1168
 11
-194.659
 21
-87.2164
  0
LINE
  8
0
 10
-194.659
 20
-87.2164
 11
-195
 21
-87.25
  0
LINE
  8
0
 10
-195
 20
-87.25
 11
-195.341
 21
-87.2164
  0
LINE
  8
0
 10
194.659
 20
-87.2164
 11
194.33
 21
-87.1168
  0
LINE
  8
0
 10
194.33
 20
-87.1168
 11
194.028
 21
-86.9551
  0
LINE
  8
0
 10
194.028
 20
-86.9551
 11
193.763
 21
-86.7374
  0
LINE
  8
0
 10
193.763
 20
-86.7374
 11
193.545
 21
-86.4722
  0
LINE
  8
0
 10
193.545
 20
-86.4722
 11
193.383
 21
-86.1697
  0
LINE
  8
0
 10
193.383
 20
-86.1697
 11
193.284
 21
-85.8414
  0
LINE
  8
0
 10
193.284
 20
-85.8414
 11
193.25
 21
-85.5
  0
LINE
  8
0
 10
193.25
 20
-85.5
 11
193.284
 21
-85.1586
  0
LINE
  8
0
 10
193.284
 20
-85.1586
 11
193.383
 21
-84.8303
  0
LINE
  8
0
 10
193.383
 20
-84.8303
 11
193.545
 21
-84.5278
  0
LINE
  8
0
 10
193.545
 20
-84.5278
 11
193.763
 21
-84.2626
  0
LINE
  8
0
 10
193.763
 20
-84.2626
 11
194.028
 21
-84.0449
  0
LINE
  8
0
 10
194.028
 20
-84.0449
 11
194.33
 21
-83.8832
  0
LINE
  8
0
 10
194.33
 20
-83.8832
 11
194.659
 21
-83.7836
  0
LINE
  8
0
 10
194.659
 20
-83.7836
 11
195
 21
-83.75
  0
LINE
  8
0
 10
195
 20
-83.75
 11
195.341
 21
-83.7836
  0
LINE
  8
0
 10
195.341
 20
-83.7836
 11
195.67
 21
-83.8832
  0
LINE
  8
0
 10
195.67
 20
-83.8832
 11
195.972
 21
-84.0449
  0
LINE
  8
0
 10
195.972
 20
-84.0449
 11
196.237
 21
-84.2626
  0
LINE
  8
0
 10
196.237
 20
-84.2626
 11
196.455
 21
-84.5278
  0
LINE
  8
0
 10
196.455
 20
-84.5278
 11
196.617
 21
-84.8303
  0
LINE
  8
0
 10
196.617
 20
-84.8303
 11
196.716
 21
-85.1586
  0
LINE
  8
0
 10
196.716
 20
-85.1586
 11
196.75
 21
-85.5
  0
LINE
  8
0
 10
196.75
 20
-85.5
 11
196.716
 21
-85.8414
  0
LINE
  8
0
 10
196.716
 20
-85.8414
 11
196.617
 21
-86.1697
  0
LINE
  8
0
 10
196.617
 20
-86.1697
 11
196.455
 21
-86.4722
  0
LINE
  8
0
 10
196.455
 20
-86.4722
 11
196.237
 21
-86.7374
  0
LINE
  8
0
 10
196.237
 20
-86.7374
 11
195.972
 21
-86.9551
  0
LINE
  8
0
 10
195.972
 20
-86.9551
 11
195.67
 21
-87.1168
  0
LINE
  8
0
 10
195.67
 20
-87.1168
 11
195.341
 21
-87.2164
  0
LINE
  8
0
 10
195.341
 20
-87.2164
 11
195
 21
-87.25
  0
LINE
  8
0
 10
195
 20
-87.25
 11
194.659
 21
-87.2164
  0
LINE
  8
0
 10
7.08337
 20
36.882
 11
6.43506
 21
36.5354
  0
LINE
  8
0
 10
6.43506
 20
36.5354
 11
5.73158
 21
36.3221
  0
LINE
  8
0
 10
5.73158
 20
36.3221
 11
5
 21
36.25
  0
LINE
  8
0
 10
5
 20
36.25
 11
4.2684
 21
36.3221
  0
LINE
  8
0
 10
4.2684
 20
36.3221
 11
3.56493
 21
36.5354
  0
LINE
  8
0
 10
3.56493
 20
36.5354
 11
2.91661
 21
36.882
  0
LINE
  8
0
 10
2.91661
 20
36.882
 11
2.34834
 21
37.3483
  0
LINE
  8
0
 10
2.34834
 20
37.3483
 11
1.88199
 21
37.9166
  0
LINE
  8
0
 10
1.88199
 20
37.9166
 11
1.53545
 21
38.5649
  0
LINE
  8
0
 10
1.53545
 20
38.5649
 11
1.32205
 21
39.2684
  0
LINE
  8
0
 10
1.32205
 20
39.2684
 11
1.25
 21
40
  0
LINE
  8
0
 10
1.25
 20
40
 11
1.32205
 21
40.7316
  0
LINE
  8
0
 10
1.32205
 20
40.7316
 11
1.53545
 21
41.4351
  0
LINE
  8
0
 10
1.53545
 20
41.4351
 11
1.88199
 21
42.0834
  0
LINE
  8
0
 10
1.88199
 20
42.0834
 11
2.34834
 21
42.6516
  0
LINE
  8
0
 10
2.34834
 20
42.6516
 11
2.91661
 21
43.118
  0
LINE
  8
0
 10
2.91661
 20
43.118
 11
3.56493
 21
43.4645
  0
LINE
  8
0
 10
3.56493
 20
43.4645
 11
4.2684
 21
43.6779
  0
LINE
  8
0
 10
4.2684
 20
43.6779
 11
5
 21
43.75
  0
LINE
  8
0
 10
5
 20
43.75
 11
5.73158
 21
43.6779
  0
LINE
  8
0
 10
5.73158
 20
43.6779
 11
6.43506
 21
43.4645
  0
LINE
  8
0
 10
6.43506
 20
43.4645
 11
7.08337
 21
43.118
  0
LINE
  8
0
 10
7.08337
 20
43.118
 11
7.65164
 21
42.6516
  0
LINE
  8
0
 10
7.65164
 20
42.6516
 11
8.118
 21
42.0834
  0
LINE
  8
0
 10
8.118
 20
42.0834
 11
8.46454
 21
41.4351
  0
LINE
  8
0
 10
8.46454
 20
41.4351
 11
8.67793
 21
40.7316
  0
LINE
  8
0
 10
8.67793
 20
40.7316
 11
8.75
 21
40
  0
LINE
  8
0
 10
8.75
 20
40
 11
8.67793
 21
39.2684
  0
LINE
  8
0
 10
8.67793
 20
39.2684
 11
8.46454
 21
38.5649
  0
LINE
  8
0
 10
8.46454
 20
38.5649
 11
8.118
 21
37.9166
  0
LINE
  8
0
 10
8.118
 20
37.9166
 11
7.65164
 21
37.3483
  0
LINE
  8
0
 10
7.65164
 20
37.3483
 11
7.08337
 21
36.882
  0
ENDSEC
  0
SECTION
  2
OBJECTS
  0
DICTIONARY
  0
ENDSEC
  0
EOF
