  0
SECTION
  2
BLOCKS
  0
ENDSEC
  0
SECTION
  2
ENTITIES
  0
LINE
  8
0
 10
200
 20
65
 11
-200
 21
65
  0
LINE
  8
0
 10
-200
 20
65
 11
-200
 21
-65
  0
LINE
  8
0
 10
-200
 20
-65
 11
200
 21
-65
  0
LINE
  8
0
 10
200
 20
-65
 11
200
 21
65
  0
LINE
  8
0
 10
-78.9729
 20
-52.4049
 11
-80.3893
 21
-51.9753
  0
LINE
  8
0
 10
-80.3893
 20
-51.9753
 11
-81.6945
 21
-51.2776
  0
LINE
  8
0
 10
-81.6945
 20
-51.2776
 11
-82.8387
 21
-50.3387
  0
LINE
  8
0
 10
-82.8387
 20
-50.3387
 11
-83.7776
 21
-49.1945
  0
LINE
  8
0
 10
-83.7776
 20
-49.1945
 11
-84.4753
 21
-47.8893
  0
LINE
  8
0
 10
-84.4753
 20
-47.8893
 11
-84.9049
 21
-46.4729
  0
LINE
  8
0
 10
-84.9049
 20
-46.4729
 11
-85.05
 21
-45
  0
LINE
  8
0
 10
-85.05
 20
-45
 11
-84.9049
 21
-43.5271
  0
LINE
  8
0
 10
-84.9049
 20
-43.5271
 11
-84.4753
 21
-42.1107
  0
LINE
  8
0
 10
-84.4753
 20
-42.1107
 11
-83.7776
 21
-40.8054
  0
LINE
  8
0
 10
-83.7776
 20
-40.8054
 11
-82.8387
 21
-39.6613
  0
LINE
  8
0
 10
-82.8387
 20
-39.6613
 11
-81.6945
 21
-38.7224
  0
LINE
  8
0
 10
-81.6945
 20
-38.7224
 11
-80.3893
 21
-38.0247
  0
LINE
  8
0
 10
-80.3893
 20
-38.0247
 11
-78.9729
 21
-37.5951
  0
LINE
  8
0
 10
-78.9729
 20
-37.5951
 11
-77.5
 21
-37.45
  0
LINE
  8
0
 10
-77.5
 20
-37.45
 11
-76.0271
 21
-37.5951
  0
LINE
  8
0
 10
-76.0271
 20
-37.5951
 11
-74.6107
 21
-38.0247
  0
LINE
  8
0
 10
-74.6107
 20
-38.0247
 11
-73.3054
 21
-38.7224
  0
LINE
  8
0
 10
-73.3054
 20
-38.7224
 11
-72.1613
 21
-39.6613
  0
LINE
  8
0
 10
-72.1613
 20
-39.6613
 11
-71.2224
 21
-40.8054
  0
LINE
  8
0
 10
-71.2224
 20
-40.8054
 11
-70.5247
 21
-42.1107
  0
LINE
  8
0
 10
-70.5247
 20
-42.1107
 11
-70.0951
 21
-43.5271
  0
LINE
  8
0
 10
-70.0951
 20
-43.5271
 11
-69.95
 21
-45
  0
LINE
  8
0
 10
-69.95
 20
-45
 11
-70.0951
 21
-46.4729
  0
LINE
  8
0
 10
-70.0951
 20
-46.4729
 11
-70.5247
 21
-47.8893
  0
LINE
  8
0
 10
-70.5247
 20
-47.8893
 11
-71.2224
 21
-49.1945
  0
LINE
  8
0
 10
-71.2224
 20
-49.1945
 11
-72.1613
 21
-50.3387
  0
LINE
  8
0
 10
-72.1613
 20
-50.3387
 11
-73.3054
 21
-51.2776
  0
LINE
  8
0
 10
-73.3054
 20
-51.2776
 11
-74.6107
 21
-51.9753
  0
LINE
  8
0
 10
-74.6107
 20
-51.9753
 11
-76.0271
 21
-52.4049
  0
LINE
  8
0
 10
-76.0271
 20
-52.4049
 11
-77.5
 21
-52.55
  0
LINE
  8
0
 10
-77.5
 20
-52.55
 11
-78.9729
 21
-52.4049
  0
LINE
  8
0
 10
-171.073
 20
-50.3943
 11
-172.105
 21
-50.0813
  0
LINE
  8
0
 10
-172.105
 20
-50.0813
 11
-173.056
 21
-49.5731
  0
LINE
  8
0
 10
-173.056
 20
-49.5731
 11
-173.889
 21
-48.8891
  0
LINE
  8
0
 10
-173.889
 20
-48.8891
 11
-174.573
 21
-48.0556
  0
LINE
  8
0
 10
-174.573
 20
-48.0556
 11
-175.081
 21
-47.1048
  0
LINE
  8
0
 10
-175.081
 20
-47.1048
 11
-175.394
 21
-46.073
  0
LINE
  8
0
 10
-175.394
 20
-46.073
 11
-175.5
 21
-45
  0
LINE
  8
0
 10
-175.5
 20
-45
 11
-175.394
 21
-43.927
  0
LINE
  8
0
 10
-175.394
 20
-43.927
 11
-175.081
 21
-42.8952
  0
LINE
  8
0
 10
-175.081
 20
-42.8952
 11
-174.573
 21
-41.9444
  0
LINE
  8
0
 10
-174.573
 20
-41.9444
 11
-173.889
 21
-41.1109
  0
LINE
  8
0
 10
-173.889
 20
-41.1109
 11
-173.056
 21
-40.4269
  0
LINE
  8
0
 10
-173.056
 20
-40.4269
 11
-172.105
 21
-39.9187
  0
LINE
  8
0
 10
-172.105
 20
-39.9187
 11
-171.073
 21
-39.6057
  0
LINE
  8
0
 10
-171.073
 20
-39.6057
 11
-170
 21
-39.5
  0
LINE
  8
0
 10
-170
 20
-39.5
 11
-168.927
 21
-39.6057
  0
LINE
  8
0
 10
-168.927
 20
-39.6057
 11
-167.895
 21
-39.9187
  0
LINE
  8
0
 10
-167.895
 20
-39.9187
 11
-166.944
 21
-40.4269
  0
LINE
  8
0
 10
-166.944
 20
-40.4269
 11
-166.111
 21
-41.1109
  0
LINE
  8
0
 10
-166.111
 20
-41.1109
 11
-165.427
 21
-41.9444
  0
LINE
  8
0
 10
-165.427
 20
-41.9444
 11
-164.919
 21
-42.8952
  0
LINE
  8
0
 10
-164.919
 20
-42.8952
 11
-164.606
 21
-43.927
  0
LINE
  8
0
 10
-164.606
 20
-43.927
 11
-164.5
 21
-45
  0
LINE
  8
0
 10
-164.5
 20
-45
 11
-164.606
 21
-46.073
  0
LINE
  8
0
 10
-164.606
 20
-46.073
 11
-164.919
 21
-47.1048
  0
LINE
  8
0
 10
-164.919
 20
-47.1048
 11
-165.427
 21
-48.0556
  0
LINE
  8
0
 10
-165.427
 20
-48.0556
 11
-166.111
 21
-48.8891
  0
LINE
  8
0
 10
-166.111
 20
-48.8891
 11
-166.944
 21
-49.5731
  0
LINE
  8
0
 10
-166.944
 20
-49.5731
 11
-167.895
 21
-50.0813
  0
LINE
  8
0
 10
-167.895
 20
-50.0813
 11
-168.927
 21
-50.3943
  0
LINE
  8
0
 10
-168.927
 20
-50.3943
 11
-170
 21
-50.5
  0
LINE
  8
0
 10
-170
 20
-50.5
 11
-171.073
 21
-50.3943
  0
LINE
  8
0
 10
-105.975
 20
-49.9039
 11
-106.913
 21
-49.6194
  0
LINE
  8
0
 10
-106.913
 20
-49.6194
 11
-107.778
 21
-49.1573
  0
LINE
  8
0
 10
-107.778
 20
-49.1573
 11
-108.536
 21
-48.5355
  0
LINE
  8
0
 10
-108.536
 20
-48.5355
 11
-109.157
 21
-47.7778
  0
LINE
  8
0
 10
-109.157
 20
-47.7778
 11
-109.619
 21
-46.9134
  0
LINE
  8
0
 10
-109.619
 20
-46.9134
 11
-109.904
 21
-45.9754
  0
LINE
  8
0
 10
-109.904
 20
-45.9754
 11
-110
 21
-45
  0
LINE
  8
0
 10
-110
 20
-45
 11
-109.904
 21
-44.0245
  0
LINE
  8
0
 10
-109.904
 20
-44.0245
 11
-109.619
 21
-43.0866
  0
LINE
  8
0
 10
-109.619
 20
-43.0866
 11
-109.157
 21
-42.2221
  0
LINE
  8
0
 10
-109.157
 20
-42.2221
 11
-108.536
 21
-41.4645
  0
LINE
  8
0
 10
-108.536
 20
-41.4645
 11
-107.778
 21
-40.8427
  0
LINE
  8
0
 10
-107.778
 20
-40.8427
 11
-106.913
 21
-40.3806
  0
LINE
  8
0
 10
-106.913
 20
-40.3806
 11
-105.975
 21
-40.0961
  0
LINE
  8
0
 10
-105.975
 20
-40.0961
 11
-105
 21
-40
  0
LINE
  8
0
 10
-105
 20
-40
 11
-104.025
 21
-40.0961
  0
LINE
  8
0
 10
-104.025
 20
-40.0961
 11
-103.087
 21
-40.3806
  0
LINE
  8
0
 10
-103.087
 20
-40.3806
 11
-102.222
 21
-40.8427
  0
LINE
  8
0
 10
-102.222
 20
-40.8427
 11
-101.464
 21
-41.4645
  0
LINE
  8
0
 10
-101.464
 20
-41.4645
 11
-100.843
 21
-42.2221
  0
LINE
  8
0
 10
-100.843
 20
-42.2221
 11
-100.381
 21
-43.0866
  0
LINE
  8
0
 10
-100.381
 20
-43.0866
 11
-100.096
 21
-44.0245
  0
LINE
  8
0
 10
-100.096
 20
-44.0245
 11
-100
 21
-45
  0
LINE
  8
0
 10
-100
 20
-45
 11
-100.096
 21
-45.9754
  0
LINE
  8
0
 10
-100.096
 20
-45.9754
 11
-100.381
 21
-46.9134
  0
LINE
  8
0
 10
-100.381
 20
-46.9134
 11
-100.843
 21
-47.7778
  0
LINE
  8
0
 10
-100.843
 20
-47.7778
 11
-101.464
 21
-48.5355
  0
LINE
  8
0
 10
-101.464
 20
-48.5355
 11
-102.222
 21
-49.1573
  0
LINE
  8
0
 10
-102.222
 20
-49.1573
 11
-103.087
 21
-49.6194
  0
LINE
  8
0
 10
-103.087
 20
-49.6194
 11
-104.025
 21
-49.9039
  0
LINE
  8
0
 10
-104.025
 20
-49.9039
 11
-105
 21
-50
  0
LINE
  8
0
 10
-105
 20
-50
 11
-105.975
 21
-49.9039
  0
LINE
  8
0
 10
-125.975
 20
-49.9039
 11
-126.913
 21
-49.6194
  0
LINE
  8
0
 10
-126.913
 20
-49.6194
 11
-127.778
 21
-49.1573
  0
LINE
  8
0
 10
-127.778
 20
-49.1573
 11
-128.536
 21
-48.5355
  0
LINE
  8
0
 10
-128.536
 20
-48.5355
 11
-129.157
 21
-47.7778
  0
LINE
  8
0
 10
-129.157
 20
-47.7778
 11
-129.619
 21
-46.9134
  0
LINE
  8
0
 10
-129.619
 20
-46.9134
 11
-129.904
 21
-45.9754
  0
LINE
  8
0
 10
-129.904
 20
-45.9754
 11
-130
 21
-45
  0
LINE
  8
0
 10
-130
 20
-45
 11
-129.904
 21
-44.0245
  0
LINE
  8
0
 10
-129.904
 20
-44.0245
 11
-129.619
 21
-43.0866
  0
LINE
  8
0
 10
-129.619
 20
-43.0866
 11
-129.157
 21
-42.2221
  0
LINE
  8
0
 10
-129.157
 20
-42.2221
 11
-128.536
 21
-41.4645
  0
LINE
  8
0
 10
-128.536
 20
-41.4645
 11
-127.778
 21
-40.8427
  0
LINE
  8
0
 10
-127.778
 20
-40.8427
 11
-126.913
 21
-40.3806
  0
LINE
  8
0
 10
-126.913
 20
-40.3806
 11
-125.975
 21
-40.0961
  0
LINE
  8
0
 10
-125.975
 20
-40.0961
 11
-125
 21
-40
  0
LINE
  8
0
 10
-125
 20
-40
 11
-124.025
 21
-40.0961
  0
LINE
  8
0
 10
-124.025
 20
-40.0961
 11
-123.087
 21
-40.3806
  0
LINE
  8
0
 10
-123.087
 20
-40.3806
 11
-122.222
 21
-40.8427
  0
LINE
  8
0
 10
-122.222
 20
-40.8427
 11
-121.464
 21
-41.4645
  0
LINE
  8
0
 10
-121.464
 20
-41.4645
 11
-120.843
 21
-42.2221
  0
LINE
  8
0
 10
-120.843
 20
-42.2221
 11
-120.381
 21
-43.0866
  0
LINE
  8
0
 10
-120.381
 20
-43.0866
 11
-120.096
 21
-44.0245
  0
LINE
  8
0
 10
-120.096
 20
-44.0245
 11
-120
 21
-45
  0
LINE
  8
0
 10
-120
 20
-45
 11
-120.096
 21
-45.9754
  0
LINE
  8
0
 10
-120.096
 20
-45.9754
 11
-120.381
 21
-46.9134
  0
LINE
  8
0
 10
-120.381
 20
-46.9134
 11
-120.843
 21
-47.7778
  0
LINE
  8
0
 10
-120.843
 20
-47.7778
 11
-121.464
 21
-48.5355
  0
LINE
  8
0
 10
-121.464
 20
-48.5355
 11
-122.222
 21
-49.1573
  0
LINE
  8
0
 10
-122.222
 20
-49.1573
 11
-123.087
 21
-49.6194
  0
LINE
  8
0
 10
-123.087
 20
-49.6194
 11
-124.025
 21
-49.9039
  0
LINE
  8
0
 10
-124.025
 20
-49.9039
 11
-125
 21
-50
  0
LINE
  8
0
 10
-125
 20
-50
 11
-125.975
 21
-49.9039
  0
LINE
  8
0
 10
-145.975
 20
-49.9039
 11
-146.913
 21
-49.6194
  0
LINE
  8
0
 10
-146.913
 20
-49.6194
 11
-147.778
 21
-49.1573
  0
LINE
  8
0
 10
-147.778
 20
-49.1573
 11
-148.536
 21
-48.5355
  0
LINE
  8
0
 10
-148.536
 20
-48.5355
 11
-149.157
 21
-47.7778
  0
LINE
  8
0
 10
-149.157
 20
-47.7778
 11
-149.619
 21
-46.9134
  0
LINE
  8
0
 10
-149.619
 20
-46.9134
 11
-149.904
 21
-45.9754
  0
LINE
  8
0
 10
-149.904
 20
-45.9754
 11
-150
 21
-45
  0
LINE
  8
0
 10
-150
 20
-45
 11
-149.904
 21
-44.0245
  0
LINE
  8
0
 10
-149.904
 20
-44.0245
 11
-149.619
 21
-43.0866
  0
LINE
  8
0
 10
-149.619
 20
-43.0866
 11
-149.157
 21
-42.2221
  0
LINE
  8
0
 10
-149.157
 20
-42.2221
 11
-148.536
 21
-41.4645
  0
LINE
  8
0
 10
-148.536
 20
-41.4645
 11
-147.778
 21
-40.8427
  0
LINE
  8
0
 10
-147.778
 20
-40.8427
 11
-146.913
 21
-40.3806
  0
LINE
  8
0
 10
-146.913
 20
-40.3806
 11
-145.975
 21
-40.0961
  0
LINE
  8
0
 10
-145.975
 20
-40.0961
 11
-145
 21
-40
  0
LINE
  8
0
 10
-145
 20
-40
 11
-144.025
 21
-40.0961
  0
LINE
  8
0
 10
-144.025
 20
-40.0961
 11
-143.087
 21
-40.3806
  0
LINE
  8
0
 10
-143.087
 20
-40.3806
 11
-142.222
 21
-40.8427
  0
LINE
  8
0
 10
-142.222
 20
-40.8427
 11
-141.464
 21
-41.4645
  0
LINE
  8
0
 10
-141.464
 20
-41.4645
 11
-140.843
 21
-42.2221
  0
LINE
  8
0
 10
-140.843
 20
-42.2221
 11
-140.381
 21
-43.0866
  0
LINE
  8
0
 10
-140.381
 20
-43.0866
 11
-140.096
 21
-44.0245
  0
LINE
  8
0
 10
-140.096
 20
-44.0245
 11
-140
 21
-45
  0
LINE
  8
0
 10
-140
 20
-45
 11
-140.096
 21
-45.9754
  0
LINE
  8
0
 10
-140.096
 20
-45.9754
 11
-140.381
 21
-46.9134
  0
LINE
  8
0
 10
-140.381
 20
-46.9134
 11
-140.843
 21
-47.7778
  0
LINE
  8
0
 10
-140.843
 20
-47.7778
 11
-141.464
 21
-48.5355
  0
LINE
  8
0
 10
-141.464
 20
-48.5355
 11
-142.222
 21
-49.1573
  0
LINE
  8
0
 10
-142.222
 20
-49.1573
 11
-143.087
 21
-49.6194
  0
LINE
  8
0
 10
-143.087
 20
-49.6194
 11
-144.025
 21
-49.9039
  0
LINE
  8
0
 10
-144.025
 20
-49.9039
 11
-145
 21
-50
  0
LINE
  8
0
 10
-145
 20
-50
 11
-145.975
 21
-49.9039
  0
LINE
  8
0
 10
-88.8414
 20
-46.7164
 11
-89.1697
 21
-46.6168
  0
LINE
  8
0
 10
-89.1697
 20
-46.6168
 11
-89.4722
 21
-46.4551
  0
LINE
  8
0
 10
-89.4722
 20
-46.4551
 11
-89.7374
 21
-46.2374
  0
LINE
  8
0
 10
-89.7374
 20
-46.2374
 11
-89.9551
 21
-45.9722
  0
LINE
  8
0
 10
-89.9551
 20
-45.9722
 11
-90.1168
 21
-45.6697
  0
LINE
  8
0
 10
-90.1168
 20
-45.6697
 11
-90.2164
 21
-45.3414
  0
LINE
  8
0
 10
-90.2164
 20
-45.3414
 11
-90.25
 21
-45
  0
LINE
  8
0
 10
-90.25
 20
-45
 11
-90.2164
 21
-44.6586
  0
LINE
  8
0
 10
-90.2164
 20
-44.6586
 11
-90.1168
 21
-44.3303
  0
LINE
  8
0
 10
-90.1168
 20
-44.3303
 11
-89.9551
 21
-44.0277
  0
LINE
  8
0
 10
-89.9551
 20
-44.0277
 11
-89.7374
 21
-43.7626
  0
LINE
  8
0
 10
-89.7374
 20
-43.7626
 11
-89.4722
 21
-43.5449
  0
LINE
  8
0
 10
-89.4722
 20
-43.5449
 11
-89.1697
 21
-43.3832
  0
LINE
  8
0
 10
-89.1697
 20
-43.3832
 11
-88.8414
 21
-43.2836
  0
LINE
  8
0
 10
-88.8414
 20
-43.2836
 11
-88.5
 21
-43.25
  0
LINE
  8
0
 10
-88.5
 20
-43.25
 11
-88.1586
 21
-43.2836
  0
LINE
  8
0
 10
-88.1586
 20
-43.2836
 11
-87.8303
 21
-43.3832
  0
LINE
  8
0
 10
-87.8303
 20
-43.3832
 11
-87.5278
 21
-43.5449
  0
LINE
  8
0
 10
-87.5278
 20
-43.5449
 11
-87.2626
 21
-43.7626
  0
LINE
  8
0
 10
-87.2626
 20
-43.7626
 11
-87.0449
 21
-44.0277
  0
LINE
  8
0
 10
-87.0449
 20
-44.0277
 11
-86.8832
 21
-44.3303
  0
LINE
  8
0
 10
-86.8832
 20
-44.3303
 11
-86.7836
 21
-44.6586
  0
LINE
  8
0
 10
-86.7836
 20
-44.6586
 11
-86.75
 21
-45
  0
LINE
  8
0
 10
-86.75
 20
-45
 11
-86.7836
 21
-45.3414
  0
LINE
  8
0
 10
-86.7836
 20
-45.3414
 11
-86.8832
 21
-45.6697
  0
LINE
  8
0
 10
-86.8832
 20
-45.6697
 11
-87.0449
 21
-45.9722
  0
LINE
  8
0
 10
-87.0449
 20
-45.9722
 11
-87.2626
 21
-46.2374
  0
LINE
  8
0
 10
-87.2626
 20
-46.2374
 11
-87.5278
 21
-46.4551
  0
LINE
  8
0
 10
-87.5278
 20
-46.4551
 11
-87.8303
 21
-46.6168
  0
LINE
  8
0
 10
-87.8303
 20
-46.6168
 11
-88.1586
 21
-46.7164
  0
LINE
  8
0
 10
-88.1586
 20
-46.7164
 11
-88.5
 21
-46.75
  0
LINE
  8
0
 10
-88.5
 20
-46.75
 11
-88.8414
 21
-46.7164
  0
LINE
  8
0
 10
-66.8414
 20
-46.7164
 11
-67.1697
 21
-46.6168
  0
LINE
  8
0
 10
-67.1697
 20
-46.6168
 11
-67.4722
 21
-46.4551
  0
LINE
  8
0
 10
-67.4722
 20
-46.4551
 11
-67.7374
 21
-46.2374
  0
LINE
  8
0
 10
-67.7374
 20
-46.2374
 11
-67.9551
 21
-45.9722
  0
LINE
  8
0
 10
-67.9551
 20
-45.9722
 11
-68.1168
 21
-45.6697
  0
LINE
  8
0
 10
-68.1168
 20
-45.6697
 11
-68.2164
 21
-45.3414
  0
LINE
  8
0
 10
-68.2164
 20
-45.3414
 11
-68.25
 21
-45
  0
LINE
  8
0
 10
-68.25
 20
-45
 11
-68.2164
 21
-44.6586
  0
LINE
  8
0
 10
-68.2164
 20
-44.6586
 11
-68.1168
 21
-44.3303
  0
LINE
  8
0
 10
-68.1168
 20
-44.3303
 11
-67.9551
 21
-44.0277
  0
LINE
  8
0
 10
-67.9551
 20
-44.0277
 11
-67.7374
 21
-43.7626
  0
LINE
  8
0
 10
-67.7374
 20
-43.7626
 11
-67.4722
 21
-43.5449
  0
LINE
  8
0
 10
-67.4722
 20
-43.5449
 11
-67.1697
 21
-43.3832
  0
LINE
  8
0
 10
-67.1697
 20
-43.3832
 11
-66.8414
 21
-43.2836
  0
LINE
  8
0
 10
-66.8414
 20
-43.2836
 11
-66.5
 21
-43.25
  0
LINE
  8
0
 10
-66.5
 20
-43.25
 11
-66.1586
 21
-43.2836
  0
LINE
  8
0
 10
-66.1586
 20
-43.2836
 11
-65.8303
 21
-43.3832
  0
LINE
  8
0
 10
-65.8303
 20
-43.3832
 11
-65.5278
 21
-43.5449
  0
LINE
  8
0
 10
-65.5278
 20
-43.5449
 11
-65.2626
 21
-43.7626
  0
LINE
  8
0
 10
-65.2626
 20
-43.7626
 11
-65.0449
 21
-44.0277
  0
LINE
  8
0
 10
-65.0449
 20
-44.0277
 11
-64.8832
 21
-44.3303
  0
LINE
  8
0
 10
-64.8832
 20
-44.3303
 11
-64.7836
 21
-44.6586
  0
LINE
  8
0
 10
-64.7836
 20
-44.6586
 11
-64.75
 21
-45
  0
LINE
  8
0
 10
-64.75
 20
-45
 11
-64.7836
 21
-45.3414
  0
LINE
  8
0
 10
-64.7836
 20
-45.3414
 11
-64.8832
 21
-45.6697
  0
LINE
  8
0
 10
-64.8832
 20
-45.6697
 11
-65.0449
 21
-45.9722
  0
LINE
  8
0
 10
-65.0449
 20
-45.9722
 11
-65.2626
 21
-46.2374
  0
LINE
  8
0
 10
-65.2626
 20
-46.2374
 11
-65.5278
 21
-46.4551
  0
LINE
  8
0
 10
-65.5278
 20
-46.4551
 11
-65.8303
 21
-46.6168
  0
LINE
  8
0
 10
-65.8303
 20
-46.6168
 11
-66.1586
 21
-46.7164
  0
LINE
  8
0
 10
-66.1586
 20
-46.7164
 11
-66.5
 21
-46.75
  0
LINE
  8
0
 10
-66.5
 20
-46.75
 11
-66.8414
 21
-46.7164
  0
ENDSEC
  0
SECTION
  2
OBJECTS
  0
DICTIONARY
  0
ENDSEC
  0
EOF
