  0
SECTION
  2
BLOCKS
  0
ENDSEC
  0
SECTION
  2
ENTITIES
  0
LINE
  8
0
 10
310
 20
130
 11
175
 21
130
  0
LINE
  8
0
 10
175
 20
130
 11
0
 21
65
  0
LINE
  8
0
 10
0
 20
65
 11
0
 21
0
  0
LINE
  8
0
 10
0
 20
0
 11
310
 21
0
  0
LINE
  8
0
 10
310
 20
0
 11
310
 21
130
  0
LINE
  8
0
 10
249.529
 20
37.7074
 11
249.5
 21
38
  0
LINE
  8
0
 10
249.5
 20
38
 11
249.529
 21
38.2926
  0
LINE
  8
0
 10
249.529
 20
38.2926
 11
249.614
 21
38.574
  0
LINE
  8
0
 10
249.614
 20
38.574
 11
249.753
 21
38.8333
  0
LINE
  8
0
 10
249.753
 20
38.8333
 11
249.939
 21
39.0607
  0
LINE
  8
0
 10
249.939
 20
39.0607
 11
250.167
 21
39.2472
  0
LINE
  8
0
 10
250.167
 20
39.2472
 11
250.426
 21
39.3858
  0
LINE
  8
0
 10
250.426
 20
39.3858
 11
250.707
 21
39.4712
  0
LINE
  8
0
 10
250.707
 20
39.4712
 11
251
 21
39.5
  0
LINE
  8
0
 10
251
 20
39.5
 11
251.293
 21
39.4712
  0
LINE
  8
0
 10
251.293
 20
39.4712
 11
251.574
 21
39.3858
  0
LINE
  8
0
 10
251.574
 20
39.3858
 11
251.833
 21
39.2472
  0
LINE
  8
0
 10
251.833
 20
39.2472
 11
252.061
 21
39.0607
  0
LINE
  8
0
 10
252.061
 20
39.0607
 11
252.247
 21
38.8333
  0
LINE
  8
0
 10
252.247
 20
38.8333
 11
252.386
 21
38.574
  0
LINE
  8
0
 10
252.386
 20
38.574
 11
252.471
 21
38.2926
  0
LINE
  8
0
 10
252.471
 20
38.2926
 11
252.5
 21
38
  0
LINE
  8
0
 10
252.5
 20
38
 11
252.471
 21
37.7074
  0
LINE
  8
0
 10
252.471
 20
37.7074
 11
252.386
 21
37.426
  0
LINE
  8
0
 10
252.386
 20
37.426
 11
252.247
 21
37.1666
  0
LINE
  8
0
 10
252.247
 20
37.1666
 11
252.061
 21
36.9393
  0
LINE
  8
0
 10
252.061
 20
36.9393
 11
251.833
 21
36.7528
  0
LINE
  8
0
 10
251.833
 20
36.7528
 11
251.574
 21
36.6142
  0
LINE
  8
0
 10
251.574
 20
36.6142
 11
251.293
 21
36.5288
  0
LINE
  8
0
 10
251.293
 20
36.5288
 11
251
 21
36.5
  0
LINE
  8
0
 10
251
 20
36.5
 11
250.707
 21
36.5288
  0
LINE
  8
0
 10
250.707
 20
36.5288
 11
250.426
 21
36.6142
  0
LINE
  8
0
 10
250.426
 20
36.6142
 11
250.167
 21
36.7528
  0
LINE
  8
0
 10
250.167
 20
36.7528
 11
249.939
 21
36.9393
  0
LINE
  8
0
 10
249.939
 20
36.9393
 11
249.753
 21
37.1666
  0
LINE
  8
0
 10
249.753
 20
37.1666
 11
249.614
 21
37.426
  0
LINE
  8
0
 10
249.614
 20
37.426
 11
249.529
 21
37.7074
  0
LINE
  8
0
 10
242.707
 20
36.5288
 11
242.426
 21
36.6142
  0
LINE
  8
0
 10
242.426
 20
36.6142
 11
242.167
 21
36.7528
  0
LINE
  8
0
 10
242.167
 20
36.7528
 11
241.939
 21
36.9393
  0
LINE
  8
0
 10
241.939
 20
36.9393
 11
241.753
 21
37.1666
  0
LINE
  8
0
 10
241.753
 20
37.1666
 11
241.614
 21
37.426
  0
LINE
  8
0
 10
241.614
 20
37.426
 11
241.529
 21
37.7074
  0
LINE
  8
0
 10
241.529
 20
37.7074
 11
241.5
 21
38
  0
LINE
  8
0
 10
241.5
 20
38
 11
241.529
 21
38.2926
  0
LINE
  8
0
 10
241.529
 20
38.2926
 11
241.614
 21
38.574
  0
LINE
  8
0
 10
241.614
 20
38.574
 11
241.753
 21
38.8333
  0
LINE
  8
0
 10
241.753
 20
38.8333
 11
241.939
 21
39.0607
  0
LINE
  8
0
 10
241.939
 20
39.0607
 11
242.167
 21
39.2472
  0
LINE
  8
0
 10
242.167
 20
39.2472
 11
242.426
 21
39.3858
  0
LINE
  8
0
 10
242.426
 20
39.3858
 11
242.707
 21
39.4712
  0
LINE
  8
0
 10
242.707
 20
39.4712
 11
243
 21
39.5
  0
LINE
  8
0
 10
243
 20
39.5
 11
243.293
 21
39.4712
  0
LINE
  8
0
 10
243.293
 20
39.4712
 11
243.574
 21
39.3858
  0
LINE
  8
0
 10
243.574
 20
39.3858
 11
243.833
 21
39.2472
  0
LINE
  8
0
 10
243.833
 20
39.2472
 11
244.061
 21
39.0607
  0
LINE
  8
0
 10
244.061
 20
39.0607
 11
244.247
 21
38.8333
  0
LINE
  8
0
 10
244.247
 20
38.8333
 11
244.386
 21
38.574
  0
LINE
  8
0
 10
244.386
 20
38.574
 11
244.471
 21
38.2926
  0
LINE
  8
0
 10
244.471
 20
38.2926
 11
244.5
 21
38
  0
LINE
  8
0
 10
244.5
 20
38
 11
244.471
 21
37.7074
  0
LINE
  8
0
 10
244.471
 20
37.7074
 11
244.386
 21
37.426
  0
LINE
  8
0
 10
244.386
 20
37.426
 11
244.247
 21
37.1666
  0
LINE
  8
0
 10
244.247
 20
37.1666
 11
244.061
 21
36.9393
  0
LINE
  8
0
 10
244.061
 20
36.9393
 11
243.833
 21
36.7528
  0
LINE
  8
0
 10
243.833
 20
36.7528
 11
243.574
 21
36.6142
  0
LINE
  8
0
 10
243.574
 20
36.6142
 11
243.293
 21
36.5288
  0
LINE
  8
0
 10
243.293
 20
36.5288
 11
243
 21
36.5
  0
LINE
  8
0
 10
243
 20
36.5
 11
242.707
 21
36.5288
  0
LINE
  8
0
 10
262.707
 20
36.5288
 11
262.426
 21
36.6142
  0
LINE
  8
0
 10
262.426
 20
36.6142
 11
262.167
 21
36.7528
  0
LINE
  8
0
 10
262.167
 20
36.7528
 11
261.939
 21
36.9393
  0
LINE
  8
0
 10
261.939
 20
36.9393
 11
261.753
 21
37.1666
  0
LINE
  8
0
 10
261.753
 20
37.1666
 11
261.614
 21
37.426
  0
LINE
  8
0
 10
261.614
 20
37.426
 11
261.529
 21
37.7074
  0
LINE
  8
0
 10
261.529
 20
37.7074
 11
261.5
 21
38
  0
LINE
  8
0
 10
261.5
 20
38
 11
261.529
 21
38.2926
  0
LINE
  8
0
 10
261.529
 20
38.2926
 11
261.614
 21
38.574
  0
LINE
  8
0
 10
261.614
 20
38.574
 11
261.753
 21
38.8333
  0
LINE
  8
0
 10
261.753
 20
38.8333
 11
261.939
 21
39.0607
  0
LINE
  8
0
 10
261.939
 20
39.0607
 11
262.167
 21
39.2472
  0
LINE
  8
0
 10
262.167
 20
39.2472
 11
262.426
 21
39.3858
  0
LINE
  8
0
 10
262.426
 20
39.3858
 11
262.707
 21
39.4712
  0
LINE
  8
0
 10
262.707
 20
39.4712
 11
263
 21
39.5
  0
LINE
  8
0
 10
263
 20
39.5
 11
263.293
 21
39.4712
  0
LINE
  8
0
 10
263.293
 20
39.4712
 11
263.574
 21
39.3858
  0
LINE
  8
0
 10
263.574
 20
39.3858
 11
263.833
 21
39.2472
  0
LINE
  8
0
 10
263.833
 20
39.2472
 11
264.061
 21
39.0607
  0
LINE
  8
0
 10
264.061
 20
39.0607
 11
264.247
 21
38.8333
  0
LINE
  8
0
 10
264.247
 20
38.8333
 11
264.386
 21
38.574
  0
LINE
  8
0
 10
264.386
 20
38.574
 11
264.471
 21
38.2926
  0
LINE
  8
0
 10
264.471
 20
38.2926
 11
264.5
 21
38
  0
LINE
  8
0
 10
264.5
 20
38
 11
264.471
 21
37.7074
  0
LINE
  8
0
 10
264.471
 20
37.7074
 11
264.386
 21
37.426
  0
LINE
  8
0
 10
264.386
 20
37.426
 11
264.247
 21
37.1666
  0
LINE
  8
0
 10
264.247
 20
37.1666
 11
264.061
 21
36.9393
  0
LINE
  8
0
 10
264.061
 20
36.9393
 11
263.833
 21
36.7528
  0
LINE
  8
0
 10
263.833
 20
36.7528
 11
263.574
 21
36.6142
  0
LINE
  8
0
 10
263.574
 20
36.6142
 11
263.293
 21
36.5288
  0
LINE
  8
0
 10
263.293
 20
36.5288
 11
263
 21
36.5
  0
LINE
  8
0
 10
263
 20
36.5
 11
262.707
 21
36.5288
  0
LINE
  8
0
 10
238.707
 20
36.5288
 11
238.426
 21
36.6142
  0
LINE
  8
0
 10
238.426
 20
36.6142
 11
238.167
 21
36.7528
  0
LINE
  8
0
 10
238.167
 20
36.7528
 11
237.939
 21
36.9393
  0
LINE
  8
0
 10
237.939
 20
36.9393
 11
237.753
 21
37.1666
  0
LINE
  8
0
 10
237.753
 20
37.1666
 11
237.614
 21
37.426
  0
LINE
  8
0
 10
237.614
 20
37.426
 11
237.529
 21
37.7074
  0
LINE
  8
0
 10
237.529
 20
37.7074
 11
237.5
 21
38
  0
LINE
  8
0
 10
237.5
 20
38
 11
237.529
 21
38.2926
  0
LINE
  8
0
 10
237.529
 20
38.2926
 11
237.614
 21
38.574
  0
LINE
  8
0
 10
237.614
 20
38.574
 11
237.753
 21
38.8333
  0
LINE
  8
0
 10
237.753
 20
38.8333
 11
237.939
 21
39.0607
  0
LINE
  8
0
 10
237.939
 20
39.0607
 11
238.167
 21
39.2472
  0
LINE
  8
0
 10
238.167
 20
39.2472
 11
238.426
 21
39.3858
  0
LINE
  8
0
 10
238.426
 20
39.3858
 11
238.707
 21
39.4712
  0
LINE
  8
0
 10
238.707
 20
39.4712
 11
239
 21
39.5
  0
LINE
  8
0
 10
239
 20
39.5
 11
239.293
 21
39.4712
  0
LINE
  8
0
 10
239.293
 20
39.4712
 11
239.574
 21
39.3858
  0
LINE
  8
0
 10
239.574
 20
39.3858
 11
239.833
 21
39.2472
  0
LINE
  8
0
 10
239.833
 20
39.2472
 11
240.061
 21
39.0607
  0
LINE
  8
0
 10
240.061
 20
39.0607
 11
240.247
 21
38.8333
  0
LINE
  8
0
 10
240.247
 20
38.8333
 11
240.386
 21
38.574
  0
LINE
  8
0
 10
240.386
 20
38.574
 11
240.471
 21
38.2926
  0
LINE
  8
0
 10
240.471
 20
38.2926
 11
240.5
 21
38
  0
LINE
  8
0
 10
240.5
 20
38
 11
240.471
 21
37.7074
  0
LINE
  8
0
 10
240.471
 20
37.7074
 11
240.386
 21
37.426
  0
LINE
  8
0
 10
240.386
 20
37.426
 11
240.247
 21
37.1666
  0
LINE
  8
0
 10
240.247
 20
37.1666
 11
240.061
 21
36.9393
  0
LINE
  8
0
 10
240.061
 20
36.9393
 11
239.833
 21
36.7528
  0
LINE
  8
0
 10
239.833
 20
36.7528
 11
239.574
 21
36.6142
  0
LINE
  8
0
 10
239.574
 20
36.6142
 11
239.293
 21
36.5288
  0
LINE
  8
0
 10
239.293
 20
36.5288
 11
239
 21
36.5
  0
LINE
  8
0
 10
239
 20
36.5
 11
238.707
 21
36.5288
  0
LINE
  8
0
 10
254.707
 20
36.5288
 11
254.426
 21
36.6142
  0
LINE
  8
0
 10
254.426
 20
36.6142
 11
254.167
 21
36.7528
  0
LINE
  8
0
 10
254.167
 20
36.7528
 11
253.939
 21
36.9393
  0
LINE
  8
0
 10
253.939
 20
36.9393
 11
253.753
 21
37.1666
  0
LINE
  8
0
 10
253.753
 20
37.1666
 11
253.614
 21
37.426
  0
LINE
  8
0
 10
253.614
 20
37.426
 11
253.529
 21
37.7074
  0
LINE
  8
0
 10
253.529
 20
37.7074
 11
253.5
 21
38
  0
LINE
  8
0
 10
253.5
 20
38
 11
253.529
 21
38.2926
  0
LINE
  8
0
 10
253.529
 20
38.2926
 11
253.614
 21
38.574
  0
LINE
  8
0
 10
253.614
 20
38.574
 11
253.753
 21
38.8333
  0
LINE
  8
0
 10
253.753
 20
38.8333
 11
253.939
 21
39.0607
  0
LINE
  8
0
 10
253.939
 20
39.0607
 11
254.167
 21
39.2472
  0
LINE
  8
0
 10
254.167
 20
39.2472
 11
254.426
 21
39.3858
  0
LINE
  8
0
 10
254.426
 20
39.3858
 11
254.707
 21
39.4712
  0
LINE
  8
0
 10
254.707
 20
39.4712
 11
255
 21
39.5
  0
LINE
  8
0
 10
255
 20
39.5
 11
255.293
 21
39.4712
  0
LINE
  8
0
 10
255.293
 20
39.4712
 11
255.574
 21
39.3858
  0
LINE
  8
0
 10
255.574
 20
39.3858
 11
255.833
 21
39.2472
  0
LINE
  8
0
 10
255.833
 20
39.2472
 11
256.061
 21
39.0607
  0
LINE
  8
0
 10
256.061
 20
39.0607
 11
256.247
 21
38.8333
  0
LINE
  8
0
 10
256.247
 20
38.8333
 11
256.386
 21
38.574
  0
LINE
  8
0
 10
256.386
 20
38.574
 11
256.471
 21
38.2926
  0
LINE
  8
0
 10
256.471
 20
38.2926
 11
256.5
 21
38
  0
LINE
  8
0
 10
256.5
 20
38
 11
256.471
 21
37.7074
  0
LINE
  8
0
 10
256.471
 20
37.7074
 11
256.386
 21
37.426
  0
LINE
  8
0
 10
256.386
 20
37.426
 11
256.247
 21
37.1666
  0
LINE
  8
0
 10
256.247
 20
37.1666
 11
256.061
 21
36.9393
  0
LINE
  8
0
 10
256.061
 20
36.9393
 11
255.833
 21
36.7528
  0
LINE
  8
0
 10
255.833
 20
36.7528
 11
255.574
 21
36.6142
  0
LINE
  8
0
 10
255.574
 20
36.6142
 11
255.293
 21
36.5288
  0
LINE
  8
0
 10
255.293
 20
36.5288
 11
255
 21
36.5
  0
LINE
  8
0
 10
255
 20
36.5
 11
254.707
 21
36.5288
  0
LINE
  8
0
 10
258.707
 20
36.5288
 11
258.426
 21
36.6142
  0
LINE
  8
0
 10
258.426
 20
36.6142
 11
258.167
 21
36.7528
  0
LINE
  8
0
 10
258.167
 20
36.7528
 11
257.939
 21
36.9393
  0
LINE
  8
0
 10
257.939
 20
36.9393
 11
257.753
 21
37.1666
  0
LINE
  8
0
 10
257.753
 20
37.1666
 11
257.614
 21
37.426
  0
LINE
  8
0
 10
257.614
 20
37.426
 11
257.529
 21
37.7074
  0
LINE
  8
0
 10
257.529
 20
37.7074
 11
257.5
 21
38
  0
LINE
  8
0
 10
257.5
 20
38
 11
257.529
 21
38.2926
  0
LINE
  8
0
 10
257.529
 20
38.2926
 11
257.614
 21
38.574
  0
LINE
  8
0
 10
257.614
 20
38.574
 11
257.753
 21
38.8333
  0
LINE
  8
0
 10
257.753
 20
38.8333
 11
257.939
 21
39.0607
  0
LINE
  8
0
 10
257.939
 20
39.0607
 11
258.167
 21
39.2472
  0
LINE
  8
0
 10
258.167
 20
39.2472
 11
258.426
 21
39.3858
  0
LINE
  8
0
 10
258.426
 20
39.3858
 11
258.707
 21
39.4712
  0
LINE
  8
0
 10
258.707
 20
39.4712
 11
259
 21
39.5
  0
LINE
  8
0
 10
259
 20
39.5
 11
259.293
 21
39.4712
  0
LINE
  8
0
 10
259.293
 20
39.4712
 11
259.574
 21
39.3858
  0
LINE
  8
0
 10
259.574
 20
39.3858
 11
259.833
 21
39.2472
  0
LINE
  8
0
 10
259.833
 20
39.2472
 11
260.061
 21
39.0607
  0
LINE
  8
0
 10
260.061
 20
39.0607
 11
260.247
 21
38.8333
  0
LINE
  8
0
 10
260.247
 20
38.8333
 11
260.386
 21
38.574
  0
LINE
  8
0
 10
260.386
 20
38.574
 11
260.471
 21
38.2926
  0
LINE
  8
0
 10
260.471
 20
38.2926
 11
260.5
 21
38
  0
LINE
  8
0
 10
260.5
 20
38
 11
260.471
 21
37.7074
  0
LINE
  8
0
 10
260.471
 20
37.7074
 11
260.386
 21
37.426
  0
LINE
  8
0
 10
260.386
 20
37.426
 11
260.247
 21
37.1666
  0
LINE
  8
0
 10
260.247
 20
37.1666
 11
260.061
 21
36.9393
  0
LINE
  8
0
 10
260.061
 20
36.9393
 11
259.833
 21
36.7528
  0
LINE
  8
0
 10
259.833
 20
36.7528
 11
259.574
 21
36.6142
  0
LINE
  8
0
 10
259.574
 20
36.6142
 11
259.293
 21
36.5288
  0
LINE
  8
0
 10
259.293
 20
36.5288
 11
259
 21
36.5
  0
LINE
  8
0
 10
259
 20
36.5
 11
258.707
 21
36.5288
  0
LINE
  8
0
 10
234.707
 20
36.5288
 11
234.426
 21
36.6142
  0
LINE
  8
0
 10
234.426
 20
36.6142
 11
234.167
 21
36.7528
  0
LINE
  8
0
 10
234.167
 20
36.7528
 11
233.939
 21
36.9393
  0
LINE
  8
0
 10
233.939
 20
36.9393
 11
233.753
 21
37.1666
  0
LINE
  8
0
 10
233.753
 20
37.1666
 11
233.614
 21
37.426
  0
LINE
  8
0
 10
233.614
 20
37.426
 11
233.529
 21
37.7074
  0
LINE
  8
0
 10
233.529
 20
37.7074
 11
233.5
 21
38
  0
LINE
  8
0
 10
233.5
 20
38
 11
233.529
 21
38.2926
  0
LINE
  8
0
 10
233.529
 20
38.2926
 11
233.614
 21
38.574
  0
LINE
  8
0
 10
233.614
 20
38.574
 11
233.753
 21
38.8333
  0
LINE
  8
0
 10
233.753
 20
38.8333
 11
233.939
 21
39.0607
  0
LINE
  8
0
 10
233.939
 20
39.0607
 11
234.167
 21
39.2472
  0
LINE
  8
0
 10
234.167
 20
39.2472
 11
234.426
 21
39.3858
  0
LINE
  8
0
 10
234.426
 20
39.3858
 11
234.707
 21
39.4712
  0
LINE
  8
0
 10
234.707
 20
39.4712
 11
235
 21
39.5
  0
LINE
  8
0
 10
235
 20
39.5
 11
235.293
 21
39.4712
  0
LINE
  8
0
 10
235.293
 20
39.4712
 11
235.574
 21
39.3858
  0
LINE
  8
0
 10
235.574
 20
39.3858
 11
235.833
 21
39.2472
  0
LINE
  8
0
 10
235.833
 20
39.2472
 11
236.061
 21
39.0607
  0
LINE
  8
0
 10
236.061
 20
39.0607
 11
236.247
 21
38.8333
  0
LINE
  8
0
 10
236.247
 20
38.8333
 11
236.386
 21
38.574
  0
LINE
  8
0
 10
236.386
 20
38.574
 11
236.471
 21
38.2926
  0
LINE
  8
0
 10
236.471
 20
38.2926
 11
236.5
 21
38
  0
LINE
  8
0
 10
236.5
 20
38
 11
236.471
 21
37.7074
  0
LINE
  8
0
 10
236.471
 20
37.7074
 11
236.386
 21
37.426
  0
LINE
  8
0
 10
236.386
 20
37.426
 11
236.247
 21
37.1666
  0
LINE
  8
0
 10
236.247
 20
37.1666
 11
236.061
 21
36.9393
  0
LINE
  8
0
 10
236.061
 20
36.9393
 11
235.833
 21
36.7528
  0
LINE
  8
0
 10
235.833
 20
36.7528
 11
235.574
 21
36.6142
  0
LINE
  8
0
 10
235.574
 20
36.6142
 11
235.293
 21
36.5288
  0
LINE
  8
0
 10
235.293
 20
36.5288
 11
235
 21
36.5
  0
LINE
  8
0
 10
235
 20
36.5
 11
234.707
 21
36.5288
  0
LINE
  8
0
 10
250.707
 20
32.5288
 11
250.426
 21
32.6142
  0
LINE
  8
0
 10
250.426
 20
32.6142
 11
250.167
 21
32.7528
  0
LINE
  8
0
 10
250.167
 20
32.7528
 11
249.939
 21
32.9393
  0
LINE
  8
0
 10
249.939
 20
32.9393
 11
249.753
 21
33.1666
  0
LINE
  8
0
 10
249.753
 20
33.1666
 11
249.614
 21
33.426
  0
LINE
  8
0
 10
249.614
 20
33.426
 11
249.529
 21
33.7074
  0
LINE
  8
0
 10
249.529
 20
33.7074
 11
249.5
 21
34
  0
LINE
  8
0
 10
249.5
 20
34
 11
249.529
 21
34.2926
  0
LINE
  8
0
 10
249.529
 20
34.2926
 11
249.614
 21
34.574
  0
LINE
  8
0
 10
249.614
 20
34.574
 11
249.753
 21
34.8333
  0
LINE
  8
0
 10
249.753
 20
34.8333
 11
249.939
 21
35.0607
  0
LINE
  8
0
 10
249.939
 20
35.0607
 11
250.167
 21
35.2472
  0
LINE
  8
0
 10
250.167
 20
35.2472
 11
250.426
 21
35.3858
  0
LINE
  8
0
 10
250.426
 20
35.3858
 11
250.707
 21
35.4712
  0
LINE
  8
0
 10
250.707
 20
35.4712
 11
251
 21
35.5
  0
LINE
  8
0
 10
251
 20
35.5
 11
251.293
 21
35.4712
  0
LINE
  8
0
 10
251.293
 20
35.4712
 11
251.574
 21
35.3858
  0
LINE
  8
0
 10
251.574
 20
35.3858
 11
251.833
 21
35.2472
  0
LINE
  8
0
 10
251.833
 20
35.2472
 11
252.061
 21
35.0607
  0
LINE
  8
0
 10
252.061
 20
35.0607
 11
252.247
 21
34.8333
  0
LINE
  8
0
 10
252.247
 20
34.8333
 11
252.386
 21
34.574
  0
LINE
  8
0
 10
252.386
 20
34.574
 11
252.471
 21
34.2926
  0
LINE
  8
0
 10
252.471
 20
34.2926
 11
252.5
 21
34
  0
LINE
  8
0
 10
252.5
 20
34
 11
252.471
 21
33.7074
  0
LINE
  8
0
 10
252.471
 20
33.7074
 11
252.386
 21
33.426
  0
LINE
  8
0
 10
252.386
 20
33.426
 11
252.247
 21
33.1666
  0
LINE
  8
0
 10
252.247
 20
33.1666
 11
252.061
 21
32.9393
  0
LINE
  8
0
 10
252.061
 20
32.9393
 11
251.833
 21
32.7528
  0
LINE
  8
0
 10
251.833
 20
32.7528
 11
251.574
 21
32.6142
  0
LINE
  8
0
 10
251.574
 20
32.6142
 11
251.293
 21
32.5288
  0
LINE
  8
0
 10
251.293
 20
32.5288
 11
251
 21
32.5
  0
LINE
  8
0
 10
251
 20
32.5
 11
250.707
 21
32.5288
  0
LINE
  8
0
 10
261.529
 20
33.7074
 11
261.5
 21
34
  0
LINE
  8
0
 10
261.5
 20
34
 11
261.529
 21
34.2926
  0
LINE
  8
0
 10
261.529
 20
34.2926
 11
261.614
 21
34.574
  0
LINE
  8
0
 10
261.614
 20
34.574
 11
261.753
 21
34.8333
  0
LINE
  8
0
 10
261.753
 20
34.8333
 11
261.939
 21
35.0607
  0
LINE
  8
0
 10
261.939
 20
35.0607
 11
262.167
 21
35.2472
  0
LINE
  8
0
 10
262.167
 20
35.2472
 11
262.426
 21
35.3858
  0
LINE
  8
0
 10
262.426
 20
35.3858
 11
262.707
 21
35.4712
  0
LINE
  8
0
 10
262.707
 20
35.4712
 11
263
 21
35.5
  0
LINE
  8
0
 10
263
 20
35.5
 11
263.293
 21
35.4712
  0
LINE
  8
0
 10
263.293
 20
35.4712
 11
263.574
 21
35.3858
  0
LINE
  8
0
 10
263.574
 20
35.3858
 11
263.833
 21
35.2472
  0
LINE
  8
0
 10
263.833
 20
35.2472
 11
264.061
 21
35.0607
  0
LINE
  8
0
 10
264.061
 20
35.0607
 11
264.247
 21
34.8333
  0
LINE
  8
0
 10
264.247
 20
34.8333
 11
264.386
 21
34.574
  0
LINE
  8
0
 10
264.386
 20
34.574
 11
264.471
 21
34.2926
  0
LINE
  8
0
 10
264.471
 20
34.2926
 11
264.5
 21
34
  0
LINE
  8
0
 10
264.5
 20
34
 11
264.471
 21
33.7074
  0
LINE
  8
0
 10
264.471
 20
33.7074
 11
264.386
 21
33.426
  0
LINE
  8
0
 10
264.386
 20
33.426
 11
264.247
 21
33.1666
  0
LINE
  8
0
 10
264.247
 20
33.1666
 11
264.061
 21
32.9393
  0
LINE
  8
0
 10
264.061
 20
32.9393
 11
263.833
 21
32.7528
  0
LINE
  8
0
 10
263.833
 20
32.7528
 11
263.574
 21
32.6142
  0
LINE
  8
0
 10
263.574
 20
32.6142
 11
263.293
 21
32.5288
  0
LINE
  8
0
 10
263.293
 20
32.5288
 11
263
 21
32.5
  0
LINE
  8
0
 10
263
 20
32.5
 11
262.707
 21
32.5288
  0
LINE
  8
0
 10
262.707
 20
32.5288
 11
262.426
 21
32.6142
  0
LINE
  8
0
 10
262.426
 20
32.6142
 11
262.167
 21
32.7528
  0
LINE
  8
0
 10
262.167
 20
32.7528
 11
261.939
 21
32.9393
  0
LINE
  8
0
 10
261.939
 20
32.9393
 11
261.753
 21
33.1666
  0
LINE
  8
0
 10
261.753
 20
33.1666
 11
261.614
 21
33.426
  0
LINE
  8
0
 10
261.614
 20
33.426
 11
261.529
 21
33.7074
  0
LINE
  8
0
 10
246.707
 20
32.5288
 11
246.426
 21
32.6142
  0
LINE
  8
0
 10
246.426
 20
32.6142
 11
246.167
 21
32.7528
  0
LINE
  8
0
 10
246.167
 20
32.7528
 11
245.939
 21
32.9393
  0
LINE
  8
0
 10
245.939
 20
32.9393
 11
245.753
 21
33.1666
  0
LINE
  8
0
 10
245.753
 20
33.1666
 11
245.614
 21
33.426
  0
LINE
  8
0
 10
245.614
 20
33.426
 11
245.529
 21
33.7074
  0
LINE
  8
0
 10
245.529
 20
33.7074
 11
245.5
 21
34
  0
LINE
  8
0
 10
245.5
 20
34
 11
245.529
 21
34.2926
  0
LINE
  8
0
 10
245.529
 20
34.2926
 11
245.614
 21
34.574
  0
LINE
  8
0
 10
245.614
 20
34.574
 11
245.753
 21
34.8333
  0
LINE
  8
0
 10
245.753
 20
34.8333
 11
245.939
 21
35.0607
  0
LINE
  8
0
 10
245.939
 20
35.0607
 11
246.167
 21
35.2472
  0
LINE
  8
0
 10
246.167
 20
35.2472
 11
246.426
 21
35.3858
  0
LINE
  8
0
 10
246.426
 20
35.3858
 11
246.707
 21
35.4712
  0
LINE
  8
0
 10
246.707
 20
35.4712
 11
247
 21
35.5
  0
LINE
  8
0
 10
247
 20
35.5
 11
247.293
 21
35.4712
  0
LINE
  8
0
 10
247.293
 20
35.4712
 11
247.574
 21
35.3858
  0
LINE
  8
0
 10
247.574
 20
35.3858
 11
247.833
 21
35.2472
  0
LINE
  8
0
 10
247.833
 20
35.2472
 11
248.061
 21
35.0607
  0
LINE
  8
0
 10
248.061
 20
35.0607
 11
248.247
 21
34.8333
  0
LINE
  8
0
 10
248.247
 20
34.8333
 11
248.386
 21
34.574
  0
LINE
  8
0
 10
248.386
 20
34.574
 11
248.471
 21
34.2926
  0
LINE
  8
0
 10
248.471
 20
34.2926
 11
248.5
 21
34
  0
LINE
  8
0
 10
248.5
 20
34
 11
248.471
 21
33.7074
  0
LINE
  8
0
 10
248.471
 20
33.7074
 11
248.386
 21
33.426
  0
LINE
  8
0
 10
248.386
 20
33.426
 11
248.247
 21
33.1666
  0
LINE
  8
0
 10
248.247
 20
33.1666
 11
248.061
 21
32.9393
  0
LINE
  8
0
 10
248.061
 20
32.9393
 11
247.833
 21
32.7528
  0
LINE
  8
0
 10
247.833
 20
32.7528
 11
247.574
 21
32.6142
  0
LINE
  8
0
 10
247.574
 20
32.6142
 11
247.293
 21
32.5288
  0
LINE
  8
0
 10
247.293
 20
32.5288
 11
247
 21
32.5
  0
LINE
  8
0
 10
247
 20
32.5
 11
246.707
 21
32.5288
  0
LINE
  8
0
 10
254.707
 20
32.5288
 11
254.426
 21
32.6142
  0
LINE
  8
0
 10
254.426
 20
32.6142
 11
254.167
 21
32.7528
  0
LINE
  8
0
 10
254.167
 20
32.7528
 11
253.939
 21
32.9393
  0
LINE
  8
0
 10
253.939
 20
32.9393
 11
253.753
 21
33.1666
  0
LINE
  8
0
 10
253.753
 20
33.1666
 11
253.614
 21
33.426
  0
LINE
  8
0
 10
253.614
 20
33.426
 11
253.529
 21
33.7074
  0
LINE
  8
0
 10
253.529
 20
33.7074
 11
253.5
 21
34
  0
LINE
  8
0
 10
253.5
 20
34
 11
253.529
 21
34.2926
  0
LINE
  8
0
 10
253.529
 20
34.2926
 11
253.614
 21
34.574
  0
LINE
  8
0
 10
253.614
 20
34.574
 11
253.753
 21
34.8333
  0
LINE
  8
0
 10
253.753
 20
34.8333
 11
253.939
 21
35.0607
  0
LINE
  8
0
 10
253.939
 20
35.0607
 11
254.167
 21
35.2472
  0
LINE
  8
0
 10
254.167
 20
35.2472
 11
254.426
 21
35.3858
  0
LINE
  8
0
 10
254.426
 20
35.3858
 11
254.707
 21
35.4712
  0
LINE
  8
0
 10
254.707
 20
35.4712
 11
255
 21
35.5
  0
LINE
  8
0
 10
255
 20
35.5
 11
255.293
 21
35.4712
  0
LINE
  8
0
 10
255.293
 20
35.4712
 11
255.574
 21
35.3858
  0
LINE
  8
0
 10
255.574
 20
35.3858
 11
255.833
 21
35.2472
  0
LINE
  8
0
 10
255.833
 20
35.2472
 11
256.061
 21
35.0607
  0
LINE
  8
0
 10
256.061
 20
35.0607
 11
256.247
 21
34.8333
  0
LINE
  8
0
 10
256.247
 20
34.8333
 11
256.386
 21
34.574
  0
LINE
  8
0
 10
256.386
 20
34.574
 11
256.471
 21
34.2926
  0
LINE
  8
0
 10
256.471
 20
34.2926
 11
256.5
 21
34
  0
LINE
  8
0
 10
256.5
 20
34
 11
256.471
 21
33.7074
  0
LINE
  8
0
 10
256.471
 20
33.7074
 11
256.386
 21
33.426
  0
LINE
  8
0
 10
256.386
 20
33.426
 11
256.247
 21
33.1666
  0
LINE
  8
0
 10
256.247
 20
33.1666
 11
256.061
 21
32.9393
  0
LINE
  8
0
 10
256.061
 20
32.9393
 11
255.833
 21
32.7528
  0
LINE
  8
0
 10
255.833
 20
32.7528
 11
255.574
 21
32.6142
  0
LINE
  8
0
 10
255.574
 20
32.6142
 11
255.293
 21
32.5288
  0
LINE
  8
0
 10
255.293
 20
32.5288
 11
255
 21
32.5
  0
LINE
  8
0
 10
255
 20
32.5
 11
254.707
 21
32.5288
  0
LINE
  8
0
 10
242.426
 20
35.3858
 11
242.707
 21
35.4712
  0
LINE
  8
0
 10
242.707
 20
35.4712
 11
243
 21
35.5
  0
LINE
  8
0
 10
243
 20
35.5
 11
243.293
 21
35.4712
  0
LINE
  8
0
 10
243.293
 20
35.4712
 11
243.574
 21
35.3858
  0
LINE
  8
0
 10
243.574
 20
35.3858
 11
243.833
 21
35.2472
  0
LINE
  8
0
 10
243.833
 20
35.2472
 11
244.061
 21
35.0607
  0
LINE
  8
0
 10
244.061
 20
35.0607
 11
244.247
 21
34.8333
  0
LINE
  8
0
 10
244.247
 20
34.8333
 11
244.386
 21
34.574
  0
LINE
  8
0
 10
244.386
 20
34.574
 11
244.471
 21
34.2926
  0
LINE
  8
0
 10
244.471
 20
34.2926
 11
244.5
 21
34
  0
LINE
  8
0
 10
244.5
 20
34
 11
244.471
 21
33.7074
  0
LINE
  8
0
 10
244.471
 20
33.7074
 11
244.386
 21
33.426
  0
LINE
  8
0
 10
244.386
 20
33.426
 11
244.247
 21
33.1666
  0
LINE
  8
0
 10
244.247
 20
33.1666
 11
244.061
 21
32.9393
  0
LINE
  8
0
 10
244.061
 20
32.9393
 11
243.833
 21
32.7528
  0
LINE
  8
0
 10
243.833
 20
32.7528
 11
243.574
 21
32.6142
  0
LINE
  8
0
 10
243.574
 20
32.6142
 11
243.293
 21
32.5288
  0
LINE
  8
0
 10
243.293
 20
32.5288
 11
243
 21
32.5
  0
LINE
  8
0
 10
243
 20
32.5
 11
242.707
 21
32.5288
  0
LINE
  8
0
 10
242.707
 20
32.5288
 11
242.426
 21
32.6142
  0
LINE
  8
0
 10
242.426
 20
32.6142
 11
242.167
 21
32.7528
  0
LINE
  8
0
 10
242.167
 20
32.7528
 11
241.939
 21
32.9393
  0
LINE
  8
0
 10
241.939
 20
32.9393
 11
241.753
 21
33.1666
  0
LINE
  8
0
 10
241.753
 20
33.1666
 11
241.614
 21
33.426
  0
LINE
  8
0
 10
241.614
 20
33.426
 11
241.529
 21
33.7074
  0
LINE
  8
0
 10
241.529
 20
33.7074
 11
241.5
 21
34
  0
LINE
  8
0
 10
241.5
 20
34
 11
241.529
 21
34.2926
  0
LINE
  8
0
 10
241.529
 20
34.2926
 11
241.614
 21
34.574
  0
LINE
  8
0
 10
241.614
 20
34.574
 11
241.753
 21
34.8333
  0
LINE
  8
0
 10
241.753
 20
34.8333
 11
241.939
 21
35.0607
  0
LINE
  8
0
 10
241.939
 20
35.0607
 11
242.167
 21
35.2472
  0
LINE
  8
0
 10
242.167
 20
35.2472
 11
242.426
 21
35.3858
  0
LINE
  8
0
 10
234.707
 20
32.5288
 11
234.426
 21
32.6142
  0
LINE
  8
0
 10
234.426
 20
32.6142
 11
234.167
 21
32.7528
  0
LINE
  8
0
 10
234.167
 20
32.7528
 11
233.939
 21
32.9393
  0
LINE
  8
0
 10
233.939
 20
32.9393
 11
233.753
 21
33.1666
  0
LINE
  8
0
 10
233.753
 20
33.1666
 11
233.614
 21
33.426
  0
LINE
  8
0
 10
233.614
 20
33.426
 11
233.529
 21
33.7074
  0
LINE
  8
0
 10
233.529
 20
33.7074
 11
233.5
 21
34
  0
LINE
  8
0
 10
233.5
 20
34
 11
233.529
 21
34.2926
  0
LINE
  8
0
 10
233.529
 20
34.2926
 11
233.614
 21
34.574
  0
LINE
  8
0
 10
233.614
 20
34.574
 11
233.753
 21
34.8333
  0
LINE
  8
0
 10
233.753
 20
34.8333
 11
233.939
 21
35.0607
  0
LINE
  8
0
 10
233.939
 20
35.0607
 11
234.167
 21
35.2472
  0
LINE
  8
0
 10
234.167
 20
35.2472
 11
234.426
 21
35.3858
  0
LINE
  8
0
 10
234.426
 20
35.3858
 11
234.707
 21
35.4712
  0
LINE
  8
0
 10
234.707
 20
35.4712
 11
235
 21
35.5
  0
LINE
  8
0
 10
235
 20
35.5
 11
235.293
 21
35.4712
  0
LINE
  8
0
 10
235.293
 20
35.4712
 11
235.574
 21
35.3858
  0
LINE
  8
0
 10
235.574
 20
35.3858
 11
235.833
 21
35.2472
  0
LINE
  8
0
 10
235.833
 20
35.2472
 11
236.061
 21
35.0607
  0
LINE
  8
0
 10
236.061
 20
35.0607
 11
236.247
 21
34.8333
  0
LINE
  8
0
 10
236.247
 20
34.8333
 11
236.386
 21
34.574
  0
LINE
  8
0
 10
236.386
 20
34.574
 11
236.471
 21
34.2926
  0
LINE
  8
0
 10
236.471
 20
34.2926
 11
236.5
 21
34
  0
LINE
  8
0
 10
236.5
 20
34
 11
236.471
 21
33.7074
  0
LINE
  8
0
 10
236.471
 20
33.7074
 11
236.386
 21
33.426
  0
LINE
  8
0
 10
236.386
 20
33.426
 11
236.247
 21
33.1666
  0
LINE
  8
0
 10
236.247
 20
33.1666
 11
236.061
 21
32.9393
  0
LINE
  8
0
 10
236.061
 20
32.9393
 11
235.833
 21
32.7528
  0
LINE
  8
0
 10
235.833
 20
32.7528
 11
235.574
 21
32.6142
  0
LINE
  8
0
 10
235.574
 20
32.6142
 11
235.293
 21
32.5288
  0
LINE
  8
0
 10
235.293
 20
32.5288
 11
235
 21
32.5
  0
LINE
  8
0
 10
235
 20
32.5
 11
234.707
 21
32.5288
  0
LINE
  8
0
 10
249.529
 20
29.7074
 11
249.5
 21
30
  0
LINE
  8
0
 10
249.5
 20
30
 11
249.529
 21
30.2926
  0
LINE
  8
0
 10
249.529
 20
30.2926
 11
249.614
 21
30.574
  0
LINE
  8
0
 10
249.614
 20
30.574
 11
249.753
 21
30.8333
  0
LINE
  8
0
 10
249.753
 20
30.8333
 11
249.939
 21
31.0607
  0
LINE
  8
0
 10
249.939
 20
31.0607
 11
250.167
 21
31.2472
  0
LINE
  8
0
 10
250.167
 20
31.2472
 11
250.426
 21
31.3858
  0
LINE
  8
0
 10
250.426
 20
31.3858
 11
250.707
 21
31.4712
  0
LINE
  8
0
 10
250.707
 20
31.4712
 11
251
 21
31.5
  0
LINE
  8
0
 10
251
 20
31.5
 11
251.293
 21
31.4712
  0
LINE
  8
0
 10
251.293
 20
31.4712
 11
251.574
 21
31.3858
  0
LINE
  8
0
 10
251.574
 20
31.3858
 11
251.833
 21
31.2472
  0
LINE
  8
0
 10
251.833
 20
31.2472
 11
252.061
 21
31.0607
  0
LINE
  8
0
 10
252.061
 20
31.0607
 11
252.247
 21
30.8333
  0
LINE
  8
0
 10
252.247
 20
30.8333
 11
252.386
 21
30.574
  0
LINE
  8
0
 10
252.386
 20
30.574
 11
252.471
 21
30.2926
  0
LINE
  8
0
 10
252.471
 20
30.2926
 11
252.5
 21
30
  0
LINE
  8
0
 10
252.5
 20
30
 11
252.471
 21
29.7074
  0
LINE
  8
0
 10
252.471
 20
29.7074
 11
252.386
 21
29.426
  0
LINE
  8
0
 10
252.386
 20
29.426
 11
252.247
 21
29.1666
  0
LINE
  8
0
 10
252.247
 20
29.1666
 11
252.061
 21
28.9393
  0
LINE
  8
0
 10
252.061
 20
28.9393
 11
251.833
 21
28.7528
  0
LINE
  8
0
 10
251.833
 20
28.7528
 11
251.574
 21
28.6142
  0
LINE
  8
0
 10
251.574
 20
28.6142
 11
251.293
 21
28.5288
  0
LINE
  8
0
 10
251.293
 20
28.5288
 11
251
 21
28.5
  0
LINE
  8
0
 10
251
 20
28.5
 11
250.707
 21
28.5288
  0
LINE
  8
0
 10
250.707
 20
28.5288
 11
250.426
 21
28.6142
  0
LINE
  8
0
 10
250.426
 20
28.6142
 11
250.167
 21
28.7528
  0
LINE
  8
0
 10
250.167
 20
28.7528
 11
249.939
 21
28.9393
  0
LINE
  8
0
 10
249.939
 20
28.9393
 11
249.753
 21
29.1666
  0
LINE
  8
0
 10
249.753
 20
29.1666
 11
249.614
 21
29.426
  0
LINE
  8
0
 10
249.614
 20
29.426
 11
249.529
 21
29.7074
  0
LINE
  8
0
 10
238.707
 20
28.5288
 11
238.426
 21
28.6142
  0
LINE
  8
0
 10
238.426
 20
28.6142
 11
238.167
 21
28.7528
  0
LINE
  8
0
 10
238.167
 20
28.7528
 11
237.939
 21
28.9393
  0
LINE
  8
0
 10
237.939
 20
28.9393
 11
237.753
 21
29.1666
  0
LINE
  8
0
 10
237.753
 20
29.1666
 11
237.614
 21
29.426
  0
LINE
  8
0
 10
237.614
 20
29.426
 11
237.529
 21
29.7074
  0
LINE
  8
0
 10
237.529
 20
29.7074
 11
237.5
 21
30
  0
LINE
  8
0
 10
237.5
 20
30
 11
237.529
 21
30.2926
  0
LINE
  8
0
 10
237.529
 20
30.2926
 11
237.614
 21
30.574
  0
LINE
  8
0
 10
237.614
 20
30.574
 11
237.753
 21
30.8333
  0
LINE
  8
0
 10
237.753
 20
30.8333
 11
237.939
 21
31.0607
  0
LINE
  8
0
 10
237.939
 20
31.0607
 11
238.167
 21
31.2472
  0
LINE
  8
0
 10
238.167
 20
31.2472
 11
238.426
 21
31.3858
  0
LINE
  8
0
 10
238.426
 20
31.3858
 11
238.707
 21
31.4712
  0
LINE
  8
0
 10
238.707
 20
31.4712
 11
239
 21
31.5
  0
LINE
  8
0
 10
239
 20
31.5
 11
239.293
 21
31.4712
  0
LINE
  8
0
 10
239.293
 20
31.4712
 11
239.574
 21
31.3858
  0
LINE
  8
0
 10
239.574
 20
31.3858
 11
239.833
 21
31.2472
  0
LINE
  8
0
 10
239.833
 20
31.2472
 11
240.061
 21
31.0607
  0
LINE
  8
0
 10
240.061
 20
31.0607
 11
240.247
 21
30.8333
  0
LINE
  8
0
 10
240.247
 20
30.8333
 11
240.386
 21
30.574
  0
LINE
  8
0
 10
240.386
 20
30.574
 11
240.471
 21
30.2926
  0
LINE
  8
0
 10
240.471
 20
30.2926
 11
240.5
 21
30
  0
LINE
  8
0
 10
240.5
 20
30
 11
240.471
 21
29.7074
  0
LINE
  8
0
 10
240.471
 20
29.7074
 11
240.386
 21
29.426
  0
LINE
  8
0
 10
240.386
 20
29.426
 11
240.247
 21
29.1666
  0
LINE
  8
0
 10
240.247
 20
29.1666
 11
240.061
 21
28.9393
  0
LINE
  8
0
 10
240.061
 20
28.9393
 11
239.833
 21
28.7528
  0
LINE
  8
0
 10
239.833
 20
28.7528
 11
239.574
 21
28.6142
  0
LINE
  8
0
 10
239.574
 20
28.6142
 11
239.293
 21
28.5288
  0
LINE
  8
0
 10
239.293
 20
28.5288
 11
239
 21
28.5
  0
LINE
  8
0
 10
239
 20
28.5
 11
238.707
 21
28.5288
  0
LINE
  8
0
 10
234.707
 20
28.5288
 11
234.426
 21
28.6142
  0
LINE
  8
0
 10
234.426
 20
28.6142
 11
234.167
 21
28.7528
  0
LINE
  8
0
 10
234.167
 20
28.7528
 11
233.939
 21
28.9393
  0
LINE
  8
0
 10
233.939
 20
28.9393
 11
233.753
 21
29.1666
  0
LINE
  8
0
 10
233.753
 20
29.1666
 11
233.614
 21
29.426
  0
LINE
  8
0
 10
233.614
 20
29.426
 11
233.529
 21
29.7074
  0
LINE
  8
0
 10
233.529
 20
29.7074
 11
233.5
 21
30
  0
LINE
  8
0
 10
233.5
 20
30
 11
233.529
 21
30.2926
  0
LINE
  8
0
 10
233.529
 20
30.2926
 11
233.614
 21
30.574
  0
LINE
  8
0
 10
233.614
 20
30.574
 11
233.753
 21
30.8333
  0
LINE
  8
0
 10
233.753
 20
30.8333
 11
233.939
 21
31.0607
  0
LINE
  8
0
 10
233.939
 20
31.0607
 11
234.167
 21
31.2472
  0
LINE
  8
0
 10
234.167
 20
31.2472
 11
234.426
 21
31.3858
  0
LINE
  8
0
 10
234.426
 20
31.3858
 11
234.707
 21
31.4712
  0
LINE
  8
0
 10
234.707
 20
31.4712
 11
235
 21
31.5
  0
LINE
  8
0
 10
235
 20
31.5
 11
235.293
 21
31.4712
  0
LINE
  8
0
 10
235.293
 20
31.4712
 11
235.574
 21
31.3858
  0
LINE
  8
0
 10
235.574
 20
31.3858
 11
235.833
 21
31.2472
  0
LINE
  8
0
 10
235.833
 20
31.2472
 11
236.061
 21
31.0607
  0
LINE
  8
0
 10
236.061
 20
31.0607
 11
236.247
 21
30.8333
  0
LINE
  8
0
 10
236.247
 20
30.8333
 11
236.386
 21
30.574
  0
LINE
  8
0
 10
236.386
 20
30.574
 11
236.471
 21
30.2926
  0
LINE
  8
0
 10
236.471
 20
30.2926
 11
236.5
 21
30
  0
LINE
  8
0
 10
236.5
 20
30
 11
236.471
 21
29.7074
  0
LINE
  8
0
 10
236.471
 20
29.7074
 11
236.386
 21
29.426
  0
LINE
  8
0
 10
236.386
 20
29.426
 11
236.247
 21
29.1666
  0
LINE
  8
0
 10
236.247
 20
29.1666
 11
236.061
 21
28.9393
  0
LINE
  8
0
 10
236.061
 20
28.9393
 11
235.833
 21
28.7528
  0
LINE
  8
0
 10
235.833
 20
28.7528
 11
235.574
 21
28.6142
  0
LINE
  8
0
 10
235.574
 20
28.6142
 11
235.293
 21
28.5288
  0
LINE
  8
0
 10
235.293
 20
28.5288
 11
235
 21
28.5
  0
LINE
  8
0
 10
235
 20
28.5
 11
234.707
 21
28.5288
  0
LINE
  8
0
 10
242.707
 20
28.5288
 11
242.426
 21
28.6142
  0
LINE
  8
0
 10
242.426
 20
28.6142
 11
242.167
 21
28.7528
  0
LINE
  8
0
 10
242.167
 20
28.7528
 11
241.939
 21
28.9393
  0
LINE
  8
0
 10
241.939
 20
28.9393
 11
241.753
 21
29.1666
  0
LINE
  8
0
 10
241.753
 20
29.1666
 11
241.614
 21
29.426
  0
LINE
  8
0
 10
241.614
 20
29.426
 11
241.529
 21
29.7074
  0
LINE
  8
0
 10
241.529
 20
29.7074
 11
241.5
 21
30
  0
LINE
  8
0
 10
241.5
 20
30
 11
241.529
 21
30.2926
  0
LINE
  8
0
 10
241.529
 20
30.2926
 11
241.614
 21
30.574
  0
LINE
  8
0
 10
241.614
 20
30.574
 11
241.753
 21
30.8333
  0
LINE
  8
0
 10
241.753
 20
30.8333
 11
241.939
 21
31.0607
  0
LINE
  8
0
 10
241.939
 20
31.0607
 11
242.167
 21
31.2472
  0
LINE
  8
0
 10
242.167
 20
31.2472
 11
242.426
 21
31.3858
  0
LINE
  8
0
 10
242.426
 20
31.3858
 11
242.707
 21
31.4712
  0
LINE
  8
0
 10
242.707
 20
31.4712
 11
243
 21
31.5
  0
LINE
  8
0
 10
243
 20
31.5
 11
243.293
 21
31.4712
  0
LINE
  8
0
 10
243.293
 20
31.4712
 11
243.574
 21
31.3858
  0
LINE
  8
0
 10
243.574
 20
31.3858
 11
243.833
 21
31.2472
  0
LINE
  8
0
 10
243.833
 20
31.2472
 11
244.061
 21
31.0607
  0
LINE
  8
0
 10
244.061
 20
31.0607
 11
244.247
 21
30.8333
  0
LINE
  8
0
 10
244.247
 20
30.8333
 11
244.386
 21
30.574
  0
LINE
  8
0
 10
244.386
 20
30.574
 11
244.471
 21
30.2926
  0
LINE
  8
0
 10
244.471
 20
30.2926
 11
244.5
 21
30
  0
LINE
  8
0
 10
244.5
 20
30
 11
244.471
 21
29.7074
  0
LINE
  8
0
 10
244.471
 20
29.7074
 11
244.386
 21
29.426
  0
LINE
  8
0
 10
244.386
 20
29.426
 11
244.247
 21
29.1666
  0
LINE
  8
0
 10
244.247
 20
29.1666
 11
244.061
 21
28.9393
  0
LINE
  8
0
 10
244.061
 20
28.9393
 11
243.833
 21
28.7528
  0
LINE
  8
0
 10
243.833
 20
28.7528
 11
243.574
 21
28.6142
  0
LINE
  8
0
 10
243.574
 20
28.6142
 11
243.293
 21
28.5288
  0
LINE
  8
0
 10
243.293
 20
28.5288
 11
243
 21
28.5
  0
LINE
  8
0
 10
243
 20
28.5
 11
242.707
 21
28.5288
  0
LINE
  8
0
 10
261.529
 20
29.7074
 11
261.5
 21
30
  0
LINE
  8
0
 10
261.5
 20
30
 11
261.529
 21
30.2926
  0
LINE
  8
0
 10
261.529
 20
30.2926
 11
261.614
 21
30.574
  0
LINE
  8
0
 10
261.614
 20
30.574
 11
261.753
 21
30.8333
  0
LINE
  8
0
 10
261.753
 20
30.8333
 11
261.939
 21
31.0607
  0
LINE
  8
0
 10
261.939
 20
31.0607
 11
262.167
 21
31.2472
  0
LINE
  8
0
 10
262.167
 20
31.2472
 11
262.426
 21
31.3858
  0
LINE
  8
0
 10
262.426
 20
31.3858
 11
262.707
 21
31.4712
  0
LINE
  8
0
 10
262.707
 20
31.4712
 11
263
 21
31.5
  0
LINE
  8
0
 10
263
 20
31.5
 11
263.293
 21
31.4712
  0
LINE
  8
0
 10
263.293
 20
31.4712
 11
263.574
 21
31.3858
  0
LINE
  8
0
 10
263.574
 20
31.3858
 11
263.833
 21
31.2472
  0
LINE
  8
0
 10
263.833
 20
31.2472
 11
264.061
 21
31.0607
  0
LINE
  8
0
 10
264.061
 20
31.0607
 11
264.247
 21
30.8333
  0
LINE
  8
0
 10
264.247
 20
30.8333
 11
264.386
 21
30.574
  0
LINE
  8
0
 10
264.386
 20
30.574
 11
264.471
 21
30.2926
  0
LINE
  8
0
 10
264.471
 20
30.2926
 11
264.5
 21
30
  0
LINE
  8
0
 10
264.5
 20
30
 11
264.471
 21
29.7074
  0
LINE
  8
0
 10
264.471
 20
29.7074
 11
264.386
 21
29.426
  0
LINE
  8
0
 10
264.386
 20
29.426
 11
264.247
 21
29.1666
  0
LINE
  8
0
 10
264.247
 20
29.1666
 11
264.061
 21
28.9393
  0
LINE
  8
0
 10
264.061
 20
28.9393
 11
263.833
 21
28.7528
  0
LINE
  8
0
 10
263.833
 20
28.7528
 11
263.574
 21
28.6142
  0
LINE
  8
0
 10
263.574
 20
28.6142
 11
263.293
 21
28.5288
  0
LINE
  8
0
 10
263.293
 20
28.5288
 11
263
 21
28.5
  0
LINE
  8
0
 10
263
 20
28.5
 11
262.707
 21
28.5288
  0
LINE
  8
0
 10
262.707
 20
28.5288
 11
262.426
 21
28.6142
  0
LINE
  8
0
 10
262.426
 20
28.6142
 11
262.167
 21
28.7528
  0
LINE
  8
0
 10
262.167
 20
28.7528
 11
261.939
 21
28.9393
  0
LINE
  8
0
 10
261.939
 20
28.9393
 11
261.753
 21
29.1666
  0
LINE
  8
0
 10
261.753
 20
29.1666
 11
261.614
 21
29.426
  0
LINE
  8
0
 10
261.614
 20
29.426
 11
261.529
 21
29.7074
  0
LINE
  8
0
 10
254.707
 20
28.5288
 11
254.426
 21
28.6142
  0
LINE
  8
0
 10
254.426
 20
28.6142
 11
254.167
 21
28.7528
  0
LINE
  8
0
 10
254.167
 20
28.7528
 11
253.939
 21
28.9393
  0
LINE
  8
0
 10
253.939
 20
28.9393
 11
253.753
 21
29.1666
  0
LINE
  8
0
 10
253.753
 20
29.1666
 11
253.614
 21
29.426
  0
LINE
  8
0
 10
253.614
 20
29.426
 11
253.529
 21
29.7074
  0
LINE
  8
0
 10
253.529
 20
29.7074
 11
253.5
 21
30
  0
LINE
  8
0
 10
253.5
 20
30
 11
253.529
 21
30.2926
  0
LINE
  8
0
 10
253.529
 20
30.2926
 11
253.614
 21
30.574
  0
LINE
  8
0
 10
253.614
 20
30.574
 11
253.753
 21
30.8333
  0
LINE
  8
0
 10
253.753
 20
30.8333
 11
253.939
 21
31.0607
  0
LINE
  8
0
 10
253.939
 20
31.0607
 11
254.167
 21
31.2472
  0
LINE
  8
0
 10
254.167
 20
31.2472
 11
254.426
 21
31.3858
  0
LINE
  8
0
 10
254.426
 20
31.3858
 11
254.707
 21
31.4712
  0
LINE
  8
0
 10
254.707
 20
31.4712
 11
255
 21
31.5
  0
LINE
  8
0
 10
255
 20
31.5
 11
255.293
 21
31.4712
  0
LINE
  8
0
 10
255.293
 20
31.4712
 11
255.574
 21
31.3858
  0
LINE
  8
0
 10
255.574
 20
31.3858
 11
255.833
 21
31.2472
  0
LINE
  8
0
 10
255.833
 20
31.2472
 11
256.061
 21
31.0607
  0
LINE
  8
0
 10
256.061
 20
31.0607
 11
256.247
 21
30.8333
  0
LINE
  8
0
 10
256.247
 20
30.8333
 11
256.386
 21
30.574
  0
LINE
  8
0
 10
256.386
 20
30.574
 11
256.471
 21
30.2926
  0
LINE
  8
0
 10
256.471
 20
30.2926
 11
256.5
 21
30
  0
LINE
  8
0
 10
256.5
 20
30
 11
256.471
 21
29.7074
  0
LINE
  8
0
 10
256.471
 20
29.7074
 11
256.386
 21
29.426
  0
LINE
  8
0
 10
256.386
 20
29.426
 11
256.247
 21
29.1666
  0
LINE
  8
0
 10
256.247
 20
29.1666
 11
256.061
 21
28.9393
  0
LINE
  8
0
 10
256.061
 20
28.9393
 11
255.833
 21
28.7528
  0
LINE
  8
0
 10
255.833
 20
28.7528
 11
255.574
 21
28.6142
  0
LINE
  8
0
 10
255.574
 20
28.6142
 11
255.293
 21
28.5288
  0
LINE
  8
0
 10
255.293
 20
28.5288
 11
255
 21
28.5
  0
LINE
  8
0
 10
255
 20
28.5
 11
254.707
 21
28.5288
  0
LINE
  8
0
 10
242.707
 20
24.5288
 11
242.426
 21
24.6142
  0
LINE
  8
0
 10
242.426
 20
24.6142
 11
242.167
 21
24.7528
  0
LINE
  8
0
 10
242.167
 20
24.7528
 11
241.939
 21
24.9393
  0
LINE
  8
0
 10
241.939
 20
24.9393
 11
241.753
 21
25.1666
  0
LINE
  8
0
 10
241.753
 20
25.1666
 11
241.614
 21
25.426
  0
LINE
  8
0
 10
241.614
 20
25.426
 11
241.529
 21
25.7074
  0
LINE
  8
0
 10
241.529
 20
25.7074
 11
241.5
 21
26
  0
LINE
  8
0
 10
241.5
 20
26
 11
241.529
 21
26.2926
  0
LINE
  8
0
 10
241.529
 20
26.2926
 11
241.614
 21
26.574
  0
LINE
  8
0
 10
241.614
 20
26.574
 11
241.753
 21
26.8333
  0
LINE
  8
0
 10
241.753
 20
26.8333
 11
241.939
 21
27.0607
  0
LINE
  8
0
 10
241.939
 20
27.0607
 11
242.167
 21
27.2472
  0
LINE
  8
0
 10
242.167
 20
27.2472
 11
242.426
 21
27.3858
  0
LINE
  8
0
 10
242.426
 20
27.3858
 11
242.707
 21
27.4712
  0
LINE
  8
0
 10
242.707
 20
27.4712
 11
243
 21
27.5
  0
LINE
  8
0
 10
243
 20
27.5
 11
243.293
 21
27.4712
  0
LINE
  8
0
 10
243.293
 20
27.4712
 11
243.574
 21
27.3858
  0
LINE
  8
0
 10
243.574
 20
27.3858
 11
243.833
 21
27.2472
  0
LINE
  8
0
 10
243.833
 20
27.2472
 11
244.061
 21
27.0607
  0
LINE
  8
0
 10
244.061
 20
27.0607
 11
244.247
 21
26.8333
  0
LINE
  8
0
 10
244.247
 20
26.8333
 11
244.386
 21
26.574
  0
LINE
  8
0
 10
244.386
 20
26.574
 11
244.471
 21
26.2926
  0
LINE
  8
0
 10
244.471
 20
26.2926
 11
244.5
 21
26
  0
LINE
  8
0
 10
244.5
 20
26
 11
244.471
 21
25.7074
  0
LINE
  8
0
 10
244.471
 20
25.7074
 11
244.386
 21
25.426
  0
LINE
  8
0
 10
244.386
 20
25.426
 11
244.247
 21
25.1666
  0
LINE
  8
0
 10
244.247
 20
25.1666
 11
244.061
 21
24.9393
  0
LINE
  8
0
 10
244.061
 20
24.9393
 11
243.833
 21
24.7528
  0
LINE
  8
0
 10
243.833
 20
24.7528
 11
243.574
 21
24.6142
  0
LINE
  8
0
 10
243.574
 20
24.6142
 11
243.293
 21
24.5288
  0
LINE
  8
0
 10
243.293
 20
24.5288
 11
243
 21
24.5
  0
LINE
  8
0
 10
243
 20
24.5
 11
242.707
 21
24.5288
  0
LINE
  8
0
 10
262.707
 20
24.5288
 11
262.426
 21
24.6142
  0
LINE
  8
0
 10
262.426
 20
24.6142
 11
262.167
 21
24.7528
  0
LINE
  8
0
 10
262.167
 20
24.7528
 11
261.939
 21
24.9393
  0
LINE
  8
0
 10
261.939
 20
24.9393
 11
261.753
 21
25.1666
  0
LINE
  8
0
 10
261.753
 20
25.1666
 11
261.614
 21
25.426
  0
LINE
  8
0
 10
261.614
 20
25.426
 11
261.529
 21
25.7074
  0
LINE
  8
0
 10
261.529
 20
25.7074
 11
261.5
 21
26
  0
LINE
  8
0
 10
261.5
 20
26
 11
261.529
 21
26.2926
  0
LINE
  8
0
 10
261.529
 20
26.2926
 11
261.614
 21
26.574
  0
LINE
  8
0
 10
261.614
 20
26.574
 11
261.753
 21
26.8333
  0
LINE
  8
0
 10
261.753
 20
26.8333
 11
261.939
 21
27.0607
  0
LINE
  8
0
 10
261.939
 20
27.0607
 11
262.167
 21
27.2472
  0
LINE
  8
0
 10
262.167
 20
27.2472
 11
262.426
 21
27.3858
  0
LINE
  8
0
 10
262.426
 20
27.3858
 11
262.707
 21
27.4712
  0
LINE
  8
0
 10
262.707
 20
27.4712
 11
263
 21
27.5
  0
LINE
  8
0
 10
263
 20
27.5
 11
263.293
 21
27.4712
  0
LINE
  8
0
 10
263.293
 20
27.4712
 11
263.574
 21
27.3858
  0
LINE
  8
0
 10
263.574
 20
27.3858
 11
263.833
 21
27.2472
  0
LINE
  8
0
 10
263.833
 20
27.2472
 11
264.061
 21
27.0607
  0
LINE
  8
0
 10
264.061
 20
27.0607
 11
264.247
 21
26.8333
  0
LINE
  8
0
 10
264.247
 20
26.8333
 11
264.386
 21
26.574
  0
LINE
  8
0
 10
264.386
 20
26.574
 11
264.471
 21
26.2926
  0
LINE
  8
0
 10
264.471
 20
26.2926
 11
264.5
 21
26
  0
LINE
  8
0
 10
264.5
 20
26
 11
264.471
 21
25.7074
  0
LINE
  8
0
 10
264.471
 20
25.7074
 11
264.386
 21
25.426
  0
LINE
  8
0
 10
264.386
 20
25.426
 11
264.247
 21
25.1666
  0
LINE
  8
0
 10
264.247
 20
25.1666
 11
264.061
 21
24.9393
  0
LINE
  8
0
 10
264.061
 20
24.9393
 11
263.833
 21
24.7528
  0
LINE
  8
0
 10
263.833
 20
24.7528
 11
263.574
 21
24.6142
  0
LINE
  8
0
 10
263.574
 20
24.6142
 11
263.293
 21
24.5288
  0
LINE
  8
0
 10
263.293
 20
24.5288
 11
263
 21
24.5
  0
LINE
  8
0
 10
263
 20
24.5
 11
262.707
 21
24.5288
  0
LINE
  8
0
 10
250.707
 20
24.5288
 11
250.426
 21
24.6142
  0
LINE
  8
0
 10
250.426
 20
24.6142
 11
250.167
 21
24.7528
  0
LINE
  8
0
 10
250.167
 20
24.7528
 11
249.939
 21
24.9393
  0
LINE
  8
0
 10
249.939
 20
24.9393
 11
249.753
 21
25.1666
  0
LINE
  8
0
 10
249.753
 20
25.1666
 11
249.614
 21
25.426
  0
LINE
  8
0
 10
249.614
 20
25.426
 11
249.529
 21
25.7074
  0
LINE
  8
0
 10
249.529
 20
25.7074
 11
249.5
 21
26
  0
LINE
  8
0
 10
249.5
 20
26
 11
249.529
 21
26.2926
  0
LINE
  8
0
 10
249.529
 20
26.2926
 11
249.614
 21
26.574
  0
LINE
  8
0
 10
249.614
 20
26.574
 11
249.753
 21
26.8333
  0
LINE
  8
0
 10
249.753
 20
26.8333
 11
249.939
 21
27.0607
  0
LINE
  8
0
 10
249.939
 20
27.0607
 11
250.167
 21
27.2472
  0
LINE
  8
0
 10
250.167
 20
27.2472
 11
250.426
 21
27.3858
  0
LINE
  8
0
 10
250.426
 20
27.3858
 11
250.707
 21
27.4712
  0
LINE
  8
0
 10
250.707
 20
27.4712
 11
251
 21
27.5
  0
LINE
  8
0
 10
251
 20
27.5
 11
251.293
 21
27.4712
  0
LINE
  8
0
 10
251.293
 20
27.4712
 11
251.574
 21
27.3858
  0
LINE
  8
0
 10
251.574
 20
27.3858
 11
251.833
 21
27.2472
  0
LINE
  8
0
 10
251.833
 20
27.2472
 11
252.061
 21
27.0607
  0
LINE
  8
0
 10
252.061
 20
27.0607
 11
252.247
 21
26.8333
  0
LINE
  8
0
 10
252.247
 20
26.8333
 11
252.386
 21
26.574
  0
LINE
  8
0
 10
252.386
 20
26.574
 11
252.471
 21
26.2926
  0
LINE
  8
0
 10
252.471
 20
26.2926
 11
252.5
 21
26
  0
LINE
  8
0
 10
252.5
 20
26
 11
252.471
 21
25.7074
  0
LINE
  8
0
 10
252.471
 20
25.7074
 11
252.386
 21
25.426
  0
LINE
  8
0
 10
252.386
 20
25.426
 11
252.247
 21
25.1666
  0
LINE
  8
0
 10
252.247
 20
25.1666
 11
252.061
 21
24.9393
  0
LINE
  8
0
 10
252.061
 20
24.9393
 11
251.833
 21
24.7528
  0
LINE
  8
0
 10
251.833
 20
24.7528
 11
251.574
 21
24.6142
  0
LINE
  8
0
 10
251.574
 20
24.6142
 11
251.293
 21
24.5288
  0
LINE
  8
0
 10
251.293
 20
24.5288
 11
251
 21
24.5
  0
LINE
  8
0
 10
251
 20
24.5
 11
250.707
 21
24.5288
  0
LINE
  8
0
 10
254.707
 20
24.5288
 11
254.426
 21
24.6142
  0
LINE
  8
0
 10
254.426
 20
24.6142
 11
254.167
 21
24.7528
  0
LINE
  8
0
 10
254.167
 20
24.7528
 11
253.939
 21
24.9393
  0
LINE
  8
0
 10
253.939
 20
24.9393
 11
253.753
 21
25.1666
  0
LINE
  8
0
 10
253.753
 20
25.1666
 11
253.614
 21
25.426
  0
LINE
  8
0
 10
253.614
 20
25.426
 11
253.529
 21
25.7074
  0
LINE
  8
0
 10
253.529
 20
25.7074
 11
253.5
 21
26
  0
LINE
  8
0
 10
253.5
 20
26
 11
253.529
 21
26.2926
  0
LINE
  8
0
 10
253.529
 20
26.2926
 11
253.614
 21
26.574
  0
LINE
  8
0
 10
253.614
 20
26.574
 11
253.753
 21
26.8333
  0
LINE
  8
0
 10
253.753
 20
26.8333
 11
253.939
 21
27.0607
  0
LINE
  8
0
 10
253.939
 20
27.0607
 11
254.167
 21
27.2472
  0
LINE
  8
0
 10
254.167
 20
27.2472
 11
254.426
 21
27.3858
  0
LINE
  8
0
 10
254.426
 20
27.3858
 11
254.707
 21
27.4712
  0
LINE
  8
0
 10
254.707
 20
27.4712
 11
255
 21
27.5
  0
LINE
  8
0
 10
255
 20
27.5
 11
255.293
 21
27.4712
  0
LINE
  8
0
 10
255.293
 20
27.4712
 11
255.574
 21
27.3858
  0
LINE
  8
0
 10
255.574
 20
27.3858
 11
255.833
 21
27.2472
  0
LINE
  8
0
 10
255.833
 20
27.2472
 11
256.061
 21
27.0607
  0
LINE
  8
0
 10
256.061
 20
27.0607
 11
256.247
 21
26.8333
  0
LINE
  8
0
 10
256.247
 20
26.8333
 11
256.386
 21
26.574
  0
LINE
  8
0
 10
256.386
 20
26.574
 11
256.471
 21
26.2926
  0
LINE
  8
0
 10
256.471
 20
26.2926
 11
256.5
 21
26
  0
LINE
  8
0
 10
256.5
 20
26
 11
256.471
 21
25.7074
  0
LINE
  8
0
 10
256.471
 20
25.7074
 11
256.386
 21
25.426
  0
LINE
  8
0
 10
256.386
 20
25.426
 11
256.247
 21
25.1666
  0
LINE
  8
0
 10
256.247
 20
25.1666
 11
256.061
 21
24.9393
  0
LINE
  8
0
 10
256.061
 20
24.9393
 11
255.833
 21
24.7528
  0
LINE
  8
0
 10
255.833
 20
24.7528
 11
255.574
 21
24.6142
  0
LINE
  8
0
 10
255.574
 20
24.6142
 11
255.293
 21
24.5288
  0
LINE
  8
0
 10
255.293
 20
24.5288
 11
255
 21
24.5
  0
LINE
  8
0
 10
255
 20
24.5
 11
254.707
 21
24.5288
  0
LINE
  8
0
 10
234.707
 20
24.5288
 11
234.426
 21
24.6142
  0
LINE
  8
0
 10
234.426
 20
24.6142
 11
234.167
 21
24.7528
  0
LINE
  8
0
 10
234.167
 20
24.7528
 11
233.939
 21
24.9393
  0
LINE
  8
0
 10
233.939
 20
24.9393
 11
233.753
 21
25.1666
  0
LINE
  8
0
 10
233.753
 20
25.1666
 11
233.614
 21
25.426
  0
LINE
  8
0
 10
233.614
 20
25.426
 11
233.529
 21
25.7074
  0
LINE
  8
0
 10
233.529
 20
25.7074
 11
233.5
 21
26
  0
LINE
  8
0
 10
233.5
 20
26
 11
233.529
 21
26.2926
  0
LINE
  8
0
 10
233.529
 20
26.2926
 11
233.614
 21
26.574
  0
LINE
  8
0
 10
233.614
 20
26.574
 11
233.753
 21
26.8333
  0
LINE
  8
0
 10
233.753
 20
26.8333
 11
233.939
 21
27.0607
  0
LINE
  8
0
 10
233.939
 20
27.0607
 11
234.167
 21
27.2472
  0
LINE
  8
0
 10
234.167
 20
27.2472
 11
234.426
 21
27.3858
  0
LINE
  8
0
 10
234.426
 20
27.3858
 11
234.707
 21
27.4712
  0
LINE
  8
0
 10
234.707
 20
27.4712
 11
235
 21
27.5
  0
LINE
  8
0
 10
235
 20
27.5
 11
235.293
 21
27.4712
  0
LINE
  8
0
 10
235.293
 20
27.4712
 11
235.574
 21
27.3858
  0
LINE
  8
0
 10
235.574
 20
27.3858
 11
235.833
 21
27.2472
  0
LINE
  8
0
 10
235.833
 20
27.2472
 11
236.061
 21
27.0607
  0
LINE
  8
0
 10
236.061
 20
27.0607
 11
236.247
 21
26.8333
  0
LINE
  8
0
 10
236.247
 20
26.8333
 11
236.386
 21
26.574
  0
LINE
  8
0
 10
236.386
 20
26.574
 11
236.471
 21
26.2926
  0
LINE
  8
0
 10
236.471
 20
26.2926
 11
236.5
 21
26
  0
LINE
  8
0
 10
236.5
 20
26
 11
236.471
 21
25.7074
  0
LINE
  8
0
 10
236.471
 20
25.7074
 11
236.386
 21
25.426
  0
LINE
  8
0
 10
236.386
 20
25.426
 11
236.247
 21
25.1666
  0
LINE
  8
0
 10
236.247
 20
25.1666
 11
236.061
 21
24.9393
  0
LINE
  8
0
 10
236.061
 20
24.9393
 11
235.833
 21
24.7528
  0
LINE
  8
0
 10
235.833
 20
24.7528
 11
235.574
 21
24.6142
  0
LINE
  8
0
 10
235.574
 20
24.6142
 11
235.293
 21
24.5288
  0
LINE
  8
0
 10
235.293
 20
24.5288
 11
235
 21
24.5
  0
LINE
  8
0
 10
235
 20
24.5
 11
234.707
 21
24.5288
  0
LINE
  8
0
 10
246.707
 20
24.5288
 11
246.426
 21
24.6142
  0
LINE
  8
0
 10
246.426
 20
24.6142
 11
246.167
 21
24.7528
  0
LINE
  8
0
 10
246.167
 20
24.7528
 11
245.939
 21
24.9393
  0
LINE
  8
0
 10
245.939
 20
24.9393
 11
245.753
 21
25.1666
  0
LINE
  8
0
 10
245.753
 20
25.1666
 11
245.614
 21
25.426
  0
LINE
  8
0
 10
245.614
 20
25.426
 11
245.529
 21
25.7074
  0
LINE
  8
0
 10
245.529
 20
25.7074
 11
245.5
 21
26
  0
LINE
  8
0
 10
245.5
 20
26
 11
245.529
 21
26.2926
  0
LINE
  8
0
 10
245.529
 20
26.2926
 11
245.614
 21
26.574
  0
LINE
  8
0
 10
245.614
 20
26.574
 11
245.753
 21
26.8333
  0
LINE
  8
0
 10
245.753
 20
26.8333
 11
245.939
 21
27.0607
  0
LINE
  8
0
 10
245.939
 20
27.0607
 11
246.167
 21
27.2472
  0
LINE
  8
0
 10
246.167
 20
27.2472
 11
246.426
 21
27.3858
  0
LINE
  8
0
 10
246.426
 20
27.3858
 11
246.707
 21
27.4712
  0
LINE
  8
0
 10
246.707
 20
27.4712
 11
247
 21
27.5
  0
LINE
  8
0
 10
247
 20
27.5
 11
247.293
 21
27.4712
  0
LINE
  8
0
 10
247.293
 20
27.4712
 11
247.574
 21
27.3858
  0
LINE
  8
0
 10
247.574
 20
27.3858
 11
247.833
 21
27.2472
  0
LINE
  8
0
 10
247.833
 20
27.2472
 11
248.061
 21
27.0607
  0
LINE
  8
0
 10
248.061
 20
27.0607
 11
248.247
 21
26.8333
  0
LINE
  8
0
 10
248.247
 20
26.8333
 11
248.386
 21
26.574
  0
LINE
  8
0
 10
248.386
 20
26.574
 11
248.471
 21
26.2926
  0
LINE
  8
0
 10
248.471
 20
26.2926
 11
248.5
 21
26
  0
LINE
  8
0
 10
248.5
 20
26
 11
248.471
 21
25.7074
  0
LINE
  8
0
 10
248.471
 20
25.7074
 11
248.386
 21
25.426
  0
LINE
  8
0
 10
248.386
 20
25.426
 11
248.247
 21
25.1666
  0
LINE
  8
0
 10
248.247
 20
25.1666
 11
248.061
 21
24.9393
  0
LINE
  8
0
 10
248.061
 20
24.9393
 11
247.833
 21
24.7528
  0
LINE
  8
0
 10
247.833
 20
24.7528
 11
247.574
 21
24.6142
  0
LINE
  8
0
 10
247.574
 20
24.6142
 11
247.293
 21
24.5288
  0
LINE
  8
0
 10
247.293
 20
24.5288
 11
247
 21
24.5
  0
LINE
  8
0
 10
247
 20
24.5
 11
246.707
 21
24.5288
  0
LINE
  8
0
 10
238.707
 20
24.5288
 11
238.426
 21
24.6142
  0
LINE
  8
0
 10
238.426
 20
24.6142
 11
238.167
 21
24.7528
  0
LINE
  8
0
 10
238.167
 20
24.7528
 11
237.939
 21
24.9393
  0
LINE
  8
0
 10
237.939
 20
24.9393
 11
237.753
 21
25.1666
  0
LINE
  8
0
 10
237.753
 20
25.1666
 11
237.614
 21
25.426
  0
LINE
  8
0
 10
237.614
 20
25.426
 11
237.529
 21
25.7074
  0
LINE
  8
0
 10
237.529
 20
25.7074
 11
237.5
 21
26
  0
LINE
  8
0
 10
237.5
 20
26
 11
237.529
 21
26.2926
  0
LINE
  8
0
 10
237.529
 20
26.2926
 11
237.614
 21
26.574
  0
LINE
  8
0
 10
237.614
 20
26.574
 11
237.753
 21
26.8333
  0
LINE
  8
0
 10
237.753
 20
26.8333
 11
237.939
 21
27.0607
  0
LINE
  8
0
 10
237.939
 20
27.0607
 11
238.167
 21
27.2472
  0
LINE
  8
0
 10
238.167
 20
27.2472
 11
238.426
 21
27.3858
  0
LINE
  8
0
 10
238.426
 20
27.3858
 11
238.707
 21
27.4712
  0
LINE
  8
0
 10
238.707
 20
27.4712
 11
239
 21
27.5
  0
LINE
  8
0
 10
239
 20
27.5
 11
239.293
 21
27.4712
  0
LINE
  8
0
 10
239.293
 20
27.4712
 11
239.574
 21
27.3858
  0
LINE
  8
0
 10
239.574
 20
27.3858
 11
239.833
 21
27.2472
  0
LINE
  8
0
 10
239.833
 20
27.2472
 11
240.061
 21
27.0607
  0
LINE
  8
0
 10
240.061
 20
27.0607
 11
240.247
 21
26.8333
  0
LINE
  8
0
 10
240.247
 20
26.8333
 11
240.386
 21
26.574
  0
LINE
  8
0
 10
240.386
 20
26.574
 11
240.471
 21
26.2926
  0
LINE
  8
0
 10
240.471
 20
26.2926
 11
240.5
 21
26
  0
LINE
  8
0
 10
240.5
 20
26
 11
240.471
 21
25.7074
  0
LINE
  8
0
 10
240.471
 20
25.7074
 11
240.386
 21
25.426
  0
LINE
  8
0
 10
240.386
 20
25.426
 11
240.247
 21
25.1666
  0
LINE
  8
0
 10
240.247
 20
25.1666
 11
240.061
 21
24.9393
  0
LINE
  8
0
 10
240.061
 20
24.9393
 11
239.833
 21
24.7528
  0
LINE
  8
0
 10
239.833
 20
24.7528
 11
239.574
 21
24.6142
  0
LINE
  8
0
 10
239.574
 20
24.6142
 11
239.293
 21
24.5288
  0
LINE
  8
0
 10
239.293
 20
24.5288
 11
239
 21
24.5
  0
LINE
  8
0
 10
239
 20
24.5
 11
238.707
 21
24.5288
  0
LINE
  8
0
 10
258.707
 20
24.5288
 11
258.426
 21
24.6142
  0
LINE
  8
0
 10
258.426
 20
24.6142
 11
258.167
 21
24.7528
  0
LINE
  8
0
 10
258.167
 20
24.7528
 11
257.939
 21
24.9393
  0
LINE
  8
0
 10
257.939
 20
24.9393
 11
257.753
 21
25.1666
  0
LINE
  8
0
 10
257.753
 20
25.1666
 11
257.614
 21
25.426
  0
LINE
  8
0
 10
257.614
 20
25.426
 11
257.529
 21
25.7074
  0
LINE
  8
0
 10
257.529
 20
25.7074
 11
257.5
 21
26
  0
LINE
  8
0
 10
257.5
 20
26
 11
257.529
 21
26.2926
  0
LINE
  8
0
 10
257.529
 20
26.2926
 11
257.614
 21
26.574
  0
LINE
  8
0
 10
257.614
 20
26.574
 11
257.753
 21
26.8333
  0
LINE
  8
0
 10
257.753
 20
26.8333
 11
257.939
 21
27.0607
  0
LINE
  8
0
 10
257.939
 20
27.0607
 11
258.167
 21
27.2472
  0
LINE
  8
0
 10
258.167
 20
27.2472
 11
258.426
 21
27.3858
  0
LINE
  8
0
 10
258.426
 20
27.3858
 11
258.707
 21
27.4712
  0
LINE
  8
0
 10
258.707
 20
27.4712
 11
259
 21
27.5
  0
LINE
  8
0
 10
259
 20
27.5
 11
259.293
 21
27.4712
  0
LINE
  8
0
 10
259.293
 20
27.4712
 11
259.574
 21
27.3858
  0
LINE
  8
0
 10
259.574
 20
27.3858
 11
259.833
 21
27.2472
  0
LINE
  8
0
 10
259.833
 20
27.2472
 11
260.061
 21
27.0607
  0
LINE
  8
0
 10
260.061
 20
27.0607
 11
260.247
 21
26.8333
  0
LINE
  8
0
 10
260.247
 20
26.8333
 11
260.386
 21
26.574
  0
LINE
  8
0
 10
260.386
 20
26.574
 11
260.471
 21
26.2926
  0
LINE
  8
0
 10
260.471
 20
26.2926
 11
260.5
 21
26
  0
LINE
  8
0
 10
260.5
 20
26
 11
260.471
 21
25.7074
  0
LINE
  8
0
 10
260.471
 20
25.7074
 11
260.386
 21
25.426
  0
LINE
  8
0
 10
260.386
 20
25.426
 11
260.247
 21
25.1666
  0
LINE
  8
0
 10
260.247
 20
25.1666
 11
260.061
 21
24.9393
  0
LINE
  8
0
 10
260.061
 20
24.9393
 11
259.833
 21
24.7528
  0
LINE
  8
0
 10
259.833
 20
24.7528
 11
259.574
 21
24.6142
  0
LINE
  8
0
 10
259.574
 20
24.6142
 11
259.293
 21
24.5288
  0
LINE
  8
0
 10
259.293
 20
24.5288
 11
259
 21
24.5
  0
LINE
  8
0
 10
259
 20
24.5
 11
258.707
 21
24.5288
  0
LINE
  8
0
 10
249.529
 20
21.7074
 11
249.5
 21
22
  0
LINE
  8
0
 10
249.5
 20
22
 11
249.529
 21
22.2926
  0
LINE
  8
0
 10
249.529
 20
22.2926
 11
249.614
 21
22.574
  0
LINE
  8
0
 10
249.614
 20
22.574
 11
249.753
 21
22.8333
  0
LINE
  8
0
 10
249.753
 20
22.8333
 11
249.939
 21
23.0607
  0
LINE
  8
0
 10
249.939
 20
23.0607
 11
250.167
 21
23.2472
  0
LINE
  8
0
 10
250.167
 20
23.2472
 11
250.426
 21
23.3858
  0
LINE
  8
0
 10
250.426
 20
23.3858
 11
250.707
 21
23.4712
  0
LINE
  8
0
 10
250.707
 20
23.4712
 11
251
 21
23.5
  0
LINE
  8
0
 10
251
 20
23.5
 11
251.293
 21
23.4712
  0
LINE
  8
0
 10
251.293
 20
23.4712
 11
251.574
 21
23.3858
  0
LINE
  8
0
 10
251.574
 20
23.3858
 11
251.833
 21
23.2472
  0
LINE
  8
0
 10
251.833
 20
23.2472
 11
252.061
 21
23.0607
  0
LINE
  8
0
 10
252.061
 20
23.0607
 11
252.247
 21
22.8333
  0
LINE
  8
0
 10
252.247
 20
22.8333
 11
252.386
 21
22.574
  0
LINE
  8
0
 10
252.386
 20
22.574
 11
252.471
 21
22.2926
  0
LINE
  8
0
 10
252.471
 20
22.2926
 11
252.5
 21
22
  0
LINE
  8
0
 10
252.5
 20
22
 11
252.471
 21
21.7074
  0
LINE
  8
0
 10
252.471
 20
21.7074
 11
252.386
 21
21.426
  0
LINE
  8
0
 10
252.386
 20
21.426
 11
252.247
 21
21.1666
  0
LINE
  8
0
 10
252.247
 20
21.1666
 11
252.061
 21
20.9393
  0
LINE
  8
0
 10
252.061
 20
20.9393
 11
251.833
 21
20.7528
  0
LINE
  8
0
 10
251.833
 20
20.7528
 11
251.574
 21
20.6142
  0
LINE
  8
0
 10
251.574
 20
20.6142
 11
251.293
 21
20.5288
  0
LINE
  8
0
 10
251.293
 20
20.5288
 11
251
 21
20.5
  0
LINE
  8
0
 10
251
 20
20.5
 11
250.707
 21
20.5288
  0
LINE
  8
0
 10
250.707
 20
20.5288
 11
250.426
 21
20.6142
  0
LINE
  8
0
 10
250.426
 20
20.6142
 11
250.167
 21
20.7528
  0
LINE
  8
0
 10
250.167
 20
20.7528
 11
249.939
 21
20.9393
  0
LINE
  8
0
 10
249.939
 20
20.9393
 11
249.753
 21
21.1666
  0
LINE
  8
0
 10
249.753
 20
21.1666
 11
249.614
 21
21.426
  0
LINE
  8
0
 10
249.614
 20
21.426
 11
249.529
 21
21.7074
  0
LINE
  8
0
 10
262.707
 20
20.5288
 11
262.426
 21
20.6142
  0
LINE
  8
0
 10
262.426
 20
20.6142
 11
262.167
 21
20.7528
  0
LINE
  8
0
 10
262.167
 20
20.7528
 11
261.939
 21
20.9393
  0
LINE
  8
0
 10
261.939
 20
20.9393
 11
261.753
 21
21.1666
  0
LINE
  8
0
 10
261.753
 20
21.1666
 11
261.614
 21
21.426
  0
LINE
  8
0
 10
261.614
 20
21.426
 11
261.529
 21
21.7074
  0
LINE
  8
0
 10
261.529
 20
21.7074
 11
261.5
 21
22
  0
LINE
  8
0
 10
261.5
 20
22
 11
261.529
 21
22.2926
  0
LINE
  8
0
 10
261.529
 20
22.2926
 11
261.614
 21
22.574
  0
LINE
  8
0
 10
261.614
 20
22.574
 11
261.753
 21
22.8333
  0
LINE
  8
0
 10
261.753
 20
22.8333
 11
261.939
 21
23.0607
  0
LINE
  8
0
 10
261.939
 20
23.0607
 11
262.167
 21
23.2472
  0
LINE
  8
0
 10
262.167
 20
23.2472
 11
262.426
 21
23.3858
  0
LINE
  8
0
 10
262.426
 20
23.3858
 11
262.707
 21
23.4712
  0
LINE
  8
0
 10
262.707
 20
23.4712
 11
263
 21
23.5
  0
LINE
  8
0
 10
263
 20
23.5
 11
263.293
 21
23.4712
  0
LINE
  8
0
 10
263.293
 20
23.4712
 11
263.574
 21
23.3858
  0
LINE
  8
0
 10
263.574
 20
23.3858
 11
263.833
 21
23.2472
  0
LINE
  8
0
 10
263.833
 20
23.2472
 11
264.061
 21
23.0607
  0
LINE
  8
0
 10
264.061
 20
23.0607
 11
264.247
 21
22.8333
  0
LINE
  8
0
 10
264.247
 20
22.8333
 11
264.386
 21
22.574
  0
LINE
  8
0
 10
264.386
 20
22.574
 11
264.471
 21
22.2926
  0
LINE
  8
0
 10
264.471
 20
22.2926
 11
264.5
 21
22
  0
LINE
  8
0
 10
264.5
 20
22
 11
264.471
 21
21.7074
  0
LINE
  8
0
 10
264.471
 20
21.7074
 11
264.386
 21
21.426
  0
LINE
  8
0
 10
264.386
 20
21.426
 11
264.247
 21
21.1666
  0
LINE
  8
0
 10
264.247
 20
21.1666
 11
264.061
 21
20.9393
  0
LINE
  8
0
 10
264.061
 20
20.9393
 11
263.833
 21
20.7528
  0
LINE
  8
0
 10
263.833
 20
20.7528
 11
263.574
 21
20.6142
  0
LINE
  8
0
 10
263.574
 20
20.6142
 11
263.293
 21
20.5288
  0
LINE
  8
0
 10
263.293
 20
20.5288
 11
263
 21
20.5
  0
LINE
  8
0
 10
263
 20
20.5
 11
262.707
 21
20.5288
  0
LINE
  8
0
 10
257.529
 20
21.7074
 11
257.5
 21
22
  0
LINE
  8
0
 10
257.5
 20
22
 11
257.529
 21
22.2926
  0
LINE
  8
0
 10
257.529
 20
22.2926
 11
257.614
 21
22.574
  0
LINE
  8
0
 10
257.614
 20
22.574
 11
257.753
 21
22.8333
  0
LINE
  8
0
 10
257.753
 20
22.8333
 11
257.939
 21
23.0607
  0
LINE
  8
0
 10
257.939
 20
23.0607
 11
258.167
 21
23.2472
  0
LINE
  8
0
 10
258.167
 20
23.2472
 11
258.426
 21
23.3858
  0
LINE
  8
0
 10
258.426
 20
23.3858
 11
258.707
 21
23.4712
  0
LINE
  8
0
 10
258.707
 20
23.4712
 11
259
 21
23.5
  0
LINE
  8
0
 10
259
 20
23.5
 11
259.293
 21
23.4712
  0
LINE
  8
0
 10
259.293
 20
23.4712
 11
259.574
 21
23.3858
  0
LINE
  8
0
 10
259.574
 20
23.3858
 11
259.833
 21
23.2472
  0
LINE
  8
0
 10
259.833
 20
23.2472
 11
260.061
 21
23.0607
  0
LINE
  8
0
 10
260.061
 20
23.0607
 11
260.247
 21
22.8333
  0
LINE
  8
0
 10
260.247
 20
22.8333
 11
260.386
 21
22.574
  0
LINE
  8
0
 10
260.386
 20
22.574
 11
260.471
 21
22.2926
  0
LINE
  8
0
 10
260.471
 20
22.2926
 11
260.5
 21
22
  0
LINE
  8
0
 10
260.5
 20
22
 11
260.471
 21
21.7074
  0
LINE
  8
0
 10
260.471
 20
21.7074
 11
260.386
 21
21.426
  0
LINE
  8
0
 10
260.386
 20
21.426
 11
260.247
 21
21.1666
  0
LINE
  8
0
 10
260.247
 20
21.1666
 11
260.061
 21
20.9393
  0
LINE
  8
0
 10
260.061
 20
20.9393
 11
259.833
 21
20.7528
  0
LINE
  8
0
 10
259.833
 20
20.7528
 11
259.574
 21
20.6142
  0
LINE
  8
0
 10
259.574
 20
20.6142
 11
259.293
 21
20.5288
  0
LINE
  8
0
 10
259.293
 20
20.5288
 11
259
 21
20.5
  0
LINE
  8
0
 10
259
 20
20.5
 11
258.707
 21
20.5288
  0
LINE
  8
0
 10
258.707
 20
20.5288
 11
258.426
 21
20.6142
  0
LINE
  8
0
 10
258.426
 20
20.6142
 11
258.167
 21
20.7528
  0
LINE
  8
0
 10
258.167
 20
20.7528
 11
257.939
 21
20.9393
  0
LINE
  8
0
 10
257.939
 20
20.9393
 11
257.753
 21
21.1666
  0
LINE
  8
0
 10
257.753
 20
21.1666
 11
257.614
 21
21.426
  0
LINE
  8
0
 10
257.614
 20
21.426
 11
257.529
 21
21.7074
  0
LINE
  8
0
 10
241.614
 20
21.426
 11
241.529
 21
21.7074
  0
LINE
  8
0
 10
241.529
 20
21.7074
 11
241.5
 21
22
  0
LINE
  8
0
 10
241.5
 20
22
 11
241.529
 21
22.2926
  0
LINE
  8
0
 10
241.529
 20
22.2926
 11
241.614
 21
22.574
  0
LINE
  8
0
 10
241.614
 20
22.574
 11
241.753
 21
22.8333
  0
LINE
  8
0
 10
241.753
 20
22.8333
 11
241.939
 21
23.0607
  0
LINE
  8
0
 10
241.939
 20
23.0607
 11
242.167
 21
23.2472
  0
LINE
  8
0
 10
242.167
 20
23.2472
 11
242.426
 21
23.3858
  0
LINE
  8
0
 10
242.426
 20
23.3858
 11
242.707
 21
23.4712
  0
LINE
  8
0
 10
242.707
 20
23.4712
 11
243
 21
23.5
  0
LINE
  8
0
 10
243
 20
23.5
 11
243.293
 21
23.4712
  0
LINE
  8
0
 10
243.293
 20
23.4712
 11
243.574
 21
23.3858
  0
LINE
  8
0
 10
243.574
 20
23.3858
 11
243.833
 21
23.2472
  0
LINE
  8
0
 10
243.833
 20
23.2472
 11
244.061
 21
23.0607
  0
LINE
  8
0
 10
244.061
 20
23.0607
 11
244.247
 21
22.8333
  0
LINE
  8
0
 10
244.247
 20
22.8333
 11
244.386
 21
22.574
  0
LINE
  8
0
 10
244.386
 20
22.574
 11
244.471
 21
22.2926
  0
LINE
  8
0
 10
244.471
 20
22.2926
 11
244.5
 21
22
  0
LINE
  8
0
 10
244.5
 20
22
 11
244.471
 21
21.7074
  0
LINE
  8
0
 10
244.471
 20
21.7074
 11
244.386
 21
21.426
  0
LINE
  8
0
 10
244.386
 20
21.426
 11
244.247
 21
21.1666
  0
LINE
  8
0
 10
244.247
 20
21.1666
 11
244.061
 21
20.9393
  0
LINE
  8
0
 10
244.061
 20
20.9393
 11
243.833
 21
20.7528
  0
LINE
  8
0
 10
243.833
 20
20.7528
 11
243.574
 21
20.6142
  0
LINE
  8
0
 10
243.574
 20
20.6142
 11
243.293
 21
20.5288
  0
LINE
  8
0
 10
243.293
 20
20.5288
 11
243
 21
20.5
  0
LINE
  8
0
 10
243
 20
20.5
 11
242.707
 21
20.5288
  0
LINE
  8
0
 10
242.707
 20
20.5288
 11
242.426
 21
20.6142
  0
LINE
  8
0
 10
242.426
 20
20.6142
 11
242.167
 21
20.7528
  0
LINE
  8
0
 10
242.167
 20
20.7528
 11
241.939
 21
20.9393
  0
LINE
  8
0
 10
241.939
 20
20.9393
 11
241.753
 21
21.1666
  0
LINE
  8
0
 10
241.753
 20
21.1666
 11
241.614
 21
21.426
  0
LINE
  8
0
 10
262.707
 20
16.5288
 11
262.426
 21
16.6142
  0
LINE
  8
0
 10
262.426
 20
16.6142
 11
262.167
 21
16.7528
  0
LINE
  8
0
 10
262.167
 20
16.7528
 11
261.939
 21
16.9393
  0
LINE
  8
0
 10
261.939
 20
16.9393
 11
261.753
 21
17.1666
  0
LINE
  8
0
 10
261.753
 20
17.1666
 11
261.614
 21
17.426
  0
LINE
  8
0
 10
261.614
 20
17.426
 11
261.529
 21
17.7074
  0
LINE
  8
0
 10
261.529
 20
17.7074
 11
261.5
 21
18
  0
LINE
  8
0
 10
261.5
 20
18
 11
261.529
 21
18.2926
  0
LINE
  8
0
 10
261.529
 20
18.2926
 11
261.614
 21
18.574
  0
LINE
  8
0
 10
261.614
 20
18.574
 11
261.753
 21
18.8333
  0
LINE
  8
0
 10
261.753
 20
18.8333
 11
261.939
 21
19.0607
  0
LINE
  8
0
 10
261.939
 20
19.0607
 11
262.167
 21
19.2472
  0
LINE
  8
0
 10
262.167
 20
19.2472
 11
262.426
 21
19.3858
  0
LINE
  8
0
 10
262.426
 20
19.3858
 11
262.707
 21
19.4712
  0
LINE
  8
0
 10
262.707
 20
19.4712
 11
263
 21
19.5
  0
LINE
  8
0
 10
263
 20
19.5
 11
263.293
 21
19.4712
  0
LINE
  8
0
 10
263.293
 20
19.4712
 11
263.574
 21
19.3858
  0
LINE
  8
0
 10
263.574
 20
19.3858
 11
263.833
 21
19.2472
  0
LINE
  8
0
 10
263.833
 20
19.2472
 11
264.061
 21
19.0607
  0
LINE
  8
0
 10
264.061
 20
19.0607
 11
264.247
 21
18.8333
  0
LINE
  8
0
 10
264.247
 20
18.8333
 11
264.386
 21
18.574
  0
LINE
  8
0
 10
264.386
 20
18.574
 11
264.471
 21
18.2926
  0
LINE
  8
0
 10
264.471
 20
18.2926
 11
264.5
 21
18
  0
LINE
  8
0
 10
264.5
 20
18
 11
264.471
 21
17.7074
  0
LINE
  8
0
 10
264.471
 20
17.7074
 11
264.386
 21
17.426
  0
LINE
  8
0
 10
264.386
 20
17.426
 11
264.247
 21
17.1666
  0
LINE
  8
0
 10
264.247
 20
17.1666
 11
264.061
 21
16.9393
  0
LINE
  8
0
 10
264.061
 20
16.9393
 11
263.833
 21
16.7528
  0
LINE
  8
0
 10
263.833
 20
16.7528
 11
263.574
 21
16.6142
  0
LINE
  8
0
 10
263.574
 20
16.6142
 11
263.293
 21
16.5288
  0
LINE
  8
0
 10
263.293
 20
16.5288
 11
263
 21
16.5
  0
LINE
  8
0
 10
263
 20
16.5
 11
262.707
 21
16.5288
  0
LINE
  8
0
 10
246.426
 20
19.3858
 11
246.707
 21
19.4712
  0
LINE
  8
0
 10
246.707
 20
19.4712
 11
247
 21
19.5
  0
LINE
  8
0
 10
247
 20
19.5
 11
247.293
 21
19.4712
  0
LINE
  8
0
 10
247.293
 20
19.4712
 11
247.574
 21
19.3858
  0
LINE
  8
0
 10
247.574
 20
19.3858
 11
247.833
 21
19.2472
  0
LINE
  8
0
 10
247.833
 20
19.2472
 11
248.061
 21
19.0607
  0
LINE
  8
0
 10
248.061
 20
19.0607
 11
248.247
 21
18.8333
  0
LINE
  8
0
 10
248.247
 20
18.8333
 11
248.386
 21
18.574
  0
LINE
  8
0
 10
248.386
 20
18.574
 11
248.471
 21
18.2926
  0
LINE
  8
0
 10
248.471
 20
18.2926
 11
248.5
 21
18
  0
LINE
  8
0
 10
248.5
 20
18
 11
248.471
 21
17.7074
  0
LINE
  8
0
 10
248.471
 20
17.7074
 11
248.386
 21
17.426
  0
LINE
  8
0
 10
248.386
 20
17.426
 11
248.247
 21
17.1666
  0
LINE
  8
0
 10
248.247
 20
17.1666
 11
248.061
 21
16.9393
  0
LINE
  8
0
 10
248.061
 20
16.9393
 11
247.833
 21
16.7528
  0
LINE
  8
0
 10
247.833
 20
16.7528
 11
247.574
 21
16.6142
  0
LINE
  8
0
 10
247.574
 20
16.6142
 11
247.293
 21
16.5288
  0
LINE
  8
0
 10
247.293
 20
16.5288
 11
247
 21
16.5
  0
LINE
  8
0
 10
247
 20
16.5
 11
246.707
 21
16.5288
  0
LINE
  8
0
 10
246.707
 20
16.5288
 11
246.426
 21
16.6142
  0
LINE
  8
0
 10
246.426
 20
16.6142
 11
246.167
 21
16.7528
  0
LINE
  8
0
 10
246.167
 20
16.7528
 11
245.939
 21
16.9393
  0
LINE
  8
0
 10
245.939
 20
16.9393
 11
245.753
 21
17.1666
  0
LINE
  8
0
 10
245.753
 20
17.1666
 11
245.614
 21
17.426
  0
LINE
  8
0
 10
245.614
 20
17.426
 11
245.529
 21
17.7074
  0
LINE
  8
0
 10
245.529
 20
17.7074
 11
245.5
 21
18
  0
LINE
  8
0
 10
245.5
 20
18
 11
245.529
 21
18.2926
  0
LINE
  8
0
 10
245.529
 20
18.2926
 11
245.614
 21
18.574
  0
LINE
  8
0
 10
245.614
 20
18.574
 11
245.753
 21
18.8333
  0
LINE
  8
0
 10
245.753
 20
18.8333
 11
245.939
 21
19.0607
  0
LINE
  8
0
 10
245.939
 20
19.0607
 11
246.167
 21
19.2472
  0
LINE
  8
0
 10
246.167
 20
19.2472
 11
246.426
 21
19.3858
  0
LINE
  8
0
 10
237.614
 20
17.426
 11
237.529
 21
17.7074
  0
LINE
  8
0
 10
237.529
 20
17.7074
 11
237.5
 21
18
  0
LINE
  8
0
 10
237.5
 20
18
 11
237.529
 21
18.2926
  0
LINE
  8
0
 10
237.529
 20
18.2926
 11
237.614
 21
18.574
  0
LINE
  8
0
 10
237.614
 20
18.574
 11
237.753
 21
18.8333
  0
LINE
  8
0
 10
237.753
 20
18.8333
 11
237.939
 21
19.0607
  0
LINE
  8
0
 10
237.939
 20
19.0607
 11
238.167
 21
19.2472
  0
LINE
  8
0
 10
238.167
 20
19.2472
 11
238.426
 21
19.3858
  0
LINE
  8
0
 10
238.426
 20
19.3858
 11
238.707
 21
19.4712
  0
LINE
  8
0
 10
238.707
 20
19.4712
 11
239
 21
19.5
  0
LINE
  8
0
 10
239
 20
19.5
 11
239.293
 21
19.4712
  0
LINE
  8
0
 10
239.293
 20
19.4712
 11
239.574
 21
19.3858
  0
LINE
  8
0
 10
239.574
 20
19.3858
 11
239.833
 21
19.2472
  0
LINE
  8
0
 10
239.833
 20
19.2472
 11
240.061
 21
19.0607
  0
LINE
  8
0
 10
240.061
 20
19.0607
 11
240.247
 21
18.8333
  0
LINE
  8
0
 10
240.247
 20
18.8333
 11
240.386
 21
18.574
  0
LINE
  8
0
 10
240.386
 20
18.574
 11
240.471
 21
18.2926
  0
LINE
  8
0
 10
240.471
 20
18.2926
 11
240.5
 21
18
  0
LINE
  8
0
 10
240.5
 20
18
 11
240.471
 21
17.7074
  0
LINE
  8
0
 10
240.471
 20
17.7074
 11
240.386
 21
17.426
  0
LINE
  8
0
 10
240.386
 20
17.426
 11
240.247
 21
17.1666
  0
LINE
  8
0
 10
240.247
 20
17.1666
 11
240.061
 21
16.9393
  0
LINE
  8
0
 10
240.061
 20
16.9393
 11
239.833
 21
16.7528
  0
LINE
  8
0
 10
239.833
 20
16.7528
 11
239.574
 21
16.6142
  0
LINE
  8
0
 10
239.574
 20
16.6142
 11
239.293
 21
16.5288
  0
LINE
  8
0
 10
239.293
 20
16.5288
 11
239
 21
16.5
  0
LINE
  8
0
 10
239
 20
16.5
 11
238.707
 21
16.5288
  0
LINE
  8
0
 10
238.707
 20
16.5288
 11
238.426
 21
16.6142
  0
LINE
  8
0
 10
238.426
 20
16.6142
 11
238.167
 21
16.7528
  0
LINE
  8
0
 10
238.167
 20
16.7528
 11
237.939
 21
16.9393
  0
LINE
  8
0
 10
237.939
 20
16.9393
 11
237.753
 21
17.1666
  0
LINE
  8
0
 10
237.753
 20
17.1666
 11
237.614
 21
17.426
  0
LINE
  8
0
 10
254.707
 20
16.5288
 11
254.426
 21
16.6142
  0
LINE
  8
0
 10
254.426
 20
16.6142
 11
254.167
 21
16.7528
  0
LINE
  8
0
 10
254.167
 20
16.7528
 11
253.939
 21
16.9393
  0
LINE
  8
0
 10
253.939
 20
16.9393
 11
253.753
 21
17.1666
  0
LINE
  8
0
 10
253.753
 20
17.1666
 11
253.614
 21
17.426
  0
LINE
  8
0
 10
253.614
 20
17.426
 11
253.529
 21
17.7074
  0
LINE
  8
0
 10
253.529
 20
17.7074
 11
253.5
 21
18
  0
LINE
  8
0
 10
253.5
 20
18
 11
253.529
 21
18.2926
  0
LINE
  8
0
 10
253.529
 20
18.2926
 11
253.614
 21
18.574
  0
LINE
  8
0
 10
253.614
 20
18.574
 11
253.753
 21
18.8333
  0
LINE
  8
0
 10
253.753
 20
18.8333
 11
253.939
 21
19.0607
  0
LINE
  8
0
 10
253.939
 20
19.0607
 11
254.167
 21
19.2472
  0
LINE
  8
0
 10
254.167
 20
19.2472
 11
254.426
 21
19.3858
  0
LINE
  8
0
 10
254.426
 20
19.3858
 11
254.707
 21
19.4712
  0
LINE
  8
0
 10
254.707
 20
19.4712
 11
255
 21
19.5
  0
LINE
  8
0
 10
255
 20
19.5
 11
255.293
 21
19.4712
  0
LINE
  8
0
 10
255.293
 20
19.4712
 11
255.574
 21
19.3858
  0
LINE
  8
0
 10
255.574
 20
19.3858
 11
255.833
 21
19.2472
  0
LINE
  8
0
 10
255.833
 20
19.2472
 11
256.061
 21
19.0607
  0
LINE
  8
0
 10
256.061
 20
19.0607
 11
256.247
 21
18.8333
  0
LINE
  8
0
 10
256.247
 20
18.8333
 11
256.386
 21
18.574
  0
LINE
  8
0
 10
256.386
 20
18.574
 11
256.471
 21
18.2926
  0
LINE
  8
0
 10
256.471
 20
18.2926
 11
256.5
 21
18
  0
LINE
  8
0
 10
256.5
 20
18
 11
256.471
 21
17.7074
  0
LINE
  8
0
 10
256.471
 20
17.7074
 11
256.386
 21
17.426
  0
LINE
  8
0
 10
256.386
 20
17.426
 11
256.247
 21
17.1666
  0
LINE
  8
0
 10
256.247
 20
17.1666
 11
256.061
 21
16.9393
  0
LINE
  8
0
 10
256.061
 20
16.9393
 11
255.833
 21
16.7528
  0
LINE
  8
0
 10
255.833
 20
16.7528
 11
255.574
 21
16.6142
  0
LINE
  8
0
 10
255.574
 20
16.6142
 11
255.293
 21
16.5288
  0
LINE
  8
0
 10
255.293
 20
16.5288
 11
255
 21
16.5
  0
LINE
  8
0
 10
255
 20
16.5
 11
254.707
 21
16.5288
  0
LINE
  8
0
 10
258.707
 20
16.5288
 11
258.426
 21
16.6142
  0
LINE
  8
0
 10
258.426
 20
16.6142
 11
258.167
 21
16.7528
  0
LINE
  8
0
 10
258.167
 20
16.7528
 11
257.939
 21
16.9393
  0
LINE
  8
0
 10
257.939
 20
16.9393
 11
257.753
 21
17.1666
  0
LINE
  8
0
 10
257.753
 20
17.1666
 11
257.614
 21
17.426
  0
LINE
  8
0
 10
257.614
 20
17.426
 11
257.529
 21
17.7074
  0
LINE
  8
0
 10
257.529
 20
17.7074
 11
257.5
 21
18
  0
LINE
  8
0
 10
257.5
 20
18
 11
257.529
 21
18.2926
  0
LINE
  8
0
 10
257.529
 20
18.2926
 11
257.614
 21
18.574
  0
LINE
  8
0
 10
257.614
 20
18.574
 11
257.753
 21
18.8333
  0
LINE
  8
0
 10
257.753
 20
18.8333
 11
257.939
 21
19.0607
  0
LINE
  8
0
 10
257.939
 20
19.0607
 11
258.167
 21
19.2472
  0
LINE
  8
0
 10
258.167
 20
19.2472
 11
258.426
 21
19.3858
  0
LINE
  8
0
 10
258.426
 20
19.3858
 11
258.707
 21
19.4712
  0
LINE
  8
0
 10
258.707
 20
19.4712
 11
259
 21
19.5
  0
LINE
  8
0
 10
259
 20
19.5
 11
259.293
 21
19.4712
  0
LINE
  8
0
 10
259.293
 20
19.4712
 11
259.574
 21
19.3858
  0
LINE
  8
0
 10
259.574
 20
19.3858
 11
259.833
 21
19.2472
  0
LINE
  8
0
 10
259.833
 20
19.2472
 11
260.061
 21
19.0607
  0
LINE
  8
0
 10
260.061
 20
19.0607
 11
260.247
 21
18.8333
  0
LINE
  8
0
 10
260.247
 20
18.8333
 11
260.386
 21
18.574
  0
LINE
  8
0
 10
260.386
 20
18.574
 11
260.471
 21
18.2926
  0
LINE
  8
0
 10
260.471
 20
18.2926
 11
260.5
 21
18
  0
LINE
  8
0
 10
260.5
 20
18
 11
260.471
 21
17.7074
  0
LINE
  8
0
 10
260.471
 20
17.7074
 11
260.386
 21
17.426
  0
LINE
  8
0
 10
260.386
 20
17.426
 11
260.247
 21
17.1666
  0
LINE
  8
0
 10
260.247
 20
17.1666
 11
260.061
 21
16.9393
  0
LINE
  8
0
 10
260.061
 20
16.9393
 11
259.833
 21
16.7528
  0
LINE
  8
0
 10
259.833
 20
16.7528
 11
259.574
 21
16.6142
  0
LINE
  8
0
 10
259.574
 20
16.6142
 11
259.293
 21
16.5288
  0
LINE
  8
0
 10
259.293
 20
16.5288
 11
259
 21
16.5
  0
LINE
  8
0
 10
259
 20
16.5
 11
258.707
 21
16.5288
  0
LINE
  8
0
 10
250.707
 20
16.5288
 11
250.426
 21
16.6142
  0
LINE
  8
0
 10
250.426
 20
16.6142
 11
250.167
 21
16.7528
  0
LINE
  8
0
 10
250.167
 20
16.7528
 11
249.939
 21
16.9393
  0
LINE
  8
0
 10
249.939
 20
16.9393
 11
249.753
 21
17.1666
  0
LINE
  8
0
 10
249.753
 20
17.1666
 11
249.614
 21
17.426
  0
LINE
  8
0
 10
249.614
 20
17.426
 11
249.529
 21
17.7074
  0
LINE
  8
0
 10
249.529
 20
17.7074
 11
249.5
 21
18
  0
LINE
  8
0
 10
249.5
 20
18
 11
249.529
 21
18.2926
  0
LINE
  8
0
 10
249.529
 20
18.2926
 11
249.614
 21
18.574
  0
LINE
  8
0
 10
249.614
 20
18.574
 11
249.753
 21
18.8333
  0
LINE
  8
0
 10
249.753
 20
18.8333
 11
249.939
 21
19.0607
  0
LINE
  8
0
 10
249.939
 20
19.0607
 11
250.167
 21
19.2472
  0
LINE
  8
0
 10
250.167
 20
19.2472
 11
250.426
 21
19.3858
  0
LINE
  8
0
 10
250.426
 20
19.3858
 11
250.707
 21
19.4712
  0
LINE
  8
0
 10
250.707
 20
19.4712
 11
251
 21
19.5
  0
LINE
  8
0
 10
251
 20
19.5
 11
251.293
 21
19.4712
  0
LINE
  8
0
 10
251.293
 20
19.4712
 11
251.574
 21
19.3858
  0
LINE
  8
0
 10
251.574
 20
19.3858
 11
251.833
 21
19.2472
  0
LINE
  8
0
 10
251.833
 20
19.2472
 11
252.061
 21
19.0607
  0
LINE
  8
0
 10
252.061
 20
19.0607
 11
252.247
 21
18.8333
  0
LINE
  8
0
 10
252.247
 20
18.8333
 11
252.386
 21
18.574
  0
LINE
  8
0
 10
252.386
 20
18.574
 11
252.471
 21
18.2926
  0
LINE
  8
0
 10
252.471
 20
18.2926
 11
252.5
 21
18
  0
LINE
  8
0
 10
252.5
 20
18
 11
252.471
 21
17.7074
  0
LINE
  8
0
 10
252.471
 20
17.7074
 11
252.386
 21
17.426
  0
LINE
  8
0
 10
252.386
 20
17.426
 11
252.247
 21
17.1666
  0
LINE
  8
0
 10
252.247
 20
17.1666
 11
252.061
 21
16.9393
  0
LINE
  8
0
 10
252.061
 20
16.9393
 11
251.833
 21
16.7528
  0
LINE
  8
0
 10
251.833
 20
16.7528
 11
251.574
 21
16.6142
  0
LINE
  8
0
 10
251.574
 20
16.6142
 11
251.293
 21
16.5288
  0
LINE
  8
0
 10
251.293
 20
16.5288
 11
251
 21
16.5
  0
LINE
  8
0
 10
251
 20
16.5
 11
250.707
 21
16.5288
  0
LINE
  8
0
 10
249.529
 20
13.7074
 11
249.5
 21
14
  0
LINE
  8
0
 10
249.5
 20
14
 11
249.529
 21
14.2926
  0
LINE
  8
0
 10
249.529
 20
14.2926
 11
249.614
 21
14.574
  0
LINE
  8
0
 10
249.614
 20
14.574
 11
249.753
 21
14.8333
  0
LINE
  8
0
 10
249.753
 20
14.8333
 11
249.939
 21
15.0607
  0
LINE
  8
0
 10
249.939
 20
15.0607
 11
250.167
 21
15.2472
  0
LINE
  8
0
 10
250.167
 20
15.2472
 11
250.426
 21
15.3858
  0
LINE
  8
0
 10
250.426
 20
15.3858
 11
250.707
 21
15.4712
  0
LINE
  8
0
 10
250.707
 20
15.4712
 11
251
 21
15.5
  0
LINE
  8
0
 10
251
 20
15.5
 11
251.293
 21
15.4712
  0
LINE
  8
0
 10
251.293
 20
15.4712
 11
251.574
 21
15.3858
  0
LINE
  8
0
 10
251.574
 20
15.3858
 11
251.833
 21
15.2472
  0
LINE
  8
0
 10
251.833
 20
15.2472
 11
252.061
 21
15.0607
  0
LINE
  8
0
 10
252.061
 20
15.0607
 11
252.247
 21
14.8333
  0
LINE
  8
0
 10
252.247
 20
14.8333
 11
252.386
 21
14.574
  0
LINE
  8
0
 10
252.386
 20
14.574
 11
252.471
 21
14.2926
  0
LINE
  8
0
 10
252.471
 20
14.2926
 11
252.5
 21
14
  0
LINE
  8
0
 10
252.5
 20
14
 11
252.471
 21
13.7074
  0
LINE
  8
0
 10
252.471
 20
13.7074
 11
252.386
 21
13.426
  0
LINE
  8
0
 10
252.386
 20
13.426
 11
252.247
 21
13.1666
  0
LINE
  8
0
 10
252.247
 20
13.1666
 11
252.061
 21
12.9393
  0
LINE
  8
0
 10
252.061
 20
12.9393
 11
251.833
 21
12.7528
  0
LINE
  8
0
 10
251.833
 20
12.7528
 11
251.574
 21
12.6142
  0
LINE
  8
0
 10
251.574
 20
12.6142
 11
251.293
 21
12.5288
  0
LINE
  8
0
 10
251.293
 20
12.5288
 11
251
 21
12.5
  0
LINE
  8
0
 10
251
 20
12.5
 11
250.707
 21
12.5288
  0
LINE
  8
0
 10
250.707
 20
12.5288
 11
250.426
 21
12.6142
  0
LINE
  8
0
 10
250.426
 20
12.6142
 11
250.167
 21
12.7528
  0
LINE
  8
0
 10
250.167
 20
12.7528
 11
249.939
 21
12.9393
  0
LINE
  8
0
 10
249.939
 20
12.9393
 11
249.753
 21
13.1666
  0
LINE
  8
0
 10
249.753
 20
13.1666
 11
249.614
 21
13.426
  0
LINE
  8
0
 10
249.614
 20
13.426
 11
249.529
 21
13.7074
  0
LINE
  8
0
 10
238.707
 20
12.5288
 11
238.426
 21
12.6142
  0
LINE
  8
0
 10
238.426
 20
12.6142
 11
238.167
 21
12.7528
  0
LINE
  8
0
 10
238.167
 20
12.7528
 11
237.939
 21
12.9393
  0
LINE
  8
0
 10
237.939
 20
12.9393
 11
237.753
 21
13.1666
  0
LINE
  8
0
 10
237.753
 20
13.1666
 11
237.614
 21
13.426
  0
LINE
  8
0
 10
237.614
 20
13.426
 11
237.529
 21
13.7074
  0
LINE
  8
0
 10
237.529
 20
13.7074
 11
237.5
 21
14
  0
LINE
  8
0
 10
237.5
 20
14
 11
237.529
 21
14.2926
  0
LINE
  8
0
 10
237.529
 20
14.2926
 11
237.614
 21
14.574
  0
LINE
  8
0
 10
237.614
 20
14.574
 11
237.753
 21
14.8333
  0
LINE
  8
0
 10
237.753
 20
14.8333
 11
237.939
 21
15.0607
  0
LINE
  8
0
 10
237.939
 20
15.0607
 11
238.167
 21
15.2472
  0
LINE
  8
0
 10
238.167
 20
15.2472
 11
238.426
 21
15.3858
  0
LINE
  8
0
 10
238.426
 20
15.3858
 11
238.707
 21
15.4712
  0
LINE
  8
0
 10
238.707
 20
15.4712
 11
239
 21
15.5
  0
LINE
  8
0
 10
239
 20
15.5
 11
239.293
 21
15.4712
  0
LINE
  8
0
 10
239.293
 20
15.4712
 11
239.574
 21
15.3858
  0
LINE
  8
0
 10
239.574
 20
15.3858
 11
239.833
 21
15.2472
  0
LINE
  8
0
 10
239.833
 20
15.2472
 11
240.061
 21
15.0607
  0
LINE
  8
0
 10
240.061
 20
15.0607
 11
240.247
 21
14.8333
  0
LINE
  8
0
 10
240.247
 20
14.8333
 11
240.386
 21
14.574
  0
LINE
  8
0
 10
240.386
 20
14.574
 11
240.471
 21
14.2926
  0
LINE
  8
0
 10
240.471
 20
14.2926
 11
240.5
 21
14
  0
LINE
  8
0
 10
240.5
 20
14
 11
240.471
 21
13.7074
  0
LINE
  8
0
 10
240.471
 20
13.7074
 11
240.386
 21
13.426
  0
LINE
  8
0
 10
240.386
 20
13.426
 11
240.247
 21
13.1666
  0
LINE
  8
0
 10
240.247
 20
13.1666
 11
240.061
 21
12.9393
  0
LINE
  8
0
 10
240.061
 20
12.9393
 11
239.833
 21
12.7528
  0
LINE
  8
0
 10
239.833
 20
12.7528
 11
239.574
 21
12.6142
  0
LINE
  8
0
 10
239.574
 20
12.6142
 11
239.293
 21
12.5288
  0
LINE
  8
0
 10
239.293
 20
12.5288
 11
239
 21
12.5
  0
LINE
  8
0
 10
239
 20
12.5
 11
238.707
 21
12.5288
  0
LINE
  8
0
 10
262.707
 20
12.5288
 11
262.426
 21
12.6142
  0
LINE
  8
0
 10
262.426
 20
12.6142
 11
262.167
 21
12.7528
  0
LINE
  8
0
 10
262.167
 20
12.7528
 11
261.939
 21
12.9393
  0
LINE
  8
0
 10
261.939
 20
12.9393
 11
261.753
 21
13.1666
  0
LINE
  8
0
 10
261.753
 20
13.1666
 11
261.614
 21
13.426
  0
LINE
  8
0
 10
261.614
 20
13.426
 11
261.529
 21
13.7074
  0
LINE
  8
0
 10
261.529
 20
13.7074
 11
261.5
 21
14
  0
LINE
  8
0
 10
261.5
 20
14
 11
261.529
 21
14.2926
  0
LINE
  8
0
 10
261.529
 20
14.2926
 11
261.614
 21
14.574
  0
LINE
  8
0
 10
261.614
 20
14.574
 11
261.753
 21
14.8333
  0
LINE
  8
0
 10
261.753
 20
14.8333
 11
261.939
 21
15.0607
  0
LINE
  8
0
 10
261.939
 20
15.0607
 11
262.167
 21
15.2472
  0
LINE
  8
0
 10
262.167
 20
15.2472
 11
262.426
 21
15.3858
  0
LINE
  8
0
 10
262.426
 20
15.3858
 11
262.707
 21
15.4712
  0
LINE
  8
0
 10
262.707
 20
15.4712
 11
263
 21
15.5
  0
LINE
  8
0
 10
263
 20
15.5
 11
263.293
 21
15.4712
  0
LINE
  8
0
 10
263.293
 20
15.4712
 11
263.574
 21
15.3858
  0
LINE
  8
0
 10
263.574
 20
15.3858
 11
263.833
 21
15.2472
  0
LINE
  8
0
 10
263.833
 20
15.2472
 11
264.061
 21
15.0607
  0
LINE
  8
0
 10
264.061
 20
15.0607
 11
264.247
 21
14.8333
  0
LINE
  8
0
 10
264.247
 20
14.8333
 11
264.386
 21
14.574
  0
LINE
  8
0
 10
264.386
 20
14.574
 11
264.471
 21
14.2926
  0
LINE
  8
0
 10
264.471
 20
14.2926
 11
264.5
 21
14
  0
LINE
  8
0
 10
264.5
 20
14
 11
264.471
 21
13.7074
  0
LINE
  8
0
 10
264.471
 20
13.7074
 11
264.386
 21
13.426
  0
LINE
  8
0
 10
264.386
 20
13.426
 11
264.247
 21
13.1666
  0
LINE
  8
0
 10
264.247
 20
13.1666
 11
264.061
 21
12.9393
  0
LINE
  8
0
 10
264.061
 20
12.9393
 11
263.833
 21
12.7528
  0
LINE
  8
0
 10
263.833
 20
12.7528
 11
263.574
 21
12.6142
  0
LINE
  8
0
 10
263.574
 20
12.6142
 11
263.293
 21
12.5288
  0
LINE
  8
0
 10
263.293
 20
12.5288
 11
263
 21
12.5
  0
LINE
  8
0
 10
263
 20
12.5
 11
262.707
 21
12.5288
  0
LINE
  8
0
 10
257.529
 20
13.7074
 11
257.5
 21
14
  0
LINE
  8
0
 10
257.5
 20
14
 11
257.529
 21
14.2926
  0
LINE
  8
0
 10
257.529
 20
14.2926
 11
257.614
 21
14.574
  0
LINE
  8
0
 10
257.614
 20
14.574
 11
257.753
 21
14.8333
  0
LINE
  8
0
 10
257.753
 20
14.8333
 11
257.939
 21
15.0607
  0
LINE
  8
0
 10
257.939
 20
15.0607
 11
258.167
 21
15.2472
  0
LINE
  8
0
 10
258.167
 20
15.2472
 11
258.426
 21
15.3858
  0
LINE
  8
0
 10
258.426
 20
15.3858
 11
258.707
 21
15.4712
  0
LINE
  8
0
 10
258.707
 20
15.4712
 11
259
 21
15.5
  0
LINE
  8
0
 10
259
 20
15.5
 11
259.293
 21
15.4712
  0
LINE
  8
0
 10
259.293
 20
15.4712
 11
259.574
 21
15.3858
  0
LINE
  8
0
 10
259.574
 20
15.3858
 11
259.833
 21
15.2472
  0
LINE
  8
0
 10
259.833
 20
15.2472
 11
260.061
 21
15.0607
  0
LINE
  8
0
 10
260.061
 20
15.0607
 11
260.247
 21
14.8333
  0
LINE
  8
0
 10
260.247
 20
14.8333
 11
260.386
 21
14.574
  0
LINE
  8
0
 10
260.386
 20
14.574
 11
260.471
 21
14.2926
  0
LINE
  8
0
 10
260.471
 20
14.2926
 11
260.5
 21
14
  0
LINE
  8
0
 10
260.5
 20
14
 11
260.471
 21
13.7074
  0
LINE
  8
0
 10
260.471
 20
13.7074
 11
260.386
 21
13.426
  0
LINE
  8
0
 10
260.386
 20
13.426
 11
260.247
 21
13.1666
  0
LINE
  8
0
 10
260.247
 20
13.1666
 11
260.061
 21
12.9393
  0
LINE
  8
0
 10
260.061
 20
12.9393
 11
259.833
 21
12.7528
  0
LINE
  8
0
 10
259.833
 20
12.7528
 11
259.574
 21
12.6142
  0
LINE
  8
0
 10
259.574
 20
12.6142
 11
259.293
 21
12.5288
  0
LINE
  8
0
 10
259.293
 20
12.5288
 11
259
 21
12.5
  0
LINE
  8
0
 10
259
 20
12.5
 11
258.707
 21
12.5288
  0
LINE
  8
0
 10
258.707
 20
12.5288
 11
258.426
 21
12.6142
  0
LINE
  8
0
 10
258.426
 20
12.6142
 11
258.167
 21
12.7528
  0
LINE
  8
0
 10
258.167
 20
12.7528
 11
257.939
 21
12.9393
  0
LINE
  8
0
 10
257.939
 20
12.9393
 11
257.753
 21
13.1666
  0
LINE
  8
0
 10
257.753
 20
13.1666
 11
257.614
 21
13.426
  0
LINE
  8
0
 10
257.614
 20
13.426
 11
257.529
 21
13.7074
  0
LINE
  8
0
 10
234.707
 20
12.5288
 11
234.426
 21
12.6142
  0
LINE
  8
0
 10
234.426
 20
12.6142
 11
234.167
 21
12.7528
  0
LINE
  8
0
 10
234.167
 20
12.7528
 11
233.939
 21
12.9393
  0
LINE
  8
0
 10
233.939
 20
12.9393
 11
233.753
 21
13.1666
  0
LINE
  8
0
 10
233.753
 20
13.1666
 11
233.614
 21
13.426
  0
LINE
  8
0
 10
233.614
 20
13.426
 11
233.529
 21
13.7074
  0
LINE
  8
0
 10
233.529
 20
13.7074
 11
233.5
 21
14
  0
LINE
  8
0
 10
233.5
 20
14
 11
233.529
 21
14.2926
  0
LINE
  8
0
 10
233.529
 20
14.2926
 11
233.614
 21
14.574
  0
LINE
  8
0
 10
233.614
 20
14.574
 11
233.753
 21
14.8333
  0
LINE
  8
0
 10
233.753
 20
14.8333
 11
233.939
 21
15.0607
  0
LINE
  8
0
 10
233.939
 20
15.0607
 11
234.167
 21
15.2472
  0
LINE
  8
0
 10
234.167
 20
15.2472
 11
234.426
 21
15.3858
  0
LINE
  8
0
 10
234.426
 20
15.3858
 11
234.707
 21
15.4712
  0
LINE
  8
0
 10
234.707
 20
15.4712
 11
235
 21
15.5
  0
LINE
  8
0
 10
235
 20
15.5
 11
235.293
 21
15.4712
  0
LINE
  8
0
 10
235.293
 20
15.4712
 11
235.574
 21
15.3858
  0
LINE
  8
0
 10
235.574
 20
15.3858
 11
235.833
 21
15.2472
  0
LINE
  8
0
 10
235.833
 20
15.2472
 11
236.061
 21
15.0607
  0
LINE
  8
0
 10
236.061
 20
15.0607
 11
236.247
 21
14.8333
  0
LINE
  8
0
 10
236.247
 20
14.8333
 11
236.386
 21
14.574
  0
LINE
  8
0
 10
236.386
 20
14.574
 11
236.471
 21
14.2926
  0
LINE
  8
0
 10
236.471
 20
14.2926
 11
236.5
 21
14
  0
LINE
  8
0
 10
236.5
 20
14
 11
236.471
 21
13.7074
  0
LINE
  8
0
 10
236.471
 20
13.7074
 11
236.386
 21
13.426
  0
LINE
  8
0
 10
236.386
 20
13.426
 11
236.247
 21
13.1666
  0
LINE
  8
0
 10
236.247
 20
13.1666
 11
236.061
 21
12.9393
  0
LINE
  8
0
 10
236.061
 20
12.9393
 11
235.833
 21
12.7528
  0
LINE
  8
0
 10
235.833
 20
12.7528
 11
235.574
 21
12.6142
  0
LINE
  8
0
 10
235.574
 20
12.6142
 11
235.293
 21
12.5288
  0
LINE
  8
0
 10
235.293
 20
12.5288
 11
235
 21
12.5
  0
LINE
  8
0
 10
235
 20
12.5
 11
234.707
 21
12.5288
  0
LINE
  8
0
 10
262.707
 20
8.52881
 11
262.426
 21
8.61418
  0
LINE
  8
0
 10
262.426
 20
8.61418
 11
262.167
 21
8.75279
  0
LINE
  8
0
 10
262.167
 20
8.75279
 11
261.939
 21
8.93933
  0
LINE
  8
0
 10
261.939
 20
8.93933
 11
261.753
 21
9.16664
  0
LINE
  8
0
 10
261.753
 20
9.16664
 11
261.614
 21
9.42596
  0
LINE
  8
0
 10
261.614
 20
9.42596
 11
261.529
 21
9.70735
  0
LINE
  8
0
 10
261.529
 20
9.70735
 11
261.5
 21
10
  0
LINE
  8
0
 10
261.5
 20
10
 11
261.529
 21
10.2926
  0
LINE
  8
0
 10
261.529
 20
10.2926
 11
261.614
 21
10.574
  0
LINE
  8
0
 10
261.614
 20
10.574
 11
261.753
 21
10.8333
  0
LINE
  8
0
 10
261.753
 20
10.8333
 11
261.939
 21
11.0607
  0
LINE
  8
0
 10
261.939
 20
11.0607
 11
262.167
 21
11.2472
  0
LINE
  8
0
 10
262.167
 20
11.2472
 11
262.426
 21
11.3858
  0
LINE
  8
0
 10
262.426
 20
11.3858
 11
262.707
 21
11.4712
  0
LINE
  8
0
 10
262.707
 20
11.4712
 11
263
 21
11.5
  0
LINE
  8
0
 10
263
 20
11.5
 11
263.293
 21
11.4712
  0
LINE
  8
0
 10
263.293
 20
11.4712
 11
263.574
 21
11.3858
  0
LINE
  8
0
 10
263.574
 20
11.3858
 11
263.833
 21
11.2472
  0
LINE
  8
0
 10
263.833
 20
11.2472
 11
264.061
 21
11.0607
  0
LINE
  8
0
 10
264.061
 20
11.0607
 11
264.247
 21
10.8333
  0
LINE
  8
0
 10
264.247
 20
10.8333
 11
264.386
 21
10.574
  0
LINE
  8
0
 10
264.386
 20
10.574
 11
264.471
 21
10.2926
  0
LINE
  8
0
 10
264.471
 20
10.2926
 11
264.5
 21
10
  0
LINE
  8
0
 10
264.5
 20
10
 11
264.471
 21
9.70735
  0
LINE
  8
0
 10
264.471
 20
9.70735
 11
264.386
 21
9.42596
  0
LINE
  8
0
 10
264.386
 20
9.42596
 11
264.247
 21
9.16664
  0
LINE
  8
0
 10
264.247
 20
9.16664
 11
264.061
 21
8.93933
  0
LINE
  8
0
 10
264.061
 20
8.93933
 11
263.833
 21
8.75279
  0
LINE
  8
0
 10
263.833
 20
8.75279
 11
263.574
 21
8.61418
  0
LINE
  8
0
 10
263.574
 20
8.61418
 11
263.293
 21
8.52881
  0
LINE
  8
0
 10
263.293
 20
8.52881
 11
263
 21
8.5
  0
LINE
  8
0
 10
263
 20
8.5
 11
262.707
 21
8.52881
  0
LINE
  8
0
 10
238.707
 20
8.52881
 11
238.426
 21
8.61418
  0
LINE
  8
0
 10
238.426
 20
8.61418
 11
238.167
 21
8.75279
  0
LINE
  8
0
 10
238.167
 20
8.75279
 11
237.939
 21
8.93933
  0
LINE
  8
0
 10
237.939
 20
8.93933
 11
237.753
 21
9.16664
  0
LINE
  8
0
 10
237.753
 20
9.16664
 11
237.614
 21
9.42596
  0
LINE
  8
0
 10
237.614
 20
9.42596
 11
237.529
 21
9.70735
  0
LINE
  8
0
 10
237.529
 20
9.70735
 11
237.5
 21
10
  0
LINE
  8
0
 10
237.5
 20
10
 11
237.529
 21
10.2926
  0
LINE
  8
0
 10
237.529
 20
10.2926
 11
237.614
 21
10.574
  0
LINE
  8
0
 10
237.614
 20
10.574
 11
237.753
 21
10.8333
  0
LINE
  8
0
 10
237.753
 20
10.8333
 11
237.939
 21
11.0607
  0
LINE
  8
0
 10
237.939
 20
11.0607
 11
238.167
 21
11.2472
  0
LINE
  8
0
 10
238.167
 20
11.2472
 11
238.426
 21
11.3858
  0
LINE
  8
0
 10
238.426
 20
11.3858
 11
238.707
 21
11.4712
  0
LINE
  8
0
 10
238.707
 20
11.4712
 11
239
 21
11.5
  0
LINE
  8
0
 10
239
 20
11.5
 11
239.293
 21
11.4712
  0
LINE
  8
0
 10
239.293
 20
11.4712
 11
239.574
 21
11.3858
  0
LINE
  8
0
 10
239.574
 20
11.3858
 11
239.833
 21
11.2472
  0
LINE
  8
0
 10
239.833
 20
11.2472
 11
240.061
 21
11.0607
  0
LINE
  8
0
 10
240.061
 20
11.0607
 11
240.247
 21
10.8333
  0
LINE
  8
0
 10
240.247
 20
10.8333
 11
240.386
 21
10.574
  0
LINE
  8
0
 10
240.386
 20
10.574
 11
240.471
 21
10.2926
  0
LINE
  8
0
 10
240.471
 20
10.2926
 11
240.5
 21
10
  0
LINE
  8
0
 10
240.5
 20
10
 11
240.471
 21
9.70735
  0
LINE
  8
0
 10
240.471
 20
9.70735
 11
240.386
 21
9.42596
  0
LINE
  8
0
 10
240.386
 20
9.42596
 11
240.247
 21
9.16664
  0
LINE
  8
0
 10
240.247
 20
9.16664
 11
240.061
 21
8.93933
  0
LINE
  8
0
 10
240.061
 20
8.93933
 11
239.833
 21
8.75279
  0
LINE
  8
0
 10
239.833
 20
8.75279
 11
239.574
 21
8.61418
  0
LINE
  8
0
 10
239.574
 20
8.61418
 11
239.293
 21
8.52881
  0
LINE
  8
0
 10
239.293
 20
8.52881
 11
239
 21
8.5
  0
LINE
  8
0
 10
239
 20
8.5
 11
238.707
 21
8.52881
  0
LINE
  8
0
 10
246.707
 20
8.52881
 11
246.426
 21
8.61418
  0
LINE
  8
0
 10
246.426
 20
8.61418
 11
246.167
 21
8.75279
  0
LINE
  8
0
 10
246.167
 20
8.75279
 11
245.939
 21
8.93933
  0
LINE
  8
0
 10
245.939
 20
8.93933
 11
245.753
 21
9.16664
  0
LINE
  8
0
 10
245.753
 20
9.16664
 11
245.614
 21
9.42596
  0
LINE
  8
0
 10
245.614
 20
9.42596
 11
245.529
 21
9.70735
  0
LINE
  8
0
 10
245.529
 20
9.70735
 11
245.5
 21
10
  0
LINE
  8
0
 10
245.5
 20
10
 11
245.529
 21
10.2926
  0
LINE
  8
0
 10
245.529
 20
10.2926
 11
245.614
 21
10.574
  0
LINE
  8
0
 10
245.614
 20
10.574
 11
245.753
 21
10.8333
  0
LINE
  8
0
 10
245.753
 20
10.8333
 11
245.939
 21
11.0607
  0
LINE
  8
0
 10
245.939
 20
11.0607
 11
246.167
 21
11.2472
  0
LINE
  8
0
 10
246.167
 20
11.2472
 11
246.426
 21
11.3858
  0
LINE
  8
0
 10
246.426
 20
11.3858
 11
246.707
 21
11.4712
  0
LINE
  8
0
 10
246.707
 20
11.4712
 11
247
 21
11.5
  0
LINE
  8
0
 10
247
 20
11.5
 11
247.293
 21
11.4712
  0
LINE
  8
0
 10
247.293
 20
11.4712
 11
247.574
 21
11.3858
  0
LINE
  8
0
 10
247.574
 20
11.3858
 11
247.833
 21
11.2472
  0
LINE
  8
0
 10
247.833
 20
11.2472
 11
248.061
 21
11.0607
  0
LINE
  8
0
 10
248.061
 20
11.0607
 11
248.247
 21
10.8333
  0
LINE
  8
0
 10
248.247
 20
10.8333
 11
248.386
 21
10.574
  0
LINE
  8
0
 10
248.386
 20
10.574
 11
248.471
 21
10.2926
  0
LINE
  8
0
 10
248.471
 20
10.2926
 11
248.5
 21
10
  0
LINE
  8
0
 10
248.5
 20
10
 11
248.471
 21
9.70735
  0
LINE
  8
0
 10
248.471
 20
9.70735
 11
248.386
 21
9.42596
  0
LINE
  8
0
 10
248.386
 20
9.42596
 11
248.247
 21
9.16664
  0
LINE
  8
0
 10
248.247
 20
9.16664
 11
248.061
 21
8.93933
  0
LINE
  8
0
 10
248.061
 20
8.93933
 11
247.833
 21
8.75279
  0
LINE
  8
0
 10
247.833
 20
8.75279
 11
247.574
 21
8.61418
  0
LINE
  8
0
 10
247.574
 20
8.61418
 11
247.293
 21
8.52881
  0
LINE
  8
0
 10
247.293
 20
8.52881
 11
247
 21
8.5
  0
LINE
  8
0
 10
247
 20
8.5
 11
246.707
 21
8.52881
  0
LINE
  8
0
 10
254.707
 20
8.52881
 11
254.426
 21
8.61418
  0
LINE
  8
0
 10
254.426
 20
8.61418
 11
254.167
 21
8.75279
  0
LINE
  8
0
 10
254.167
 20
8.75279
 11
253.939
 21
8.93933
  0
LINE
  8
0
 10
253.939
 20
8.93933
 11
253.753
 21
9.16664
  0
LINE
  8
0
 10
253.753
 20
9.16664
 11
253.614
 21
9.42596
  0
LINE
  8
0
 10
253.614
 20
9.42596
 11
253.529
 21
9.70735
  0
LINE
  8
0
 10
253.529
 20
9.70735
 11
253.5
 21
10
  0
LINE
  8
0
 10
253.5
 20
10
 11
253.529
 21
10.2926
  0
LINE
  8
0
 10
253.529
 20
10.2926
 11
253.614
 21
10.574
  0
LINE
  8
0
 10
253.614
 20
10.574
 11
253.753
 21
10.8333
  0
LINE
  8
0
 10
253.753
 20
10.8333
 11
253.939
 21
11.0607
  0
LINE
  8
0
 10
253.939
 20
11.0607
 11
254.167
 21
11.2472
  0
LINE
  8
0
 10
254.167
 20
11.2472
 11
254.426
 21
11.3858
  0
LINE
  8
0
 10
254.426
 20
11.3858
 11
254.707
 21
11.4712
  0
LINE
  8
0
 10
254.707
 20
11.4712
 11
255
 21
11.5
  0
LINE
  8
0
 10
255
 20
11.5
 11
255.293
 21
11.4712
  0
LINE
  8
0
 10
255.293
 20
11.4712
 11
255.574
 21
11.3858
  0
LINE
  8
0
 10
255.574
 20
11.3858
 11
255.833
 21
11.2472
  0
LINE
  8
0
 10
255.833
 20
11.2472
 11
256.061
 21
11.0607
  0
LINE
  8
0
 10
256.061
 20
11.0607
 11
256.247
 21
10.8333
  0
LINE
  8
0
 10
256.247
 20
10.8333
 11
256.386
 21
10.574
  0
LINE
  8
0
 10
256.386
 20
10.574
 11
256.471
 21
10.2926
  0
LINE
  8
0
 10
256.471
 20
10.2926
 11
256.5
 21
10
  0
LINE
  8
0
 10
256.5
 20
10
 11
256.471
 21
9.70735
  0
LINE
  8
0
 10
256.471
 20
9.70735
 11
256.386
 21
9.42596
  0
LINE
  8
0
 10
256.386
 20
9.42596
 11
256.247
 21
9.16664
  0
LINE
  8
0
 10
256.247
 20
9.16664
 11
256.061
 21
8.93933
  0
LINE
  8
0
 10
256.061
 20
8.93933
 11
255.833
 21
8.75279
  0
LINE
  8
0
 10
255.833
 20
8.75279
 11
255.574
 21
8.61418
  0
LINE
  8
0
 10
255.574
 20
8.61418
 11
255.293
 21
8.52881
  0
LINE
  8
0
 10
255.293
 20
8.52881
 11
255
 21
8.5
  0
LINE
  8
0
 10
255
 20
8.5
 11
254.707
 21
8.52881
  0
LINE
  8
0
 10
242.707
 20
8.52881
 11
242.426
 21
8.61418
  0
LINE
  8
0
 10
242.426
 20
8.61418
 11
242.167
 21
8.75279
  0
LINE
  8
0
 10
242.167
 20
8.75279
 11
241.939
 21
8.93933
  0
LINE
  8
0
 10
241.939
 20
8.93933
 11
241.753
 21
9.16664
  0
LINE
  8
0
 10
241.753
 20
9.16664
 11
241.614
 21
9.42596
  0
LINE
  8
0
 10
241.614
 20
9.42596
 11
241.529
 21
9.70735
  0
LINE
  8
0
 10
241.529
 20
9.70735
 11
241.5
 21
10
  0
LINE
  8
0
 10
241.5
 20
10
 11
241.529
 21
10.2926
  0
LINE
  8
0
 10
241.529
 20
10.2926
 11
241.614
 21
10.574
  0
LINE
  8
0
 10
241.614
 20
10.574
 11
241.753
 21
10.8333
  0
LINE
  8
0
 10
241.753
 20
10.8333
 11
241.939
 21
11.0607
  0
LINE
  8
0
 10
241.939
 20
11.0607
 11
242.167
 21
11.2472
  0
LINE
  8
0
 10
242.167
 20
11.2472
 11
242.426
 21
11.3858
  0
LINE
  8
0
 10
242.426
 20
11.3858
 11
242.707
 21
11.4712
  0
LINE
  8
0
 10
242.707
 20
11.4712
 11
243
 21
11.5
  0
LINE
  8
0
 10
243
 20
11.5
 11
243.293
 21
11.4712
  0
LINE
  8
0
 10
243.293
 20
11.4712
 11
243.574
 21
11.3858
  0
LINE
  8
0
 10
243.574
 20
11.3858
 11
243.833
 21
11.2472
  0
LINE
  8
0
 10
243.833
 20
11.2472
 11
244.061
 21
11.0607
  0
LINE
  8
0
 10
244.061
 20
11.0607
 11
244.247
 21
10.8333
  0
LINE
  8
0
 10
244.247
 20
10.8333
 11
244.386
 21
10.574
  0
LINE
  8
0
 10
244.386
 20
10.574
 11
244.471
 21
10.2926
  0
LINE
  8
0
 10
244.471
 20
10.2926
 11
244.5
 21
10
  0
LINE
  8
0
 10
244.5
 20
10
 11
244.471
 21
9.70735
  0
LINE
  8
0
 10
244.471
 20
9.70735
 11
244.386
 21
9.42596
  0
LINE
  8
0
 10
244.386
 20
9.42596
 11
244.247
 21
9.16664
  0
LINE
  8
0
 10
244.247
 20
9.16664
 11
244.061
 21
8.93933
  0
LINE
  8
0
 10
244.061
 20
8.93933
 11
243.833
 21
8.75279
  0
LINE
  8
0
 10
243.833
 20
8.75279
 11
243.574
 21
8.61418
  0
LINE
  8
0
 10
243.574
 20
8.61418
 11
243.293
 21
8.52881
  0
LINE
  8
0
 10
243.293
 20
8.52881
 11
243
 21
8.5
  0
LINE
  8
0
 10
243
 20
8.5
 11
242.707
 21
8.52881
  0
LINE
  8
0
 10
234.707
 20
8.52881
 11
234.426
 21
8.61418
  0
LINE
  8
0
 10
234.426
 20
8.61418
 11
234.167
 21
8.75279
  0
LINE
  8
0
 10
234.167
 20
8.75279
 11
233.939
 21
8.93933
  0
LINE
  8
0
 10
233.939
 20
8.93933
 11
233.753
 21
9.16664
  0
LINE
  8
0
 10
233.753
 20
9.16664
 11
233.614
 21
9.42596
  0
LINE
  8
0
 10
233.614
 20
9.42596
 11
233.529
 21
9.70735
  0
LINE
  8
0
 10
233.529
 20
9.70735
 11
233.5
 21
10
  0
LINE
  8
0
 10
233.5
 20
10
 11
233.529
 21
10.2926
  0
LINE
  8
0
 10
233.529
 20
10.2926
 11
233.614
 21
10.574
  0
LINE
  8
0
 10
233.614
 20
10.574
 11
233.753
 21
10.8333
  0
LINE
  8
0
 10
233.753
 20
10.8333
 11
233.939
 21
11.0607
  0
LINE
  8
0
 10
233.939
 20
11.0607
 11
234.167
 21
11.2472
  0
LINE
  8
0
 10
234.167
 20
11.2472
 11
234.426
 21
11.3858
  0
LINE
  8
0
 10
234.426
 20
11.3858
 11
234.707
 21
11.4712
  0
LINE
  8
0
 10
234.707
 20
11.4712
 11
235
 21
11.5
  0
LINE
  8
0
 10
235
 20
11.5
 11
235.293
 21
11.4712
  0
LINE
  8
0
 10
235.293
 20
11.4712
 11
235.574
 21
11.3858
  0
LINE
  8
0
 10
235.574
 20
11.3858
 11
235.833
 21
11.2472
  0
LINE
  8
0
 10
235.833
 20
11.2472
 11
236.061
 21
11.0607
  0
LINE
  8
0
 10
236.061
 20
11.0607
 11
236.247
 21
10.8333
  0
LINE
  8
0
 10
236.247
 20
10.8333
 11
236.386
 21
10.574
  0
LINE
  8
0
 10
236.386
 20
10.574
 11
236.471
 21
10.2926
  0
LINE
  8
0
 10
236.471
 20
10.2926
 11
236.5
 21
10
  0
LINE
  8
0
 10
236.5
 20
10
 11
236.471
 21
9.70735
  0
LINE
  8
0
 10
236.471
 20
9.70735
 11
236.386
 21
9.42596
  0
LINE
  8
0
 10
236.386
 20
9.42596
 11
236.247
 21
9.16664
  0
LINE
  8
0
 10
236.247
 20
9.16664
 11
236.061
 21
8.93933
  0
LINE
  8
0
 10
236.061
 20
8.93933
 11
235.833
 21
8.75279
  0
LINE
  8
0
 10
235.833
 20
8.75279
 11
235.574
 21
8.61418
  0
LINE
  8
0
 10
235.574
 20
8.61418
 11
235.293
 21
8.52881
  0
LINE
  8
0
 10
235.293
 20
8.52881
 11
235
 21
8.5
  0
LINE
  8
0
 10
235
 20
8.5
 11
234.707
 21
8.52881
  0
LINE
  8
0
 10
250.707
 20
8.52881
 11
250.426
 21
8.61418
  0
LINE
  8
0
 10
250.426
 20
8.61418
 11
250.167
 21
8.75279
  0
LINE
  8
0
 10
250.167
 20
8.75279
 11
249.939
 21
8.93933
  0
LINE
  8
0
 10
249.939
 20
8.93933
 11
249.753
 21
9.16664
  0
LINE
  8
0
 10
249.753
 20
9.16664
 11
249.614
 21
9.42596
  0
LINE
  8
0
 10
249.614
 20
9.42596
 11
249.529
 21
9.70735
  0
LINE
  8
0
 10
249.529
 20
9.70735
 11
249.5
 21
10
  0
LINE
  8
0
 10
249.5
 20
10
 11
249.529
 21
10.2926
  0
LINE
  8
0
 10
249.529
 20
10.2926
 11
249.614
 21
10.574
  0
LINE
  8
0
 10
249.614
 20
10.574
 11
249.753
 21
10.8333
  0
LINE
  8
0
 10
249.753
 20
10.8333
 11
249.939
 21
11.0607
  0
LINE
  8
0
 10
249.939
 20
11.0607
 11
250.167
 21
11.2472
  0
LINE
  8
0
 10
250.167
 20
11.2472
 11
250.426
 21
11.3858
  0
LINE
  8
0
 10
250.426
 20
11.3858
 11
250.707
 21
11.4712
  0
LINE
  8
0
 10
250.707
 20
11.4712
 11
251
 21
11.5
  0
LINE
  8
0
 10
251
 20
11.5
 11
251.293
 21
11.4712
  0
LINE
  8
0
 10
251.293
 20
11.4712
 11
251.574
 21
11.3858
  0
LINE
  8
0
 10
251.574
 20
11.3858
 11
251.833
 21
11.2472
  0
LINE
  8
0
 10
251.833
 20
11.2472
 11
252.061
 21
11.0607
  0
LINE
  8
0
 10
252.061
 20
11.0607
 11
252.247
 21
10.8333
  0
LINE
  8
0
 10
252.247
 20
10.8333
 11
252.386
 21
10.574
  0
LINE
  8
0
 10
252.386
 20
10.574
 11
252.471
 21
10.2926
  0
LINE
  8
0
 10
252.471
 20
10.2926
 11
252.5
 21
10
  0
LINE
  8
0
 10
252.5
 20
10
 11
252.471
 21
9.70735
  0
LINE
  8
0
 10
252.471
 20
9.70735
 11
252.386
 21
9.42596
  0
LINE
  8
0
 10
252.386
 20
9.42596
 11
252.247
 21
9.16664
  0
LINE
  8
0
 10
252.247
 20
9.16664
 11
252.061
 21
8.93933
  0
LINE
  8
0
 10
252.061
 20
8.93933
 11
251.833
 21
8.75279
  0
LINE
  8
0
 10
251.833
 20
8.75279
 11
251.574
 21
8.61418
  0
LINE
  8
0
 10
251.574
 20
8.61418
 11
251.293
 21
8.52881
  0
LINE
  8
0
 10
251.293
 20
8.52881
 11
251
 21
8.5
  0
LINE
  8
0
 10
251
 20
8.5
 11
250.707
 21
8.52881
  0
LINE
  8
0
 10
258.707
 20
8.52881
 11
258.426
 21
8.61418
  0
LINE
  8
0
 10
258.426
 20
8.61418
 11
258.167
 21
8.75279
  0
LINE
  8
0
 10
258.167
 20
8.75279
 11
257.939
 21
8.93933
  0
LINE
  8
0
 10
257.939
 20
8.93933
 11
257.753
 21
9.16664
  0
LINE
  8
0
 10
257.753
 20
9.16664
 11
257.614
 21
9.42596
  0
LINE
  8
0
 10
257.614
 20
9.42596
 11
257.529
 21
9.70735
  0
LINE
  8
0
 10
257.529
 20
9.70735
 11
257.5
 21
10
  0
LINE
  8
0
 10
257.5
 20
10
 11
257.529
 21
10.2926
  0
LINE
  8
0
 10
257.529
 20
10.2926
 11
257.614
 21
10.574
  0
LINE
  8
0
 10
257.614
 20
10.574
 11
257.753
 21
10.8333
  0
LINE
  8
0
 10
257.753
 20
10.8333
 11
257.939
 21
11.0607
  0
LINE
  8
0
 10
257.939
 20
11.0607
 11
258.167
 21
11.2472
  0
LINE
  8
0
 10
258.167
 20
11.2472
 11
258.426
 21
11.3858
  0
LINE
  8
0
 10
258.426
 20
11.3858
 11
258.707
 21
11.4712
  0
LINE
  8
0
 10
258.707
 20
11.4712
 11
259
 21
11.5
  0
LINE
  8
0
 10
259
 20
11.5
 11
259.293
 21
11.4712
  0
LINE
  8
0
 10
259.293
 20
11.4712
 11
259.574
 21
11.3858
  0
LINE
  8
0
 10
259.574
 20
11.3858
 11
259.833
 21
11.2472
  0
LINE
  8
0
 10
259.833
 20
11.2472
 11
260.061
 21
11.0607
  0
LINE
  8
0
 10
260.061
 20
11.0607
 11
260.247
 21
10.8333
  0
LINE
  8
0
 10
260.247
 20
10.8333
 11
260.386
 21
10.574
  0
LINE
  8
0
 10
260.386
 20
10.574
 11
260.471
 21
10.2926
  0
LINE
  8
0
 10
260.471
 20
10.2926
 11
260.5
 21
10
  0
LINE
  8
0
 10
260.5
 20
10
 11
260.471
 21
9.70735
  0
LINE
  8
0
 10
260.471
 20
9.70735
 11
260.386
 21
9.42596
  0
LINE
  8
0
 10
260.386
 20
9.42596
 11
260.247
 21
9.16664
  0
LINE
  8
0
 10
260.247
 20
9.16664
 11
260.061
 21
8.93933
  0
LINE
  8
0
 10
260.061
 20
8.93933
 11
259.833
 21
8.75279
  0
LINE
  8
0
 10
259.833
 20
8.75279
 11
259.574
 21
8.61418
  0
LINE
  8
0
 10
259.574
 20
8.61418
 11
259.293
 21
8.52881
  0
LINE
  8
0
 10
259.293
 20
8.52881
 11
259
 21
8.5
  0
LINE
  8
0
 10
259
 20
8.5
 11
258.707
 21
8.52881
  0
LINE
  8
0
 10
247.833
 20
36.7528
 11
247.574
 21
36.6142
  0
LINE
  8
0
 10
247.574
 20
36.6142
 11
247.293
 21
36.5288
  0
LINE
  8
0
 10
247.293
 20
36.5288
 11
247
 21
36.5
  0
LINE
  8
0
 10
247
 20
36.5
 11
246.707
 21
36.5288
  0
LINE
  8
0
 10
246.707
 20
36.5288
 11
246.426
 21
36.6142
  0
LINE
  8
0
 10
246.426
 20
36.6142
 11
246.167
 21
36.7528
  0
LINE
  8
0
 10
246.167
 20
36.7528
 11
245.939
 21
36.9393
  0
LINE
  8
0
 10
245.939
 20
36.9393
 11
245.753
 21
37.1666
  0
LINE
  8
0
 10
245.753
 20
37.1666
 11
245.614
 21
37.426
  0
LINE
  8
0
 10
245.614
 20
37.426
 11
245.529
 21
37.7074
  0
LINE
  8
0
 10
245.529
 20
37.7074
 11
245.5
 21
38
  0
LINE
  8
0
 10
245.5
 20
38
 11
245.529
 21
38.2926
  0
LINE
  8
0
 10
245.529
 20
38.2926
 11
245.614
 21
38.574
  0
LINE
  8
0
 10
245.614
 20
38.574
 11
245.753
 21
38.8333
  0
LINE
  8
0
 10
245.753
 20
38.8333
 11
245.939
 21
39.0607
  0
LINE
  8
0
 10
245.939
 20
39.0607
 11
246.167
 21
39.2472
  0
LINE
  8
0
 10
246.167
 20
39.2472
 11
246.426
 21
39.3858
  0
LINE
  8
0
 10
246.426
 20
39.3858
 11
246.707
 21
39.4712
  0
LINE
  8
0
 10
246.707
 20
39.4712
 11
247
 21
39.5
  0
LINE
  8
0
 10
247
 20
39.5
 11
247.293
 21
39.4712
  0
LINE
  8
0
 10
247.293
 20
39.4712
 11
247.574
 21
39.3858
  0
LINE
  8
0
 10
247.574
 20
39.3858
 11
247.833
 21
39.2472
  0
LINE
  8
0
 10
247.833
 20
39.2472
 11
248.061
 21
39.0607
  0
LINE
  8
0
 10
248.061
 20
39.0607
 11
248.247
 21
38.8333
  0
LINE
  8
0
 10
248.247
 20
38.8333
 11
248.386
 21
38.574
  0
LINE
  8
0
 10
248.386
 20
38.574
 11
248.471
 21
38.2926
  0
LINE
  8
0
 10
248.471
 20
38.2926
 11
248.5
 21
38
  0
LINE
  8
0
 10
248.5
 20
38
 11
248.471
 21
37.7074
  0
LINE
  8
0
 10
248.471
 20
37.7074
 11
248.386
 21
37.426
  0
LINE
  8
0
 10
248.386
 20
37.426
 11
248.247
 21
37.1666
  0
LINE
  8
0
 10
248.247
 20
37.1666
 11
248.061
 21
36.9393
  0
LINE
  8
0
 10
248.061
 20
36.9393
 11
247.833
 21
36.7528
  0
LINE
  8
0
 10
240.386
 20
34.574
 11
240.471
 21
34.2926
  0
LINE
  8
0
 10
240.471
 20
34.2926
 11
240.5
 21
34
  0
LINE
  8
0
 10
240.5
 20
34
 11
240.471
 21
33.7074
  0
LINE
  8
0
 10
240.471
 20
33.7074
 11
240.386
 21
33.426
  0
LINE
  8
0
 10
240.386
 20
33.426
 11
240.247
 21
33.1666
  0
LINE
  8
0
 10
240.247
 20
33.1666
 11
240.061
 21
32.9393
  0
LINE
  8
0
 10
240.061
 20
32.9393
 11
239.833
 21
32.7528
  0
LINE
  8
0
 10
239.833
 20
32.7528
 11
239.574
 21
32.6142
  0
LINE
  8
0
 10
239.574
 20
32.6142
 11
239.293
 21
32.5288
  0
LINE
  8
0
 10
239.293
 20
32.5288
 11
239
 21
32.5
  0
LINE
  8
0
 10
239
 20
32.5
 11
238.707
 21
32.5288
  0
LINE
  8
0
 10
238.707
 20
32.5288
 11
238.426
 21
32.6142
  0
LINE
  8
0
 10
238.426
 20
32.6142
 11
238.167
 21
32.7528
  0
LINE
  8
0
 10
238.167
 20
32.7528
 11
237.939
 21
32.9393
  0
LINE
  8
0
 10
237.939
 20
32.9393
 11
237.753
 21
33.1666
  0
LINE
  8
0
 10
237.753
 20
33.1666
 11
237.614
 21
33.426
  0
LINE
  8
0
 10
237.614
 20
33.426
 11
237.529
 21
33.7074
  0
LINE
  8
0
 10
237.529
 20
33.7074
 11
237.5
 21
34
  0
LINE
  8
0
 10
237.5
 20
34
 11
237.529
 21
34.2926
  0
LINE
  8
0
 10
237.529
 20
34.2926
 11
237.614
 21
34.574
  0
LINE
  8
0
 10
237.614
 20
34.574
 11
237.753
 21
34.8333
  0
LINE
  8
0
 10
237.753
 20
34.8333
 11
237.939
 21
35.0607
  0
LINE
  8
0
 10
237.939
 20
35.0607
 11
238.167
 21
35.2472
  0
LINE
  8
0
 10
238.167
 20
35.2472
 11
238.426
 21
35.3858
  0
LINE
  8
0
 10
238.426
 20
35.3858
 11
238.707
 21
35.4712
  0
LINE
  8
0
 10
238.707
 20
35.4712
 11
239
 21
35.5
  0
LINE
  8
0
 10
239
 20
35.5
 11
239.293
 21
35.4712
  0
LINE
  8
0
 10
239.293
 20
35.4712
 11
239.574
 21
35.3858
  0
LINE
  8
0
 10
239.574
 20
35.3858
 11
239.833
 21
35.2472
  0
LINE
  8
0
 10
239.833
 20
35.2472
 11
240.061
 21
35.0607
  0
LINE
  8
0
 10
240.061
 20
35.0607
 11
240.247
 21
34.8333
  0
LINE
  8
0
 10
240.247
 20
34.8333
 11
240.386
 21
34.574
  0
LINE
  8
0
 10
259.833
 20
32.7528
 11
259.574
 21
32.6142
  0
LINE
  8
0
 10
259.574
 20
32.6142
 11
259.293
 21
32.5288
  0
LINE
  8
0
 10
259.293
 20
32.5288
 11
259
 21
32.5
  0
LINE
  8
0
 10
259
 20
32.5
 11
258.707
 21
32.5288
  0
LINE
  8
0
 10
258.707
 20
32.5288
 11
258.426
 21
32.6142
  0
LINE
  8
0
 10
258.426
 20
32.6142
 11
258.167
 21
32.7528
  0
LINE
  8
0
 10
258.167
 20
32.7528
 11
257.939
 21
32.9393
  0
LINE
  8
0
 10
257.939
 20
32.9393
 11
257.753
 21
33.1666
  0
LINE
  8
0
 10
257.753
 20
33.1666
 11
257.614
 21
33.426
  0
LINE
  8
0
 10
257.614
 20
33.426
 11
257.529
 21
33.7074
  0
LINE
  8
0
 10
257.529
 20
33.7074
 11
257.5
 21
34
  0
LINE
  8
0
 10
257.5
 20
34
 11
257.529
 21
34.2926
  0
LINE
  8
0
 10
257.529
 20
34.2926
 11
257.614
 21
34.574
  0
LINE
  8
0
 10
257.614
 20
34.574
 11
257.753
 21
34.8333
  0
LINE
  8
0
 10
257.753
 20
34.8333
 11
257.939
 21
35.0607
  0
LINE
  8
0
 10
257.939
 20
35.0607
 11
258.167
 21
35.2472
  0
LINE
  8
0
 10
258.167
 20
35.2472
 11
258.426
 21
35.3858
  0
LINE
  8
0
 10
258.426
 20
35.3858
 11
258.707
 21
35.4712
  0
LINE
  8
0
 10
258.707
 20
35.4712
 11
259
 21
35.5
  0
LINE
  8
0
 10
259
 20
35.5
 11
259.293
 21
35.4712
  0
LINE
  8
0
 10
259.293
 20
35.4712
 11
259.574
 21
35.3858
  0
LINE
  8
0
 10
259.574
 20
35.3858
 11
259.833
 21
35.2472
  0
LINE
  8
0
 10
259.833
 20
35.2472
 11
260.061
 21
35.0607
  0
LINE
  8
0
 10
260.061
 20
35.0607
 11
260.247
 21
34.8333
  0
LINE
  8
0
 10
260.247
 20
34.8333
 11
260.386
 21
34.574
  0
LINE
  8
0
 10
260.386
 20
34.574
 11
260.471
 21
34.2926
  0
LINE
  8
0
 10
260.471
 20
34.2926
 11
260.5
 21
34
  0
LINE
  8
0
 10
260.5
 20
34
 11
260.471
 21
33.7074
  0
LINE
  8
0
 10
260.471
 20
33.7074
 11
260.386
 21
33.426
  0
LINE
  8
0
 10
260.386
 20
33.426
 11
260.247
 21
33.1666
  0
LINE
  8
0
 10
260.247
 20
33.1666
 11
260.061
 21
32.9393
  0
LINE
  8
0
 10
260.061
 20
32.9393
 11
259.833
 21
32.7528
  0
LINE
  8
0
 10
259.833
 20
28.7528
 11
259.574
 21
28.6142
  0
LINE
  8
0
 10
259.574
 20
28.6142
 11
259.293
 21
28.5288
  0
LINE
  8
0
 10
259.293
 20
28.5288
 11
259
 21
28.5
  0
LINE
  8
0
 10
259
 20
28.5
 11
258.707
 21
28.5288
  0
LINE
  8
0
 10
258.707
 20
28.5288
 11
258.426
 21
28.6142
  0
LINE
  8
0
 10
258.426
 20
28.6142
 11
258.167
 21
28.7528
  0
LINE
  8
0
 10
258.167
 20
28.7528
 11
257.939
 21
28.9393
  0
LINE
  8
0
 10
257.939
 20
28.9393
 11
257.753
 21
29.1666
  0
LINE
  8
0
 10
257.753
 20
29.1666
 11
257.614
 21
29.426
  0
LINE
  8
0
 10
257.614
 20
29.426
 11
257.529
 21
29.7074
  0
LINE
  8
0
 10
257.529
 20
29.7074
 11
257.5
 21
30
  0
LINE
  8
0
 10
257.5
 20
30
 11
257.529
 21
30.2926
  0
LINE
  8
0
 10
257.529
 20
30.2926
 11
257.614
 21
30.574
  0
LINE
  8
0
 10
257.614
 20
30.574
 11
257.753
 21
30.8333
  0
LINE
  8
0
 10
257.753
 20
30.8333
 11
257.939
 21
31.0607
  0
LINE
  8
0
 10
257.939
 20
31.0607
 11
258.167
 21
31.2472
  0
LINE
  8
0
 10
258.167
 20
31.2472
 11
258.426
 21
31.3858
  0
LINE
  8
0
 10
258.426
 20
31.3858
 11
258.707
 21
31.4712
  0
LINE
  8
0
 10
258.707
 20
31.4712
 11
259
 21
31.5
  0
LINE
  8
0
 10
259
 20
31.5
 11
259.293
 21
31.4712
  0
LINE
  8
0
 10
259.293
 20
31.4712
 11
259.574
 21
31.3858
  0
LINE
  8
0
 10
259.574
 20
31.3858
 11
259.833
 21
31.2472
  0
LINE
  8
0
 10
259.833
 20
31.2472
 11
260.061
 21
31.0607
  0
LINE
  8
0
 10
260.061
 20
31.0607
 11
260.247
 21
30.8333
  0
LINE
  8
0
 10
260.247
 20
30.8333
 11
260.386
 21
30.574
  0
LINE
  8
0
 10
260.386
 20
30.574
 11
260.471
 21
30.2926
  0
LINE
  8
0
 10
260.471
 20
30.2926
 11
260.5
 21
30
  0
LINE
  8
0
 10
260.5
 20
30
 11
260.471
 21
29.7074
  0
LINE
  8
0
 10
260.471
 20
29.7074
 11
260.386
 21
29.426
  0
LINE
  8
0
 10
260.386
 20
29.426
 11
260.247
 21
29.1666
  0
LINE
  8
0
 10
260.247
 20
29.1666
 11
260.061
 21
28.9393
  0
LINE
  8
0
 10
260.061
 20
28.9393
 11
259.833
 21
28.7528
  0
LINE
  8
0
 10
247.833
 20
28.7528
 11
247.574
 21
28.6142
  0
LINE
  8
0
 10
247.574
 20
28.6142
 11
247.293
 21
28.5288
  0
LINE
  8
0
 10
247.293
 20
28.5288
 11
247
 21
28.5
  0
LINE
  8
0
 10
247
 20
28.5
 11
246.707
 21
28.5288
  0
LINE
  8
0
 10
246.707
 20
28.5288
 11
246.426
 21
28.6142
  0
LINE
  8
0
 10
246.426
 20
28.6142
 11
246.167
 21
28.7528
  0
LINE
  8
0
 10
246.167
 20
28.7528
 11
245.939
 21
28.9393
  0
LINE
  8
0
 10
245.939
 20
28.9393
 11
245.753
 21
29.1666
  0
LINE
  8
0
 10
245.753
 20
29.1666
 11
245.614
 21
29.426
  0
LINE
  8
0
 10
245.614
 20
29.426
 11
245.529
 21
29.7074
  0
LINE
  8
0
 10
245.529
 20
29.7074
 11
245.5
 21
30
  0
LINE
  8
0
 10
245.5
 20
30
 11
245.529
 21
30.2926
  0
LINE
  8
0
 10
245.529
 20
30.2926
 11
245.614
 21
30.574
  0
LINE
  8
0
 10
245.614
 20
30.574
 11
245.753
 21
30.8333
  0
LINE
  8
0
 10
245.753
 20
30.8333
 11
245.939
 21
31.0607
  0
LINE
  8
0
 10
245.939
 20
31.0607
 11
246.167
 21
31.2472
  0
LINE
  8
0
 10
246.167
 20
31.2472
 11
246.426
 21
31.3858
  0
LINE
  8
0
 10
246.426
 20
31.3858
 11
246.707
 21
31.4712
  0
LINE
  8
0
 10
246.707
 20
31.4712
 11
247
 21
31.5
  0
LINE
  8
0
 10
247
 20
31.5
 11
247.293
 21
31.4712
  0
LINE
  8
0
 10
247.293
 20
31.4712
 11
247.574
 21
31.3858
  0
LINE
  8
0
 10
247.574
 20
31.3858
 11
247.833
 21
31.2472
  0
LINE
  8
0
 10
247.833
 20
31.2472
 11
248.061
 21
31.0607
  0
LINE
  8
0
 10
248.061
 20
31.0607
 11
248.247
 21
30.8333
  0
LINE
  8
0
 10
248.247
 20
30.8333
 11
248.386
 21
30.574
  0
LINE
  8
0
 10
248.386
 20
30.574
 11
248.471
 21
30.2926
  0
LINE
  8
0
 10
248.471
 20
30.2926
 11
248.5
 21
30
  0
LINE
  8
0
 10
248.5
 20
30
 11
248.471
 21
29.7074
  0
LINE
  8
0
 10
248.471
 20
29.7074
 11
248.386
 21
29.426
  0
LINE
  8
0
 10
248.386
 20
29.426
 11
248.247
 21
29.1666
  0
LINE
  8
0
 10
248.247
 20
29.1666
 11
248.061
 21
28.9393
  0
LINE
  8
0
 10
248.061
 20
28.9393
 11
247.833
 21
28.7528
  0
LINE
  8
0
 10
235.833
 20
20.7528
 11
235.574
 21
20.6142
  0
LINE
  8
0
 10
235.574
 20
20.6142
 11
235.293
 21
20.5288
  0
LINE
  8
0
 10
235.293
 20
20.5288
 11
235
 21
20.5
  0
LINE
  8
0
 10
235
 20
20.5
 11
234.707
 21
20.5288
  0
LINE
  8
0
 10
234.707
 20
20.5288
 11
234.426
 21
20.6142
  0
LINE
  8
0
 10
234.426
 20
20.6142
 11
234.167
 21
20.7528
  0
LINE
  8
0
 10
234.167
 20
20.7528
 11
233.939
 21
20.9393
  0
LINE
  8
0
 10
233.939
 20
20.9393
 11
233.753
 21
21.1666
  0
LINE
  8
0
 10
233.753
 20
21.1666
 11
233.614
 21
21.426
  0
LINE
  8
0
 10
233.614
 20
21.426
 11
233.529
 21
21.7074
  0
LINE
  8
0
 10
233.529
 20
21.7074
 11
233.5
 21
22
  0
LINE
  8
0
 10
233.5
 20
22
 11
233.529
 21
22.2926
  0
LINE
  8
0
 10
233.529
 20
22.2926
 11
233.614
 21
22.574
  0
LINE
  8
0
 10
233.614
 20
22.574
 11
233.753
 21
22.8333
  0
LINE
  8
0
 10
233.753
 20
22.8333
 11
233.939
 21
23.0607
  0
LINE
  8
0
 10
233.939
 20
23.0607
 11
234.167
 21
23.2472
  0
LINE
  8
0
 10
234.167
 20
23.2472
 11
234.426
 21
23.3858
  0
LINE
  8
0
 10
234.426
 20
23.3858
 11
234.707
 21
23.4712
  0
LINE
  8
0
 10
234.707
 20
23.4712
 11
235
 21
23.5
  0
LINE
  8
0
 10
235
 20
23.5
 11
235.293
 21
23.4712
  0
LINE
  8
0
 10
235.293
 20
23.4712
 11
235.574
 21
23.3858
  0
LINE
  8
0
 10
235.574
 20
23.3858
 11
235.833
 21
23.2472
  0
LINE
  8
0
 10
235.833
 20
23.2472
 11
236.061
 21
23.0607
  0
LINE
  8
0
 10
236.061
 20
23.0607
 11
236.247
 21
22.8333
  0
LINE
  8
0
 10
236.247
 20
22.8333
 11
236.386
 21
22.574
  0
LINE
  8
0
 10
236.386
 20
22.574
 11
236.471
 21
22.2926
  0
LINE
  8
0
 10
236.471
 20
22.2926
 11
236.5
 21
22
  0
LINE
  8
0
 10
236.5
 20
22
 11
236.471
 21
21.7074
  0
LINE
  8
0
 10
236.471
 20
21.7074
 11
236.386
 21
21.426
  0
LINE
  8
0
 10
236.386
 20
21.426
 11
236.247
 21
21.1666
  0
LINE
  8
0
 10
236.247
 20
21.1666
 11
236.061
 21
20.9393
  0
LINE
  8
0
 10
236.061
 20
20.9393
 11
235.833
 21
20.7528
  0
LINE
  8
0
 10
247.833
 20
20.7528
 11
247.574
 21
20.6142
  0
LINE
  8
0
 10
247.574
 20
20.6142
 11
247.293
 21
20.5288
  0
LINE
  8
0
 10
247.293
 20
20.5288
 11
247
 21
20.5
  0
LINE
  8
0
 10
247
 20
20.5
 11
246.707
 21
20.5288
  0
LINE
  8
0
 10
246.707
 20
20.5288
 11
246.426
 21
20.6142
  0
LINE
  8
0
 10
246.426
 20
20.6142
 11
246.167
 21
20.7528
  0
LINE
  8
0
 10
246.167
 20
20.7528
 11
245.939
 21
20.9393
  0
LINE
  8
0
 10
245.939
 20
20.9393
 11
245.753
 21
21.1666
  0
LINE
  8
0
 10
245.753
 20
21.1666
 11
245.614
 21
21.426
  0
LINE
  8
0
 10
245.614
 20
21.426
 11
245.529
 21
21.7074
  0
LINE
  8
0
 10
245.529
 20
21.7074
 11
245.5
 21
22
  0
LINE
  8
0
 10
245.5
 20
22
 11
245.529
 21
22.2926
  0
LINE
  8
0
 10
245.529
 20
22.2926
 11
245.614
 21
22.574
  0
LINE
  8
0
 10
245.614
 20
22.574
 11
245.753
 21
22.8333
  0
LINE
  8
0
 10
245.753
 20
22.8333
 11
245.939
 21
23.0607
  0
LINE
  8
0
 10
245.939
 20
23.0607
 11
246.167
 21
23.2472
  0
LINE
  8
0
 10
246.167
 20
23.2472
 11
246.426
 21
23.3858
  0
LINE
  8
0
 10
246.426
 20
23.3858
 11
246.707
 21
23.4712
  0
LINE
  8
0
 10
246.707
 20
23.4712
 11
247
 21
23.5
  0
LINE
  8
0
 10
247
 20
23.5
 11
247.293
 21
23.4712
  0
LINE
  8
0
 10
247.293
 20
23.4712
 11
247.574
 21
23.3858
  0
LINE
  8
0
 10
247.574
 20
23.3858
 11
247.833
 21
23.2472
  0
LINE
  8
0
 10
247.833
 20
23.2472
 11
248.061
 21
23.0607
  0
LINE
  8
0
 10
248.061
 20
23.0607
 11
248.247
 21
22.8333
  0
LINE
  8
0
 10
248.247
 20
22.8333
 11
248.386
 21
22.574
  0
LINE
  8
0
 10
248.386
 20
22.574
 11
248.471
 21
22.2926
  0
LINE
  8
0
 10
248.471
 20
22.2926
 11
248.5
 21
22
  0
LINE
  8
0
 10
248.5
 20
22
 11
248.471
 21
21.7074
  0
LINE
  8
0
 10
248.471
 20
21.7074
 11
248.386
 21
21.426
  0
LINE
  8
0
 10
248.386
 20
21.426
 11
248.247
 21
21.1666
  0
LINE
  8
0
 10
248.247
 20
21.1666
 11
248.061
 21
20.9393
  0
LINE
  8
0
 10
248.061
 20
20.9393
 11
247.833
 21
20.7528
  0
LINE
  8
0
 10
255.833
 20
20.7528
 11
255.574
 21
20.6142
  0
LINE
  8
0
 10
255.574
 20
20.6142
 11
255.293
 21
20.5288
  0
LINE
  8
0
 10
255.293
 20
20.5288
 11
255
 21
20.5
  0
LINE
  8
0
 10
255
 20
20.5
 11
254.707
 21
20.5288
  0
LINE
  8
0
 10
254.707
 20
20.5288
 11
254.426
 21
20.6142
  0
LINE
  8
0
 10
254.426
 20
20.6142
 11
254.167
 21
20.7528
  0
LINE
  8
0
 10
254.167
 20
20.7528
 11
253.939
 21
20.9393
  0
LINE
  8
0
 10
253.939
 20
20.9393
 11
253.753
 21
21.1666
  0
LINE
  8
0
 10
253.753
 20
21.1666
 11
253.614
 21
21.426
  0
LINE
  8
0
 10
253.614
 20
21.426
 11
253.529
 21
21.7074
  0
LINE
  8
0
 10
253.529
 20
21.7074
 11
253.5
 21
22
  0
LINE
  8
0
 10
253.5
 20
22
 11
253.529
 21
22.2926
  0
LINE
  8
0
 10
253.529
 20
22.2926
 11
253.614
 21
22.574
  0
LINE
  8
0
 10
253.614
 20
22.574
 11
253.753
 21
22.8333
  0
LINE
  8
0
 10
253.753
 20
22.8333
 11
253.939
 21
23.0607
  0
LINE
  8
0
 10
253.939
 20
23.0607
 11
254.167
 21
23.2472
  0
LINE
  8
0
 10
254.167
 20
23.2472
 11
254.426
 21
23.3858
  0
LINE
  8
0
 10
254.426
 20
23.3858
 11
254.707
 21
23.4712
  0
LINE
  8
0
 10
254.707
 20
23.4712
 11
255
 21
23.5
  0
LINE
  8
0
 10
255
 20
23.5
 11
255.293
 21
23.4712
  0
LINE
  8
0
 10
255.293
 20
23.4712
 11
255.574
 21
23.3858
  0
LINE
  8
0
 10
255.574
 20
23.3858
 11
255.833
 21
23.2472
  0
LINE
  8
0
 10
255.833
 20
23.2472
 11
256.061
 21
23.0607
  0
LINE
  8
0
 10
256.061
 20
23.0607
 11
256.247
 21
22.8333
  0
LINE
  8
0
 10
256.247
 20
22.8333
 11
256.386
 21
22.574
  0
LINE
  8
0
 10
256.386
 20
22.574
 11
256.471
 21
22.2926
  0
LINE
  8
0
 10
256.471
 20
22.2926
 11
256.5
 21
22
  0
LINE
  8
0
 10
256.5
 20
22
 11
256.471
 21
21.7074
  0
LINE
  8
0
 10
256.471
 20
21.7074
 11
256.386
 21
21.426
  0
LINE
  8
0
 10
256.386
 20
21.426
 11
256.247
 21
21.1666
  0
LINE
  8
0
 10
256.247
 20
21.1666
 11
256.061
 21
20.9393
  0
LINE
  8
0
 10
256.061
 20
20.9393
 11
255.833
 21
20.7528
  0
LINE
  8
0
 10
237.529
 20
21.7074
 11
237.5
 21
22
  0
LINE
  8
0
 10
237.5
 20
22
 11
237.529
 21
22.2926
  0
LINE
  8
0
 10
237.529
 20
22.2926
 11
237.614
 21
22.574
  0
LINE
  8
0
 10
237.614
 20
22.574
 11
237.753
 21
22.8333
  0
LINE
  8
0
 10
237.753
 20
22.8333
 11
237.939
 21
23.0607
  0
LINE
  8
0
 10
237.939
 20
23.0607
 11
238.167
 21
23.2472
  0
LINE
  8
0
 10
238.167
 20
23.2472
 11
238.426
 21
23.3858
  0
LINE
  8
0
 10
238.426
 20
23.3858
 11
238.707
 21
23.4712
  0
LINE
  8
0
 10
238.707
 20
23.4712
 11
239
 21
23.5
  0
LINE
  8
0
 10
239
 20
23.5
 11
239.293
 21
23.4712
  0
LINE
  8
0
 10
239.293
 20
23.4712
 11
239.574
 21
23.3858
  0
LINE
  8
0
 10
239.574
 20
23.3858
 11
239.833
 21
23.2472
  0
LINE
  8
0
 10
239.833
 20
23.2472
 11
240.061
 21
23.0607
  0
LINE
  8
0
 10
240.061
 20
23.0607
 11
240.247
 21
22.8333
  0
LINE
  8
0
 10
240.247
 20
22.8333
 11
240.386
 21
22.574
  0
LINE
  8
0
 10
240.386
 20
22.574
 11
240.471
 21
22.2926
  0
LINE
  8
0
 10
240.471
 20
22.2926
 11
240.5
 21
22
  0
LINE
  8
0
 10
240.5
 20
22
 11
240.471
 21
21.7074
  0
LINE
  8
0
 10
240.471
 20
21.7074
 11
240.386
 21
21.426
  0
LINE
  8
0
 10
240.386
 20
21.426
 11
240.247
 21
21.1666
  0
LINE
  8
0
 10
240.247
 20
21.1666
 11
240.061
 21
20.9393
  0
LINE
  8
0
 10
240.061
 20
20.9393
 11
239.833
 21
20.7528
  0
LINE
  8
0
 10
239.833
 20
20.7528
 11
239.574
 21
20.6142
  0
LINE
  8
0
 10
239.574
 20
20.6142
 11
239.293
 21
20.5288
  0
LINE
  8
0
 10
239.293
 20
20.5288
 11
239
 21
20.5
  0
LINE
  8
0
 10
239
 20
20.5
 11
238.707
 21
20.5288
  0
LINE
  8
0
 10
238.707
 20
20.5288
 11
238.426
 21
20.6142
  0
LINE
  8
0
 10
238.426
 20
20.6142
 11
238.167
 21
20.7528
  0
LINE
  8
0
 10
238.167
 20
20.7528
 11
237.939
 21
20.9393
  0
LINE
  8
0
 10
237.939
 20
20.9393
 11
237.753
 21
21.1666
  0
LINE
  8
0
 10
237.753
 20
21.1666
 11
237.614
 21
21.426
  0
LINE
  8
0
 10
237.614
 20
21.426
 11
237.529
 21
21.7074
  0
LINE
  8
0
 10
244.386
 20
18.574
 11
244.471
 21
18.2926
  0
LINE
  8
0
 10
244.471
 20
18.2926
 11
244.5
 21
18
  0
LINE
  8
0
 10
244.5
 20
18
 11
244.471
 21
17.7074
  0
LINE
  8
0
 10
244.471
 20
17.7074
 11
244.386
 21
17.426
  0
LINE
  8
0
 10
244.386
 20
17.426
 11
244.247
 21
17.1666
  0
LINE
  8
0
 10
244.247
 20
17.1666
 11
244.061
 21
16.9393
  0
LINE
  8
0
 10
244.061
 20
16.9393
 11
243.833
 21
16.7528
  0
LINE
  8
0
 10
243.833
 20
16.7528
 11
243.574
 21
16.6142
  0
LINE
  8
0
 10
243.574
 20
16.6142
 11
243.293
 21
16.5288
  0
LINE
  8
0
 10
243.293
 20
16.5288
 11
243
 21
16.5
  0
LINE
  8
0
 10
243
 20
16.5
 11
242.707
 21
16.5288
  0
LINE
  8
0
 10
242.707
 20
16.5288
 11
242.426
 21
16.6142
  0
LINE
  8
0
 10
242.426
 20
16.6142
 11
242.167
 21
16.7528
  0
LINE
  8
0
 10
242.167
 20
16.7528
 11
241.939
 21
16.9393
  0
LINE
  8
0
 10
241.939
 20
16.9393
 11
241.753
 21
17.1666
  0
LINE
  8
0
 10
241.753
 20
17.1666
 11
241.614
 21
17.426
  0
LINE
  8
0
 10
241.614
 20
17.426
 11
241.529
 21
17.7074
  0
LINE
  8
0
 10
241.529
 20
17.7074
 11
241.5
 21
18
  0
LINE
  8
0
 10
241.5
 20
18
 11
241.529
 21
18.2926
  0
LINE
  8
0
 10
241.529
 20
18.2926
 11
241.614
 21
18.574
  0
LINE
  8
0
 10
241.614
 20
18.574
 11
241.753
 21
18.8333
  0
LINE
  8
0
 10
241.753
 20
18.8333
 11
241.939
 21
19.0607
  0
LINE
  8
0
 10
241.939
 20
19.0607
 11
242.167
 21
19.2472
  0
LINE
  8
0
 10
242.167
 20
19.2472
 11
242.426
 21
19.3858
  0
LINE
  8
0
 10
242.426
 20
19.3858
 11
242.707
 21
19.4712
  0
LINE
  8
0
 10
242.707
 20
19.4712
 11
243
 21
19.5
  0
LINE
  8
0
 10
243
 20
19.5
 11
243.293
 21
19.4712
  0
LINE
  8
0
 10
243.293
 20
19.4712
 11
243.574
 21
19.3858
  0
LINE
  8
0
 10
243.574
 20
19.3858
 11
243.833
 21
19.2472
  0
LINE
  8
0
 10
243.833
 20
19.2472
 11
244.061
 21
19.0607
  0
LINE
  8
0
 10
244.061
 20
19.0607
 11
244.247
 21
18.8333
  0
LINE
  8
0
 10
244.247
 20
18.8333
 11
244.386
 21
18.574
  0
LINE
  8
0
 10
235.574
 20
16.6142
 11
235.293
 21
16.5288
  0
LINE
  8
0
 10
235.293
 20
16.5288
 11
235
 21
16.5
  0
LINE
  8
0
 10
235
 20
16.5
 11
234.707
 21
16.5288
  0
LINE
  8
0
 10
234.707
 20
16.5288
 11
234.426
 21
16.6142
  0
LINE
  8
0
 10
234.426
 20
16.6142
 11
234.167
 21
16.7528
  0
LINE
  8
0
 10
234.167
 20
16.7528
 11
233.939
 21
16.9393
  0
LINE
  8
0
 10
233.939
 20
16.9393
 11
233.753
 21
17.1666
  0
LINE
  8
0
 10
233.753
 20
17.1666
 11
233.614
 21
17.426
  0
LINE
  8
0
 10
233.614
 20
17.426
 11
233.529
 21
17.7074
  0
LINE
  8
0
 10
233.529
 20
17.7074
 11
233.5
 21
18
  0
LINE
  8
0
 10
233.5
 20
18
 11
233.529
 21
18.2926
  0
LINE
  8
0
 10
233.529
 20
18.2926
 11
233.614
 21
18.574
  0
LINE
  8
0
 10
233.614
 20
18.574
 11
233.753
 21
18.8333
  0
LINE
  8
0
 10
233.753
 20
18.8333
 11
233.939
 21
19.0607
  0
LINE
  8
0
 10
233.939
 20
19.0607
 11
234.167
 21
19.2472
  0
LINE
  8
0
 10
234.167
 20
19.2472
 11
234.426
 21
19.3858
  0
LINE
  8
0
 10
234.426
 20
19.3858
 11
234.707
 21
19.4712
  0
LINE
  8
0
 10
234.707
 20
19.4712
 11
235
 21
19.5
  0
LINE
  8
0
 10
235
 20
19.5
 11
235.293
 21
19.4712
  0
LINE
  8
0
 10
235.293
 20
19.4712
 11
235.574
 21
19.3858
  0
LINE
  8
0
 10
235.574
 20
19.3858
 11
235.833
 21
19.2472
  0
LINE
  8
0
 10
235.833
 20
19.2472
 11
236.061
 21
19.0607
  0
LINE
  8
0
 10
236.061
 20
19.0607
 11
236.247
 21
18.8333
  0
LINE
  8
0
 10
236.247
 20
18.8333
 11
236.386
 21
18.574
  0
LINE
  8
0
 10
236.386
 20
18.574
 11
236.471
 21
18.2926
  0
LINE
  8
0
 10
236.471
 20
18.2926
 11
236.5
 21
18
  0
LINE
  8
0
 10
236.5
 20
18
 11
236.471
 21
17.7074
  0
LINE
  8
0
 10
236.471
 20
17.7074
 11
236.386
 21
17.426
  0
LINE
  8
0
 10
236.386
 20
17.426
 11
236.247
 21
17.1666
  0
LINE
  8
0
 10
236.247
 20
17.1666
 11
236.061
 21
16.9393
  0
LINE
  8
0
 10
236.061
 20
16.9393
 11
235.833
 21
16.7528
  0
LINE
  8
0
 10
235.833
 20
16.7528
 11
235.574
 21
16.6142
  0
LINE
  8
0
 10
244.386
 20
14.574
 11
244.471
 21
14.2926
  0
LINE
  8
0
 10
244.471
 20
14.2926
 11
244.5
 21
14
  0
LINE
  8
0
 10
244.5
 20
14
 11
244.471
 21
13.7074
  0
LINE
  8
0
 10
244.471
 20
13.7074
 11
244.386
 21
13.426
  0
LINE
  8
0
 10
244.386
 20
13.426
 11
244.247
 21
13.1666
  0
LINE
  8
0
 10
244.247
 20
13.1666
 11
244.061
 21
12.9393
  0
LINE
  8
0
 10
244.061
 20
12.9393
 11
243.833
 21
12.7528
  0
LINE
  8
0
 10
243.833
 20
12.7528
 11
243.574
 21
12.6142
  0
LINE
  8
0
 10
243.574
 20
12.6142
 11
243.293
 21
12.5288
  0
LINE
  8
0
 10
243.293
 20
12.5288
 11
243
 21
12.5
  0
LINE
  8
0
 10
243
 20
12.5
 11
242.707
 21
12.5288
  0
LINE
  8
0
 10
242.707
 20
12.5288
 11
242.426
 21
12.6142
  0
LINE
  8
0
 10
242.426
 20
12.6142
 11
242.167
 21
12.7528
  0
LINE
  8
0
 10
242.167
 20
12.7528
 11
241.939
 21
12.9393
  0
LINE
  8
0
 10
241.939
 20
12.9393
 11
241.753
 21
13.1666
  0
LINE
  8
0
 10
241.753
 20
13.1666
 11
241.614
 21
13.426
  0
LINE
  8
0
 10
241.614
 20
13.426
 11
241.529
 21
13.7074
  0
LINE
  8
0
 10
241.529
 20
13.7074
 11
241.5
 21
14
  0
LINE
  8
0
 10
241.5
 20
14
 11
241.529
 21
14.2926
  0
LINE
  8
0
 10
241.529
 20
14.2926
 11
241.614
 21
14.574
  0
LINE
  8
0
 10
241.614
 20
14.574
 11
241.753
 21
14.8333
  0
LINE
  8
0
 10
241.753
 20
14.8333
 11
241.939
 21
15.0607
  0
LINE
  8
0
 10
241.939
 20
15.0607
 11
242.167
 21
15.2472
  0
LINE
  8
0
 10
242.167
 20
15.2472
 11
242.426
 21
15.3858
  0
LINE
  8
0
 10
242.426
 20
15.3858
 11
242.707
 21
15.4712
  0
LINE
  8
0
 10
242.707
 20
15.4712
 11
243
 21
15.5
  0
LINE
  8
0
 10
243
 20
15.5
 11
243.293
 21
15.4712
  0
LINE
  8
0
 10
243.293
 20
15.4712
 11
243.574
 21
15.3858
  0
LINE
  8
0
 10
243.574
 20
15.3858
 11
243.833
 21
15.2472
  0
LINE
  8
0
 10
243.833
 20
15.2472
 11
244.061
 21
15.0607
  0
LINE
  8
0
 10
244.061
 20
15.0607
 11
244.247
 21
14.8333
  0
LINE
  8
0
 10
244.247
 20
14.8333
 11
244.386
 21
14.574
  0
LINE
  8
0
 10
255.833
 20
12.7528
 11
255.574
 21
12.6142
  0
LINE
  8
0
 10
255.574
 20
12.6142
 11
255.293
 21
12.5288
  0
LINE
  8
0
 10
255.293
 20
12.5288
 11
255
 21
12.5
  0
LINE
  8
0
 10
255
 20
12.5
 11
254.707
 21
12.5288
  0
LINE
  8
0
 10
254.707
 20
12.5288
 11
254.426
 21
12.6142
  0
LINE
  8
0
 10
254.426
 20
12.6142
 11
254.167
 21
12.7528
  0
LINE
  8
0
 10
254.167
 20
12.7528
 11
253.939
 21
12.9393
  0
LINE
  8
0
 10
253.939
 20
12.9393
 11
253.753
 21
13.1666
  0
LINE
  8
0
 10
253.753
 20
13.1666
 11
253.614
 21
13.426
  0
LINE
  8
0
 10
253.614
 20
13.426
 11
253.529
 21
13.7074
  0
LINE
  8
0
 10
253.529
 20
13.7074
 11
253.5
 21
14
  0
LINE
  8
0
 10
253.5
 20
14
 11
253.529
 21
14.2926
  0
LINE
  8
0
 10
253.529
 20
14.2926
 11
253.614
 21
14.574
  0
LINE
  8
0
 10
253.614
 20
14.574
 11
253.753
 21
14.8333
  0
LINE
  8
0
 10
253.753
 20
14.8333
 11
253.939
 21
15.0607
  0
LINE
  8
0
 10
253.939
 20
15.0607
 11
254.167
 21
15.2472
  0
LINE
  8
0
 10
254.167
 20
15.2472
 11
254.426
 21
15.3858
  0
LINE
  8
0
 10
254.426
 20
15.3858
 11
254.707
 21
15.4712
  0
LINE
  8
0
 10
254.707
 20
15.4712
 11
255
 21
15.5
  0
LINE
  8
0
 10
255
 20
15.5
 11
255.293
 21
15.4712
  0
LINE
  8
0
 10
255.293
 20
15.4712
 11
255.574
 21
15.3858
  0
LINE
  8
0
 10
255.574
 20
15.3858
 11
255.833
 21
15.2472
  0
LINE
  8
0
 10
255.833
 20
15.2472
 11
256.061
 21
15.0607
  0
LINE
  8
0
 10
256.061
 20
15.0607
 11
256.247
 21
14.8333
  0
LINE
  8
0
 10
256.247
 20
14.8333
 11
256.386
 21
14.574
  0
LINE
  8
0
 10
256.386
 20
14.574
 11
256.471
 21
14.2926
  0
LINE
  8
0
 10
256.471
 20
14.2926
 11
256.5
 21
14
  0
LINE
  8
0
 10
256.5
 20
14
 11
256.471
 21
13.7074
  0
LINE
  8
0
 10
256.471
 20
13.7074
 11
256.386
 21
13.426
  0
LINE
  8
0
 10
256.386
 20
13.426
 11
256.247
 21
13.1666
  0
LINE
  8
0
 10
256.247
 20
13.1666
 11
256.061
 21
12.9393
  0
LINE
  8
0
 10
256.061
 20
12.9393
 11
255.833
 21
12.7528
  0
LINE
  8
0
 10
246.426
 20
15.3858
 11
246.707
 21
15.4712
  0
LINE
  8
0
 10
246.707
 20
15.4712
 11
247
 21
15.5
  0
LINE
  8
0
 10
247
 20
15.5
 11
247.293
 21
15.4712
  0
LINE
  8
0
 10
247.293
 20
15.4712
 11
247.574
 21
15.3858
  0
LINE
  8
0
 10
247.574
 20
15.3858
 11
247.833
 21
15.2472
  0
LINE
  8
0
 10
247.833
 20
15.2472
 11
248.061
 21
15.0607
  0
LINE
  8
0
 10
248.061
 20
15.0607
 11
248.247
 21
14.8333
  0
LINE
  8
0
 10
248.247
 20
14.8333
 11
248.386
 21
14.574
  0
LINE
  8
0
 10
248.386
 20
14.574
 11
248.471
 21
14.2926
  0
LINE
  8
0
 10
248.471
 20
14.2926
 11
248.5
 21
14
  0
LINE
  8
0
 10
248.5
 20
14
 11
248.471
 21
13.7074
  0
LINE
  8
0
 10
248.471
 20
13.7074
 11
248.386
 21
13.426
  0
LINE
  8
0
 10
248.386
 20
13.426
 11
248.247
 21
13.1666
  0
LINE
  8
0
 10
248.247
 20
13.1666
 11
248.061
 21
12.9393
  0
LINE
  8
0
 10
248.061
 20
12.9393
 11
247.833
 21
12.7528
  0
LINE
  8
0
 10
247.833
 20
12.7528
 11
247.574
 21
12.6142
  0
LINE
  8
0
 10
247.574
 20
12.6142
 11
247.293
 21
12.5288
  0
LINE
  8
0
 10
247.293
 20
12.5288
 11
247
 21
12.5
  0
LINE
  8
0
 10
247
 20
12.5
 11
246.707
 21
12.5288
  0
LINE
  8
0
 10
246.707
 20
12.5288
 11
246.426
 21
12.6142
  0
LINE
  8
0
 10
246.426
 20
12.6142
 11
246.167
 21
12.7528
  0
LINE
  8
0
 10
246.167
 20
12.7528
 11
245.939
 21
12.9393
  0
LINE
  8
0
 10
245.939
 20
12.9393
 11
245.753
 21
13.1666
  0
LINE
  8
0
 10
245.753
 20
13.1666
 11
245.614
 21
13.426
  0
LINE
  8
0
 10
245.614
 20
13.426
 11
245.529
 21
13.7074
  0
LINE
  8
0
 10
245.529
 20
13.7074
 11
245.5
 21
14
  0
LINE
  8
0
 10
245.5
 20
14
 11
245.529
 21
14.2926
  0
LINE
  8
0
 10
245.529
 20
14.2926
 11
245.614
 21
14.574
  0
LINE
  8
0
 10
245.614
 20
14.574
 11
245.753
 21
14.8333
  0
LINE
  8
0
 10
245.753
 20
14.8333
 11
245.939
 21
15.0607
  0
LINE
  8
0
 10
245.939
 20
15.0607
 11
246.167
 21
15.2472
  0
LINE
  8
0
 10
246.167
 20
15.2472
 11
246.426
 21
15.3858
  0
ENDSEC
  0
SECTION
  2
OBJECTS
  0
DICTIONARY
  0
ENDSEC
  0
EOF
